<svg xmlns="http://www.w3.org/2000/svg" width="79" height="75.51" viewBox="0 0 79 75.51">
  <g id="Grupo_1102630" data-name="Grupo 1102630" transform="translate(-201 -491)">
    <rect id="Rect치ngulo_402171" data-name="Rect치ngulo 402171" width="33" height="31" transform="translate(201 491)" fill="#e8faf9"/>
    <rect id="Rect치ngulo_402179" data-name="Rect치ngulo 402179" width="33" height="31" transform="translate(247 534)" fill="#e8faf9"/>
    <g id="Grupo_1102629" data-name="Grupo 1102629" transform="translate(207.201 495.201)">
      <path id="Trazado_878893" data-name="Trazado 878893" d="M67.859,34.5H57.507V13.754a2.193,2.193,0,0,0-.642-1.548L45.3.642A2.193,2.193,0,0,0,43.754,0H1.542A1.541,1.541,0,0,0,0,1.542V69.767a1.541,1.541,0,0,0,1.542,1.542H55.965a1.541,1.541,0,0,0,1.542-1.542V64.418H67.859a3.452,3.452,0,0,0,3.45-3.455V37.954A3.454,3.454,0,0,0,67.859,34.5ZM44.865,3.444l9.211,9.211H44.865ZM2.3,69.009V2.3H42.565V13.8a1.143,1.143,0,0,0,1.144,1.144h11.5V34.5H31.055a3.457,3.457,0,0,0-3.453,3.45v23a3.455,3.455,0,0,0,3.453,3.45H55.208l.012,4.6Zm65.571-6.9H31.055a1.149,1.149,0,0,1-1.15-1.15V47.26h39.1l.012,13.7A1.149,1.149,0,0,1,67.871,62.107ZM29.905,44.957v-2.3h39.1l.012,2.3Zm0-4.6v-2.4a1.149,1.149,0,0,1,1.15-1.15h36.8a1.153,1.153,0,0,1,1.15,1.15l.012,2.4Z" fill="#22cac5"/>
      <path id="Trazado_878894" data-name="Trazado 878894" d="M28.959,19.357H11.744a1.144,1.144,0,0,0,0,2.288H28.959a1.144,1.144,0,0,0,0-2.288Z" transform="translate(20.895 38.156)" fill="#22cac5"/>
      <path id="Trazado_878895" data-name="Trazado 878895" d="M11.742,20.1a.755.755,0,0,0,.116,0H14.65a1.144,1.144,0,0,0,.116-2.285.754.754,0,0,0-.116,0H11.857a1.144,1.144,0,0,0-.116,2.285Z" transform="translate(21.004 35.103)" fill="#22cac5"/>
      <path id="Trazado_878896" data-name="Trazado 878896" d="M14.094,20.095a.755.755,0,0,0,.116,0h2.8a1.144,1.144,0,0,0,0-2.285h-2.8a1.144,1.144,0,1,0-.116,2.285Z" transform="translate(25.64 35.104)" fill="#22cac5"/>
      <path id="Trazado_878897" data-name="Trazado 878897" d="M16.447,20.1a.755.755,0,0,0,.116,0h2.793a1.144,1.144,0,1,0,.116-2.285.754.754,0,0,0-.116,0H16.562a1.144,1.144,0,1,0-.116,2.285Z" transform="translate(30.278 35.103)" fill="#22cac5"/>
      <path id="Trazado_878898" data-name="Trazado 878898" d="M11.658,12.059a.754.754,0,0,0,.116,0H31.663a1.144,1.144,0,0,0,.116-2.285.754.754,0,0,0-.116,0H11.773a1.144,1.144,0,1,0-.116,2.285Z" transform="translate(20.838 19.263)" fill="#22cac5"/>
      <path id="Trazado_878899" data-name="Trazado 878899" d="M11.735,8.392H31.624a1.144,1.144,0,1,0,0-2.288H11.735a1.144,1.144,0,1,0,0,2.288Z" transform="translate(20.877 12.032)" fill="#22cac5"/>
      <path id="Trazado_878900" data-name="Trazado 878900" d="M11.735,10.226H31.624a1.144,1.144,0,1,0,0-2.288H11.735a1.144,1.144,0,1,0,0,2.288Z" transform="translate(20.877 15.647)" fill="#22cac5"/>
      <path id="Trazado_878901" data-name="Trazado 878901" d="M22.148,11.228H2.538a1.144,1.144,0,0,0,0,2.288H22.151a1.144,1.144,0,1,0,0-2.288Z" transform="translate(2.748 22.133)" fill="#22cac5"/>
      <path id="Trazado_878902" data-name="Trazado 878902" d="M22.148,12.776H2.538a1.144,1.144,0,0,0,0,2.288h19.61a1.144,1.144,0,0,0,0-2.288Z" transform="translate(2.748 25.184)" fill="#22cac5"/>
      <path id="Trazado_878903" data-name="Trazado 878903" d="M17.362,16.618a1.144,1.144,0,1,0,0-2.288H2.536a1.144,1.144,0,0,0,0,2.288Z" transform="translate(2.744 28.247)" fill="#22cac5"/>
      <path id="Trazado_878904" data-name="Trazado 878904" d="M13.994,26.69A12.619,12.619,0,1,0,1.372,14.072,12.617,12.617,0,0,0,13.994,26.69Zm0-22.944A10.325,10.325,0,1,1,3.669,14.072,10.326,10.326,0,0,1,13.994,3.747Z" transform="translate(2.704 2.864)" fill="#22cac5"/>
      <path id="Trazado_878905" data-name="Trazado 878905" d="M6.383,14.274a1.15,1.15,0,0,0-2.3.021A4.1,4.1,0,0,0,7.5,18.068v1.156a1.153,1.153,0,0,0,2.3,0V18.068a4.1,4.1,0,0,0,3.414-3.794,4.062,4.062,0,0,0-3.435-3.753V7.44A1.589,1.589,0,0,1,10.9,8.789a1.15,1.15,0,1,0,2.3-.021A4.088,4.088,0,0,0,9.8,5V3.836a1.153,1.153,0,0,0-2.3,0V5A4.093,4.093,0,0,0,4.083,8.789a4.055,4.055,0,0,0,3.423,3.753v3.081A1.589,1.589,0,0,1,6.383,14.274Zm3.4-1.343A1.586,1.586,0,0,1,10.9,14.274a1.611,1.611,0,0,1-1.123,1.343Zm-3.4-4.154A1.591,1.591,0,0,1,7.506,7.44v2.674A1.616,1.616,0,0,1,6.383,8.778Z" transform="translate(8.048 5.404)" fill="#22cac5"/>
      <path id="Trazado_878906" data-name="Trazado 878906" d="M27.487,17.8H20.5a1.16,1.16,0,0,0-1.159,1.159v4.6A1.16,1.16,0,0,0,20.5,24.721h6.988a1.16,1.16,0,0,0,1.162-1.156v-4.6A1.16,1.16,0,0,0,27.487,17.8Zm-1.162,4.6H21.655V20.119h4.671Z" transform="translate(38.117 35.095)" fill="#22cac5"/>
      <path id="Trazado_878907" data-name="Trazado 878907" d="M20.05,16.224l-3.034,3.583a8.994,8.994,0,1,0,1.548,1.711l3.23-3.818a1.143,1.143,0,1,0-1.744-1.477ZM10.878,33.736a7,7,0,1,1,4.668-12.188l-4.92,5.818L8.641,25.381A1.145,1.145,0,0,0,7.021,27l2.864,2.864a1.147,1.147,0,0,0,.808.333h.048a1.158,1.158,0,0,0,.826-.4l5.422-6.409a6.919,6.919,0,0,1,.891,3.349A7.008,7.008,0,0,1,10.878,33.736Z" transform="translate(3.128 31.178)" fill="#22cac5"/>
    </g>
  </g>
</svg>
