<svg xmlns="http://www.w3.org/2000/svg" xmlns:xlink="http://www.w3.org/1999/xlink" width="85.002" height="77" viewBox="0 0 85.002 77">
  <defs>
    <clipPath id="clip-path">
      <rect id="Rectángulo_401202" data-name="Rectángulo 401202" width="32.919" height="32.919" fill="#a6eae8"/>
    </clipPath>
    <clipPath id="clip-path-2">
      <rect id="Rectángulo_401202-2" data-name="Rectángulo 401202" width="32.919" height="32.919" fill="#f6ede6"/>
    </clipPath>
  </defs>
  <g id="Grupo_1102633" data-name="Grupo 1102633" transform="translate(-494.999 -809)">
    <rect id="Rectángulo_402167" data-name="Rectángulo 402167" width="85" height="77" rx="10" transform="translate(495 809)" fill="#d2f5f4"/>
    <g id="Grupo_1102626" data-name="Grupo 1102626" transform="translate(547.082 853.081)">
      <g id="Grupo_1099017" data-name="Grupo 1099017" clip-path="url(#clip-path)">
        <path id="Trazado_872998" data-name="Trazado 872998" d="M15.293,32.919A17.646,17.646,0,0,1,32.919,15.293V0A32.956,32.956,0,0,0,0,32.919Z" transform="translate(0 0)" fill="#a6eae8"/>
      </g>
    </g>
    <g id="Grupo_1102632" data-name="Grupo 1102632" transform="translate(527.918 841.919) rotate(180)">
      <g id="Grupo_1099017-2" data-name="Grupo 1099017" clip-path="url(#clip-path-2)">
        <path id="Trazado_872998-2" data-name="Trazado 872998" d="M15.293,32.919A17.646,17.646,0,0,1,32.919,15.293V0A32.956,32.956,0,0,0,0,32.919Z" transform="translate(0 0)" fill="#f6ede6"/>
      </g>
    </g>
    <path id="Trazado_878916" data-name="Trazado 878916" d="M21.282,95.348a.868.868,0,1,1-1.737,0A15.721,15.721,0,0,1,44.052,82.313l-.376-1.186a.869.869,0,1,1,1.656-.525l1.263,3.983a.868.868,0,0,1-.828,1.131h-.04l-4-.183A.868.868,0,1,1,41.8,83.8l1.435.066A13.983,13.983,0,0,0,21.282,95.348Zm45.248,0a.868.868,0,0,1-.868.868H55.208a.868.868,0,0,1-.868-.868,19.075,19.075,0,0,0-38.15,0,.868.868,0,0,1-.868.868H4.868A.868.868,0,0,1,4,95.348,31.264,31.264,0,0,1,57.372,73.24,31.06,31.06,0,0,1,66.529,95.348ZM17.8,84.044l-7.116-5.038A29.348,29.348,0,0,0,5.749,94.479H14.47A20.678,20.678,0,0,1,17.8,84.044Zm9.939-8.1L24.925,67.69a29.67,29.67,0,0,0-13.235,9.9L18.8,82.628A20.915,20.915,0,0,1,27.737,75.945Zm7.528-1.409a20.773,20.773,0,0,1,5.275.679L43.1,66.876a29.583,29.583,0,0,0-16.532.251l2.813,8.256a20.748,20.748,0,0,1,5.884-.848Zm16.067,7.6,6.957-5.251A29.64,29.64,0,0,0,44.76,67.388L42.2,75.724a20.894,20.894,0,0,1,9.132,6.409ZM64.78,94.479a29.356,29.356,0,0,0-5.443-16.212l-6.958,5.252a20.686,20.686,0,0,1,3.68,10.96ZM51.257,90.3a.869.869,0,0,1-.045.938l-4.062,5.706a12.158,12.158,0,1,1-3.7-6.41l6.973-.664a.872.872,0,0,1,.835.43ZM48.7,91.781l-5.472.522a.873.873,0,0,1-.689-.243,10.422,10.422,0,1,0,2.839,4.917.869.869,0,0,1,.134-.718L48.7,91.781ZM44.472,102a9.545,9.545,0,0,1-9.192,7.069,9.594,9.594,0,0,1-2.483-.329A9.532,9.532,0,1,1,44.472,102Zm-2.457-6.365a7.744,7.744,0,0,0-4.733-3.632,7.837,7.837,0,0,0-2.03-.269,7.8,7.8,0,1,0,6.764,3.9Zm-4.582,3.7a7.015,7.015,0,0,0-2.014-.71c-.224-.053-.436-.1-.646-.162a1.823,1.823,0,0,1-1.136-.638.58.58,0,0,1,.114-.742,2.47,2.47,0,0,1,1.94-.433,1.729,1.729,0,0,1,1.29.657.868.868,0,1,0,1.529-.824,3.254,3.254,0,0,0-2.377-1.521v-.769a.868.868,0,1,0-1.737,0v.763a3.462,3.462,0,0,0-1.9.924,2.289,2.289,0,0,0-.334,2.865,3.471,3.471,0,0,0,2.143,1.39c.242.067.48.124.71.179a5.621,5.621,0,0,1,1.537.518c.492.289.506.537.48.748a.827.827,0,0,1-.468.629c-1,.495-2.78.187-3.183-.549a.869.869,0,0,0-1.524.834,3.546,3.546,0,0,0,2.537,1.6v.778a.868.868,0,0,0,1.737,0v-.743a4.069,4.069,0,0,0,1.207-.366,2.557,2.557,0,0,0,1.418-1.974,2.426,2.426,0,0,0-1.324-2.456Z" transform="translate(502.235 759.606)" fill="#201144"/>
  </g>
</svg>
