<svg xmlns="http://www.w3.org/2000/svg" width="80" height="80" viewBox="0 0 80 80">
  <g id="Grupo_1102620" data-name="Grupo 1102620" transform="translate(-505.051 -655)">
    <rect id="Rectángulo_401663" data-name="Rectángulo 401663" width="80" height="80" rx="8" transform="translate(505.051 655)" fill="#efddcf"/>
    <g id="Grupo_1102682" data-name="Grupo 1102682" transform="translate(515.645 597.268)">
      <path id="Trazado_879060" data-name="Trazado 879060" d="M144.785,209.54l-13.1,22.691a1.2,1.2,0,0,0,1.036,1.794h26.2a1.2,1.2,0,0,0,1.036-1.794l-13.1-22.691a1.2,1.2,0,0,0-2.071,0Z" transform="translate(-116.414 -116.617)" fill="#f6e781"/>
      <path id="Trazado_879061" data-name="Trazado 879061" d="M159.956,232.231l-13.1-22.691a1.2,1.2,0,0,0-2.071,0l-.6,1.037,9.173,15.888a3.509,3.509,0,0,1-3.039,5.263H131.975l-.291.5a1.2,1.2,0,0,0,1.036,1.794h26.2A1.2,1.2,0,0,0,159.956,232.231Z" transform="translate(-116.414 -116.616)" fill="#f4dd45"/>
      <path id="Trazado_879062" data-name="Trazado 879062" d="M41.156,117.68l-1.678-6.264a.545.545,0,0,0-.913-.245l-4.585,4.585a.545.545,0,0,0,.245.913l6.264,1.678A.545.545,0,0,0,41.156,117.68Z" transform="translate(-29.935 -29.935)" fill="#efecef"/>
      <path id="Trazado_879063" data-name="Trazado 879063" d="M243.474,279.2a1.331,1.331,0,0,1-1.329-1.258l-.294-5.375a1.625,1.625,0,1,1,3.246,0l-.294,5.375A1.331,1.331,0,0,1,243.474,279.2Z" transform="translate(-214.068 -171.419)" fill="#958b95"/>
      <circle id="Elipse_11863" data-name="Elipse 11863" cx="1.685" cy="1.685" r="1.685" transform="translate(27.721 110.772)" fill="#958b95"/>
      <path id="Trazado_879064" data-name="Trazado 879064" d="M146.921,84.692a28.413,28.413,0,0,0-14.155,3.752l4.482,7.763a19.561,19.561,0,0,1,19.347,0l4.482-7.763A28.415,28.415,0,0,0,146.921,84.692Z" transform="translate(-117.516 -6.639)" fill="#f6e781"/>
      <path id="Trazado_879065" data-name="Trazado 879065" d="M344.7,117.353l-4.482,7.763a19.6,19.6,0,0,1,9.916,17.03h8.955A28.534,28.534,0,0,0,344.7,117.353Z" transform="translate(-301.136 -35.548)" fill="#e4989d"/>
      <path id="Trazado_879066" data-name="Trazado 879066" d="M349.923,104.151l.376-.651a28.426,28.426,0,0,0-3.755-1.8A28.664,28.664,0,0,1,349.923,104.151Z" transform="translate(-306.738 -21.696)" fill="#f4dd45"/>
      <path id="Trazado_879067" data-name="Trazado 879067" d="M376.339,117.353l-.376.651a28.5,28.5,0,0,1,10,18.7,2.848,2.848,0,0,1-2.837,3.149h-1.486a19.706,19.706,0,0,1,.134,2.3h8.955A28.534,28.534,0,0,0,376.339,117.353Z" transform="translate(-332.778 -35.548)" fill="#e28086"/>
      <circle id="Elipse_11864" data-name="Elipse 11864" cx="3.328" cy="3.328" r="3.328" transform="translate(1.903 110.752)" fill="#90dfc3"/>
      <circle id="Elipse_11865" data-name="Elipse 11865" cx="3.328" cy="3.328" r="3.328" transform="translate(50.253 110.752)" fill="#e4989d"/>
      <path id="Trazado_879068" data-name="Trazado 879068" d="M21.889,117.353a28.636,28.636,0,0,0-4.716,3.376l.687,2.563a.545.545,0,0,1-.668.668l-2.563-.687A28.436,28.436,0,0,0,7.5,142.146h8.955a19.6,19.6,0,0,1,9.916-17.03Z" transform="translate(-6.639 -35.548)" fill="#90dfc3"/>
      <path id="Trazado_879069" data-name="Trazado 879069" d="M140.953,202.468a2.057,2.057,0,0,0-3.563,0l-13.1,22.691a2.057,2.057,0,0,0,1.782,3.086h20.971a.861.861,0,1,0,0-1.723H126.07a.334.334,0,0,1-.289-.5l13.1-22.691a.334.334,0,0,1,.579,0l13.1,22.691a.334.334,0,0,1-.289.5h-1.21a.861.861,0,1,0,0,1.723h1.21a2.057,2.057,0,0,0,1.782-3.086Z" transform="translate(-109.765 -109.975)"/>
      <path id="Trazado_879070" data-name="Trazado 879070" d="M236.835,273.426a2.193,2.193,0,0,0,2.189-2.073l.294-5.375a2.487,2.487,0,1,0-4.967,0l.294,5.375A2.193,2.193,0,0,0,236.835,273.426Zm0-8.347a.763.763,0,0,1,.763.806l-.294,5.375a.469.469,0,0,1-.938,0l-.294-5.375A.763.763,0,0,1,236.835,265.079Z" transform="translate(-207.429 -164.78)"/>
      <path id="Trazado_879071" data-name="Trazado 879071" d="M236.377,367.122a2.547,2.547,0,1,0-2.547-2.547A2.549,2.549,0,0,0,236.377,367.122Zm0-3.37a.824.824,0,1,1-.824.824A.824.824,0,0,1,236.377,363.752Z" transform="translate(-206.971 -252.119)"/>
      <path id="Trazado_879072" data-name="Trazado 879072" d="M54.72,91.627A29.45,29.45,0,0,0,21.153,78.366a.862.862,0,1,0,.483,1.654,27.78,27.78,0,0,1,20.74,2.115l-3.623,6.276a20.427,20.427,0,0,0-18.694,0l-3.623-6.276c.505-.268,1.02-.522,1.537-.757a.862.862,0,1,0-.712-1.569,29.408,29.408,0,0,0-6.244,3.841l-.641-2.393a1.408,1.408,0,0,0-2.354-.631L3.436,85.213a1.408,1.408,0,0,0,.631,2.354l2.393.641A29.373,29.373,0,0,0,0,106.6a.862.862,0,0,0,.861.861H9.817a.862.862,0,0,0,.861-.861,18.728,18.728,0,0,1,37.455,0,.862.862,0,0,0,.861.861H57.95a.862.862,0,0,0,.861-.861A29.376,29.376,0,0,0,54.72,91.627ZM8.852,82.233l1.4,5.206-5.206-1.4Zm.121,23.5H1.736A27.647,27.647,0,0,1,8.288,88.7l2.042.547a1.408,1.408,0,0,0,1.723-1.723l-.547-2.042a27.848,27.848,0,0,1,3.434-2.489l3.622,6.274A20.526,20.526,0,0,0,8.973,105.736Zm40.865,0a20.525,20.525,0,0,0-9.589-16.472l3.622-6.274a27.781,27.781,0,0,1,13.2,22.746H49.838Z" transform="translate(0 0)"/>
      <path id="Trazado_879073" data-name="Trazado 879073" d="M13.252,361.858a4.219,4.219,0,0,0-.868.09.861.861,0,1,0,.356,1.686,2.464,2.464,0,1,1-1.926,2.04.861.861,0,1,0-1.7-.258,4.19,4.19,0,1,0,4.142-3.558Z" transform="translate(-8.021 -251.968)"/>
      <path id="Trazado_879074" data-name="Trazado 879074" d="M434.178,361.858a4.19,4.19,0,1,0,4.19,4.19A4.194,4.194,0,0,0,434.178,361.858Zm0,6.656a2.467,2.467,0,1,1,2.467-2.467A2.47,2.47,0,0,1,434.178,368.515Z" transform="translate(-380.597 -251.968)"/>
    </g>
  </g>
</svg>
