<svg xmlns="http://www.w3.org/2000/svg" width="80" height="80" viewBox="0 0 80 80">
  <g id="Grupo_1102621" data-name="Grupo 1102621" transform="translate(-505.051 -655)">
    <rect id="Rectángulo_401663" data-name="Rectángulo 401663" width="80" height="80" rx="8" transform="translate(505.051 655)" fill="#efddcf"/>
    <g id="Grupo_1102686" data-name="Grupo 1102686" transform="translate(515.451 665.905)">
      <path id="Trazado_879093" data-name="Trazado 879093" d="M151.428,105.833v-6.57A11.263,11.263,0,0,1,162.691,88h0a11.263,11.263,0,0,1,11.263,11.263v6.57Z" transform="translate(-133.158 -77.676)" fill="#d3a06c"/>
      <path id="Trazado_879094" data-name="Trazado 879094" d="M240.367,88c-.317,0-.628.022-.939.047a11.259,11.259,0,0,1,10.324,11.216v6.57h1.877v-6.57A11.263,11.263,0,0,0,240.367,88Z" transform="translate(-210.833 -77.676)" fill="#b27946"/>
      <path id="Trazado_879095" data-name="Trazado 879095" d="M123.629,346.324h20.648l-1.762-5.284a5.632,5.632,0,0,0-4.335-3.76L131.138,336h-7.509l-7.044,1.28a5.632,5.632,0,0,0-4.335,3.76l-.822,3.736v1.548Z" transform="translate(-97.85 -296.58)" fill="#92e0c0"/>
      <g id="Grupo_1102685" data-name="Grupo 1102685" transform="translate(18.271 20.648)">
        <path id="Trazado_879096" data-name="Trazado 879096" d="M215.428,312v2.816l3.754,3.754,3.754-3.754V312Z" transform="translate(-207.919 -296.044)" fill="#f9e0a6"/>
        <path id="Trazado_879097" data-name="Trazado 879097" d="M311.428,216h.939a2.816,2.816,0,0,1,2.816,2.816h0a2.816,2.816,0,0,1-2.816,2.816h-.939Z" transform="translate(-292.657 -211.307)" fill="#f9e0a6"/>
        <path id="Trazado_879098" data-name="Trazado 879098" d="M155.182,216h-.939a2.816,2.816,0,0,0-2.816,2.816h0a2.816,2.816,0,0,0,2.816,2.816h.939Z" transform="translate(-151.428 -211.307)" fill="#f9e0a6"/>
        <path id="Trazado_879099" data-name="Trazado 879099" d="M175.428,179.754v5.631a8.447,8.447,0,0,0,8.447,8.447h0a8.447,8.447,0,0,0,8.447-8.447v-5.631h0a11.331,11.331,0,0,1-8.012-3.319l-.436-.436-.435.436a11.331,11.331,0,0,1-8.012,3.319Z" transform="translate(-172.612 -176)" fill="#f9e0a6"/>
      </g>
      <path id="Trazado_879100" data-name="Trazado 879100" d="M246.937,212.367a8.446,8.446,0,0,1-7.509,8.392,8.421,8.421,0,0,0,9.386-8.392v-5.631a11.364,11.364,0,0,1-1.877-.168Z" transform="translate(-210.833 -182.333)" fill="#eabd8c"/>
      <path id="Trazado_879101" data-name="Trazado 879101" d="M345.305,8h13.14a1.877,1.877,0,0,1,1.877,1.877v7.509a1.877,1.877,0,0,1-1.877,1.877h-2.816l-7.509,4.693.8-4.693h-3.62a1.877,1.877,0,0,1-1.877-1.877V9.877A1.877,1.877,0,0,1,345.305,8Z" transform="translate(-302.632 -7.061)" fill="#ececec"/>
      <path id="Trazado_879102" data-name="Trazado 879102" d="M288.5,346.324h4.067l-1.762-5.284a5.632,5.632,0,0,0-4.335-3.76L279.428,336l6.753,3.751a3.754,3.754,0,0,1,1.908,2.867Z" transform="translate(-246.14 -296.58)" fill="#48c397"/>
      <path id="Trazado_879103" data-name="Trazado 879103" d="M29.084,282.9l-3.366,3.044a1.877,1.877,0,0,1-2.654,0l-6.731-6.731a1.877,1.877,0,0,1,0-2.654l3.044-3.044-5.631-5.631-3.526,3.526a5.631,5.631,0,0,0,0,7.964L22.9,292.055a5.631,5.631,0,0,0,7.964,0l3.848-3.526Z" transform="translate(-7.06 -236.452)" fill="#fb5968"/>
      <path id="Trazado_879104" data-name="Trazado 879104" d="M45.563,114.778a6.57,6.57,0,0,0-5.058-4.386l-6.272-1.141v-.486a9.446,9.446,0,0,0,2.8-2.484h1.895a2.819,2.819,0,0,0,2.816-2.816V92.2a12.2,12.2,0,1,0-24.4,0v6.57a3.76,3.76,0,0,0,2.993,3.676,9.4,9.4,0,0,0,4.515,6.317v.486l-6.273,1.141a6.569,6.569,0,0,0-5.057,4.386l-.375,1.127-3.2-3.2a.94.94,0,0,1,0-1.328l3.707-3.706-6.959-6.959L2.5,104.9a6.57,6.57,0,0,0,0,9.291L15.189,126.88a6.567,6.567,0,0,0,9.262.028l4.572-4.189L27.6,121.3h20.14ZM29.54,112.461l-2.816-2.816V109.6a9.378,9.378,0,0,0,5.631,0v.044Zm9.386-8.059h-.789a9.322,9.322,0,0,0,.612-1.955A3.718,3.718,0,0,0,39.865,102v1.46A.94.94,0,0,1,38.926,104.4Zm0-7.248a1.861,1.861,0,0,1,0,3.232Zm-19.71,1.616a1.871,1.871,0,0,1,.939-1.616v3.232A1.871,1.871,0,0,1,19.216,98.771Zm.939-4.693V95.15a3.723,3.723,0,0,0-.939.389V92.2a10.324,10.324,0,1,1,20.648,0v3.338a3.689,3.689,0,0,0-.939-.389V94.078h-.939a10.326,10.326,0,0,1-7.348-3.044l-1.1-1.1-1.1,1.1a10.326,10.326,0,0,1-7.348,3.044Zm1.877,6.57V95.92a12.168,12.168,0,0,0,7.509-3.336,12.163,12.163,0,0,0,7.509,3.336v4.728a7.452,7.452,0,0,1-1.016,3.754H29.54v1.877h4.95a7.5,7.5,0,0,1-12.458-5.631ZM11,107.674l-1.019,1.019-4.3-4.3,1.019-1.019Zm8.836,19.255a4.667,4.667,0,0,1-3.319-1.375L3.829,112.869a4.694,4.694,0,0,1,0-6.637l.516-.516,4.3,4.3-.034.034a2.82,2.82,0,0,0,0,3.982l6.73,6.73a2.8,2.8,0,0,0,1.992.825,2.763,2.763,0,0,0,1.957-.792l.07-.063,4.324,4.324-.539.494A4.669,4.669,0,0,1,19.833,126.928Zm5.242-3.138-4.315-4.315L22,118.355l4.307,4.307Zm.645-4.371-3.656-3.656L18,119.438a.959.959,0,0,1-1.327,0l-2.05-2.05.672-2.018a4.694,4.694,0,0,1,3.613-3.134l6.561-1.192,4.071,4.071,4.07-4.07,6.56,1.192a4.693,4.693,0,0,1,3.613,3.134l1.351,4.048Z" transform="translate(-0.007 -70.614)"/>
      <path id="Trazado_879105" data-name="Trazado 879105" d="M351.384,0h-13.14a2.819,2.819,0,0,0-2.816,2.816v7.509a2.819,2.819,0,0,0,2.816,2.816h2.507l-.971,5.66,9.057-5.66h2.546a2.819,2.819,0,0,0,2.816-2.816V2.816A2.819,2.819,0,0,0,351.384,0Zm.939,10.324a.94.94,0,0,1-.939.939H348.3l-5.961,3.725.639-3.725h-4.733a.94.94,0,0,1-.939-.939V2.816a.94.94,0,0,1,.939-.939h13.14a.94.94,0,0,1,.939.939Z" transform="translate(-295.571)"/>
      <rect id="Rectángulo_402185" data-name="Rectángulo 402185" width="11.263" height="1.877" transform="translate(43.612 3.754)"/>
      <rect id="Rectángulo_402186" data-name="Rectángulo 402186" width="7.509" height="1.877" transform="translate(43.612 7.509)"/>
      <rect id="Rectángulo_402187" data-name="Rectángulo 402187" width="1.877" height="1.877" transform="translate(52.997 7.509)"/>
      <path id="Trazado_879106" data-name="Trazado 879106" d="M9.368,44.514,8.4,42.9,5.859,44.431A24.409,24.409,0,0,1,36.764,26.966l.556-1.793A26.281,26.281,0,0,0,3.96,44.315L2.182,41.35l-1.61.966,3.3,5.5Z" transform="translate(0 -21.184)"/>
      <path id="Trazado_879107" data-name="Trazado 879107" d="M409.92,154.514l1.61.966,1.642-2.738a24.423,24.423,0,0,1-4.136,23.251l1.458,1.183a26.283,26.283,0,0,0,4.5-24.906l2.758,1.655.966-1.61-5.5-3.3Z" transform="translate(-360.543 -131.533)"/>
    </g>
  </g>
</svg>
