<svg xmlns="http://www.w3.org/2000/svg" width="95.771" height="75.68" viewBox="0 0 95.771 75.68">
  <g id="Grupo_1102736" data-name="Grupo 1102736" transform="translate(0 -53.704)">
    <path id="Trazado_879237" data-name="Trazado 879237" d="M85.48,63.959V58.773a2.281,2.281,0,0,0-2.264-2.264H78.56A2.272,2.272,0,0,0,76.3,58.773v5.186H85.48ZM26.835,89.171a1.4,1.4,0,0,1,1.983-1.983L30.1,88.466l3.547-3.553A1.4,1.4,0,1,1,35.627,86.9l-4.539,4.539a1.405,1.405,0,0,1-1.983,0ZM79.483,72.983a1.4,1.4,0,1,1,2.8,0v29.444a1.4,1.4,0,1,1-2.8,0ZM57.366,120.45H66v-6.018H57.366Zm10.032,2.8H21.644a1.408,1.408,0,0,1-1.405-1.405v-8.823a1.4,1.4,0,0,1,1.405-1.4H31.682v-8a1.4,1.4,0,0,1,1.4-1.4H44.524a1.4,1.4,0,0,1,1.4,1.4v2.492H55.961a1.407,1.407,0,0,1,1.405,1.405v4.1H67.4a1.4,1.4,0,0,1,1.405,1.4v8.823A1.407,1.407,0,0,1,67.4,123.255Zm-21.475-2.8h8.632V108.933H45.924Zm-11.437,0h8.632V105.036H34.487Zm-11.443,0h8.638v-6.018H23.044ZM17.127,71.578H73.486V58.773A5.087,5.087,0,0,1,78.56,53.7h4.655a5.087,5.087,0,0,1,5.069,5.069V71.578h6.087a1.4,1.4,0,0,1,1.4,1.405v55a1.4,1.4,0,0,1-1.4,1.4H55.532a1.4,1.4,0,0,1,0-2.805H92.967v-52.2H88.285V84.527a1.4,1.4,0,1,1-2.805,0V66.764H76.3v41.883H85.48V90.884a1.4,1.4,0,1,1,2.805,0v19.163a1.489,1.489,0,0,1-.239.8l-5.907,11.633a1.426,1.426,0,0,1-.626.626,1.4,1.4,0,0,1-1.877-.62l-5.928-11.665a1.492,1.492,0,0,1-.223-.769V74.383H17.127V85a1.4,1.4,0,1,1-2.805,0V57.644a7.441,7.441,0,0,0-3.982-1.134A7.531,7.531,0,0,0,2.8,64.044v47.922c.074-.08.149-.159.223-.233a10.311,10.311,0,0,1,7.312-3.028,10.47,10.47,0,0,1,3.287.536c.233.079.467.17.695.265V91.356a1.4,1.4,0,1,1,2.805,0v20.557a1.4,1.4,0,0,1-2.248,1.114,7.346,7.346,0,0,0-2.142-1.129,7.537,7.537,0,1,0-2.4,14.682h38.84a1.4,1.4,0,0,1,0,2.805H10.34A10.337,10.337,0,0,1,0,119.045v-55a10.339,10.339,0,0,1,16.5-8.3,1.413,1.413,0,0,1,.626,1.172V71.578ZM84.6,111.452H77.171l3.717,7.312ZM65.85,80.078a1.4,1.4,0,0,1,0,2.8H46.862a1.4,1.4,0,0,1,0-2.8Zm-7.9,13.394a1.4,1.4,0,1,1,0,2.8H46.863a1.4,1.4,0,0,1,0-2.8Zm7.9-6.7a1.4,1.4,0,0,1,0,2.805H46.862a1.4,1.4,0,0,1,0-2.805ZM23.2,78.736H39.269a1.4,1.4,0,0,1,1.4,1.405V96.213a1.4,1.4,0,0,1-1.4,1.405H23.2a1.4,1.4,0,0,1-1.405-1.405V80.142A1.4,1.4,0,0,1,23.2,78.736Zm14.667,2.81H24.6V94.813H37.864Z" fill="#d1ced9"/>
  </g>
</svg>
