<svg xmlns="http://www.w3.org/2000/svg" width="110" height="110" viewBox="0 0 110 110">
  <g id="Grupo_1102797" data-name="Grupo 1102797" transform="translate(-0.17)">
    <circle id="Elipse_11869" data-name="Elipse 11869" cx="55" cy="55" r="55" transform="translate(0.17)" fill="#22cac5"/>
    <g id="Grupo_1102782" data-name="Grupo 1102782" transform="translate(19.262 25.062)">
      <g id="Grupo_1102780" data-name="Grupo 1102780" transform="translate(8.774 15.527)">
        <g id="Grupo_1102779" data-name="Grupo 1102779" transform="translate(0 0)">
          <path id="Trazado_879316" data-name="Trazado 879316" d="M72.3,331.5H62.789V314.445a.8.8,0,0,1,.8-.8h7.9a.8.8,0,0,1,.8.8V331.5Z" transform="translate(-62.789 -291.14)" fill="#9de5d1"/>
          <path id="Trazado_879317" data-name="Trazado 879317" d="M176.086,285.322h-9.508V260.767a.8.8,0,0,1,.8-.8h7.9a.8.8,0,0,1,.8.8v24.555Z" transform="translate(-152.074 -244.963)" fill="#ee878a"/>
          <path id="Trazado_879318" data-name="Trazado 879318" d="M279.874,248.787h-9.508V218.3a.8.8,0,0,1,.8-.8h7.9a.8.8,0,0,1,.8.8v30.49Z" transform="translate(-241.359 -208.427)" fill="#fbe88c"/>
          <path id="Trazado_879319" data-name="Trazado 879319" d="M383.663,192.984h-9.508V153.429a.8.8,0,0,1,.8-.8h7.9a.8.8,0,0,1,.8.8v39.555Z" transform="translate(-330.645 -152.624)" fill="#cfeffc"/>
          <path id="Trazado_879320" data-name="Trazado 879320" d="M66.4,324.644v-11h-2.8a.8.8,0,0,0-.8.8V331.5H72.3v-2.89H70.363A3.965,3.965,0,0,1,66.4,324.644Z" transform="translate(-62.789 -291.14)" fill="#82dec5"/>
          <path id="Trazado_879321" data-name="Trazado 879321" d="M170.187,278.009V259.963h-2.8a.8.8,0,0,0-.8.8v24.555h9.508v-2.89h-1.475A4.424,4.424,0,0,1,170.187,278.009Z" transform="translate(-152.074 -244.963)" fill="#ec6e73"/>
          <path id="Trazado_879322" data-name="Trazado 879322" d="M273.975,240.637V217.492h-2.8a.8.8,0,0,0-.8.8v30.49h9.508V245.9h-.639A5.26,5.26,0,0,1,273.975,240.637Z" transform="translate(-241.359 -208.427)" fill="#fbe372"/>
          <path id="Trazado_879323" data-name="Trazado 879323" d="M377.763,184.195v-31.57h-2.8a.8.8,0,0,0-.8.8v39.555h9.508v-2.89A5.9,5.9,0,0,1,377.763,184.195Z" transform="translate(-330.645 -152.625)" fill="#a9e4f9"/>
        </g>
      </g>
      <g id="Grupo_1102781" data-name="Grupo 1102781">
        <path id="Trazado_879324" data-name="Trazado 879324" d="M71.17,101.83l-2.941-2.941a1.048,1.048,0,0,0-1.482,1.482l1.152,1.152H62.841V63.016a1.855,1.855,0,0,0-1.853-1.853h-7.9a1.855,1.855,0,0,0-1.853,1.853V95.2a1.048,1.048,0,0,0,2.1,0V63.259h7.412v38.264H53.333V99.671a1.048,1.048,0,0,0-2.1,0v1.852h-2.9V72.08a1.855,1.855,0,0,0-1.853-1.853h-7.9a1.855,1.855,0,0,0-1.853,1.853v29.442h-2.9V78.015a1.855,1.855,0,0,0-1.853-1.853h-7.9a1.855,1.855,0,0,0-1.853,1.853V84.69a1.048,1.048,0,0,0,2.1,0V78.259h7.412v23.264H24.326V89.156a1.048,1.048,0,0,0-2.1,0v12.366h-2.9V85.516a1.855,1.855,0,0,0-1.853-1.853h-7.9a1.855,1.855,0,0,0-1.853,1.853V95.2a1.048,1.048,0,0,0,2.1,0V85.76h7.412v15.763H9.822V99.671a1.048,1.048,0,0,0-2.1,0v1.852H5.114V51.1l1.152,1.152a1.048,1.048,0,0,0,1.482-1.482L4.807,47.831a1.048,1.048,0,0,0-1.482,0L.384,50.772a1.048,1.048,0,0,0,1.482,1.482L3.018,51.1v50.42H1.048a1.048,1.048,0,0,0,0,2.1H67.9l-1.152,1.152a1.048,1.048,0,1,0,1.482,1.482l2.941-2.941a1.048,1.048,0,0,0,0-1.482Zm-32.341-.307v-29.2h7.412v29.2Z" transform="translate(0 -46.684)"/>
        <path id="Trazado_879325" data-name="Trazado 879325" d="M55.289,65.736a1.048,1.048,0,0,0,1.048,1.048h5.1a48.033,48.033,0,0,0,40.05-21.515l.2,1.548a1.048,1.048,0,0,0,1.038.915,1.037,1.037,0,0,0,.134-.009,1.048,1.048,0,0,0,.907-1.172l-.527-4.126a1.048,1.048,0,0,0-1.173-.907l-4.126.527a1.048,1.048,0,1,0,.266,2.079l1.665-.213A45.933,45.933,0,0,1,61.441,64.688h-5.1A1.048,1.048,0,0,0,55.289,65.736Z" transform="translate(-47.563 -41.511)"/>
      </g>
    </g>
  </g>
</svg>
