<svg xmlns="http://www.w3.org/2000/svg" width="110" height="110" viewBox="0 0 110 110">
  <g id="Grupo_1102798" data-name="Grupo 1102798" transform="translate(-0.191)">
    <circle id="Elipse_11870" data-name="Elipse 11870" cx="55" cy="55" r="55" transform="translate(0.191)" fill="#22cac5"/>
    <g id="Grupo_1102788" data-name="Grupo 1102788" transform="translate(21 21)">
      <g id="Grupo_1102786" data-name="Grupo 1102786" transform="translate(0.994 0.994)">
        <circle id="Elipse_11873" data-name="Elipse 11873" cx="32.798" cy="32.798" r="32.798" transform="translate(0 0.265)" fill="#f8f3f2"/>
        <path id="Trazado_879326" data-name="Trazado 879326" d="M21.326,42.3A32.809,32.809,0,0,1,47.711,10.127a32.8,32.8,0,1,0,0,64.343A32.809,32.809,0,0,1,21.326,42.3Z" transform="translate(-8.5 -9.235)" fill="#f2eae7"/>
        <circle id="Elipse_11874" data-name="Elipse 11874" cx="25.026" cy="25.026" r="25.026" transform="translate(7.772 8.037)" fill="#b3e5ee"/>
        <path id="Trazado_879327" data-name="Trazado 879327" d="M81.09,132.581a32.8,32.8,0,0,1,0-44.873,25.034,25.034,0,0,0,0,44.873Z" transform="translate(-59.389 -77.081)" fill="#86d7e5"/>
        <circle id="Elipse_11875" data-name="Elipse 11875" cx="16.521" cy="16.521" r="16.521" transform="translate(16.277 16.543)" fill="#fbe372"/>
        <circle id="Elipse_11876" data-name="Elipse 11876" cx="7.843" cy="7.843" r="7.843" transform="translate(24.955 25.22)" fill="#e79098"/>
        <g id="Grupo_1102785" data-name="Grupo 1102785" transform="translate(37.88)">
          <g id="Grupo_1102783" data-name="Grupo 1102783" transform="translate(0 0)">
            <path id="Trazado_879328" data-name="Trazado 879328" d="M321.287,18.41a1.279,1.279,0,0,1,.387,2.123L306.161,34.945a1.282,1.282,0,0,1-1.248.286L298.97,33.4,296.9,32.3l-.486-1.4L294.46,25a1.279,1.279,0,0,1,.26-1.253L308.8,7.929a1.279,1.279,0,0,1,2.131.343l2.339,5.408.623,1.73,1.936.774Z" transform="translate(-294.395 -7.5)" fill="#cac5cb"/>
          </g>
          <g id="Grupo_1102784" data-name="Grupo 1102784" transform="translate(0)">
            <path id="Trazado_879329" data-name="Trazado 879329" d="M300.09,32.737l-1.953-5.9a1.279,1.279,0,0,1,.26-1.253l13.478-15.133-.941-2.176a1.279,1.279,0,0,0-2.13-.343L294.72,23.743A1.279,1.279,0,0,0,294.46,25l1.953,5.9.486,1.4,2.071,1.1,1.512.465Z" transform="translate(-294.395 -7.5)" fill="#b3adb5"/>
          </g>
        </g>
      </g>
      <g id="Grupo_1102787" data-name="Grupo 1102787">
        <path id="Trazado_879330" data-name="Trazado 879330" d="M56.039,59.457a31.8,31.8,0,1,1-9.4-53.187.994.994,0,1,0,.741-1.844A33.8,33.8,0,0,0,10.9,59.687a33.789,33.789,0,0,0,46.47,1.248.994.994,0,1,0-1.328-1.478Z" transform="translate(-1 -1.736)"/>
        <path id="Trazado_879331" data-name="Trazado 879331" d="M443.877,154.619a.994.994,0,0,0-1.833.768,31.835,31.835,0,0,1-5.184,32.951.994.994,0,1,0,1.509,1.293,33.821,33.821,0,0,0,5.508-35.011Z" transform="translate(-378.903 -133.604)"/>
        <path id="Trazado_879332" data-name="Trazado 879332" d="M63.83,163.863a.994.994,0,0,0-1.337.433,25.745,25.745,0,0,0-2.833,11.819,26.02,26.02,0,1,0,51.038-7.17.994.994,0,1,0-1.911.547,24.035,24.035,0,1,1-47.14,6.623A23.774,23.774,0,0,1,64.263,165.2.994.994,0,0,0,63.83,163.863Z" transform="translate(-51.888 -142.057)"/>
        <path id="Trazado_879333" data-name="Trazado 879333" d="M125.75,62.8a.994.994,0,0,0-.7-1.22,26.078,26.078,0,0,0-6.866-.918,25.74,25.74,0,0,0-11.852,2.85,26.254,26.254,0,0,0-9.006,7.611.994.994,0,1,0,1.592,1.189,24.258,24.258,0,0,1,8.32-7.032,23.77,23.77,0,0,1,10.945-2.631,24.09,24.09,0,0,1,6.343.848A.994.994,0,0,0,125.75,62.8Z" transform="translate(-84.395 -52.625)"/>
        <path id="Trazado_879334" data-name="Trazado 879334" d="M143.5,125.955a.994.994,0,0,0-.924-1.059c-.409-.028-.814-.042-1.2-.042a17.514,17.514,0,1,0,17.514,17.514c0-.462-.019-.934-.056-1.4a.994.994,0,0,0-1.981.157c.033.418.05.838.05,1.247a15.527,15.527,0,1,1-15.527-15.527c.345,0,.7.013,1.069.037A1,1,0,0,0,143.5,125.955Z" transform="translate(-107.576 -108.312)"/>
        <path id="Trazado_879335" data-name="Trazado 879335" d="M198.18,192.339h.054a.994.994,0,0,0,.017-1.988h-.064a8.836,8.836,0,1,0,8.835,8.906.994.994,0,0,0-.986-1h-.008a.994.994,0,0,0-.994.986,6.848,6.848,0,1,1-6.854-6.9Z" transform="translate(-164.396 -165.131)"/>
        <path id="Trazado_879336" data-name="Trazado 879336" d="M286.159,48.143,262.99,71.478a5.173,5.173,0,0,1-3.683,1.528,5.174,5.174,0,0,1,1.451-3.714L283.6,45.639a1.294,1.294,0,0,1,1.835-.025l.709.694A1.294,1.294,0,0,1,286.159,48.143Z" transform="translate(-225.081 -39.249)" fill="#f2eae7"/>
        <path id="Trazado_879337" data-name="Trazado 879337" d="M256.569,18.8l1.825,5.52-4.859,5.031a6.206,6.206,0,0,0-1.729,4.428.994.994,0,0,0,.991.971h.014a6.207,6.207,0,0,0,4.377-1.822l1.242-1.25a.994.994,0,0,0-1.41-1.4l-1.242,1.25a4.2,4.2,0,0,1-1.856,1.083,4.2,4.2,0,0,1,1.044-1.878L277.809,7.08a.294.294,0,0,1,.211-.091.3.3,0,0,1,.214.086l.709.694a.3.3,0,0,1,0,.425l-18.89,19.025a.994.994,0,0,0,1.41,1.4l.649-.653s6,1.809,6.222,1.809a2.281,2.281,0,0,0,1.55-.607L285.4,14.755a2.274,2.274,0,0,0-.689-3.771L280.6,9.306a2.283,2.283,0,0,0-.264-2.957l-.709-.694a2.271,2.271,0,0,0-1.6-.653h-.032a2.268,2.268,0,0,0-1.33.451L274.9,1.372a2.274,2.274,0,0,0-3.785-.61L257.03,16.576a2.28,2.28,0,0,0-.461,2.226Zm20.605.885L272.307,17.7l3.089-3.111,5.049,2.058Zm-4.891,4.544L267.7,22.345l3.092-3.114,4.779,1.948Zm-3.747,3.481a.287.287,0,0,1-.279.064l-4.56-1.4,2.485-2.5,4.5,1.85Zm15.6-14.674a.279.279,0,0,1-.087.261l-2,1.859-5.137-2.094,2.2-2.217,4.85,1.977A.279.279,0,0,1,284.138,13.038ZM264.9,10.729l2.048,4.737L263.9,18.624l-1.982-4.545Zm4.426-4.969,2.164,5-3.046,3.154-2.086-4.825ZM272.6,2.084a.287.287,0,0,1,.477.077l2.079,4.808-2.17,2.247-2.2-5.092ZM258.514,17.9l1.946-2.185,1.944,4.458-2.45,2.537-1.5-4.529A.288.288,0,0,1,258.514,17.9Z" transform="translate(-218.574 -0.001)"/>
      </g>
    </g>
  </g>
</svg>
