<svg xmlns="http://www.w3.org/2000/svg" width="110" height="110" viewBox="0 0 110 110">
  <g id="Grupo_1102799" data-name="Grupo 1102799" transform="translate(-0.17)">
    <circle id="Elipse_11871" data-name="Elipse 11871" cx="55" cy="55" r="55" transform="translate(0.17)" fill="#22cac5"/>
    <g id="Grupo_1102792" data-name="Grupo 1102792" transform="translate(21.83 21.829)">
      <g id="Grupo_1102790" data-name="Grupo 1102790" transform="translate(1.037 1.037)">
        <path id="Trazado_879338" data-name="Trazado 879338" d="M90.793,82.688H33.005V48.119A2.591,2.591,0,0,1,35.6,45.528H88.2a2.591,2.591,0,0,1,2.591,2.591V82.688Z" transform="translate(-29.765 -40.665)" fill="#f9f6f6"/>
        <path id="Trazado_879339" data-name="Trazado 879339" d="M33.005,314.313H90.793v2.332H33.005Z" transform="translate(-29.765 -274.623)" fill="#ecdaec"/>
        <path id="Trazado_879340" data-name="Trazado 879340" d="M70.972,332.313H9.3a1.3,1.3,0,0,0-1.3,1.3v2.271a1.3,1.3,0,0,0,1.3,1.3H70.972a1.3,1.3,0,0,0,1.3-1.3v-2.271A1.3,1.3,0,0,0,70.972,332.313Z" transform="translate(-8 -290.291)" fill="#ffba57"/>
        <path id="Trazado_879341" data-name="Trazado 879341" d="M70.972,332.313H9.3a1.3,1.3,0,0,0-1.3,1.3v2.271a1.3,1.3,0,0,0,1.3,1.3H70.972a1.3,1.3,0,0,0,1.3-1.3v-2.271A1.3,1.3,0,0,0,70.972,332.313Z" transform="translate(-8 -290.291)" fill="#ffba57"/>
        <path id="Trazado_879342" data-name="Trazado 879342" d="M70.972,343.342H9.3A1.3,1.3,0,0,1,8,342.077c0,.01,0,.02,0,.031v2.271a1.3,1.3,0,0,0,1.3,1.3H70.972a1.3,1.3,0,0,0,1.3-1.3v-2.271c0-.01,0-.02,0-.031A1.3,1.3,0,0,1,70.972,343.342Z" transform="translate(-8 -298.79)" fill="#ffac3e"/>
        <path id="Trazado_879343" data-name="Trazado 879343" d="M224.514,8h-7.969a1.3,1.3,0,0,0-1.3,1.3v3.567h10.56V9.3A1.3,1.3,0,0,0,224.514,8Z" transform="translate(-188.396 -8)" fill="#e8834d"/>
        <path id="Trazado_879344" data-name="Trazado 879344" d="M215.25,27.528h10.56V29.86H215.25Z" transform="translate(-188.396 -24.998)" fill="#d66e41"/>
        <path id="Trazado_879345" data-name="Trazado 879345" d="M125.5,387.224h-5.83l3.5-17.383H129Z" transform="translate(-105.199 -322.956)" fill="#e8834d"/>
        <path id="Trazado_879346" data-name="Trazado 879346" d="M143.045,372.173h5.83l.469-2.332h-5.83Z" transform="translate(-125.547 -322.956)" fill="#d66e41"/>
        <path id="Trazado_879347" data-name="Trazado 879347" d="M324.3,387.224h5.83l-3.5-17.383H320.8Z" transform="translate(-280.273 -322.956)" fill="#e8834d"/>
        <path id="Trazado_879348" data-name="Trazado 879348" d="M326.634,369.841H320.8l.469,2.332h5.83Z" transform="translate(-280.273 -322.956)" fill="#d66e41"/>
        <path id="Trazado_879349" data-name="Trazado 879349" d="M174.928,425.1h19.615l.836,4.15H174.092Z" transform="translate(-152.571 -371.053)" fill="#ffba57"/>
        <path id="Trazado_879350" data-name="Trazado 879350" d="M174.562,439.129l-.47,2.332h21.286l-.47-2.332Z" transform="translate(-152.571 -383.266)" fill="#ffac3e"/>
        <g id="Grupo_1102789" data-name="Grupo 1102789" transform="translate(12.586 11.759)">
          <circle id="Elipse_11877" data-name="Elipse 11877" cx="6.28" cy="6.28" r="6.28" fill="#98db7c"/>
        </g>
        <path id="Trazado_879351" data-name="Trazado 879351" d="M111.416,143.327a6.28,6.28,0,0,1-6.17-5.114,6.28,6.28,0,1,0,12.34,0A6.28,6.28,0,0,1,111.416,143.327Z" transform="translate(-92.55 -121.341)" fill="#82d361"/>
        <ellipse id="Elipse_11878" data-name="Elipse 11878" cx="3.146" cy="3.146" rx="3.146" ry="3.146" transform="matrix(0.16, -0.987, 0.987, 0.16, 30.65, 35.36)" fill="#ff4755"/>
        <path id="Trazado_879352" data-name="Trazado 879352" d="M251.334,253.817a3.147,3.147,0,0,1-2.922-1.98,3.146,3.146,0,1,0,5.844,0A3.147,3.147,0,0,1,251.334,253.817Z" transform="translate(-217.066 -220.242)" fill="#fc2b3a"/>
      </g>
      <g id="Grupo_1102791" data-name="Grupo 1102791">
        <path id="Trazado_879353" data-name="Trazado 879353" d="M139.006,42.1h-.975V8.442a3.574,3.574,0,0,0-3.57-3.57h-20.09v-2.6A2.275,2.275,0,0,0,112.1,0h-7.984a2.275,2.275,0,0,0-2.272,2.272v2.6H94.975a.974.974,0,1,0,0,1.947h39.487a1.625,1.625,0,0,1,1.623,1.623V42.1H120.749a.974.974,0,1,0,0,1.947h18.257a.325.325,0,0,1,.325.325v2.276a.325.325,0,0,1-.325.325H87.066a.974.974,0,0,0,0,1.947h5.658L89.453,65.176a.974.974,0,0,0,.955,1.166h5.841a.974.974,0,0,0,.955-.782l1.067-5.3H118l1.067,5.3a.974.974,0,0,0,.955.782h5.841a.974.974,0,0,0,.955-1.166l-3.271-16.252h15.455a2.275,2.275,0,0,0,2.272-2.272V44.377a2.275,2.275,0,0,0-2.272-2.272ZM103.791,2.272a.325.325,0,0,1,.325-.325H112.1a.325.325,0,0,1,.325.325v2.6h-8.633Zm11.933,46.652,1.052,5.226H99.5l1.052-5.226ZM95.452,64.394H91.6l3.113-15.47h3.855Zm3.211-6.085.445-2.211h18.059l.445,2.211Zm26.015,6.085h-3.855l-3.113-15.47h3.855Z" transform="translate(-74.937 0)"/>
        <path id="Trazado_879354" data-name="Trazado 879354" d="M8.234,79.706H2.272a.325.325,0,0,1-.325-.325V77.105a.325.325,0,0,1,.325-.325H41.917a.974.974,0,0,0,0-1.947H5.194V41.171a1.625,1.625,0,0,1,1.623-1.623h9.327a.974.974,0,1,0,0-1.947H6.817a3.574,3.574,0,0,0-3.57,3.57V74.833H2.272A2.275,2.275,0,0,0,0,77.105v2.276a2.275,2.275,0,0,0,2.272,2.272H8.234a.974.974,0,1,0,0-1.947Z" transform="translate(0 -32.729)"/>
        <path id="Trazado_879355" data-name="Trazado 879355" d="M130.773,125.929a.973.973,0,0,0-1.377.017l-3.161,3.242-1.328-1.291a.974.974,0,0,0-1.358,1.4l2.025,1.969a.974.974,0,0,0,1.376-.018l3.84-3.938A.974.974,0,0,0,130.773,125.929Z" transform="translate(-107.284 -109.371)"/>
        <path id="Trazado_879356" data-name="Trazado 879356" d="M111.858,98.193a7.266,7.266,0,1,0-7.266,7.266A7.274,7.274,0,0,0,111.858,98.193Zm-7.266,5.318a5.318,5.318,0,1,1,5.318-5.318A5.324,5.324,0,0,1,104.593,103.511Z" transform="translate(-84.716 -79.145)"/>
        <path id="Trazado_879357" data-name="Trazado 879357" d="M135.089,236.8a.974.974,0,0,0-1.377,0l-1.491,1.491-1.491-1.491a.974.974,0,0,0-1.377,1.377l1.491,1.491-1.491,1.491a.974.974,0,0,0,1.377,1.377l1.491-1.491,1.491,1.491a.974.974,0,0,0,1.377-1.377l-1.491-1.491,1.491-1.491A.974.974,0,0,0,135.089,236.8Z" transform="translate(-112.345 -205.867)"/>
        <path id="Trazado_879358" data-name="Trazado 879358" d="M364.271,236.8a.974.974,0,0,0-1.377,0l-1.491,1.491-1.491-1.491a.974.974,0,0,0-1.377,1.377l1.491,1.491-1.491,1.491a.974.974,0,0,0,1.377,1.377l1.491-1.491,1.491,1.491a.974.974,0,0,0,1.377-1.377l-1.491-1.491,1.491-1.491A.974.974,0,0,0,364.271,236.8Z" transform="translate(-311.831 -205.867)"/>
        <path id="Trazado_879359" data-name="Trazado 879359" d="M248.453,130.052a.974.974,0,0,0,1.377,0l1.491-1.491,1.491,1.491a.974.974,0,1,0,1.377-1.377l-1.491-1.491,1.491-1.491a.974.974,0,0,0-1.377-1.377l-1.491,1.491-1.491-1.491a.974.974,0,1,0-1.377,1.377l1.491,1.491-1.491,1.491A.974.974,0,0,0,248.453,130.052Z" transform="translate(-216.012 -107.961)"/>
        <path id="Trazado_879360" data-name="Trazado 879360" d="M240.658,233.128A4.126,4.126,0,1,0,244.784,229,4.131,4.131,0,0,0,240.658,233.128Zm6.3,0a2.179,2.179,0,1,1-2.179-2.179A2.181,2.181,0,0,1,246.963,233.128Z" transform="translate(-209.475 -199.33)"/>
        <path id="Trazado_879361" data-name="Trazado 879361" d="M224.349,125.168a.974.974,0,0,0,.785,1.132,25.381,25.381,0,0,0,4.177.322c3.2,0,7.641-.551,11.085-3.088a12.579,12.579,0,0,0,4.955-9.018.974.974,0,0,0-1.933-.237,10.708,10.708,0,0,1-4.17,7.682c-5.275,3.892-13.682,2.438-13.767,2.422A.974.974,0,0,0,224.349,125.168Z" transform="translate(-195.266 -98.727)"/>
      </g>
    </g>
  </g>
</svg>
