<svg xmlns="http://www.w3.org/2000/svg" width="85" height="84.141" viewBox="0 0 85 84.141">
  <g id="Grupo_1102908" data-name="Grupo 1102908" transform="translate(0 -2.587)">
    <g id="Grupo_1102906" data-name="Grupo 1102906" transform="translate(1.245 3.831)">
      <path id="Trazado_879542" data-name="Trazado 879542" d="M50.521,299.4H11.141A3.641,3.641,0,0,1,7.5,295.755v-4.582a3.641,3.641,0,0,1,3.641-3.641H50.521a3.641,3.641,0,0,1,3.641,3.641v4.582A3.641,3.641,0,0,1,50.521,299.4Z" transform="translate(-7.5 -241.47)" fill="#f1e64c"/>
      <path id="Trazado_879543" data-name="Trazado 879543" d="M18.717,299.4H11.142a3.641,3.641,0,0,1-3.642-3.64v-4.583a3.641,3.641,0,0,1,3.642-3.64h7.575a3.641,3.641,0,0,0-3.64,3.64v4.583A3.641,3.641,0,0,0,18.717,299.4Z" transform="translate(-7.5 -241.473)" fill="#ffc250"/>
      <path id="Trazado_879544" data-name="Trazado 879544" d="M54.163,319.63v2.9a3.64,3.64,0,0,1-3.641,3.639H11.142A3.64,3.64,0,0,1,7.5,322.525v-2.9a3.641,3.641,0,0,0,3.641,3.641H50.522A3.641,3.641,0,0,0,54.163,319.63Z" transform="translate(-7.501 -268.239)" fill="#ffc250"/>
      <path id="Trazado_879545" data-name="Trazado 879545" d="M91.16,227.939H51.779a3.641,3.641,0,0,1-3.641-3.641v-4.582a3.641,3.641,0,0,1,3.641-3.641H91.16a3.641,3.641,0,0,1,3.641,3.641V224.3a3.641,3.641,0,0,1-3.641,3.641Z" transform="translate(-41.391 -181.877)" fill="#f1e64c"/>
      <path id="Trazado_879546" data-name="Trazado 879546" d="M59.356,227.942H51.781a3.641,3.641,0,0,1-3.642-3.64v-4.583a3.641,3.641,0,0,1,3.642-3.64h7.575a3.641,3.641,0,0,0-3.64,3.64V224.3A3.641,3.641,0,0,0,59.356,227.942Z" transform="translate(-41.392 -181.879)" fill="#ffc250"/>
      <path id="Trazado_879547" data-name="Trazado 879547" d="M94.8,248.174v2.9a3.64,3.64,0,0,1-3.641,3.639H51.781a3.64,3.64,0,0,1-3.641-3.639v-2.9a3.641,3.641,0,0,0,3.641,3.641H91.161A3.641,3.641,0,0,0,94.8,248.174Z" transform="translate(-41.393 -208.646)" fill="#ffc250"/>
      <path id="Trazado_879548" data-name="Trazado 879548" d="M62.583,156.481H23.2a3.641,3.641,0,0,1-3.641-3.641v-4.582a3.641,3.641,0,0,1,3.641-3.641H62.583a3.641,3.641,0,0,1,3.641,3.641v4.582A3.641,3.641,0,0,1,62.583,156.481Z" transform="translate(-17.56 -122.282)" fill="#f1e64c"/>
      <path id="Trazado_879549" data-name="Trazado 879549" d="M30.78,156.485H23.2a3.641,3.641,0,0,1-3.642-3.64v-4.583a3.641,3.641,0,0,1,3.642-3.64H30.78a3.641,3.641,0,0,0-3.64,3.64v4.583A3.641,3.641,0,0,0,30.78,156.485Z" transform="translate(-17.56 -122.285)" fill="#ffc250"/>
      <path id="Trazado_879550" data-name="Trazado 879550" d="M66.225,176.716v2.9a3.64,3.64,0,0,1-3.641,3.639H23.2a3.64,3.64,0,0,1-3.641-3.639v-2.9a3.641,3.641,0,0,0,3.641,3.641H62.584A3.641,3.641,0,0,0,66.225,176.716Z" transform="translate(-17.56 -149.051)" fill="#ffc250"/>
      <path id="Trazado_879551" data-name="Trazado 879551" d="M70.521,370.853H31.141a3.641,3.641,0,0,1-3.641-3.641v-4.582a3.641,3.641,0,0,1,3.641-3.641H70.521a3.641,3.641,0,0,1,3.641,3.641v4.582A3.641,3.641,0,0,1,70.521,370.853Z" transform="translate(-24.18 -301.065)" fill="#f1e64c"/>
      <path id="Trazado_879552" data-name="Trazado 879552" d="M74.163,391.088v2.9a3.64,3.64,0,0,1-3.641,3.639H31.142a3.64,3.64,0,0,1-3.641-3.639v-2.9a3.641,3.641,0,0,0,3.641,3.641H70.522A3.641,3.641,0,0,0,74.163,391.088Z" transform="translate(-24.181 -327.834)" fill="#ffc250"/>
      <path id="Trazado_879553" data-name="Trazado 879553" d="M38.717,370.856H31.142a3.641,3.641,0,0,1-3.642-3.64v-4.583a3.641,3.641,0,0,1,3.642-3.64h7.575a3.641,3.641,0,0,0-3.64,3.64v4.583A3.641,3.641,0,0,0,38.717,370.856Z" transform="translate(-24.18 -301.067)" fill="#ffc250"/>
      <path id="Trazado_879554" data-name="Trazado 879554" d="M55.521,442.311H16.141a3.641,3.641,0,0,1-3.641-3.641v-4.582a3.641,3.641,0,0,1,3.641-3.641H55.521a3.641,3.641,0,0,1,3.641,3.641v4.582A3.641,3.641,0,0,1,55.521,442.311Z" transform="translate(-11.67 -360.66)" fill="#f1e64c"/>
      <path id="Trazado_879555" data-name="Trazado 879555" d="M59.163,462.546v2.9a3.64,3.64,0,0,1-3.641,3.639H16.142a3.64,3.64,0,0,1-3.641-3.639v-2.9a3.641,3.641,0,0,0,3.641,3.641H55.522A3.641,3.641,0,0,0,59.163,462.546Z" transform="translate(-11.671 -387.429)" fill="#ffc250"/>
      <path id="Trazado_879556" data-name="Trazado 879556" d="M23.717,442.314H16.142a3.641,3.641,0,0,1-3.642-3.64v-4.583a3.641,3.641,0,0,1,3.642-3.64h7.575a3.641,3.641,0,0,0-3.64,3.64v4.583A3.641,3.641,0,0,0,23.717,442.314Z" transform="translate(-11.67 -360.662)" fill="#ffc250"/>
      <g id="Grupo_1102903" data-name="Grupo 1102903" transform="translate(35.848 34.99)">
        <circle id="Elipse_11884" data-name="Elipse 11884" cx="23.331" cy="23.331" r="23.331" fill="#f1e64c"/>
        <g id="Grupo_1102902" data-name="Grupo 1102902" transform="translate(0 0)">
          <path id="Trazado_879557" data-name="Trazado 879557" d="M248.734,267.419q-.974.084-1.973.083a23.331,23.331,0,0,1,0-46.661q1,0,1.973.083a23.331,23.331,0,0,0,0,46.495Z" transform="translate(-223.43 -220.841)" fill="#ffc250"/>
          <circle id="Elipse_11885" data-name="Elipse 11885" cx="15.754" cy="15.754" r="15.754" transform="translate(7.577 7.576)" fill="#ffc250"/>
        </g>
      </g>
      <g id="Grupo_1102904" data-name="Grupo 1102904" transform="translate(8.571 2.007)">
        <path id="Trazado_879558" data-name="Trazado 879558" d="M82.079,69.953V50.746h3.283a5.178,5.178,0,0,0,4.484-7.767L79.323,24.755a5.178,5.178,0,0,0-8.968,0L59.831,42.979a5.178,5.178,0,0,0,4.484,7.767H67.6V69.953a3.258,3.258,0,0,0,3.258,3.258h7.963a3.258,3.258,0,0,0,3.258-3.258Z" transform="translate(-59.13 -22.166)" fill="#95d6a4"/>
        <path id="Trazado_879559" data-name="Trazado 879559" d="M73.856,73.219h-3A3.257,3.257,0,0,1,67.6,69.962V50.752H64.315a5.177,5.177,0,0,1-4.483-7.767L70.355,24.761a5.129,5.129,0,0,1,4.484-2.587c-1.168,0-2.337.862-3,2.587l-7.05,18.224c-1.337,3.453.333,7.767,3,7.767h1.35a2.534,2.534,0,0,1,2.534,2.534V69.96c0,1.8.978,3.259,2.183,3.259Z" transform="translate(-59.13 -22.173)" fill="#78c2a4"/>
      </g>
      <g id="Grupo_1102905" data-name="Grupo 1102905" transform="translate(41.973)">
        <path id="Trazado_879560" data-name="Trazado 879560" d="M372.42,140.98l-.1-.355a2.468,2.468,0,0,1,1.584-2.974l3.776-1.295a2.468,2.468,0,0,1,3.185,1.7l.237.883A2.468,2.468,0,0,1,379.2,142l-3.917.767A2.468,2.468,0,0,1,372.42,140.98Z" transform="translate(-353.661 -115.28)" fill="#f7f493"/>
        <path id="Trazado_879561" data-name="Trazado 879561" d="M332.052,63.216l-.26-.26a2.468,2.468,0,0,1-.115-3.367l2.623-3.009a2.468,2.468,0,0,1,3.606-.124l.646.646a2.468,2.468,0,0,1-.124,3.606l-3.009,2.623A2.468,2.468,0,0,1,332.052,63.216Z" transform="translate(-319.324 -48.153)" fill="#f7f493"/>
        <path id="Trazado_879562" data-name="Trazado 879562" d="M262.51,18.942l-.355-.1a2.468,2.468,0,0,1-1.784-2.858l.767-3.917a2.468,2.468,0,0,1,3.061-1.91l.883.237a2.468,2.468,0,0,1,1.7,3.185l-1.295,3.776a2.468,2.468,0,0,1-2.974,1.584Z" transform="translate(-260.325 -10.077)" fill="#f7f493"/>
      </g>
    </g>
    <g id="Grupo_1102907" data-name="Grupo 1102907" transform="translate(0 2.587)">
      <path id="Trazado_879563" data-name="Trazado 879563" d="M78.316,55.376A1.245,1.245,0,1,0,76.5,57.084a22.083,22.083,0,1,1-3.572-3.062,1.245,1.245,0,0,0,1.413-2.051,24.589,24.589,0,0,0-19.8-3.609,4.866,4.866,0,0,0-3.528-1.5h-.489a4.855,4.855,0,0,0,.63-2.4V39.879a4.891,4.891,0,0,0-4.886-4.886h-5.3L31.089,17.877a6.36,6.36,0,0,0-5.564-3.212h0a6.355,6.355,0,0,0-5.559,3.21L10.08,34.994H6.888A4.891,4.891,0,0,0,2,39.879v4.582a4.891,4.891,0,0,0,4.886,4.886h.489a4.855,4.855,0,0,0-.63,2.4v4.582a4.855,4.855,0,0,0,.63,2.4H4.886A4.891,4.891,0,0,0,0,63.6v4.582a4.893,4.893,0,0,0,4,4.8,4.855,4.855,0,0,0-.678,2.478V80.05a4.856,4.856,0,0,0,.795,2.666A4.893,4.893,0,0,0,.83,87.332v4.582A4.891,4.891,0,0,0,5.716,96.8H45.1a4.9,4.9,0,0,0,4.32-2.606,24.574,24.574,0,0,0,28.9-38.817ZM5.811,80.05V75.468a2.4,2.4,0,0,1,2.4-2.4H35.864a24.41,24.41,0,0,0,2.213,9.373H8.206a2.4,2.4,0,0,1-2.4-2.4ZM51.373,49.376A24.716,24.716,0,0,0,39.9,58.721H34.012V49.347h17a2.4,2.4,0,0,1,.36.028Zm-2.709-9.5v4.582a2.4,2.4,0,0,1-2.4,2.4H34.012V45.736h2.037a6.426,6.426,0,0,0,6.159-8.252h4.061A2.4,2.4,0,0,1,48.664,39.88ZM4.492,44.462V39.88a2.4,2.4,0,0,1,2.4-2.4H8.843a6.342,6.342,0,0,0-.115,3.222,1.245,1.245,0,1,0,2.429-.547,3.847,3.847,0,0,1,.44-2.812L22.121,19.121a3.89,3.89,0,0,1,3.4-1.965h0a3.9,3.9,0,0,1,3.408,1.967L39.455,37.346a3.933,3.933,0,0,1-3.406,5.9H32.767a1.245,1.245,0,0,0-1.245,1.245V63.7a2.016,2.016,0,0,1-2.014,2.014H21.546A2.016,2.016,0,0,1,19.532,63.7V44.491a1.245,1.245,0,0,0-1.245-1.245H15a3.957,3.957,0,0,1-1.356-.234,1.245,1.245,0,0,0-.851,2.34A6.436,6.436,0,0,0,15,45.736h2.039v1.121H6.888a2.4,2.4,0,0,1-2.4-2.4ZM9.237,56.325V51.743a2.4,2.4,0,0,1,2.4-2.4h5.409v9.373H11.633A2.4,2.4,0,0,1,9.237,56.325ZM2.49,68.187V63.6a2.4,2.4,0,0,1,2.4-2.394H17.042V63.7a4.509,4.509,0,0,0,4.5,4.5h7.962a4.509,4.509,0,0,0,4.5-4.5V61.211h4.446A24.4,24.4,0,0,0,35.9,70.583H4.886a2.4,2.4,0,0,1-2.4-2.4ZM45.1,94.309H5.716a2.4,2.4,0,0,1-2.4-2.4V87.332a2.4,2.4,0,0,1,2.4-2.4H39.4a24.769,24.769,0,0,0,7.851,8.026A2.4,2.4,0,0,1,45.1,94.309Z" transform="translate(0 -12.66)"/>
      <path id="Trazado_879564" data-name="Trazado 879564" d="M332.446,299.6c-.441-.128-.892-.263-1.342-.4v-5.517a5.262,5.262,0,0,1,2.2.8,1.245,1.245,0,0,0,1.5-1.989,7.875,7.875,0,0,0-3.694-1.321V290.1a1.245,1.245,0,1,0-2.49,0v1.155c-.24.041-.486.091-.736.153a5.2,5.2,0,0,0-3.993,4.08,4.011,4.011,0,0,0,1.758,4.1,14.741,14.741,0,0,0,2.971,1.4v6.988a7.181,7.181,0,0,1-3.553-1.03,1.245,1.245,0,0,0-1.181,2.192,9.527,9.527,0,0,0,4.735,1.329v1.223a1.245,1.245,0,1,0,2.49,0v-1.3a6.341,6.341,0,0,0,5.6-5.115C337.066,302.683,335.394,300.458,332.446,299.6Zm-5.452-2.1a1.542,1.542,0,0,1-.653-1.6,2.674,2.674,0,0,1,2.136-2.073l.137-.031v4.521A10.424,10.424,0,0,1,326.994,297.5Zm7.244,7.427a3.779,3.779,0,0,1-3.134,2.926V301.8c.209.063.423.126.646.191C333.52,302.506,334.426,303.575,334.238,304.923Z" transform="translate(-269.565 -241.328)"/>
      <path id="Trazado_879565" data-name="Trazado 879565" d="M278.568,258.977a17,17,0,1,0,17,17A17.019,17.019,0,0,0,278.568,258.977Zm0,31.509a14.509,14.509,0,1,1,14.509-14.509A14.526,14.526,0,0,1,278.568,290.486Z" transform="translate(-218.144 -216.412)"/>
      <path id="Trazado_879566" data-name="Trazado 879566" d="M364.872,134.7l.1.355h0a3.727,3.727,0,0,0,3.591,2.752,3.68,3.68,0,0,0,.71-.069l3.917-.767a3.713,3.713,0,0,0,2.874-4.605l-.237-.883a3.714,3.714,0,0,0-4.791-2.551l-3.776,1.294a3.725,3.725,0,0,0-2.383,4.474Zm3.19-2.118,3.776-1.294a1.223,1.223,0,0,1,1.578.84l.237.883a1.223,1.223,0,0,1-.946,1.517l-3.917.767a1.226,1.226,0,0,1-1.416-.884l-.1-.356A1.227,1.227,0,0,1,368.063,132.583Z" transform="translate(-304.193 -107.791)"/>
      <path id="Trazado_879567" data-name="Trazado 879567" d="M324.937,57.841a3.724,3.724,0,0,0,5.066.173l3.009-2.623a3.713,3.713,0,0,0,.186-5.425l-.647-.647a3.713,3.713,0,0,0-5.425.186L324.5,52.515a3.725,3.725,0,0,0,.174,5.066Zm1.444-3.69L329,51.142a1.21,1.21,0,0,1,.88-.419h.044a1.21,1.21,0,0,1,.863.358l.647.647a1.223,1.223,0,0,1-.061,1.787l-3.009,2.623a1.227,1.227,0,0,1-1.669-.057l-.26-.26A1.227,1.227,0,0,1,326.38,54.151Z" transform="translate(-269.872 -40.655)"/>
      <path id="Trazado_879568" data-name="Trazado 879568" d="M271.547,70.725h0Z" transform="translate(-226.466 -59.413)"/>
      <path id="Trazado_879569" data-name="Trazado 879569" d="M255.581,13.8l.355.1a3.688,3.688,0,0,0,.955.126,3.728,3.728,0,0,0,3.519-2.509L261.7,7.741a3.713,3.713,0,0,0-2.551-4.791l-.883-.237a3.713,3.713,0,0,0-4.605,2.874L252.9,9.5a3.725,3.725,0,0,0,2.683,4.3Zm-.239-3.822.767-3.917a1.225,1.225,0,0,1,1.2-.989,1.238,1.238,0,0,1,.32.043l.883.237a1.223,1.223,0,0,1,.841,1.578l-1.294,3.776a1.227,1.227,0,0,1-1.474.785h0l-.355-.1A1.227,1.227,0,0,1,255.342,9.982Z" transform="translate(-210.855 -2.587)"/>
    </g>
  </g>
</svg>
