<svg xmlns="http://www.w3.org/2000/svg" width="85" height="72.977" viewBox="0 0 85 72.977">
  <g id="Grupo_1102930" data-name="Grupo 1102930" transform="translate(0.004 -36.207)">
    <g id="Grupo_1102929" data-name="Grupo 1102929" transform="translate(1.326 37.536)">
      <g id="Grupo_1102926" data-name="Grupo 1102926">
        <path id="Trazado_879603" data-name="Trazado 879603" d="M8.737,79.481,69.485,44.408a1.476,1.476,0,0,1,2.013.539l18.649,32.3a1.476,1.476,0,0,1-.539,2.013L28.86,114.334a1.476,1.476,0,0,1-2.013-.539L8.2,81.494a1.476,1.476,0,0,1,.539-2.013Z" transform="translate(-8.001 -44.212)" fill="#9ec63d" fill-rule="evenodd"/>
        <path id="Trazado_879604" data-name="Trazado 879604" d="M60.254,120.652l45.577-26.314a.733.733,0,0,1,.955.193,5.123,5.123,0,0,0,6.059,1.623.734.734,0,0,1,.924.311l9.89,17.13a.733.733,0,0,1-.193.955,5.123,5.123,0,0,0-1.623,6.059.734.734,0,0,1-.311.924L75.956,147.847a.733.733,0,0,1-.955-.193,5.123,5.123,0,0,0-6.059-1.623.734.734,0,0,1-.924-.311l-9.89-17.13a.733.733,0,0,1,.193-.955,5.123,5.123,0,0,0,1.623-6.059.733.733,0,0,1,.31-.924Z" transform="translate(-49.723 -85.933)" fill="#c2ed56" fill-rule="evenodd"/>
      </g>
      <g id="Grupo_1102928" data-name="Grupo 1102928" transform="translate(5.082 15.423)">
        <path id="Trazado_879605" data-name="Trazado 879605" d="M40.089,137.115h70.145a1.476,1.476,0,0,1,1.474,1.474v37.3a1.476,1.476,0,0,1-1.474,1.474H40.089a1.476,1.476,0,0,1-1.474-1.474v-37.3A1.476,1.476,0,0,1,40.089,137.115Z" transform="translate(-38.615 -137.115)" fill="#abd641" fill-rule="evenodd"/>
        <path id="Trazado_879606" data-name="Trazado 879606" d="M71.056,163.744h52.628a.734.734,0,0,1,.731.645,5.123,5.123,0,0,0,4.435,4.435.734.734,0,0,1,.645.731v19.781a.734.734,0,0,1-.645.731,5.123,5.123,0,0,0-4.435,4.435.734.734,0,0,1-.731.645H71.056a.734.734,0,0,1-.731-.645,5.123,5.123,0,0,0-4.435-4.435.734.734,0,0,1-.645-.731V169.555a.734.734,0,0,1,.645-.731,5.123,5.123,0,0,0,4.435-4.435A.734.734,0,0,1,71.056,163.744Z" transform="translate(-60.824 -159.323)" fill="#c2ed56" fill-rule="evenodd"/>
        <g id="Grupo_1102927" data-name="Grupo 1102927" transform="translate(12.848 9.07)">
          <path id="Trazado_879607" data-name="Trazado 879607" d="M371.995,242.235a2.671,2.671,0,1,1-2.671,2.671A2.671,2.671,0,0,1,371.995,242.235Z" transform="translate(-327.27 -233.854)" fill="#abd641" fill-rule="evenodd"/>
          <path id="Trazado_879608" data-name="Trazado 879608" d="M118.679,242.235a2.671,2.671,0,1,1-2.671,2.671A2.671,2.671,0,0,1,118.679,242.235Z" transform="translate(-116.008 -233.854)" fill="#abd641" fill-rule="evenodd"/>
          <circle id="Elipse_11890" data-name="Elipse 11890" cx="11.052" cy="11.052" r="11.052" transform="translate(12.646)" fill="#abd641"/>
        </g>
      </g>
    </g>
    <path id="Trazado_879609" data-name="Trazado 879609" d="M42.954,82.806a9.724,9.724,0,1,1,9.725-9.725A9.736,9.736,0,0,1,42.954,82.806Zm0-22.1A12.38,12.38,0,1,0,55.336,73.081,12.394,12.394,0,0,0,42.954,60.7Zm5,14.924c-.255-2.107-1.862-3.418-4.776-3.9-2.168-.356-2.206-1.136-2.219-1.429-.055-1.109,1.165-1.443,1.411-1.5a2.321,2.321,0,0,1,2.757,1.284,1.328,1.328,0,1,0,2.449-1.029,4.715,4.715,0,0,0-3.3-2.821v-.465a1.328,1.328,0,0,0-2.656,0v.478a4.127,4.127,0,0,0-3.319,4.179c.059,1.2.713,3.309,4.441,3.921,2.425.4,2.529,1.237,2.572,1.594a.89.89,0,0,1-.2.747,2.959,2.959,0,0,1-2.046.738,2.386,2.386,0,0,1-2.536-1.562,1.328,1.328,0,0,0-2.578.642,4.728,4.728,0,0,0,3.667,3.429v.453a1.328,1.328,0,0,0,2.656,0v-.431a5.051,5.051,0,0,0,2.846-1.529A3.52,3.52,0,0,0,47.957,75.626Zm-26.029-1.2a1.342,1.342,0,1,1,1.343-1.344A1.344,1.344,0,0,1,21.928,74.424Zm0-5.341a4,4,0,1,0,4,4A4,4,0,0,0,21.928,69.084Zm42.054,5.341a1.342,1.342,0,1,1,1.341-1.344A1.343,1.343,0,0,1,63.983,74.424Zm0-5.341a4,4,0,1,0,4,4A4,4,0,0,0,63.983,69.084Zm9.77,13.389V63.691a6.469,6.469,0,0,1-4.984-4.984H17.14a6.467,6.467,0,0,1-4.984,4.984V82.472a6.465,6.465,0,0,1,4.984,4.982H68.769A6.468,6.468,0,0,1,73.753,82.472Zm1.33-21.3a3.8,3.8,0,0,1-3.795-3.793,1.329,1.329,0,0,0-1.328-1.328H15.95a1.329,1.329,0,0,0-1.328,1.328,3.8,3.8,0,0,1-3.793,3.793A1.329,1.329,0,0,0,9.5,62.5V83.663a1.329,1.329,0,0,0,1.328,1.328,3.8,3.8,0,0,1,3.793,3.792,1.328,1.328,0,0,0,1.328,1.328H69.959a1.328,1.328,0,0,0,1.328-1.328,3.8,3.8,0,0,1,3.795-3.792,1.327,1.327,0,0,0,1.323-1.328V62.5a1.327,1.327,0,0,0-1.323-1.328Zm7.251,10.175a.138.138,0,0,1-.063.088l-1.441.832V68.652l1.5,2.584A.179.179,0,0,1,82.334,71.348ZM78.176,91.731v-37.3a.152.152,0,0,0-.149-.146H7.882a.15.15,0,0,0-.146.146v37.3a.149.149,0,0,0,.146.146H78.027A.151.151,0,0,0,78.176,91.731Zm-58.633,2.8H33.421l-6.093,3.515a6.462,6.462,0,0,0-6.808-1.824ZM21.52,106.51,42.265,94.534H38.734l-11.107,6.413a1.33,1.33,0,0,1-1.815-.486,3.793,3.793,0,0,0-5.181-1.388,1.325,1.325,0,0,1-1.813-.486l-2.341-4.052H14.438l6.884,11.921a.138.138,0,0,0,.088.068.15.15,0,0,0,.11-.013ZM2.672,74.155a.148.148,0,0,1-.013-.111.144.144,0,0,1,.066-.088L5.08,72.6v5.727ZM65.9,51.631H50.235l7.431-4.288a6.459,6.459,0,0,0,6.808,1.824ZM63.474,38.882,41.393,51.631h3.529l12.446-7.185a1.327,1.327,0,0,1,1.815.486,3.794,3.794,0,0,0,5.182,1.388,1.325,1.325,0,0,1,1.813.486l2.787,4.825H71L63.673,38.937a.136.136,0,0,0-.088-.068.145.145,0,0,0-.111.013ZM84.621,69.908l-3.79-6.569V54.432a2.809,2.809,0,0,0-2.8-2.8H74.072l-8.1-14.022a2.8,2.8,0,0,0-3.826-1.026L36.08,51.63H7.882a2.807,2.807,0,0,0-2.8,2.8v15.1L1.4,71.654A2.807,2.807,0,0,0,.372,75.483L5.08,83.636v8.1a2.807,2.807,0,0,0,2.8,2.8h3.49l7.65,13.249a2.783,2.783,0,0,0,1.7,1.3,2.815,2.815,0,0,0,.731.1,2.768,2.768,0,0,0,1.393-.375L47.576,94.533H78.027a2.809,2.809,0,0,0,2.8-2.8v-16.4l2.764-1.6a2.8,2.8,0,0,0,1.026-3.828Z" transform="translate(0 0)" fill-rule="evenodd"/>
  </g>
</svg>
