<svg xmlns="http://www.w3.org/2000/svg" width="100" height="100" viewBox="0 0 100 100">
  <g id="Grupo_1102946" data-name="Grupo 1102946" transform="translate(-23557 9344)">
    <circle id="Elipse_11897" data-name="Elipse 11897" cx="50" cy="50" r="50" transform="translate(23557 -9344)" fill="#e8faf9"/>
    <g id="Grupo_1102945" data-name="Grupo 1102945" transform="translate(23578.746 -9324.254)">
      <g id="Grupo_1102943" data-name="Grupo 1102943" transform="translate(0.886 0.886)">
        <path id="Trazado_879668" data-name="Trazado 879668" d="M49.363,94.74H9.888A2.388,2.388,0,0,1,7.5,92.352V42.213a2.388,2.388,0,0,1,2.388-2.388H49.363a2.388,2.388,0,0,1,2.388,2.388v50.14A2.387,2.387,0,0,1,49.363,94.74Z" transform="translate(-7.5 -36.005)" fill="#918291"/>
        <path id="Trazado_879669" data-name="Trazado 879669" d="M284.529,39.825h-4.775a2.388,2.388,0,0,1,2.388,2.388V58.448h-3.422a4.542,4.542,0,0,0-4.536,4.536V93.546a4.524,4.524,0,0,0,.161,1.194h10.186a2.388,2.388,0,0,0,2.388-2.388V42.213a2.388,2.388,0,0,0-2.388-2.388Z" transform="translate(-242.667 -36.005)" fill="#7a6d79"/>
        <path id="Trazado_879670" data-name="Trazado 879670" d="M45.213,89.5V39.825H80.55V90.92H46.633a1.42,1.42,0,0,1-1.42-1.42Z" transform="translate(-40.756 -36.005)" fill="#eaf6ff"/>
        <path id="Trazado_879671" data-name="Trazado 879671" d="M45.213,89.5V39.825H80.55V90.92H46.633a1.42,1.42,0,0,1-1.42-1.42Z" transform="translate(-40.756 -36.005)" fill="#eaf6ff"/>
        <path id="Trazado_879672" data-name="Trazado 879672" d="M279.117,39.825V58.448h-.4a4.542,4.542,0,0,0-4.536,4.536V90.92h8.277V39.825Z" transform="translate(-242.667 -36.005)" fill="#d8ecfe"/>
        <path id="Trazado_879673" data-name="Trazado 879673" d="M109.458,11.32a3.82,3.82,0,1,0-7.64,0H93.7v2.388a1.433,1.433,0,0,0,1.433,1.433h21.011a1.433,1.433,0,0,0,1.433-1.433V11.32Z" transform="translate(-83.513 -7.5)" fill="#cbc4cc"/>
        <path id="Trazado_879674" data-name="Trazado 879674" d="M260.8,39.825v2.388a1.433,1.433,0,0,1-1.433,1.433h2.865a1.433,1.433,0,0,0,1.433-1.433V39.825Z" transform="translate(-229.602 -36.005)" fill="#b5adb6"/>
        <g id="Grupo_1102941" data-name="Grupo 1102941" transform="translate(8.277 11.46)">
          <path id="Trazado_879675" data-name="Trazado 879675" d="M90.669,118.8H78.731a1.194,1.194,0,0,1-1.194-1.194V105.669a1.194,1.194,0,0,1,1.194-1.194H90.669a1.194,1.194,0,0,1,1.194,1.194v11.938A1.194,1.194,0,0,1,90.669,118.8Z" transform="translate(-77.537 -104.475)" fill="#fed2a4"/>
          <path id="Trazado_879676" data-name="Trazado 879676" d="M167.277,104.476h-2.865a1.194,1.194,0,0,1,1.194,1.194v11.938a1.194,1.194,0,0,1-1.194,1.194h2.865a1.194,1.194,0,0,0,1.194-1.194V105.67A1.194,1.194,0,0,0,167.277,104.476Z" transform="translate(-154.145 -104.476)" fill="#ffbd86"/>
          <path id="Trazado_879677" data-name="Trazado 879677" d="M125.075,108.795l-.926-.579a.477.477,0,0,0-.506,0l-.926.579a.478.478,0,0,1-.731-.4v-3.914h3.82v3.914A.478.478,0,0,1,125.075,108.795Z" transform="translate(-116.732 -104.476)" fill="#d88a55"/>
        </g>
        <path id="Trazado_879678" data-name="Trazado 879678" d="M325.149,258.644H303.661a1.194,1.194,0,0,1-1.194-1.194V226.889a1.194,1.194,0,0,1,1.194-1.194h21.488a1.194,1.194,0,0,1,1.194,1.194V257.45A1.194,1.194,0,0,1,325.149,258.644Z" transform="translate(-267.608 -199.909)" fill="#60b7ff"/>
        <path id="Trazado_879679" data-name="Trazado 879679" d="M469.456,225.7h-3.343a1.194,1.194,0,0,1,1.194,1.194V257.45a1.194,1.194,0,0,1-1.194,1.194h3.343a1.194,1.194,0,0,0,1.194-1.194V226.889A1.194,1.194,0,0,0,469.456,225.7Z" transform="translate(-411.914 -199.909)" fill="#26a6fe"/>
        <path id="Trazado_879680" data-name="Trazado 879680" d="M334.793,262.079v-2.865a1.194,1.194,0,0,1,1.194-1.194h13.848a1.194,1.194,0,0,1,1.194,1.194v2.865a1.194,1.194,0,0,1-1.194,1.194H335.987A1.194,1.194,0,0,1,334.793,262.079Z" transform="translate(-296.114 -228.414)" fill="#eaf6ff"/>
        <path id="Trazado_879681" data-name="Trazado 879681" d="M437.131,258.02h-3.343a1.194,1.194,0,0,1,1.194,1.194v2.865a1.194,1.194,0,0,1-1.194,1.194h3.343a1.194,1.194,0,0,0,1.194-1.194v-2.865A1.194,1.194,0,0,0,437.131,258.02Z" transform="translate(-383.41 -228.414)" fill="#d8ecfe"/>
        <g id="Grupo_1102942" data-name="Grupo 1102942" transform="translate(38.679 38.679)">
          <path id="Trazado_879682" data-name="Trazado 879682" d="M341,339.807v-3.82a1.194,1.194,0,0,0-1.194-1.194h-3.82a1.194,1.194,0,0,0-1.194,1.194v3.82A1.194,1.194,0,0,0,335.986,341h3.82A1.194,1.194,0,0,0,341,339.807Z" transform="translate(-334.792 -334.793)" fill="#eaf6ff"/>
          <path id="Trazado_879683" data-name="Trazado 879683" d="M420.84,341h3.82a1.194,1.194,0,0,0,1.194-1.194v-3.82a1.194,1.194,0,0,0-1.194-1.194h-3.82a1.194,1.194,0,0,0-1.194,1.194v3.82A1.194,1.194,0,0,0,420.84,341Z" transform="translate(-409.618 -334.792)" fill="#eaf6ff"/>
          <path id="Trazado_879684" data-name="Trazado 879684" d="M424.66,334.793h-.043a4.148,4.148,0,0,1-4.971,4.815v.2A1.194,1.194,0,0,0,420.84,341h3.82a1.194,1.194,0,0,0,1.194-1.194v-3.82A1.194,1.194,0,0,0,424.66,334.793Z" transform="translate(-409.618 -334.793)" fill="#d8ecfe"/>
          <path id="Trazado_879685" data-name="Trazado 879685" d="M339.807,334.793h-.043a4.148,4.148,0,0,1-4.971,4.815v.2A1.194,1.194,0,0,0,335.987,341h3.82A1.194,1.194,0,0,0,341,339.807v-3.82a1.194,1.194,0,0,0-1.194-1.194Z" transform="translate(-334.793 -334.793)" fill="#d8ecfe"/>
          <path id="Trazado_879686" data-name="Trazado 879686" d="M419.646,420.84v3.82a1.194,1.194,0,0,0,1.194,1.194h3.82a1.194,1.194,0,0,0,1.194-1.194v-3.82a1.194,1.194,0,0,0-1.194-1.194h-3.82A1.194,1.194,0,0,0,419.646,420.84Z" transform="translate(-409.618 -409.618)" fill="#ffe177"/>
          <path id="Trazado_879687" data-name="Trazado 879687" d="M339.807,419.646h-3.82a1.194,1.194,0,0,0-1.194,1.194v3.82a1.194,1.194,0,0,0,1.194,1.194h3.82A1.194,1.194,0,0,0,341,424.66v-3.82A1.194,1.194,0,0,0,339.807,419.646Z" transform="translate(-334.793 -409.618)" fill="#eaf6ff"/>
        </g>
        <path id="Trazado_879688" data-name="Trazado 879688" d="M339.807,419.646h-.043a4.148,4.148,0,0,1-4.971,4.815v.2a1.194,1.194,0,0,0,1.194,1.194h3.82A1.194,1.194,0,0,0,341,424.66v-3.82a1.194,1.194,0,0,0-1.194-1.194Z" transform="translate(-296.114 -370.939)" fill="#d8ecfe"/>
        <path id="Trazado_879689" data-name="Trazado 879689" d="M424.66,419.646h-.043a4.148,4.148,0,0,1-4.971,4.815v.2a1.194,1.194,0,0,0,1.194,1.194h3.82a1.194,1.194,0,0,0,1.194-1.194v-3.82A1.194,1.194,0,0,0,424.66,419.646Z" transform="translate(-370.939 -370.939)" fill="#ffd15b"/>
      </g>
      <g id="Grupo_1102944" data-name="Grupo 1102944" transform="translate(0 0)">
        <path id="Trazado_879690" data-name="Trazado 879690" d="M230.13,219.081a.886.886,0,0,0-.886-.886h-4.775a.886.886,0,1,0,0,1.773h4.775A.886.886,0,0,0,230.13,219.081Z" transform="translate(-197.159 -192.409)"/>
        <path id="Trazado_879691" data-name="Trazado 879691" d="M234.906,178.675a.886.886,0,0,0-.886-.886h-9.55a.886.886,0,0,0,0,1.773h9.55A.886.886,0,0,0,234.906,178.675Z" transform="translate(-197.16 -156.778)"/>
        <path id="Trazado_879692" data-name="Trazado 879692" d="M224.469,139.155h4.775a.886.886,0,0,0,0-1.773h-4.775a.886.886,0,0,0,0,1.773Z" transform="translate(-197.16 -121.146)"/>
        <path id="Trazado_879693" data-name="Trazado 879693" d="M224.469,98.749h9.55a.886.886,0,0,0,0-1.773h-9.55a.886.886,0,0,0,0,1.773Z" transform="translate(-197.16 -85.515)"/>
        <path id="Trazado_879694" data-name="Trazado 879694" d="M86.135,110.993V99.055a2.083,2.083,0,0,0-2.08-2.08H72.117a2.083,2.083,0,0,0-2.08,2.08v11.938a2.083,2.083,0,0,0,2.08,2.08H84.055A2.083,2.083,0,0,0,86.135,110.993ZM77.063,98.748H79.11v2.29l-.3-.188a1.372,1.372,0,0,0-1.446,0l-.3.188ZM71.81,110.993V99.055a.308.308,0,0,1,.308-.308H75.29v3.027a1.364,1.364,0,0,0,2.087,1.157l.71-.444.71.444a1.364,1.364,0,0,0,2.087-1.157V98.748h3.173a.308.308,0,0,1,.308.308v11.938a.308.308,0,0,1-.308.307H72.117A.308.308,0,0,1,71.81,110.993Z" transform="translate(-61.76 -85.515)"/>
        <path id="Trazado_879695" data-name="Trazado 879695" d="M59.621,32.456a.886.886,0,0,0,.886-.886v-3.7a2.082,2.082,0,0,0-2.08-2.08H46.023V7.094a3.277,3.277,0,0,0-3.273-3.274H27.634a4.707,4.707,0,0,0-9.246,0H3.274A3.277,3.277,0,0,0,0,7.094v5.375a.886.886,0,1,0,1.773,0V7.094a1.5,1.5,0,0,1,1.5-1.5H4.457V54.381a2.309,2.309,0,0,0,2.307,2.306h28.1v1.741a2.076,2.076,0,0,0,.025.307H3.274a1.5,1.5,0,0,1-1.5-1.5V16.617a.886.886,0,1,0-1.773,0V57.234a3.277,3.277,0,0,0,3.274,3.274H58.428a2.082,2.082,0,0,0,2.08-2.08V35.717a.886.886,0,1,0-1.773,0V58.428a.308.308,0,0,1-.307.307H36.939a.308.308,0,0,1-.307-.307V49.784a.886.886,0,0,0-1.773,0v5.13H6.763a.534.534,0,0,1-.534-.533V5.593h3.958v1.5a2.322,2.322,0,0,0,2.319,2.319H33.517a2.322,2.322,0,0,0,2.319-2.319v-1.5h3.957V25.787H36.939a2.082,2.082,0,0,0-2.08,2.08V45.636a.886.886,0,0,0,1.773,0V27.867a.308.308,0,0,1,.307-.307H58.428a.308.308,0,0,1,.307.307v3.7a.886.886,0,0,0,.886.886ZM34.063,7.094a.547.547,0,0,1-.546.546H12.506a.547.547,0,0,1-.546-.546v-1.5h7.232a.886.886,0,0,0,.886-.886,2.934,2.934,0,1,1,5.868,0,.886.886,0,0,0,.886.886h7.232v1.5Zm7.5-1.5h1.183a1.5,1.5,0,0,1,1.5,1.5V25.787H41.566Z" transform="translate(0 0)"/>
        <path id="Trazado_879696" data-name="Trazado 879696" d="M345.3,252.6a2.083,2.083,0,0,0-2.08-2.08H329.373a2.083,2.083,0,0,0-2.08,2.08v2.865a2.083,2.083,0,0,0,2.08,2.08h13.848a2.083,2.083,0,0,0,2.08-2.08V252.6Zm-1.773,2.865a.308.308,0,0,1-.307.307H329.373a.308.308,0,0,1-.307-.307V252.6a.308.308,0,0,1,.307-.308h13.848a.308.308,0,0,1,.307.308v2.865Z" transform="translate(-288.614 -220.914)"/>
        <path id="Trazado_879697" data-name="Trazado 879697" d="M335.273,329.373a2.083,2.083,0,0,0-2.08-2.08h-3.82a2.083,2.083,0,0,0-2.08,2.08v3.82a2.083,2.083,0,0,0,2.08,2.08h3.82a2.083,2.083,0,0,0,2.08-2.08Zm-1.773,3.82a.308.308,0,0,1-.307.307h-3.82a.308.308,0,0,1-.307-.307v-3.82a.308.308,0,0,1,.307-.307h3.82a.308.308,0,0,1,.307.307Z" transform="translate(-288.613 -288.614)"/>
        <path id="Trazado_879698" data-name="Trazado 879698" d="M420.127,329.373a2.083,2.083,0,0,0-2.08-2.08h-3.82a2.083,2.083,0,0,0-2.08,2.08v3.82a2.083,2.083,0,0,0,2.08,2.08h3.82a2.083,2.083,0,0,0,2.08-2.08Zm-1.773,3.82a.308.308,0,0,1-.307.307h-3.82a.308.308,0,0,1-.307-.307v-3.82a.308.308,0,0,1,.307-.307h3.82a.308.308,0,0,1,.307.307Z" transform="translate(-363.439 -288.614)"/>
        <path id="Trazado_879699" data-name="Trazado 879699" d="M418.046,412.146h-3.82a2.083,2.083,0,0,0-2.08,2.08v3.82a2.083,2.083,0,0,0,2.08,2.08h3.82a2.083,2.083,0,0,0,2.08-2.08v-3.82A2.083,2.083,0,0,0,418.046,412.146Zm.307,5.9a.308.308,0,0,1-.307.307h-3.82a.308.308,0,0,1-.307-.307v-3.82a.308.308,0,0,1,.307-.307h3.82a.308.308,0,0,1,.307.307Z" transform="translate(-363.439 -363.439)"/>
        <path id="Trazado_879700" data-name="Trazado 879700" d="M333.193,412.146h-3.82a2.083,2.083,0,0,0-2.08,2.08v3.82a2.083,2.083,0,0,0,2.08,2.08h3.82a2.083,2.083,0,0,0,2.08-2.08v-3.82A2.083,2.083,0,0,0,333.193,412.146Zm.307,5.9a.308.308,0,0,1-.307.307h-3.82a.308.308,0,0,1-.307-.307v-3.82a.308.308,0,0,1,.307-.307h3.82a.308.308,0,0,1,.307.307Z" transform="translate(-288.614 -363.439)"/>
        <path id="Trazado_879701" data-name="Trazado 879701" d="M160.865,294.538a.886.886,0,0,0,1.16-.474l6.569-15.652a.886.886,0,1,0-1.635-.686l-6.569,15.652A.886.886,0,0,0,160.865,294.538Z" transform="translate(-141.375 -244.425)"/>
        <path id="Trazado_879702" data-name="Trazado 879702" d="M130.972,284.352a3.513,3.513,0,1,0-3.513-3.513A3.517,3.517,0,0,0,130.972,284.352Zm0-5.253a1.74,1.74,0,1,1-1.74,1.74A1.742,1.742,0,0,1,130.972,279.1Z" transform="translate(-112.396 -244.552)"/>
        <path id="Trazado_879703" data-name="Trazado 879703" d="M206.04,374.906a3.513,3.513,0,1,0-3.513-3.513A3.517,3.517,0,0,0,206.04,374.906Zm0-5.253a1.74,1.74,0,1,1-1.74,1.74A1.742,1.742,0,0,1,206.04,369.653Z" transform="translate(-178.592 -324.404)"/>
      </g>
      <circle id="Elipse_11899" data-name="Elipse 11899" cx="0.886" cy="0.886" r="0.886" transform="translate(22.125 3.821)"/>
    </g>
  </g>
</svg>
