<svg xmlns="http://www.w3.org/2000/svg" width="80" height="80" viewBox="0 0 80 80">
  <g id="Grupo_1102620" data-name="Grupo 1102620" transform="translate(-505.051 -655)">
    <rect id="Rectángulo_401663" data-name="Rectángulo 401663" width="80" height="80" rx="8" transform="translate(505.051 655)" fill="#efddcf"/>
    <g id="Grupo_1102968" data-name="Grupo 1102968" transform="translate(525.541 669.466)">
      <g id="Grupo_1102963" data-name="Grupo 1102963" transform="translate(0.796 0.798)">
        <g id="Grupo_1102961" data-name="Grupo 1102961">
          <path id="Trazado_879771" data-name="Trazado 879771" d="M103.661,64.07a2.155,2.155,0,0,1,2.151,2.151V105.8a2.155,2.155,0,0,1-2.151,2.151H70.536a2.155,2.155,0,0,1-2.151-2.151V66.221a2.155,2.155,0,0,1,2.151-2.151Z" transform="translate(-68.385 -58.477)" fill="#eceff1" fill-rule="evenodd"/>
          <path id="Trazado_879772" data-name="Trazado 879772" d="M272.564,64.07a2.155,2.155,0,0,1,2.151,2.151V105.8a2.155,2.155,0,0,1-2.151,2.151H256V64.07Z" transform="translate(-237.289 -58.477)" fill="#d1d1d6" fill-rule="evenodd"/>
          <path id="Trazado_879773" data-name="Trazado 879773" d="M173.475,10.8H177.7a3.657,3.657,0,0,1,7.109,0h4.228a.5.5,0,0,1,.5.5v4.6a.5.5,0,0,1-.5.5H173.475a.5.5,0,0,1-.5-.5v-4.6A.5.5,0,0,1,173.475,10.8Z" transform="translate(-162.544 -8)" fill="#837683" fill-rule="evenodd"/>
          <path id="Trazado_879774" data-name="Trazado 879774" d="M256,8a3.658,3.658,0,0,1,3.555,2.8h4.228a.5.5,0,0,1,.5.5v4.6a.5.5,0,0,1-.5.5H256V8Z" transform="translate(-237.289 -8.001)" fill="#685e68" fill-rule="evenodd"/>
        </g>
        <g id="Grupo_1102962" data-name="Grupo 1102962" transform="translate(8.722 14.901)">
          <path id="Trazado_879775" data-name="Trazado 879775" d="M167.965,163.83l.987,2.949a40.842,40.842,0,0,1,5.625,7.164c3.76,6.6-1.589,13.308-8.753,13.188-7.164.121-12.513-6.585-8.753-13.188a40.846,40.846,0,0,1,5.625-7.164l.991-2.946-2.412-2.411a1.514,1.514,0,0,1,1.889-2.343.778.778,0,0,0,1.181-.489,1.513,1.513,0,0,1,2.958,0,.778.778,0,0,0,1.181.489,1.52,1.52,0,0,1,1.889.2h0a1.518,1.518,0,0,1,0,2.14Z" transform="translate(-155.833 -157.397)" fill="#ffe177" fill-rule="evenodd"/>
          <path id="Trazado_879776" data-name="Trazado 879776" d="M258.142,163.83l.987,2.949a40.843,40.843,0,0,1,5.625,7.164c3.76,6.6-1.589,13.308-8.753,13.188V157.4a1.52,1.52,0,0,1,1.479,1.192.778.778,0,0,0,1.181.489,1.52,1.52,0,0,1,1.889.2h0a1.518,1.518,0,0,1,0,2.14Z" transform="translate(-246.01 -157.397)" fill="#ffd064" fill-rule="evenodd"/>
          <path id="Trazado_879777" data-name="Trazado 879777" d="M209.768,224.872h6.571a1.473,1.473,0,1,0,0-2.946h-6.571a1.473,1.473,0,1,0,0,2.946Z" transform="translate(-203.062 -215.49)" fill="#837683" fill-rule="evenodd"/>
          <path id="Trazado_879778" data-name="Trazado 879778" d="M256,224.872h3.285a1.473,1.473,0,1,0,0-2.946H256Z" transform="translate(-246.011 -215.49)" fill="#685e68" fill-rule="evenodd"/>
        </g>
      </g>
      <path id="Trazado_879779" data-name="Trazado 879779" d="M84.268,37.8a2.934,2.934,0,0,1-.687,2.351,4.6,4.6,0,0,1-2.9,1.4v.844a.8.8,0,0,1-1.6,0v-.856a4.188,4.188,0,0,1-3.59-3.051A.8.8,0,0,1,77.04,38.1,2.8,2.8,0,0,0,80.009,40a3.344,3.344,0,0,0,2.362-.892,1.375,1.375,0,0,0,.315-1.114c-.132-1.063-1.031-1.677-2.922-1.987-3.129-.514-3.859-2.111-3.92-3.359a3.569,3.569,0,0,1,3.007-3.605c.075-.018.155-.033.231-.047v-.867a.8.8,0,0,1,1.6,0v.86a4.145,4.145,0,0,1,3.252,2.54.8.8,0,1,1-1.468.617A2.754,2.754,0,0,0,79.2,30.595a2,2,0,0,0-1.765,1.972c.028.622.329,1.492,2.583,1.862C80.993,34.588,83.939,35.072,84.268,37.8Zm3.812,2.566a7.422,7.422,0,0,0-.108-7.725,38.891,38.891,0,0,0-5.28-6.761H77.13a38.877,38.877,0,0,0-5.28,6.761,7.421,7.421,0,0,0-.108,7.725,9.2,9.2,0,0,0,8.155,4.27h.028a9.191,9.191,0,0,0,8.155-4.27ZM75.925,18.148a.721.721,0,0,1,.894-.1,1.575,1.575,0,0,0,2.391-.991.718.718,0,0,1,1.4,0,1.575,1.575,0,0,0,2.39.991A.716.716,0,0,1,83.9,19.16l-2.179,2.178H78.1L75.925,19.16A.719.719,0,0,1,75.925,18.148Zm.7,6.136a.675.675,0,1,1,0-1.35H83.2a.675.675,0,1,1,0,1.35Zm7.858,1.193a2.269,2.269,0,0,0-.612-4.036l1.153-1.152a2.312,2.312,0,0,0-2.861-3.595,2.313,2.313,0,0,0-4.508,0A2.312,2.312,0,0,0,74.8,20.288l1.153,1.152a2.269,2.269,0,0,0-.612,4.036,37.226,37.226,0,0,0-4.87,6.374,9.069,9.069,0,0,0-.1,9.327,10.8,10.8,0,0,0,9.543,5.053H80.1a10.772,10.772,0,0,0,9.355-5.054,9.069,9.069,0,0,0-.1-9.327,37.294,37.294,0,0,0-4.87-6.374ZM97.825,48.12V8.542a1.354,1.354,0,0,0-1.351-1.353H88.988v2a.794.794,0,0,1-.8.8H71.629a.8.8,0,0,1-.8-.8v-2H63.347A1.354,1.354,0,0,0,62,8.542V48.12a1.353,1.353,0,0,0,1.351,1.352H96.474A1.353,1.353,0,0,0,97.825,48.12ZM72.429,4.392h3.929a.793.793,0,0,0,.772-.611,2.859,2.859,0,0,1,5.557,0,.8.8,0,0,0,.776.611h3.929v4H72.429Zm24.046,1.2H88.988v-2a.794.794,0,0,0-.8-.8H84.047a4.457,4.457,0,0,0-8.272,0H71.629a.8.8,0,0,0-.8.8v2H63.347A2.951,2.951,0,0,0,60.4,8.542V48.12a2.951,2.951,0,0,0,2.946,2.949H96.474A2.951,2.951,0,0,0,99.42,48.12V8.542a2.951,2.951,0,0,0-2.946-2.949Z" transform="translate(-60.401 0)" fill-rule="evenodd"/>
    </g>
  </g>
</svg>
