<svg xmlns="http://www.w3.org/2000/svg" width="96.762" height="96.762" viewBox="0 0 96.762 96.762">
  <g id="Grupo_1101853" data-name="Grupo 1101853" transform="translate(-332.051 -5915.718)">
    <rect id="Rectángulo_400907" data-name="Rectángulo 400907" width="89" height="89" rx="44.5" transform="translate(336.051 5918.718)" fill="none"/>
    <g id="Grupo_1099176" data-name="Grupo 1099176" transform="translate(5.27 1939.718)">
      <g id="Grupo_1099174" data-name="Grupo 1099174" transform="translate(326.781 3976)">
        <g id="Grupo_1099167" data-name="Grupo 1099167" transform="translate(0 0)">
          <path id="Trazado_873000" data-name="Trazado 873000" d="M48.381,0h0V22.476a25.9,25.9,0,1,0,25.905,25.9H96.762A48.381,48.381,0,1,1,48.381,0" transform="translate(0 96.762) rotate(-90)" fill="#201144"/>
        </g>
        <rect id="Rectángulo_401249" data-name="Rectángulo 401249" width="66.409" height="66.409" rx="33.204" transform="translate(15.157 15.157)" fill="#e8faf9"/>
      </g>
    </g>
    <g id="Grupo_1101857" data-name="Grupo 1101857" transform="translate(360.567 5943.234)">
      <path id="Trazado_876729" data-name="Trazado 876729" d="M21,3.664A2.664,2.664,0,0,1,23.664,1H43.648a2.664,2.664,0,0,1,2.664,2.664V26.312a2.664,2.664,0,0,1-2.664,2.664H23.664a2.664,2.664,0,0,1-2.591-2.058v-.007Z" transform="translate(-7.012 -0.334)" fill="#e4f1ff"/>
      <path id="Trazado_876730" data-name="Trazado 876730" d="M30,40.663A4.663,4.663,0,0,1,34.663,36h4a4.663,4.663,0,0,1,4.663,4.663Z" transform="translate(-10.016 -12.02)" fill="#cd596b"/>
      <path id="Trazado_876731" data-name="Trazado 876731" d="M28,14.326V11a6,6,0,0,1,6-6h4a6,6,0,0,1,6,6v3.331l-.666.666H28.666Z" transform="translate(-9.349 -1.669)" fill="#684a44"/>
      <path id="Trazado_876732" data-name="Trazado 876732" d="M41,32.48v2.345a2,2,0,0,1-4,0V32.48Z" transform="translate(-12.354 -10.845)" fill="#926153"/>
      <path id="Trazado_876733" data-name="Trazado 876733" d="M43.987,17.331v1.332a2,2,0,0,1-2,2,6,6,0,1,1-11.99,0,2,2,0,0,1-2-2V17.331a1.332,1.332,0,1,1,2.664,0,2.186,2.186,0,0,1,1.872-2.158A8.887,8.887,0,0,0,35.993,14a8.887,8.887,0,0,0,3.457,1.172,2.186,2.186,0,0,1,1.872,2.158,1.332,1.332,0,1,1,2.664,0Z" transform="translate(-9.349 -4.674)" fill="#a97866"/>
      <rect id="Rectángulo_401910" data-name="Rectángulo 401910" width="3.765" height="3.765" transform="translate(6.805 29.398)" fill="#926153"/>
      <path id="Trazado_876734" data-name="Trazado 876734" d="M7.663,49h0A4.663,4.663,0,0,0,3,53.663v.666a1.332,1.332,0,0,0,1.332,1.332H14.99a1.332,1.332,0,0,0,1.332-1.332v-.666A4.663,4.663,0,0,0,11.66,49Z" transform="translate(-1.002 -16.36)" fill="#cd596b"/>
      <path id="Trazado_876735" data-name="Trazado 876735" d="M16.987,28v3.331a2,2,0,0,1-2,2,6,6,0,0,1-11.99,0,2.018,2.018,0,0,1-2-2V28Z" transform="translate(-0.334 -9.349)" fill="#a97866"/>
      <path id="Trazado_876736" data-name="Trazado 876736" d="M1,24.327A8.575,8.575,0,0,0,8.993,28.99a8.575,8.575,0,0,0,7.993-4.663V23a6,6,0,0,0-6-6H7a6,6,0,0,0-6,6Z" transform="translate(-0.334 -5.676)" fill="#684a44"/>
      <path id="Trazado_876737" data-name="Trazado 876737" d="M36.636,0H16.653a3.335,3.335,0,0,0-3.331,3.331v6a.666.666,0,1,0,1.332,0v-6a2,2,0,0,1,2-2H36.636a2,2,0,0,1,2,2V25.979a2,2,0,0,1-2,2h-2.71a5.334,5.334,0,0,0-4.617-4.617V22.084a6.67,6.67,0,0,0,3.971-5.509A2.669,2.669,0,0,0,35.3,13.988V9.326a6.668,6.668,0,0,0-6.661-6.661h-4a6.669,6.669,0,0,0-6.661,6.661v4.663a2.672,2.672,0,0,0,2.024,2.587,6.671,6.671,0,0,0,3.971,5.509V23.36a5.334,5.334,0,0,0-4.617,4.617h-2.71a2.006,2.006,0,0,1-1.883-1.362,6.609,6.609,0,0,0,.525-2.047,2.669,2.669,0,0,0,2.024-2.587V17.319a6.668,6.668,0,0,0-6.661-6.661h-4A6.669,6.669,0,0,0,0,17.319v4.663a2.708,2.708,0,0,0,2.024,2.583A6.672,6.672,0,0,0,6,30.078V32.02A5.334,5.334,0,0,0,1.332,37.3v.666a2,2,0,0,0,2,2H13.988a2,2,0,0,0,2-2V37.3a5.334,5.334,0,0,0-4.663-5.283V30.078a6.7,6.7,0,0,0,2.664-2.112,3.3,3.3,0,0,0,2.664,1.343H36.636a3.335,3.335,0,0,0,3.331-3.331V3.331A3.335,3.335,0,0,0,36.636,0ZM1.332,17.319A5.335,5.335,0,0,1,6.661,11.99h4a5.335,5.335,0,0,1,5.329,5.329V18.5A7.91,7.91,0,0,1,8.66,22.648,7.909,7.909,0,0,1,1.332,18.5ZM14.655,37.3v.666a.666.666,0,0,1-.666.666H3.331a.666.666,0,0,1-.666-.666V37.3a4,4,0,0,1,4-4h4A4,4,0,0,1,14.655,37.3ZM9.992,31.974H7.327V30.508a6.564,6.564,0,0,0,2.664,0ZM8.66,29.309A5.334,5.334,0,0,1,3.331,23.98a.666.666,0,0,0-.666-.666,1.35,1.35,0,0,1-1.332-1.332V20.828A9.362,9.362,0,0,0,8.66,23.98a9.364,9.364,0,0,0,7.327-3.152v1.154a1.332,1.332,0,0,1-1.332,1.332.666.666,0,0,0-.666.666A5.335,5.335,0,0,1,8.66,29.309ZM24.646,4h4a5.335,5.335,0,0,1,5.329,5.329V10.78a1.954,1.954,0,0,0-1.839.257,2.931,2.931,0,0,0-.187-.242A2.858,2.858,0,0,0,30.2,9.839a8.109,8.109,0,0,1-3.189-1.066.666.666,0,0,0-.738,0A8.11,8.11,0,0,1,23.09,9.839a2.858,2.858,0,0,0-1.746.957,2.927,2.927,0,0,0-.188.243,1.95,1.95,0,0,0-1.838-.258V9.326A5.335,5.335,0,0,1,24.646,4Zm-3.331,11.99a.666.666,0,0,0-.666-.666,1.332,1.332,0,0,1-1.332-1.332V12.656a.666.666,0,0,1,.666-.666.675.675,0,0,1,.666.666.666.666,0,1,0,1.332,0,1.546,1.546,0,0,1,1.306-1.5,9.953,9.953,0,0,0,3.357-1.05A9.964,9.964,0,0,0,30,11.157a1.56,1.56,0,0,1,1.3,1.5.666.666,0,0,0,1.332,0,.686.686,0,0,1,.666-.666.666.666,0,0,1,.666.666v1.332a1.332,1.332,0,0,1-1.332,1.332.666.666,0,0,0-.666.666,5.329,5.329,0,1,1-10.658,0Zm5.329,6.661a6.655,6.655,0,0,0,1.332-.133V23.98a1.332,1.332,0,0,1-2.664,0V22.515a6.655,6.655,0,0,0,1.332.133ZM24.088,24.69a2.649,2.649,0,0,0,5.113,0,4,4,0,0,1,3.379,3.287H20.71a4,4,0,0,1,3.379-3.287Z" fill="#373737"/>
    </g>
  </g>
</svg>
