<svg xmlns="http://www.w3.org/2000/svg" width="96.762" height="96.762" viewBox="0 0 96.762 96.762">
  <g id="Grupo_1101854" data-name="Grupo 1101854" transform="translate(-332.051 -5915.718)">
    <rect id="Rect치ngulo_400907" data-name="Rect치ngulo 400907" width="89" height="89" rx="44.5" transform="translate(336.051 5918.718)" fill="none"/>
    <g id="Grupo_1099176" data-name="Grupo 1099176" transform="translate(5.27 1939.718)">
      <g id="Grupo_1099174" data-name="Grupo 1099174" transform="translate(326.781 3976)">
        <g id="Grupo_1099167" data-name="Grupo 1099167" transform="translate(0 0)">
          <path id="Trazado_873000" data-name="Trazado 873000" d="M48.381,0h0V22.476a25.9,25.9,0,1,0,25.905,25.9H96.762A48.381,48.381,0,1,1,48.381,0" transform="translate(0 96.762) rotate(-90)" fill="#201144"/>
        </g>
        <rect id="Rect치ngulo_401249" data-name="Rect치ngulo 401249" width="66.409" height="66.409" rx="33.204" transform="translate(15.157 15.157)" fill="#e8faf9"/>
      </g>
    </g>
    <g id="Grupo_1101858" data-name="Grupo 1101858" transform="translate(359.193 5943.19)">
      <path id="Trazado_876738" data-name="Trazado 876738" d="M33.207,27.845c-.013.013-.02.027-.033.033l.08,1.656.454,9.487a.668.668,0,0,1-.668.7H17.017a.668.668,0,0,1-.668-.668V35.716a2.713,2.713,0,0,0-2.671-2.671H10.207a2.722,2.722,0,0,1-2.343-1.262c-.714-1.188.033-1.723.648-2.23a.839.839,0,0,0-.067-1.335l-.274-.167a.415.415,0,0,1,.007-.688l.915-.608a1.314,1.314,0,0,0-.721-2.39H7.863a.668.668,0,0,1-.648-.808,5.146,5.146,0,0,0,.08-1.2A3.691,3.691,0,0,0,7,21.028H5.667a.668.668,0,0,1-.541-1.062l4.133-5.715a.806.806,0,0,0-.107-1.035,2,2,0,0,1-.547-2.15,15.356,15.356,0,1,1,24.6,16.778Z" transform="translate(-0.331 -0.333)" fill="#eac2aa"/>
      <path id="Trazado_876739" data-name="Trazado 876739" d="M35.164,20.232a3.844,3.844,0,0,1,.073.788,4.673,4.673,0,0,1-4.673,4.673,4.6,4.6,0,0,1-2.671-.841,4.651,4.651,0,0,1-5.508-.127,17.192,17.192,0,0,1-10.756,3.685,1.357,1.357,0,0,0-.041-1.522,17.158,17.158,0,0,0,6.15-4.147,4.01,4.01,0,0,1-2.53-3.725,3.96,3.96,0,0,1,1.028-2.671,3.96,3.96,0,0,1-1.028-2.671A4.006,4.006,0,0,1,18.766,9.7a4.006,4.006,0,0,1,6.343-1.776A4.615,4.615,0,0,1,27.893,7a4.673,4.673,0,0,1,4.673,4.673,4.673,4.673,0,0,1,2.6,8.559Z" transform="translate(-2.522 -2.328)" fill="#ce83c0"/>
      <path id="Trazado_876740" data-name="Trazado 876740" d="M5.335,21.363H6.2a4.179,4.179,0,0,1,.028,1.745,1.357,1.357,0,0,0,1.314,1.6h.5a.64.64,0,0,1,.352,1.164l-.921.61a1.093,1.093,0,0,0,.019,1.809l.248.152c.164.1.041.246-.057.327A2.086,2.086,0,0,0,6.96,31.8a3.4,3.4,0,0,0,2.916,1.584h3.472a2.007,2.007,0,0,1,2,2v3.338a1.335,1.335,0,0,0,1.335,1.335H32.709a1.335,1.335,0,0,0,1.335-1.4l-.382-7.978a.668.668,0,0,0-1.335.067l.382,7.978H16.685V35.383a3.3,3.3,0,0,0-.686-2h4.758a5.377,5.377,0,0,0,3.777-1.564l.634-.634a.668.668,0,1,0-.944-.944l-.634.634a4.035,4.035,0,0,1-2.833,1.173H9.875a2.056,2.056,0,0,1-1.77-.941c-.372-.615-.219-.778.425-1.3L8.6,29.74a1.51,1.51,0,0,0-.063-2.368l.589-.393a1.957,1.957,0,0,0,.252-.217c.109,0,.208.012.329.012a18.182,18.182,0,0,0,10.163-3.553,5.433,5.433,0,0,0,5.5.1,5.274,5.274,0,0,0,2.671.715,5.347,5.347,0,0,0,5.341-5.341q0-.257-.021-.487a5.341,5.341,0,0,0-2.687-9.49A5.348,5.348,0,0,0,25.371,4a5.27,5.27,0,0,0-2.768.772,4.673,4.673,0,0,0-6.839,1.992,4.667,4.667,0,0,0-2.9,7.251,4.67,4.67,0,0,0,1.26,6.577,16.867,16.867,0,0,1-4.9,3.176,1.952,1.952,0,0,0-1.186-.4l-.5-.024a5.608,5.608,0,0,0,.017-1.968,1.317,1.317,0,0,1,1.077.723c.154.307.323.6.712.6a.673.673,0,0,0,.6-.966l-.113-.227a2.655,2.655,0,0,0-2.387-1.477H5.335l4.139-5.722a1.439,1.439,0,0,0,.271-.841,1.462,1.462,0,0,0-.472-1.075A1.335,1.335,0,0,1,8.9,10.965,14.688,14.688,0,1,1,32.436,27.013c-.012.009-.021.021-.035.033a14.476,14.476,0,0,1-2.444,1.748.668.668,0,0,0,.661,1.16,15.643,15.643,0,0,0,2.671-1.916A16.023,16.023,0,1,0,7.647,10.507a2.684,2.684,0,0,0,.724,2.871.124.124,0,0,1,.038.089.111.111,0,0,1-.021.063L4.257,19.241a1.335,1.335,0,0,0,1.078,2.122Zm10.528-1.1a.668.668,0,0,0-.4-.467,3.331,3.331,0,0,1-1.253-5.327.668.668,0,0,0,0-.9,3.33,3.33,0,0,1,2.108-5.538.668.668,0,0,0,.558-.446A3.338,3.338,0,0,1,22.16,6.108a.668.668,0,0,0,.825.02,3.939,3.939,0,0,1,2.386-.788,4.011,4.011,0,0,1,4.006,4.006.668.668,0,0,0,.668.668,4.006,4.006,0,0,1,2.226,7.337.668.668,0,0,0-.282.692,3.16,3.16,0,0,1,.059.65A4.011,4.011,0,0,1,28.042,22.7a3.929,3.929,0,0,1-2.285-.718.668.668,0,0,0-.772,0,4.073,4.073,0,0,1-4.712-.109.668.668,0,0,0-.815,0A17.225,17.225,0,0,1,10,25.436c0-.032.011-.062.011-.094a1.986,1.986,0,0,0-.051-.433,17.334,17.334,0,0,0,5.76-4.05.663.663,0,0,0,.148-.6Z" transform="translate(0 0)" fill="#373737"/>
      <path id="Trazado_876741" data-name="Trazado 876741" d="M27.53,23.148a.668.668,0,0,0,.474.2h.019a.673.673,0,0,0,.48-.224l5.334-6.009a.669.669,0,1,0-1-.887L27.973,21.7l-.835-.834a.668.668,0,1,0-.943.944Z" transform="translate(-7.306 -5.319)" fill="#373737"/>
    </g>
  </g>
</svg>
