<svg xmlns="http://www.w3.org/2000/svg" width="96.762" height="96.762" viewBox="0 0 96.762 96.762">
  <g id="Grupo_1101855" data-name="Grupo 1101855" transform="translate(-332.051 -5915.718)">
    <rect id="Rect치ngulo_400907" data-name="Rect치ngulo 400907" width="89" height="89" rx="44.5" transform="translate(336.051 5918.718)" fill="none"/>
    <g id="Grupo_1099176" data-name="Grupo 1099176" transform="translate(5.27 1939.718)">
      <g id="Grupo_1099174" data-name="Grupo 1099174" transform="translate(326.781 3976)">
        <g id="Grupo_1099167" data-name="Grupo 1099167" transform="translate(0 0)">
          <path id="Trazado_873000" data-name="Trazado 873000" d="M48.381,0h0V22.476a25.9,25.9,0,1,0,25.905,25.9H96.762A48.381,48.381,0,1,1,48.381,0" transform="translate(0 96.762) rotate(-90)" fill="#201144"/>
        </g>
        <rect id="Rect치ngulo_401249" data-name="Rect치ngulo 401249" width="66.409" height="66.409" rx="33.204" transform="translate(15.157 15.157)" fill="#e8faf9"/>
      </g>
    </g>
    <g id="Grupo_1101859" data-name="Grupo 1101859" transform="translate(359.107 5941.893)">
      <path id="Trazado_876742" data-name="Trazado 876742" d="M50.08,9a2.085,2.085,0,0,0,.185-.867,2.133,2.133,0,1,0-4.265,0A2.086,2.086,0,0,0,46.185,9Z" transform="translate(-13.302 -1.735)" fill="#6d5149"/>
      <path id="Trazado_876743" data-name="Trazado 876743" d="M52.373,15.331v-.355A4.976,4.976,0,0,0,47.4,10H45.976A4.976,4.976,0,0,0,41,14.976v.355l.711.355h9.952Z" transform="translate(-11.856 -2.892)" fill="#6d5149"/>
      <path id="Trazado_876744" data-name="Trazado 876744" d="M52,41.17V32.554A3.554,3.554,0,0,0,48.45,29H45.606a3.558,3.558,0,0,0-3.426,2.609Z" transform="translate(-12.197 -8.386)" fill="#ce83c0"/>
      <path id="Trazado_876745" data-name="Trazado 876745" d="M23,29.108V25.554A3.554,3.554,0,0,1,26.554,22H29.4a3.554,3.554,0,0,1,3.554,3.554v3.554Z" transform="translate(-6.651 -6.362)" fill="#ce83c0"/>
      <path id="Trazado_876746" data-name="Trazado 876746" d="M30.843,19.65v1.67a1.422,1.422,0,0,1-2.843,0V19.65Z" transform="translate(-8.097 -5.682)" fill="#926153"/>
      <path id="Trazado_876747" data-name="Trazado 876747" d="M22,7.753V5.265A4.265,4.265,0,0,1,26.265,1h2.843a4.265,4.265,0,0,1,4.265,4.265V7.753l-.711.355H22.711Z" transform="translate(-6.362 -0.289)" fill="#684a44"/>
      <path id="Trazado_876748" data-name="Trazado 876748" d="M22,10.554a1.426,1.426,0,0,0,1.422,1.422,4.265,4.265,0,0,0,8.53,0,1.426,1.426,0,0,0,1.422-1.422V9.488a1.066,1.066,0,1,0-2.133,0,1.958,1.958,0,0,0-1.614-1.919A6.753,6.753,0,0,1,27.687,7a6.753,6.753,0,0,1-1.941.569,1.857,1.857,0,0,0-1.152.668,1.926,1.926,0,0,0-.462,1.251,1.066,1.066,0,1,0-2.133,0Z" transform="translate(-6.362 -2.024)" fill="#a97866"/>
      <path id="Trazado_876749" data-name="Trazado 876749" d="M49.843,26.65v1.67a1.422,1.422,0,0,1-2.843,0V26.65Z" transform="translate(-13.591 -7.706)" fill="#dab09b"/>
      <path id="Trazado_876750" data-name="Trazado 876750" d="M50.241,16.511a1.066,1.066,0,1,1,2.133,0v1.066A1.426,1.426,0,0,1,50.952,19a4.265,4.265,0,1,1-8.53,0A1.426,1.426,0,0,1,41,17.578V16.511a1.066,1.066,0,1,1,2.133,0,3.228,3.228,0,0,1,2.29-2.413.707.707,0,0,1,.763.333C46.588,15.068,47.671,16.255,50.241,16.511Z" transform="translate(-11.856 -4.072)" fill="#eac2aa"/>
      <path id="Trazado_876751" data-name="Trazado 876751" d="M8.185,9A2.086,2.086,0,0,1,8,8.133a2.133,2.133,0,1,1,4.265,0A2.086,2.086,0,0,1,12.08,9Z" transform="translate(-2.314 -1.735)" fill="#6d5149"/>
      <path id="Trazado_876752" data-name="Trazado 876752" d="M3,15.331v-.355A4.976,4.976,0,0,1,7.976,10H9.4a4.976,4.976,0,0,1,4.976,4.976v.355l-.711.355H3.711Z" transform="translate(-0.868 -2.892)" fill="#6d5149"/>
      <path id="Trazado_876753" data-name="Trazado 876753" d="M4,41.17V32.554A3.554,3.554,0,0,1,7.554,29H10.4a3.558,3.558,0,0,1,3.426,2.609Z" transform="translate(-1.157 -8.386)" fill="#ce83c0"/>
      <path id="Trazado_876754" data-name="Trazado 876754" d="M9,26.65v1.67a1.422,1.422,0,1,0,2.843,0V26.65Z" transform="translate(-2.603 -7.706)" fill="#dab09b"/>
      <path id="Trazado_876755" data-name="Trazado 876755" d="M5.133,16.511a1.066,1.066,0,0,0-2.133,0v1.066A1.426,1.426,0,0,0,4.422,19a4.265,4.265,0,0,0,8.53,0,1.426,1.426,0,0,0,1.422-1.422V16.511a1.066,1.066,0,0,0-2.133,0A3.228,3.228,0,0,0,9.951,14.1a.707.707,0,0,0-.763.333C8.785,15.068,7.7,16.255,5.133,16.511Z" transform="translate(-0.868 -4.072)" fill="#eac2aa"/>
      <path id="Trazado_876756" data-name="Trazado 876756" d="M35.482,55.241H17a9.241,9.241,0,0,1,18.482,0Z" transform="translate(-4.916 -13.302)" fill="#e4f1ff"/>
      <path id="Trazado_876757" data-name="Trazado 876757" d="M53.066,52.347a.711.711,0,0,1-.718.725H40.982a8.459,8.459,0,0,0-2.5-6.021l3.213-4.642,5.338-3.91a20.472,20.472,0,0,1,6.035,13.847Z" transform="translate(-11.127 -11.133)" fill="#b0bc6b"/>
      <path id="Trazado_876758" data-name="Trazado 876758" d="M44.29,36.042l-8.551,8.551a8.47,8.47,0,0,0-6.028-2.509L29,37.108,29.711,30A20.543,20.543,0,0,1,44.29,36.042Z" transform="translate(-8.386 -8.675)" fill="#e3cb5b"/>
      <path id="Trazado_876759" data-name="Trazado 876759" d="M24.069,30V42.084a8.475,8.475,0,0,0-6.028,2.5l-4.635-3.213L9.49,36.042A20.543,20.543,0,0,1,24.069,30Z" transform="translate(-2.745 -8.675)" fill="#c9a25c"/>
      <path id="Trazado_876760" data-name="Trazado 876760" d="M15.586,47.044a8.475,8.475,0,0,0-2.5,6.028H1.718A.711.711,0,0,1,1,52.347,20.472,20.472,0,0,1,7.035,38.5Z" transform="translate(-0.29 -11.133)" fill="#cd596b"/>
      <path id="Trazado_876761" data-name="Trazado 876761" d="M24,57.265a4.265,4.265,0,0,1,8.53,0Z" transform="translate(-6.94 -15.326)" fill="#b5cedd"/>
      <path id="Trazado_876762" data-name="Trazado 876762" d="M42.65,41.187a21.374,21.374,0,0,0-2.133-8.614v-8.4a4.269,4.269,0,0,0-3.554-4.2v-.548a4.985,4.985,0,0,0,2.807-3.89,2.137,2.137,0,0,0,1.458-2.023V12.084a5.692,5.692,0,0,0-3.6-5.284,2.839,2.839,0,0,0,.043-.4,2.843,2.843,0,1,0-5.687,0,2.84,2.84,0,0,0,.043.4,5.692,5.692,0,0,0-3.6,5.284v1.422a2.137,2.137,0,0,0,1.457,2.023,4.986,4.986,0,0,0,2.808,3.89v.545a4.276,4.276,0,0,0-3.1,2.3,21.344,21.344,0,0,0-2.591-.886V19.193a4.269,4.269,0,0,0-3.554-4.2v-.548a4.985,4.985,0,0,0,2.807-3.89A2.137,2.137,0,0,0,27.722,8.53V4.976A4.982,4.982,0,0,0,22.746,0H19.9a4.982,4.982,0,0,0-4.976,4.976V8.53a2.137,2.137,0,0,0,1.457,2.023,4.986,4.986,0,0,0,2.808,3.89v.548a4.269,4.269,0,0,0-3.554,4.2v2.184a21.312,21.312,0,0,0-2.592.886,4.276,4.276,0,0,0-3.095-2.3v-.545a4.985,4.985,0,0,0,2.807-3.89,2.137,2.137,0,0,0,1.458-2.023V12.084a5.692,5.692,0,0,0-3.6-5.284,2.839,2.839,0,0,0,.043-.4,2.843,2.843,0,0,0-5.687,0,2.839,2.839,0,0,0,.043.4,5.692,5.692,0,0,0-3.6,5.284v1.422a2.137,2.137,0,0,0,1.457,2.023,4.986,4.986,0,0,0,2.808,3.89v.548a4.269,4.269,0,0,0-3.554,4.2v3.554a.711.711,0,0,0,1.422,0V24.168a2.848,2.848,0,0,1,2.275-2.786,2.012,2.012,0,0,0,.475.73,2.087,2.087,0,0,0,1.516.635A2.133,2.133,0,0,0,9.8,21.387a2.85,2.85,0,0,1,1.954,1.469A21.221,21.221,0,0,0,0,41.187a1.392,1.392,0,0,0,.4,1.026,1.437,1.437,0,0,0,1.031.437h39.8a1.436,1.436,0,0,0,1.029-.437,1.4,1.4,0,0,0,.393-1.026ZM6.4,6.4a1.422,1.422,0,0,1,2.843,0c0,.016,0,.032,0,.048A5.778,5.778,0,0,0,8.53,6.4H7.108a5.778,5.778,0,0,0-.706.048C6.4,6.43,6.4,6.414,6.4,6.4Zm.711,1.422H8.53a4.265,4.265,0,0,1,4.02,2.855c-.037,0-.071-.011-.11-.011a1.765,1.765,0,0,0-.935.267A4.293,4.293,0,0,0,9.266,9.34a1.41,1.41,0,0,0-1.546.64,4.094,4.094,0,0,1-2.929,1.671A1.777,1.777,0,0,0,3.2,10.663c-.038,0-.071.009-.111.011a4.265,4.265,0,0,1,4.02-2.855ZM4.265,14.928a.711.711,0,0,0-.711-.711.711.711,0,0,1-.711-.711V12.44a.355.355,0,0,1,.711,0,.711.711,0,0,0,.234.527.722.722,0,0,0,.547.181c2.843-.284,4.094-1.63,4.567-2.433a2.623,2.623,0,0,1,1.76,1.726.711.711,0,0,0,1.422,0,.355.355,0,0,1,.711,0v1.066a.711.711,0,0,1-.711.711.711.711,0,0,0-.711.711,3.554,3.554,0,1,1-7.108,0Zm3.554,6.4a.726.726,0,0,1-.711-.711v-.767a4.527,4.527,0,0,0,1.422,0v.767A.711.711,0,0,1,7.819,21.325ZM33.409,6.4a1.422,1.422,0,0,1,2.843,0c0,.016,0,.032,0,.048a5.778,5.778,0,0,0-.706-.048H34.12a5.778,5.778,0,0,0-.706.048C33.414,6.43,33.409,6.414,33.409,6.4Zm.711,1.422h1.422a4.265,4.265,0,0,1,4.02,2.855c-.037,0-.071-.011-.11-.011a1.777,1.777,0,0,0-1.593.988,4.1,4.1,0,0,1-2.929-1.67,1.407,1.407,0,0,0-1.545-.64,4.3,4.3,0,0,0-2.239,1.589,1.771,1.771,0,0,0-.935-.268c-.038,0-.071.009-.111.011A4.265,4.265,0,0,1,34.12,7.819Zm-2.843,7.108a.711.711,0,0,0-.711-.711.711.711,0,0,1-.711-.711V12.44a.355.355,0,1,1,.711,0,.711.711,0,1,0,1.422,0,2.553,2.553,0,0,1,1.741-1.7c.492.776,1.742,2.126,4.586,2.41a.711.711,0,0,0,.782-.711.355.355,0,0,1,.711,0v1.066a.711.711,0,0,1-.711.711.711.711,0,0,0-.711.711,3.554,3.554,0,1,1-7.108,0ZM34.831,19.9a4.994,4.994,0,0,0,.711-.056v.767a.723.723,0,0,1-.711.711.711.711,0,0,1-.711-.711v-.767a4.976,4.976,0,0,0,.711.056Zm-1.983,1.484a2.126,2.126,0,0,0,3.968,0,2.848,2.848,0,0,1,2.28,2.786v5.921a21.238,21.238,0,0,0-8.2-7.233,2.849,2.849,0,0,1,1.953-1.469ZM20.614,32.735a9.189,9.189,0,0,0-5.3,2.2L7.735,27.353a19.853,19.853,0,0,1,12.879-5.3Zm.711,1.385a7.777,7.777,0,0,1,2.511.422l-1.161,2.613a4.955,4.955,0,0,0-6.269,4.074H13.542A7.828,7.828,0,0,1,21.325,34.12Zm0,4.265a3.561,3.561,0,0,1,3.483,2.843H17.842a3.56,3.56,0,0,1,3.483-2.843Zm2.649-.65,1.162-2.617a7.826,7.826,0,0,1,3.972,6.11H26.244a4.976,4.976,0,0,0-2.27-3.493Zm3.357-2.8a9.3,9.3,0,0,0-1.614-1.12l1.944-4.378a.711.711,0,0,0-1.3-.577l-1.948,4.385a9.139,9.139,0,0,0-2.378-.506V22.053a19.852,19.852,0,0,1,12.879,5.3ZM19.9,1.422h2.843A3.558,3.558,0,0,1,26.3,4.976v.747a1.772,1.772,0,0,0-1.216.186,2.63,2.63,0,0,0-1.706-1.066,5.94,5.94,0,0,1-1.73-.5.718.718,0,0,0-.64,0,5.943,5.943,0,0,1-1.729.5,2.548,2.548,0,0,0-1.587.9c-.044.052-.086.1-.126.159a1.772,1.772,0,0,0-1.218-.187V4.976A3.558,3.558,0,0,1,19.9,1.422ZM17.77,9.952a.711.711,0,0,0-.711-.711.711.711,0,0,1-.711-.711V7.464a.355.355,0,1,1,.711,0,.711.711,0,1,0,1.422,0,1.255,1.255,0,0,1,1.012-1.217,8.007,8.007,0,0,0,1.831-.489,7.969,7.969,0,0,0,1.828.488,1.249,1.249,0,0,1,1.016,1.218.711.711,0,0,0,1.422,0,.355.355,0,1,1,.711,0V8.53a.711.711,0,0,1-.711.711.711.711,0,0,0-.711.711,3.554,3.554,0,0,1-7.108,0Zm3.554,4.976a4.994,4.994,0,0,0,.711-.056v.767a.711.711,0,0,1-.711.711.723.723,0,0,1-.711-.711v-.767a4.976,4.976,0,0,0,.711.056ZM17.06,19.193a2.848,2.848,0,0,1,2.275-2.786,2.012,2.012,0,0,0,.475.73,2.087,2.087,0,0,0,1.516.635,2.133,2.133,0,0,0,1.984-1.365,2.847,2.847,0,0,1,2.281,2.786v1.843a21.788,21.788,0,0,0-8.53,0ZM1.421,41.236a19.821,19.821,0,0,1,5.306-12.88l7.587,7.58a9.191,9.191,0,0,0-2.194,5.292H1.426Zm29.109-.008a9.2,9.2,0,0,0-2.193-5.292l7.586-7.581a19.806,19.806,0,0,1,5.3,12.873Z" transform="translate(0)" fill="#373737"/>
    </g>
  </g>
</svg>
