<svg xmlns="http://www.w3.org/2000/svg" width="44.087" height="44.087" viewBox="0 0 44.087 44.087">
  <g id="Layer_2" data-name="Layer 2" transform="translate(-1.5 -1.5)">
    <path id="Trazado_876426" data-name="Trazado 876426" d="M26.206,12.687l-4.92,4.918-2.134-2.148a.882.882,0,1,0-1.247,1.249l2.77,2.77a.882.882,0,0,0,1.247,0l5.544-5.543a.882.882,0,1,0-1.247-1.247Z" transform="translate(12.328 8.344)" fill="#22cac5"/>
    <path id="Trazado_876427" data-name="Trazado 876427" d="M45.587,24.425A10.592,10.592,0,0,0,36.77,14V9.436a.882.882,0,0,0-.257-.624L29.458,1.757a.882.882,0,0,0-.624-.257H7.672a.882.882,0,0,0-.882.882V6.79H2.382a.882.882,0,0,0-.882.882V44.706a.882.882,0,0,0,.882.882H32.361a.882.882,0,0,0,.882-.882V40.3h2.645a.882.882,0,0,0,.882-.882V34.848a10.592,10.592,0,0,0,8.817-10.422ZM29.716,4.51,33.76,8.554H29.716Zm1.763,39.314H3.263V8.554H6.79V39.415a.882.882,0,0,0,.882.882H31.479Zm3.527-5.29H8.554V3.263h19.4V9.436a.882.882,0,0,0,.882.882h6.172v3.527a10.581,10.581,0,1,0,0,21.162Zm0-5.29a8.817,8.817,0,1,1,8.817-8.817,8.817,8.817,0,0,1-8.817,8.817Z" fill="#22cac5"/>
    <path id="Trazado_876428" data-name="Trazado 876428" d="M12.792,13.754l-2.73,2.74L9,15.436a.882.882,0,0,0-1.249,1.247l1.681,1.679a.882.882,0,0,0,1.247,0l3.359-3.351A.882.882,0,0,0,12.8,13.763Z" transform="translate(4.579 9.166)" fill="#22cac5"/>
    <path id="Trazado_876429" data-name="Trazado 876429" d="M12.792,17.754l-2.73,2.74L9,19.436a.882.882,0,1,0-1.249,1.247l1.681,1.679a.882.882,0,0,0,1.247,0l3.359-3.351A.882.882,0,1,0,12.8,17.763Z" transform="translate(4.579 12.22)" fill="#22cac5"/>
    <path id="Trazado_876430" data-name="Trazado 876430" d="M8.382,6.263H18.963a.882.882,0,1,0,0-1.763H8.382a.882.882,0,1,0,0,1.763Z" transform="translate(4.581 2.29)" fill="#22cac5"/>
    <path id="Trazado_876431" data-name="Trazado 876431" d="M18.963,7.5H8.382a.882.882,0,1,0,0,1.763H18.963a.882.882,0,0,0,0-1.763Z" transform="translate(4.581 4.581)" fill="#22cac5"/>
    <path id="Trazado_876432" data-name="Trazado 876432" d="M13.672,10.5H8.382a.882.882,0,1,0,0,1.763h5.29a.882.882,0,0,0,0-1.763Z" transform="translate(4.581 6.871)" fill="#22cac5"/>
  </g>
</svg>
