<svg id="Grupo_1101899" data-name="Grupo 1101899" xmlns="http://www.w3.org/2000/svg" width="58.04" height="58.04" viewBox="0 0 58.04 58.04">
  <path id="Trazado_876788" data-name="Trazado 876788" d="M26.719,42.438A15.719,15.719,0,1,1,42.438,26.719,15.737,15.737,0,0,1,26.719,42.438Zm0-29.02a13.3,13.3,0,1,0,13.3,13.3A13.316,13.316,0,0,0,26.719,13.418Z" transform="translate(15.601 15.601)" fill="#22cac5"/>
  <path id="Trazado_876789" data-name="Trazado 876789" d="M18.209,28.092A1.21,1.21,0,0,1,17,26.882V17.209a1.209,1.209,0,1,1,2.418,0v9.673A1.21,1.21,0,0,1,18.209,28.092Z" transform="translate(24.111 22.693)" fill="#22cac5"/>
  <circle id="Elipse_11659" data-name="Elipse 11659" cx="1.5" cy="1.5" r="1.5" transform="translate(40.82 34.084)" fill="#22cac5"/>
  <path id="Trazado_876790" data-name="Trazado 876790" d="M22.974,46.53H6.046A6.053,6.053,0,0,1,0,40.484V9.046A6.053,6.053,0,0,1,6.046,3h4.837a1.209,1.209,0,1,1,0,2.418H6.046A3.632,3.632,0,0,0,2.418,9.046V40.484a3.632,3.632,0,0,0,3.627,3.627H22.974a1.209,1.209,0,0,1,0,2.418Z" transform="translate(0 4.255)" fill="#22cac5"/>
  <path id="Trazado_876791" data-name="Trazado 876791" d="M22.137,14.51H7.627A3.632,3.632,0,0,1,4,10.882V6.046A1.21,1.21,0,0,1,5.209,4.837H8.958a6.047,6.047,0,0,1,11.85,0h3.748a1.21,1.21,0,0,1,1.209,1.209v4.837A3.632,3.632,0,0,1,22.137,14.51ZM6.418,7.255v3.627a1.211,1.211,0,0,0,1.209,1.209h14.51a1.211,1.211,0,0,0,1.209-1.209V7.255H19.719A1.21,1.21,0,0,1,18.51,6.046a3.627,3.627,0,0,0-7.255,0,1.21,1.21,0,0,1-1.209,1.209Z" transform="translate(5.673)" fill="#22cac5"/>
  <path id="Trazado_876792" data-name="Trazado 876792" d="M28.392,10.418H4.209A1.209,1.209,0,0,1,4.209,8H28.392a1.209,1.209,0,0,1,0,2.418Z" transform="translate(4.255 11.347)" fill="#22cac5"/>
  <path id="Trazado_876793" data-name="Trazado 876793" d="M21.137,13.418H4.209a1.209,1.209,0,0,1,0-2.418H21.137a1.209,1.209,0,0,1,0,2.418Z" transform="translate(4.255 15.601)" fill="#22cac5"/>
  <path id="Trazado_876794" data-name="Trazado 876794" d="M16.3,16.418H4.209a1.209,1.209,0,0,1,0-2.418H16.3a1.209,1.209,0,1,1,0,2.418Z" transform="translate(4.255 19.856)" fill="#22cac5"/>
  <path id="Trazado_876795" data-name="Trazado 876795" d="M22.882,17.51A1.21,1.21,0,0,1,21.673,16.3V9.046a3.632,3.632,0,0,0-3.627-3.627H13.209a1.209,1.209,0,0,1,0-2.418h4.837a6.053,6.053,0,0,1,6.046,6.046V16.3A1.21,1.21,0,0,1,22.882,17.51Z" transform="translate(17.02 4.255)" fill="#22cac5"/>
</svg>
