<svg xmlns="http://www.w3.org/2000/svg" width="61.908" height="61.922" viewBox="0 0 61.908 61.922">
  <g id="Grupo_1101912" data-name="Grupo 1101912" transform="translate(-0.054)">
    <g id="Grupo_1101911" data-name="Grupo 1101911" transform="translate(0.054 0)">
      <g id="Grupo_1101910" data-name="Grupo 1101910" transform="translate(0 0)">
        <path id="Trazado_876805" data-name="Trazado 876805" d="M57.508,336.876l-15.779,5.536a2.117,2.117,0,0,1-.718.119h-.246a4.385,4.385,0,0,0-.4-3.34l-.081-.146a5.281,5.281,0,0,0-4.554-2.675H31.269a6.565,6.565,0,0,1-4.195-1.553,8.639,8.639,0,0,0-5.518-2.018h-.523c-.26,0-5.549.048-8.963,2.959a2.062,2.062,0,0,0-1.7-.9H2.118a2.066,2.066,0,0,0-2.064,2.064v14.445a2.066,2.066,0,0,0,2.064,2.064h8.254a2.051,2.051,0,0,0,1.586-.76,10.355,10.355,0,0,0,6.366,1.791H40.735a6.881,6.881,0,0,0,3.667-1.074l15.975-10.238a3.511,3.511,0,0,0,1.52-2.284,3.624,3.624,0,0,0-.6-2.771A3.342,3.342,0,0,0,57.508,336.876Zm-47.136,14.5H2.118V336.926h8.254v14.445Zm49.5-10.889a1.419,1.419,0,0,1-.611.938L43.3,351.651a4.811,4.811,0,0,1-2.56.752H18.324c-3.945,0-5.48-1.551-5.889-2.078V338.354c2.52-3.436,8.538-3.491,8.6-3.491h.523a6.571,6.571,0,0,1,4.195,1.538,8.63,8.63,0,0,0,5.518,2.033h4.458a3.161,3.161,0,0,1,2.753,1.618l.081.146a2.3,2.3,0,0,1-.052,2.334H33.43a8.438,8.438,0,0,0-4.844,1.546l-.619.434a1.031,1.031,0,1,0,1.185,1.689l.617-.432a6.382,6.382,0,0,1,3.661-1.173h7.58a4.177,4.177,0,0,0,1.415-.24l15.756-5.528a1.261,1.261,0,0,1,1.441.475A1.544,1.544,0,0,1,59.869,340.482Z" transform="translate(-0.054 -292.559)" fill="#22cac5"/>
        <path id="Trazado_876806" data-name="Trazado 876806" d="M35.176,445.889a1.087,1.087,0,0,0,.733-.3,1.192,1.192,0,0,0,.217-.341,1.033,1.033,0,0,0,.083-.392,1.032,1.032,0,0,0-1.764-.733,1.032,1.032,0,0,0,.732,1.764Z" transform="translate(-30.017 -390.171)" fill="#22cac5"/>
        <path id="Trazado_876807" data-name="Trazado 876807" d="M335.949,57.391a3.1,3.1,0,1,0-3.1-3.1A3.1,3.1,0,0,0,335.949,57.391Zm0-4.127a1.032,1.032,0,1,1-1.032,1.032A1.032,1.032,0,0,1,335.949,53.264Z" transform="translate(-292.614 -45.009)" fill="#22cac5"/>
        <path id="Trazado_876808" data-name="Trazado 876808" d="M316.819,135.975h8.254a1.032,1.032,0,0,0,1.032-1.032v-4.127a1.032,1.032,0,0,0-1.032-1.032h-1.032V120.5a1.032,1.032,0,0,0-1.032-1.032h-6.191a1.032,1.032,0,0,0-1.032,1.032v4.127a1.032,1.032,0,0,0,1.032,1.032h1.032v4.127h-1.032a1.032,1.032,0,0,0-1.032,1.032v4.127a1.031,1.031,0,0,0,1.032,1.032Zm1.032-4.127h1.032a1.032,1.032,0,0,0,1.032-1.032v-6.191a1.032,1.032,0,0,0-1.032-1.032h-1.032V121.53h4.127v9.286a1.032,1.032,0,0,0,1.032,1.032h1.032v2.064h-6.191Z" transform="translate(-277.61 -105.021)" fill="#22cac5"/>
        <path id="Trazado_876809" data-name="Trazado 876809" d="M212.068,33.267v5.942a1.032,1.032,0,0,0,1.673.809l4.538-3.595a18.6,18.6,0,1,0-6.211-3.156Zm-3.335-22.2A16.491,16.491,0,1,1,218.38,34.3a1.038,1.038,0,0,0-.958.173l-3.29,2.606V32.75a1.031,1.031,0,0,0-.426-.835A16.5,16.5,0,0,1,208.734,11.07Z" transform="translate(-180.083 0)" fill="#22cac5"/>
      </g>
    </g>
  </g>
</svg>
