<svg id="Grupo_1101913" data-name="Grupo 1101913" xmlns="http://www.w3.org/2000/svg" width="49.731" height="65.543" viewBox="0 0 49.731 65.543">
  <path id="Trazado_876817" data-name="Trazado 876817" d="M81.922,45.465l-3.594,3.619a.189.189,0,0,1-.136.057h0a.189.189,0,0,1-.136-.056L76.721,47.75a.96.96,0,1,0-1.358,1.358L76.7,50.443a2.1,2.1,0,0,0,1.493.619h0a2.1,2.1,0,0,0,1.5-.624l3.594-3.619a.96.96,0,1,0-1.363-1.353Zm1.358-26.144a.96.96,0,0,0-1.358,0l-3.594,3.619a.188.188,0,0,1-.136.057h0a.189.189,0,0,1-.136-.056l-1.335-1.335a.96.96,0,1,0-1.358,1.358L76.7,24.3a2.1,2.1,0,0,0,1.494.619h0a2.1,2.1,0,0,0,1.5-.624l3.594-3.619A.96.96,0,0,0,83.279,19.321Zm0,13.07a.96.96,0,0,0-1.358,0l-3.594,3.619a.188.188,0,0,1-.136.057h0a.189.189,0,0,1-.136-.056l-1.335-1.335a.96.96,0,1,0-1.358,1.358L76.7,37.373a2.1,2.1,0,0,0,1.494.619h0a2.1,2.1,0,0,0,1.5-.624l3.594-3.619a.96.96,0,0,0,0-1.358ZM77.261,18.248H74.132a2.115,2.115,0,0,0-2.112,2.112v6.925A2.115,2.115,0,0,0,74.132,29.4h6.925a2.115,2.115,0,0,0,2.112-2.112V24.856a.96.96,0,0,0-1.92,0v2.429a.192.192,0,0,1-.192.192H74.132a.192.192,0,0,1-.192-.192V20.36a.192.192,0,0,1,.192-.192h3.129a.96.96,0,1,0,0-1.92ZM106.706,1.971h-4.4a.96.96,0,1,0,0,1.92h4.4a2.868,2.868,0,0,1,2.865,2.865v54a2.868,2.868,0,0,1-2.865,2.865H66.545a2.868,2.868,0,0,1-2.865-2.865v-54a2.868,2.868,0,0,1,2.865-2.865h7.272V5.8H67.183a1.6,1.6,0,0,0-1.6,1.6V46.932a.96.96,0,0,0,1.92,0V7.717h4.562a2.859,2.859,0,0,0-.163.952v2.663A2.876,2.876,0,0,0,74.777,14.2h23.7a2.876,2.876,0,0,0,2.873-2.873V8.669a2.859,2.859,0,0,0-.163-.952h4.562V49.812h-4.982A4.791,4.791,0,0,0,95.978,54.6V59.58H67.505V50.772a.96.96,0,1,0-1.92,0V59.9a1.6,1.6,0,0,0,1.6,1.6H96.938a.964.964,0,0,0,.679-.281l0,0,9.765-9.766a.97.97,0,0,0,.278-.618c0-.009,0-43.417,0-43.439a1.6,1.6,0,0,0-1.6-1.6H99.434V3.133A3.136,3.136,0,0,0,96.3,0H76.949a3.137,3.137,0,0,0-2.908,1.971h-7.5A4.791,4.791,0,0,0,61.76,6.757v54a4.791,4.791,0,0,0,4.785,4.785h40.161a4.791,4.791,0,0,0,4.785-4.785v-54a4.791,4.791,0,0,0-4.785-4.785ZM97.9,58.222V54.6a2.868,2.868,0,0,1,2.865-2.865h3.624ZM75.737,3.133A1.214,1.214,0,0,1,76.949,1.92H96.3a1.214,1.214,0,0,1,1.212,1.213V6.656A1.214,1.214,0,0,1,96.3,7.869H76.949a1.214,1.214,0,0,1-1.212-1.213ZM73.825,8.669a.949.949,0,0,1,.29-.683,3.136,3.136,0,0,0,2.835,1.8H96.3a3.136,3.136,0,0,0,2.835-1.8.949.949,0,0,1,.29.683v2.663a.953.953,0,0,1-.952.952h-23.7a.953.953,0,0,1-.952-.952ZM72.019,40.355a2.115,2.115,0,0,0,2.112,2.112h6.925a2.115,2.115,0,0,0,2.112-2.112V37.925a.96.96,0,1,0-1.92,0v2.429a.192.192,0,0,1-.192.192H74.132a.192.192,0,0,1-.192-.192V33.43a.192.192,0,0,1,.192-.192h3.129a.96.96,0,1,0,0-1.92H74.132a2.115,2.115,0,0,0-2.112,2.112Zm14.558,5.953h13.694a.96.96,0,1,0,0-1.92H86.577a.96.96,0,1,0,0,1.92ZM72.019,53.425a2.115,2.115,0,0,0,2.112,2.112h6.925a2.115,2.115,0,0,0,2.112-2.112V51a.96.96,0,0,0-1.92,0v2.429a.192.192,0,0,1-.192.192H74.132a.192.192,0,0,1-.192-.192V46.5a.192.192,0,0,1,.192-.192h3.129a.96.96,0,1,0,0-1.92H74.132A2.115,2.115,0,0,0,72.019,46.5Zm14.558-3.277h7.933a.96.96,0,0,0,0-1.92H86.577a.96.96,0,0,0,0,1.92Zm0-13.07h7.933a.96.96,0,0,0,0-1.92H86.577a.96.96,0,1,0,0,1.92Zm0-3.84h13.694a.96.96,0,1,0,0-1.92H86.577a.96.96,0,1,0,0,1.92Zm0-9.229h13.694a.96.96,0,1,0,0-1.92H86.577a.96.96,0,1,0,0,1.92Zm0-3.84h13.694a.96.96,0,1,0,0-1.92H86.577a.96.96,0,1,0,0,1.92Z" transform="translate(-61.76 0)" fill="#201144"/>
</svg>
