<svg xmlns="http://www.w3.org/2000/svg" width="47.91" height="53.043" viewBox="0 0 47.91 53.043">
  <g id="Grupo_1102631" data-name="Grupo 1102631" transform="translate(-4 -1)">
    <path id="Trazado_878908" data-name="Trazado 878908" d="M4,11.266a.856.856,0,0,0,.856.856H9.133v38.5a3.422,3.422,0,0,0,3.422,3.422H48.488a3.422,3.422,0,0,0,3.422-3.422V47.2a.856.856,0,0,0-.856-.856H48.488V4.422A3.422,3.422,0,0,0,45.066,1H7.422A3.422,3.422,0,0,0,4,4.422ZM50.2,50.621a1.711,1.711,0,0,1-1.711,1.711H15.518a3.4,3.4,0,0,0,.459-1.711V48.055H50.2Zm-3.422-46.2V46.344H15.122a.856.856,0,0,0-.856.856v3.422a1.711,1.711,0,0,1-3.422,0V4.422a3.387,3.387,0,0,0-.476-1.711h34.7A1.711,1.711,0,0,1,46.777,4.422Zm-41.066,0a1.711,1.711,0,1,1,3.422,0v5.989H5.711Z" fill="#22cac5"/>
    <path id="Trazado_878909" data-name="Trazado 878909" d="M14.856,22.111H21.7a.856.856,0,0,0,.856-.856,7.695,7.695,0,0,1,14.026-4.378l-4.61,2.481a2.7,2.7,0,1,0,.812,1.5l4.611-2.481a7.663,7.663,0,0,1,.561,2.873.856.856,0,0,0,.856.856h6.844a.856.856,0,0,0,.856-.856,16.255,16.255,0,1,0-32.51,0,.856.856,0,0,0,.856.856Zm15.4,0a.856.856,0,1,1,.856-.856A.856.856,0,0,1,30.255,22.111Zm-6.012-8.078L20.608,10.4A14.465,14.465,0,0,1,29.4,6.753v5.133a9.359,9.359,0,0,0-5.156,2.147Zm6.867-2.147V6.752A14.465,14.465,0,0,1,39.9,10.4l-3.635,3.634a9.359,9.359,0,0,0-5.156-2.147ZM39.628,20.4a9.33,9.33,0,0,0-.723-2.83l2.878-1.55-.811-1.506-2.88,1.55a9.582,9.582,0,0,0-.614-.821L41.121,11.6a14.485,14.485,0,0,1,3.654,8.8ZM19.39,11.6l3.641,3.641A9.367,9.367,0,0,0,20.883,20.4H15.736a14.48,14.48,0,0,1,3.654-8.8Z" transform="translate(-1.445 -0.578)" fill="#22cac5"/>
    <path id="Trazado_878910" data-name="Trazado 878910" d="M14.856,42.689H26.833a.856.856,0,0,0,.856-.856V29.856A.856.856,0,0,0,26.833,29H14.856a.856.856,0,0,0-.856.856V41.833A.856.856,0,0,0,14.856,42.689Zm4.705-7.272A1.283,1.283,0,1,1,20.844,36.7,1.283,1.283,0,0,1,19.561,35.417Zm1.283,2.994a2.567,2.567,0,0,1,2.567,2.567H18.278A2.567,2.567,0,0,1,20.844,38.411Zm-5.133-7.7H25.978V40.978h-.856A4.267,4.267,0,0,0,23.1,37.36a2.994,2.994,0,1,0-4.517,0,4.267,4.267,0,0,0-2.019,3.617h-.856Z" transform="translate(-1.445 -4.045)" fill="#22cac5"/>
    <path id="Trazado_878911" data-name="Trazado 878911" d="M48.255,29h-15.4a.856.856,0,0,0-.856.856v3.422a.856.856,0,0,0,.856.856h15.4a.856.856,0,0,0,.856-.856V29.856A.856.856,0,0,0,48.255,29ZM47.4,32.422H33.711V30.711H47.4Z" transform="translate(-4.045 -4.045)" fill="#22cac5"/>
    <path id="Trazado_878912" data-name="Trazado 878912" d="M36,37H49.689v1.711H36Z" transform="translate(-4.623 -5.201)" fill="#22cac5"/>
    <path id="Trazado_878913" data-name="Trazado 878913" d="M32,41H49.111v1.711H32Z" transform="translate(-4.045 -5.778)" fill="#22cac5"/>
    <path id="Trazado_878914" data-name="Trazado 878914" d="M32,45H49.111v1.711H32Z" transform="translate(-4.045 -6.356)" fill="#22cac5"/>
    <path id="Trazado_878915" data-name="Trazado 878915" d="M15,49H46.655v1.711H15Z" transform="translate(-1.589 -6.934)" fill="#22cac5"/>
  </g>
</svg>
