<svg xmlns="http://www.w3.org/2000/svg" width="43.725" height="62.465" viewBox="0 0 43.725 62.465">
  <g id="Grupo_1102652" data-name="Grupo 1102652" transform="translate(-76.8)">
    <g id="Grupo_1102635" data-name="Grupo 1102635" transform="translate(76.8)">
      <g id="Grupo_1102634" data-name="Grupo 1102634">
        <path id="Trazado_878917" data-name="Trazado 878917" d="M102.827,0H82.005A5.211,5.211,0,0,0,76.8,5.205V42.684a5.211,5.211,0,0,0,5.205,5.205h18.739V45.808H82.005a3.127,3.127,0,0,1-3.123-3.123V5.205a3.127,3.127,0,0,1,3.123-3.123h20.822a3.127,3.127,0,0,1,3.123,3.123V35.4h2.082V5.205A5.211,5.211,0,0,0,102.827,0Z" transform="translate(-76.8)" fill="#22cac5"/>
      </g>
    </g>
    <g id="Grupo_1102637" data-name="Grupo 1102637" transform="translate(91.375 14.967)">
      <g id="Grupo_1102636" data-name="Grupo 1102636">
        <path id="Trazado_878918" data-name="Trazado 878918" d="M222.909,135.439,212.7,122.675l-1.627,1.3,10.213,12.763a9.4,9.4,0,0,1,2.053,5.856v25.5H208.1a9.766,9.766,0,0,1-9.755-9.755v-3.779h-2.082v3.779A11.851,11.851,0,0,0,208.1,170.173h16.272a1.04,1.04,0,0,0,1.041-1.041V142.6A11.5,11.5,0,0,0,222.909,135.439Z" transform="translate(-196.267 -122.675)" fill="#22cac5"/>
      </g>
    </g>
    <g id="Grupo_1102639" data-name="Grupo 1102639" transform="translate(89.595 22.468)">
      <g id="Grupo_1102638" data-name="Grupo 1102638">
        <path id="Trazado_878919" data-name="Trazado 878919" d="M186.573,186.244a2.717,2.717,0,0,1,1.911.856l13.991,14.867,1.517-1.427L190,185.672a4.788,4.788,0,0,0-3.367-1.509,4.728,4.728,0,0,0-3.436,1.3c-.011.011-.095.091-.105.1a4.806,4.806,0,0,0-.276,6.519l8.967,10.588V205.9a13.929,13.929,0,0,0,9,12.99l.731-1.95a11.839,11.839,0,0,1-7.653-11.04v-3.6a1.045,1.045,0,0,0-.247-.674l-9.21-10.876a2.749,2.749,0,0,1,.208-3.754A2.786,2.786,0,0,1,186.573,186.244Z" transform="translate(-181.674 -184.16)" fill="#22cac5"/>
      </g>
    </g>
    <g id="Grupo_1102641" data-name="Grupo 1102641" transform="translate(99.704 2.082)">
      <g id="Grupo_1102640" data-name="Grupo 1102640">
        <rect id="Rectángulo_402180" data-name="Rectángulo 402180" width="2.082" height="26.027" fill="#22cac5"/>
      </g>
    </g>
    <g id="Grupo_1102643" data-name="Grupo 1102643" transform="translate(94.498 34.356)">
      <g id="Grupo_1102642" data-name="Grupo 1102642">
        <rect id="Rectángulo_402181" data-name="Rectángulo 402181" width="2.082" height="12.493" fill="#22cac5"/>
      </g>
    </g>
    <g id="Grupo_1102645" data-name="Grupo 1102645" transform="translate(94.498 1.041)">
      <g id="Grupo_1102644" data-name="Grupo 1102644">
        <rect id="Rectángulo_402182" data-name="Rectángulo 402182" width="2.082" height="22.904" fill="#22cac5"/>
      </g>
    </g>
    <g id="Grupo_1102647" data-name="Grupo 1102647" transform="translate(82.005 5.205)">
      <g id="Grupo_1102646" data-name="Grupo 1102646">
        <rect id="Rectángulo_402183" data-name="Rectángulo 402183" width="2.082" height="13.534" fill="#22cac5"/>
      </g>
    </g>
    <g id="Grupo_1102649" data-name="Grupo 1102649" transform="translate(87.211 5.205)">
      <g id="Grupo_1102648" data-name="Grupo 1102648">
        <rect id="Rectángulo_402184" data-name="Rectángulo 402184" width="2.082" height="8.329" fill="#22cac5"/>
      </g>
    </g>
    <g id="Grupo_1102651" data-name="Grupo 1102651" transform="translate(82.005 34.356)">
      <g id="Grupo_1102650" data-name="Grupo 1102650">
        <path id="Trazado_878920" data-name="Trazado 878920" d="M126.755,281.6h-6.246a1.041,1.041,0,0,0-1.041,1.041v6.246a1.041,1.041,0,0,0,1.041,1.041h6.246a1.041,1.041,0,0,0,1.041-1.041v-6.246A1.041,1.041,0,0,0,126.755,281.6Zm-1.041,6.246h-4.164v-4.164h4.164Z" transform="translate(-119.467 -281.6)" fill="#22cac5"/>
      </g>
    </g>
  </g>
</svg>
