<svg xmlns="http://www.w3.org/2000/svg" width="80" height="80" viewBox="0 0 80 80">
  <g id="Grupo_1100504" data-name="Grupo 1100504" transform="translate(-505.051 -655)">
    <rect id="Rectángulo_401663" data-name="Rectángulo 401663" width="80" height="80" rx="8" transform="translate(505.051 655)" fill="#efddcf"/>
    <g id="Grupo_1102655" data-name="Grupo 1102655" transform="translate(518.051 668)">
      <path id="Trazado_879006" data-name="Trazado 879006" d="M196,85.582v7.11l1.318,3.5v33.572h6.855l1.582-31.42,4.008-7.5V85.582Z" transform="translate(-175.328 -76.556)" fill="#fdbba8"/>
      <path id="Trazado_879007" data-name="Trazado 879007" d="M264.089,85.582v5.265a5.85,5.85,0,0,1-2.6,4.869,3.164,3.164,0,0,0-1.4,2.629l-1.582.665,1.582.665v30.09h3.164V98.345a9.008,9.008,0,0,0,4.008-7.5V85.582Z" transform="translate(-231.235 -76.556)" fill="#fc9e8d"/>
      <path id="Trazado_879008" data-name="Trazado 879008" d="M292.086,37.5a2,2,0,0,0-2,2L288.5,41.086l1.582,1.582a2,2,0,0,0,4.008,0V39.5A2,2,0,0,0,292.086,37.5Z" transform="translate(-258.072 -33.545)" fill="#fc8071"/>
      <path id="Trazado_879009" data-name="Trazado 879009" d="M254.086,22.5a2,2,0,0,0-2,2L250.5,26.877l1.582,2.373a2,2,0,0,0,4.008,0V24.5A2,2,0,0,0,254.086,22.5Z" transform="translate(-224.08 -20.127)" fill="#fc9e8d"/>
      <path id="Trazado_879010" data-name="Trazado 879010" d="M216.086,7.5a2,2,0,0,0-2,2L212.5,15.832h5.59V9.5A2,2,0,0,0,216.086,7.5Z" transform="translate(-190.088 -6.709)" fill="#fc8071"/>
      <path id="Trazado_879011" data-name="Trazado 879011" d="M191.5,7.5a2,2,0,0,0-2,2v6.328h4.008V9.5A2,2,0,0,0,191.5,7.5Z" transform="translate(-169.514 -6.709)" fill="#fc9e8d"/>
      <path id="Trazado_879012" data-name="Trazado 879012" d="M174.508,74.672V71.508h4.008a2,2,0,0,0,2-2.1,2.041,2.041,0,0,0-2.058-1.907h-3.951a4.008,4.008,0,0,0-4.008,4.008v3.164A9.023,9.023,0,0,0,181.363,83.5V81.527A6.856,6.856,0,0,0,174.508,74.672Z" transform="translate(-152.518 -60.381)" fill="#fdd9c4"/>
      <path id="Trazado_879013" data-name="Trazado 879013" d="M33,269.082v7.111l1.318,3.5v14.218h6.855l1.582-12.066,4.008-7.5v-5.265Z" transform="translate(-29.52 -240.702)" fill="#f6d76f"/>
      <path id="Trazado_879014" data-name="Trazado 879014" d="M101.089,269.082v5.265a5.85,5.85,0,0,1-2.6,4.869,3.164,3.164,0,0,0-1.4,2.629l-1.582.665,1.582.665v10.737h3.164V281.845a9.008,9.008,0,0,0,4.008-7.5v-5.265Z" transform="translate(-85.427 -240.702)" fill="#f9bb69"/>
      <path id="Trazado_879015" data-name="Trazado 879015" d="M129.086,221a2,2,0,0,0-2,2l-1.582,1.582,1.582,1.582a2,2,0,0,0,4.008,0V223A2,2,0,0,0,129.086,221Z" transform="translate(-112.264 -197.691)" fill="#fc9f63"/>
      <path id="Trazado_879016" data-name="Trazado 879016" d="M91.086,206a2,2,0,0,0-2,2L87.5,210.377l1.582,2.373a2,2,0,0,0,4.008,0V208A2,2,0,0,0,91.086,206Z" transform="translate(-78.271 -184.273)" fill="#f9bb69"/>
      <path id="Trazado_879017" data-name="Trazado 879017" d="M53.086,191a2,2,0,0,0-2,2L49.5,199.332h5.59V193A2,2,0,0,0,53.086,191Z" transform="translate(-44.279 -170.855)" fill="#fc9f63"/>
      <path id="Trazado_879018" data-name="Trazado 879018" d="M28.5,191a2,2,0,0,0-2,2v6.328h4.008V193A2,2,0,0,0,28.5,191Z" transform="translate(-23.705 -170.855)" fill="#f9bb69"/>
      <path id="Trazado_879019" data-name="Trazado 879019" d="M11.508,258.172v-3.164h4.008a2,2,0,0,0,2-2.1A2.041,2.041,0,0,0,15.459,251H11.508A4.008,4.008,0,0,0,7.5,255.008v3.164A9.023,9.023,0,0,0,18.363,267v-1.972A6.856,6.856,0,0,0,11.508,258.172Z" transform="translate(-6.709 -224.527)" fill="#fae8ac"/>
      <path id="Trazado_879020" data-name="Trazado 879020" d="M359,269.082v7.111l1.318,3.5v14.218h6.855l1.582-12.066,4.008-7.5v-5.265Z" transform="translate(-321.137 -240.702)" fill="#ae6e5a"/>
      <path id="Trazado_879021" data-name="Trazado 879021" d="M427.089,269.082v5.265a5.85,5.85,0,0,1-2.6,4.869,3.164,3.164,0,0,0-1.4,2.629l-1.582.665,1.582.665v10.737h3.164V281.845a9.008,9.008,0,0,0,4.008-7.5v-5.265Z" transform="translate(-377.044 -240.702)" fill="#8d5d4d"/>
      <path id="Trazado_879022" data-name="Trazado 879022" d="M455.086,221a2,2,0,0,0-2,2l-1.582,1.582,1.582,1.582a2,2,0,0,0,4.008,0V223A2,2,0,0,0,455.086,221Z" transform="translate(-403.881 -197.691)" fill="#6c4b41"/>
      <path id="Trazado_879023" data-name="Trazado 879023" d="M417.086,206a2,2,0,0,0-2,2l-1.582,2.373,1.582,2.373a2,2,0,0,0,4.008,0V208A2,2,0,0,0,417.086,206Z" transform="translate(-369.889 -184.273)" fill="#8d5d4d"/>
      <path id="Trazado_879024" data-name="Trazado 879024" d="M379.086,191a2,2,0,0,0-2,2l-1.582,6.328h5.59V193A2,2,0,0,0,379.086,191Z" transform="translate(-335.896 -170.855)" fill="#6c4b41"/>
      <path id="Trazado_879025" data-name="Trazado 879025" d="M354.5,191a2,2,0,0,0-2,2v6.328h4.008V193A2,2,0,0,0,354.5,191Z" transform="translate(-315.322 -170.855)" fill="#8d5d4d"/>
      <path id="Trazado_879026" data-name="Trazado 879026" d="M337.508,258.172v-3.164h4.008a2,2,0,0,0,2-2.1A2.041,2.041,0,0,0,341.459,251h-3.951a4.008,4.008,0,0,0-4.008,4.008v3.164A9.023,9.023,0,0,0,344.363,267v-1.972A6.856,6.856,0,0,0,337.508,258.172Z" transform="translate(-298.326 -224.527)" fill="#d7795c"/>
      <path id="Trazado_879027" data-name="Trazado 879027" d="M182.617,5.959a2.793,2.793,0,0,0-4.145-2.446,2.793,2.793,0,0,0-4.008-1.582A2.792,2.792,0,0,0,169.8.849,2.793,2.793,0,0,0,165,2.795V7.23a4.8,4.8,0,0,0-2,3.9v3.164a9.8,9.8,0,0,0,4.008,7.909V53.209A.791.791,0,0,0,167.8,54h10.02a.791.791,0,0,0,.791-.791V22.2a9.8,9.8,0,0,0,4.008-7.91Zm-2.795-1.213a1.214,1.214,0,0,1,1.213,1.213V9.123a1.213,1.213,0,0,1-2.426,0V5.959A1.214,1.214,0,0,1,179.822,4.746Zm-4.008-1.582a1.214,1.214,0,0,1,1.213,1.213V9.123a1.213,1.213,0,0,1-2.426,0V4.377A1.214,1.214,0,0,1,175.814,3.164Zm-4.008-1.582a1.214,1.214,0,0,1,1.213,1.213V6.619a2.9,2.9,0,0,0-1.27-.291h-1.156V2.795A1.214,1.214,0,0,1,171.807,1.582Zm-5.221,1.213a1.213,1.213,0,0,1,2.426,0V6.328H167.8a4.793,4.793,0,0,0-1.213.156Zm10.792,18.337a.791.791,0,0,0-.351.657V52.418H168.59V21.789a.791.791,0,0,0-.351-.657,8.22,8.22,0,0,1-3.657-6.841V11.127A3.22,3.22,0,0,1,167.8,7.91h3.951a1.256,1.256,0,0,1,1.268,1.153,1.213,1.213,0,0,1-1.211,1.272H167.8a.791.791,0,0,0-.791.791v3.164a.791.791,0,0,0,.791.791,6.069,6.069,0,0,1,5.318,3.149.791.791,0,0,0,1.387-.762,7.654,7.654,0,0,0-5.914-3.929V11.918h3.217a2.808,2.808,0,0,0,2-.848,2.788,2.788,0,0,0,4.007,0,2.79,2.79,0,0,0,3.217.572v2.65A8.219,8.219,0,0,1,177.378,21.132Z" transform="translate(-145.809)"/>
      <path id="Trazado_879028" data-name="Trazado 879028" d="M16.822,186.664a2.778,2.778,0,0,0-1.35.349,2.793,2.793,0,0,0-4.008-1.582A2.792,2.792,0,0,0,6.8,184.349,2.793,2.793,0,0,0,2,186.295v4.435a4.8,4.8,0,0,0-2,3.9v3.164A9.8,9.8,0,0,0,4.008,205.7v1.108a.791.791,0,0,0,1.582,0v-1.519a.791.791,0,0,0-.351-.657,8.22,8.22,0,0,1-3.657-6.841v-3.164A3.22,3.22,0,0,1,4.8,191.41H8.75a1.256,1.256,0,0,1,1.268,1.153,1.213,1.213,0,0,1-1.211,1.272H4.8a.791.791,0,0,0-.791.791v3.164a.791.791,0,0,0,.791.791,6.069,6.069,0,0,1,5.318,3.149.791.791,0,0,0,1.387-.762,7.654,7.654,0,0,0-5.914-3.928v-1.623H8.807a2.808,2.808,0,0,0,2-.848,2.788,2.788,0,0,0,4.007,0,2.79,2.79,0,0,0,3.217.572v2.65a8.219,8.219,0,0,1-3.657,6.841.791.791,0,0,0-.351.657v11.275H5.59v-6.592a.791.791,0,0,0-1.582,0v7.383a.791.791,0,0,0,.791.791h10.02a.791.791,0,0,0,.791-.791V205.7a9.8,9.8,0,0,0,4.008-7.91v-8.332A2.8,2.8,0,0,0,16.822,186.664Zm-13.236,3.32v-3.689a1.213,1.213,0,0,1,2.426,0v3.533H4.8A4.793,4.793,0,0,0,3.586,189.984Zm5.164-.156H7.594v-3.533a1.213,1.213,0,0,1,2.426,0v3.824A2.9,2.9,0,0,0,8.75,189.828Zm4.064,4.008a1.214,1.214,0,0,1-1.213-1.213v-4.746a1.213,1.213,0,0,1,2.426,0v4.746A1.214,1.214,0,0,1,12.814,193.836Zm4.008,0a1.214,1.214,0,0,1-1.213-1.213v-3.164a1.213,1.213,0,0,1,2.426,0v3.164A1.214,1.214,0,0,1,16.822,193.836Z" transform="translate(0 -164.146)"/>
      <path id="Trazado_879029" data-name="Trazado 879029" d="M342.822,186.664a2.778,2.778,0,0,0-1.35.349,2.793,2.793,0,0,0-4.008-1.582,2.792,2.792,0,0,0-4.661-1.081,2.793,2.793,0,0,0-4.8,1.945v4.435a4.8,4.8,0,0,0-2,3.9v3.164a9.8,9.8,0,0,0,4.008,7.909v11.655a.791.791,0,0,0,.791.791h10.02a.791.791,0,0,0,.791-.791V205.7a9.8,9.8,0,0,0,4.008-7.91v-8.332A2.8,2.8,0,0,0,342.822,186.664Zm-4.008,0a1.214,1.214,0,0,1,1.213,1.213v4.746a1.213,1.213,0,0,1-2.426,0v-4.746A1.214,1.214,0,0,1,338.814,186.664Zm-4.008-1.582a1.214,1.214,0,0,1,1.213,1.213v3.824a2.9,2.9,0,0,0-1.27-.291h-1.156v-3.533A1.214,1.214,0,0,1,334.807,185.082Zm-5.221,1.213a1.213,1.213,0,0,1,2.426,0v3.533H330.8a4.793,4.793,0,0,0-1.213.156Zm10.792,18.337a.791.791,0,0,0-.351.657v11.275H331.59V205.289a.791.791,0,0,0-.351-.657,8.22,8.22,0,0,1-3.657-6.841v-3.164a3.22,3.22,0,0,1,3.217-3.217h3.951a1.256,1.256,0,0,1,1.268,1.153,1.213,1.213,0,0,1-1.211,1.272H330.8a.791.791,0,0,0-.791.791v3.164a.791.791,0,0,0,.791.791,6.069,6.069,0,0,1,5.318,3.149.791.791,0,0,0,1.387-.762,7.654,7.654,0,0,0-5.914-3.929v-1.623h3.217a2.808,2.808,0,0,0,2-.848,2.789,2.789,0,0,0,4.007,0,2.79,2.79,0,0,0,3.217.572v2.65A8.219,8.219,0,0,1,340.378,204.632Zm2.444-10.8a1.214,1.214,0,0,1-1.213-1.213v-3.164a1.213,1.213,0,0,1,2.426,0v3.164A1.214,1.214,0,0,1,342.822,193.836Z" transform="translate(-291.617 -164.146)"/>
    </g>
  </g>
</svg>
