<svg xmlns="http://www.w3.org/2000/svg" width="80" height="80" viewBox="0 0 80 80">
  <g id="Grupo_1100514" data-name="Grupo 1100514" transform="translate(-820.051 -655)">
    <rect id="Rectángulo_401664" data-name="Rectángulo 401664" width="80" height="80" rx="8" transform="translate(820.051 655)" fill="#efddcf"/>
    <g id="Grupo_1102681" data-name="Grupo 1102681" transform="translate(829.823 648.164)">
      <g id="Grupo_1102656" data-name="Grupo 1102656" transform="translate(3.187 36.544)">
        <path id="Trazado_879030" data-name="Trazado 879030" d="M26.712,171.419l0,11.676V200l0,7.459H43.265V171.419l-9.12-1.685Z" transform="translate(-26.709 -169.734)" fill="#9f9ba3" fill-rule="evenodd"/>
      </g>
      <g id="Grupo_1102657" data-name="Grupo 1102657" transform="translate(1.052 33.401)">
        <path id="Trazado_879031" data-name="Trazado 879031" d="M25.1,143.394H10.032a1.218,1.218,0,0,0-1.216,1.215v2.4a1.218,1.218,0,0,0,1.216,1.215H25.1l1.988-2.324Z" transform="translate(-8.816 -143.394)" fill="#62b553" fill-rule="evenodd"/>
      </g>
      <g id="Grupo_1102658" data-name="Grupo 1102658" transform="translate(17.331 27.133)">
        <path id="Trazado_879032" data-name="Trazado 879032" d="M145.263,92.3V138h26.431V92.3h-.27l-13.475-1.443Z" transform="translate(-145.263 -90.859)" fill="#e6e6e6" fill-rule="evenodd"/>
      </g>
      <g id="Grupo_1102659" data-name="Grupo 1102659" transform="translate(41.351 35.817)">
        <path id="Trazado_879033" data-name="Trazado 879033" d="M346.582,165.84V202.1h16.553V165.84l-6.917-2.2Z" transform="translate(-346.582 -163.643)" fill="#9f9ba3" fill-rule="evenodd"/>
      </g>
      <g id="Grupo_1102660" data-name="Grupo 1102660" transform="translate(40.729 33.186)">
        <path id="Trazado_879034" data-name="Trazado 879034" d="M359.468,141.593H344.4l-3.033,2.412,3.033,2.416h15.064a1.217,1.217,0,0,0,1.212-1.215v-2.4a1.217,1.217,0,0,0-1.212-1.215Z" transform="translate(-341.371 -141.593)" fill="#62b553" fill-rule="evenodd"/>
      </g>
      <g id="Grupo_1102661" data-name="Grupo 1102661" transform="translate(14.267 23.748)">
        <path id="Trazado_879035" data-name="Trazado 879035" d="M143.479,62.489H120.8a1.218,1.218,0,0,0-1.216,1.215v2.4a1.217,1.217,0,0,0,1.216,1.211h30.127a1.217,1.217,0,0,0,1.216-1.211V63.7a1.218,1.218,0,0,0-1.216-1.215Z" transform="translate(-119.582 -62.489)" fill="#62b553" fill-rule="evenodd"/>
      </g>
      <g id="Grupo_1102662" data-name="Grupo 1102662" transform="translate(7.48 43.545)">
        <path id="Trazado_879036" data-name="Trazado 879036" d="M63.3,228.416a.6.6,0,0,0-.6.6v3.75a.6.6,0,0,0,.6.6h3.986a.6.6,0,0,0,.6-.6v-3.75a.6.6,0,0,0-.6-.6Z" transform="translate(-62.696 -228.416)" fill="#bde5f8" fill-rule="evenodd"/>
      </g>
      <g id="Grupo_1102663" data-name="Grupo 1102663" transform="translate(7.665 53.594)">
        <path id="Trazado_879037" data-name="Trazado 879037" d="M64.843,312.64a.6.6,0,0,0-.6.6v3.75a.6.6,0,0,0,.6.6h3.986a.6.6,0,0,0,.6-.6v-3.75a.6.6,0,0,0-.6-.6Z" transform="translate(-64.242 -312.64)" fill="#bde5f8" fill-rule="evenodd"/>
      </g>
      <g id="Grupo_1102664" data-name="Grupo 1102664" transform="translate(48.391 54.021)">
        <path id="Trazado_879038" data-name="Trazado 879038" d="M410.178,316.214h-3.986a.6.6,0,0,0-.6.6v3.75a.6.6,0,0,0,.6.6h3.986a.6.6,0,0,0,.6-.6v-3.75a.6.6,0,0,0-.6-.6Z" transform="translate(-405.587 -316.214)" fill="#bde5f8" fill-rule="evenodd"/>
      </g>
      <g id="Grupo_1102665" data-name="Grupo 1102665" transform="translate(48.206 43.972)">
        <path id="Trazado_879039" data-name="Trazado 879039" d="M404.641,231.992a.6.6,0,0,0-.6.6v3.75a.6.6,0,0,0,.6.6h3.986a.6.6,0,0,0,.6-.6v-3.75a.6.6,0,0,0-.6-.6Z" transform="translate(-404.04 -231.992)" fill="#bde5f8" fill-rule="evenodd"/>
      </g>
      <g id="Grupo_1102666" data-name="Grupo 1102666" transform="translate(3.187 38.229)">
        <path id="Trazado_879040" data-name="Trazado 879040" d="M40.855,183.861H26.713l0,2.75h10.4a1.2,1.2,0,0,1,1.2,1.194v32.1h2.545Z" transform="translate(-26.71 -183.861)" fill="#797f8e" fill-rule="evenodd"/>
      </g>
      <g id="Grupo_1102667" data-name="Grupo 1102667" transform="translate(43.762 38.015)">
        <path id="Trazado_879041" data-name="Trazado 879041" d="M366.792,182.06h14.141v2.747h-10.4a1.212,1.212,0,0,0-1.2,1.2V218.1h-2.542V182.06Z" transform="translate(-366.792 -182.06)" fill="#797f8e" fill-rule="evenodd"/>
      </g>
      <g id="Grupo_1102668" data-name="Grupo 1102668" transform="translate(40.729 28.576)">
        <path id="Trazado_879042" data-name="Trazado 879042" d="M341.371,112.393V148.65H344.4V102.955h-3.033v9.438Z" transform="translate(-341.371 -102.955)" fill="#ccc" fill-rule="evenodd"/>
      </g>
      <g id="Grupo_1102669" data-name="Grupo 1102669" transform="translate(40.729 23.748)">
        <path id="Trazado_879043" data-name="Trazado 879043" d="M346.252,62.489h-4.881a1.217,1.217,0,0,1,1.213,1.215v2.4a1.213,1.213,0,0,1-.516.99,1.179,1.179,0,0,1-.69.222h4.874a1.217,1.217,0,0,0,1.216-1.211V63.7a1.218,1.218,0,0,0-1.216-1.215Z" transform="translate(-341.371 -62.489)" fill="#3f9666" fill-rule="evenodd"/>
      </g>
      <g id="Grupo_1102670" data-name="Grupo 1102670" transform="translate(53.942 33.186)">
        <path id="Trazado_879044" data-name="Trazado 879044" d="M456.994,141.593h-4.885a1.218,1.218,0,0,1,1.216,1.215v2.4a1.219,1.219,0,0,1-.516.993,1.24,1.24,0,0,1-.69.222h4.874a1.217,1.217,0,0,0,1.212-1.215v-2.4a1.217,1.217,0,0,0-1.212-1.215Z" transform="translate(-452.109 -141.593)" fill="#3f9666" fill-rule="evenodd"/>
      </g>
      <g id="Grupo_1102671" data-name="Grupo 1102671" transform="translate(14.244 33.401)">
        <path id="Trazado_879045" data-name="Trazado 879045" d="M122.47,143.394h-3.088v4.828h3.088Z" transform="translate(-119.382 -143.394)" fill="#3f9666" fill-rule="evenodd"/>
      </g>
      <g id="Grupo_1102672" data-name="Grupo 1102672" transform="translate(28.347 33.422)">
        <path id="Trazado_879046" data-name="Trazado 879046" d="M242.927,148.025c0-2.463-1.2-4.459-2.668-4.459s-2.668,2-2.668,4.459,1.2,4.456,2.668,4.456,2.668-2,2.668-4.456Z" transform="translate(-237.591 -143.566)" fill="#62b553" fill-rule="evenodd"/>
      </g>
      <g id="Grupo_1102673" data-name="Grupo 1102673" transform="translate(30.188 33.422)">
        <path id="Trazado_879047" data-name="Trazado 879047" d="M256.516,148.025c0-2.463-1.2-4.459-2.668-4.459a1.692,1.692,0,0,0-.827.218c1.069.58,1.841,2.259,1.841,4.241a5.9,5.9,0,0,1-1.014,3.5,2.616,2.616,0,0,1-.827.74,1.691,1.691,0,0,0,.827.219c1.472,0,2.668-2,2.668-4.456Z" transform="translate(-253.022 -143.566)" fill="#3f9666" fill-rule="evenodd"/>
      </g>
      <g id="Grupo_1102674" data-name="Grupo 1102674" transform="translate(21.842 42.338)">
        <path id="Trazado_879048" data-name="Trazado 879048" d="M192.244,221.527a6.235,6.235,0,0,0-2.541-2.146c-1.868-1.1-5.557-1.669-6.411-.212s.909,4.077,3.313,5.486,4.372,1.566,5.639.921v-4.05Z" transform="translate(-183.071 -218.296)" fill="#62b553" fill-rule="evenodd"/>
      </g>
      <g id="Grupo_1102675" data-name="Grupo 1102675" transform="translate(31.015 42.338)">
        <path id="Trazado_879049" data-name="Trazado 879049" d="M265.579,224.656c2.4-1.409,4.167-4.03,3.313-5.486s-4.543-.884-6.411.212a6.131,6.131,0,0,0-2.531,2.146v4.05c1.267.645,3.221.488,5.629-.921Z" transform="translate(-259.95 -218.296)" fill="#62b553" fill-rule="evenodd"/>
      </g>
      <g id="Grupo_1102676" data-name="Grupo 1102676" transform="translate(31.015 43.225)">
        <path id="Trazado_879050" data-name="Trazado 879050" d="M265.579,231.2c2.4-1.406,4.157-4.013,3.32-5.473a7.893,7.893,0,0,1-3.324,3.6c-2.186,1.283-4,1.525-5.264,1.078a3.543,3.543,0,0,1-.362-.157v1.87c1.267.645,3.221.488,5.629-.921Z" transform="translate(-259.95 -225.729)" fill="#3f9666" fill-rule="evenodd"/>
      </g>
      <g id="Grupo_1102677" data-name="Grupo 1102677" transform="translate(21.842 43.225)">
        <path id="Trazado_879051" data-name="Trazado 879051" d="M192.241,230.584v-.331a2.532,2.532,0,0,1-.369.157c-1.264.447-3.088.2-5.271-1.078a7.929,7.929,0,0,1-3.323-3.6c-.833,1.46.926,4.067,3.323,5.473s4.372,1.566,5.639.921Z" transform="translate(-183.068 -225.729)" fill="#3f9666" fill-rule="evenodd"/>
      </g>
      <g id="Grupo_1102678" data-name="Grupo 1102678" transform="translate(24.286 58.442)">
        <path id="Trazado_879052" data-name="Trazado 879052" d="M205.96,353.275a2.416,2.416,0,0,0-2.408,2.409V369.1h13.41v-13.42a2.419,2.419,0,0,0-2.412-2.409H205.96Z" transform="translate(-203.552 -353.275)" fill="#62b553" fill-rule="evenodd"/>
      </g>
      <g id="Grupo_1102679" data-name="Grupo 1102679" transform="translate(24.286 58.442)">
        <path id="Trazado_879053" data-name="Trazado 879053" d="M205.96,353.275a2.416,2.416,0,0,0-2.408,2.409h8.587a2.413,2.413,0,0,1,2.411,2.406V369.1h2.412V355.684a2.419,2.419,0,0,0-2.412-2.409H205.96Z" transform="translate(-203.552 -353.275)" fill="#3f9666" fill-rule="evenodd"/>
      </g>
      <g id="Grupo_1102680" data-name="Grupo 1102680" transform="translate(0 18.5)">
        <path id="Trazado_879054" data-name="Trazado 879054" d="M179.5,152.966a9.026,9.026,0,0,0,4.443,1.413,5.109,5.109,0,0,0,.73-.053l0,1.587a.9.9,0,0,0,.9.9h0a.9.9,0,0,0,.9-.9l0-1.6a5.09,5.09,0,0,0,.765.057,9.033,9.033,0,0,0,4.44-1.411,9.537,9.537,0,0,0,3.187-3.025c.871-1.391,1.03-2.7.448-3.7-1.3-2.209-5.732-1.231-7.644-.11-.5.291-.878.531-1.182.743v-.312c1.555-.581,2.675-2.656,2.675-5.195,0-3.006-1.568-5.361-3.57-5.361s-3.569,2.355-3.569,5.361c0,2.531,1.113,4.6,2.661,5.189v.316c-.3-.212-.683-.451-1.176-.741a9.866,9.866,0,0,0-3.972-1.184c-1.8-.14-3.1.32-3.672,1.293a2.841,2.841,0,0,0-.226,2.2A8.29,8.29,0,0,0,179.5,152.966Zm9.082-5.275c1.8-1.056,4.762-1.24,5.178-.533.216.368.054,1.068-.421,1.827a7.786,7.786,0,0,1-2.57,2.426,6.11,6.11,0,0,1-4.29,1.072v-.34l3.412-1.669a.9.9,0,0,0-.792-1.62l-2.616,1.28v-.749l.056-.073A5.269,5.269,0,0,1,188.581,147.691Zm-4.753-6.319c0-2.036.932-3.558,1.766-3.558s1.766,1.522,1.766,3.558a4.991,4.991,0,0,1-.868,3l0-1.79a.9.9,0,0,0-.9-.9h0a.9.9,0,0,0-.9.9l0,1.786A5,5,0,0,1,183.828,141.372Zm-6.409,5.786c.157-.268.829-.5,1.977-.408a8.072,8.072,0,0,1,3.2.941,5.415,5.415,0,0,1,2.069,1.641l.016.021v.773l-2.6-1.272a.9.9,0,1,0-.793,1.62l3.389,1.658v.359a6.159,6.159,0,0,1-4.264-1.08,6.642,6.642,0,0,1-3.027-3.425A1.144,1.144,0,0,1,177.42,147.158Z" transform="translate(-154.579 -121.991)"/>
        <path id="Trazado_879055" data-name="Trazado 879055" d="M60.627,220.86H56.641a1.5,1.5,0,0,0-1.5,1.5v3.75a1.5,1.5,0,0,0,1.5,1.5h3.986a1.5,1.5,0,0,0,1.5-1.5v-3.75A1.5,1.5,0,0,0,60.627,220.86Zm-.3,4.951H56.941v-3.148h3.385Z" transform="translate(-48.559 -196.716)"/>
        <path id="Trazado_879056" data-name="Trazado 879056" d="M62.173,305.083H58.187a1.5,1.5,0,0,0-1.5,1.5v3.75a1.5,1.5,0,0,0,1.5,1.5h3.986a1.506,1.506,0,0,0,1.506-1.5v-3.75A1.506,1.506,0,0,0,62.173,305.083Zm-.3,4.951H58.487v-3.148h3.389Z" transform="translate(-49.921 -270.891)"/>
        <path id="Trazado_879057" data-name="Trazado 879057" d="M397.986,231.189h3.986a1.5,1.5,0,0,0,1.5-1.5v-3.75a1.5,1.5,0,0,0-1.5-1.5h-3.986a1.5,1.5,0,0,0-1.5,1.5v3.75A1.5,1.5,0,0,0,397.986,231.189Zm.3-4.951h3.385v3.148h-3.385Z" transform="translate(-349.178 -199.865)"/>
        <path id="Trazado_879058" data-name="Trazado 879058" d="M403.521,308.657h-3.986a1.506,1.506,0,0,0-1.506,1.5v3.75a1.506,1.506,0,0,0,1.506,1.5h3.986a1.5,1.5,0,0,0,1.5-1.5v-3.75A1.5,1.5,0,0,0,403.521,308.657Zm-.3,4.951h-3.389V310.46h3.389Z" transform="translate(-350.54 -274.038)"/>
        <path id="Trazado_879059" data-name="Trazado 879059" d="M60.186,73.37h-1.38V38.916h.021A2.118,2.118,0,0,0,60.94,36.8V34.4a2.118,2.118,0,0,0-2.114-2.116H44.664V29.478h.946a2.118,2.118,0,0,0,2.118-2.113v-2.4a2.119,2.119,0,0,0-2.118-2.116h-.946V19.4a.9.9,0,0,0-1.8,0v3.445H39.066V19.4a.9.9,0,0,0-1.8,0v3.445H15.484a2.119,2.119,0,0,0-2.118,2.116v2.4a2.118,2.118,0,0,0,2.118,2.113h.946V32.5H2.268A2.119,2.119,0,0,0,.15,34.616v2.4a2.119,2.119,0,0,0,2.118,2.116h.02L2.282,57.613a.9.9,0,0,0,.9.9h0a.9.9,0,0,0,.9-.9l.007-18.483H16.43V73.369H4.091l-.006-11.59a.9.9,0,0,0-.9-.9h0a.9.9,0,0,0-.9.9l.006,11.59H.9a.9.9,0,0,0,0,1.8H60.186a.9.9,0,1,0,0-1.8ZM16.43,37.328H2.268a.318.318,0,0,1-.314-.313v-2.4a.318.318,0,0,1,.314-.313H16.43Zm42.4-3.24a.316.316,0,0,1,.311.313v2.4a.316.316,0,0,1-.311.313H44.664V34.088H58.826ZM30.089,73.37h-4.9V60.851a1.509,1.509,0,0,1,1.506-1.507h3.4Zm6.705,0h-4.9V59.344h3.392a1.51,1.51,0,0,1,1.51,1.507Zm6.066,0H38.6V60.851a3.316,3.316,0,0,0-3.313-3.311H26.694a3.314,3.314,0,0,0-3.31,3.311V73.37H18.233V29.478H42.861V73.37ZM15.484,27.675a.316.316,0,0,1-.314-.31v-2.4a.318.318,0,0,1,.314-.313H45.611a.318.318,0,0,1,.314.313v2.4a.316.316,0,0,1-.314.31H15.484ZM57,73.37H44.664V38.916H57V73.37Z" transform="translate(0 -18.5)"/>
      </g>
    </g>
  </g>
</svg>
