<svg xmlns="http://www.w3.org/2000/svg" width="80" height="80" viewBox="0 0 80 80">
  <g id="Grupo_1100497" data-name="Grupo 1100497" transform="translate(-505.051 -535)">
    <rect id="Rectángulo_401660" data-name="Rectángulo 401660" width="80" height="80" rx="8" transform="translate(505.051 535)" fill="#efddcf"/>
    <g id="Grupo_1100490" data-name="Grupo 1100490" transform="translate(515.051 464.5)">
      <path id="Trazado_875249" data-name="Trazado 875249" d="M12.933,101.5H64.787a2.933,2.933,0,0,1,2.933,2.933v30.385a2.933,2.933,0,0,1-2.933,2.933H12.933A2.933,2.933,0,0,1,10,134.818V104.433A2.933,2.933,0,0,1,12.933,101.5Z" transform="translate(-8.827 -8.827)" fill="#85e5f8"/>
      <g id="Grupo_1100472" data-name="Grupo 1100472" transform="translate(5.866 98.774)">
        <path id="Trazado_875250" data-name="Trazado 875250" d="M50,193.5h7.039v4.693H50Z" transform="translate(-50 -188.807)" fill="#ffd887"/>
        <path id="Trazado_875251" data-name="Trazado 875251" d="M50,153.5h7.039v4.693H50Z" transform="translate(-50 -153.5)" fill="#ffd887"/>
        <path id="Trazado_875252" data-name="Trazado 875252" d="M110,153.5h4.693v9.385H110Z" transform="translate(-102.961 -153.5)" fill="#ffd887"/>
        <path id="Trazado_875253" data-name="Trazado 875253" d="M150,193.5h7.039v4.693H150Z" transform="translate(-138.268 -188.807)" fill="#ffd887"/>
        <path id="Trazado_875254" data-name="Trazado 875254" d="M150,153.5h7.039v4.693H150Z" transform="translate(-138.268 -153.5)" fill="#ffd887"/>
      </g>
      <g id="Grupo_1100473" data-name="Grupo 1100473" transform="translate(0 91.5)">
        <circle id="Elipse_11626" data-name="Elipse 11626" cx="1.173" cy="1.173" r="1.173" transform="translate(57.72 22.725)"/>
        <path id="Trazado_875255" data-name="Trazado 875255" d="M58.863,92.7a4.079,4.079,0,0,0-2.9-1.2H4.106A4.106,4.106,0,0,0,0,95.606v30.385A4.106,4.106,0,0,0,4.106,130.1H55.96a4.106,4.106,0,0,0,4.106-4.106v-5.313a1.173,1.173,0,0,0-2.346,0v5.313a1.766,1.766,0,0,1-1.76,1.76H4.106a1.766,1.766,0,0,1-1.76-1.76V95.606a1.766,1.766,0,0,1,1.76-1.76H55.96a1.766,1.766,0,0,1,1.76,1.76v14.513a1.173,1.173,0,0,0,2.346,0V95.606A4.079,4.079,0,0,0,58.863,92.7Z" transform="translate(0 -91.5)"/>
        <path id="Trazado_875256" data-name="Trazado 875256" d="M61.117,154.058v-9.385a1.173,1.173,0,0,0-1.173-1.173H41.173A1.173,1.173,0,0,0,40,144.673v9.385a1.173,1.173,0,0,0,1.173,1.173H59.944A1.173,1.173,0,0,0,61.117,154.058Zm-2.346-5.866H54.078v-2.346h4.693Zm-16.424-2.346h4.693v2.346H42.346Zm0,4.693h4.693v2.346H42.346Zm7.039-1.173v-3.519h2.346v7.039H49.385Zm9.385,3.519H54.078v-2.346h4.693Z" transform="translate(-35.307 -137.4)"/>
        <path id="Trazado_875257" data-name="Trazado 875257" d="M393.173,263.5a1.173,1.173,0,1,0,0,2.346h7.039a1.173,1.173,0,1,0,0-2.346Z" transform="translate(-346.012 -243.322)"/>
        <path id="Trazado_875258" data-name="Trazado 875258" d="M167.385,264.673a1.173,1.173,0,0,0-1.173-1.173h-7.039a1.173,1.173,0,1,0,0,2.346h7.039A1.173,1.173,0,0,0,167.385,264.673Z" transform="translate(-139.464 -243.322)"/>
        <path id="Trazado_875259" data-name="Trazado 875259" d="M276.173,263.5a1.173,1.173,0,1,0,0,2.346h7.039a1.173,1.173,0,1,0,0-2.346Z" transform="translate(-242.738 -243.322)"/>
        <path id="Trazado_875260" data-name="Trazado 875260" d="M49.385,264.673a1.173,1.173,0,0,0-1.173-1.173H41.173a1.173,1.173,0,1,0,0,2.346h7.039A1.173,1.173,0,0,0,49.385,264.673Z" transform="translate(-35.307 -243.322)"/>
        <path id="Trazado_875261" data-name="Trazado 875261" d="M115.667,311.658a1.172,1.172,0,0,0,1.564-.555l2.346-4.927a1.173,1.173,0,0,0-2.118-1.009l-2.346,4.927A1.173,1.173,0,0,0,115.667,311.658Z" transform="translate(-101.507 -279.51)"/>
        <path id="Trazado_875262" data-name="Trazado 875262" d="M41.173,325.5a1.173,1.173,0,1,0,0,2.346h4.693a1.173,1.173,0,1,0,0-2.346Z" transform="translate(-35.307 -298.048)"/>
        <path id="Trazado_875263" data-name="Trazado 875263" d="M175.366,325.5h-4.693a1.173,1.173,0,0,0,0,2.346h4.693a1.173,1.173,0,0,0,0-2.346Z" transform="translate(-149.615 -298.048)"/>
      </g>
    </g>
  </g>
</svg>
