<svg xmlns="http://www.w3.org/2000/svg" width="80" height="80" viewBox="0 0 80 80">
  <g id="Grupo_1102625" data-name="Grupo 1102625" transform="translate(-190.051 -655)">
    <rect id="Rectángulo_401662" data-name="Rectángulo 401662" width="80" height="80" rx="8" transform="translate(190.051 655)" fill="#efddcf"/>
    <g id="Grupo_1102684" data-name="Grupo 1102684" transform="translate(199.96 666.086)">
      <g id="Grupo_1102683" data-name="Grupo 1102683" transform="translate(1.176 1.175)">
        <path id="Trazado_879075" data-name="Trazado 879075" d="M82.724,28.112V24.576L65.945,10H47.1L30.324,24.576v3.536Zm0,0" transform="translate(-27.936 -10.004)" fill="#60a4ff" fill-rule="evenodd"/>
        <path id="Trazado_879076" data-name="Trazado 879076" d="M337.968,164.059H322.405a10.856,10.856,0,0,1-2.838,4.435H340.38v-4.435Zm0,0" transform="translate(-283.18 -145.951)" fill="#aac0c1" fill-rule="evenodd"/>
        <path id="Trazado_879077" data-name="Trazado 879077" d="M380.3,201.785H367.414v3.772a.873.873,0,0,0,.873.869h11.142a.87.87,0,0,0,.87-.869v-3.772Zm0,0" transform="translate(-325.403 -179.242)" fill="#ffc15a" fill-rule="evenodd"/>
        <path id="Trazado_879078" data-name="Trazado 879078" d="M38,168.493a10.856,10.856,0,0,1-2.838-4.435H17.43v4.435Zm0,0" transform="translate(-16.557 -145.95)" fill="#aac0c1" fill-rule="evenodd"/>
        <path id="Trazado_879079" data-name="Trazado 879079" d="M50.494,205.558v-3.772H37.61v3.772a.872.872,0,0,0,.87.869H49.625a.872.872,0,0,0,.87-.869Zm0,0" transform="translate(-34.365 -179.243)" fill="#ffc15a" fill-rule="evenodd"/>
        <path id="Trazado_879080" data-name="Trazado 879080" d="M117.533,201.785v3.772a.872.872,0,0,1-.87.869h-3.085v19.43h33.8v-19.43h-3.1a.873.873,0,0,1-.873-.869v-3.772Zm0,0" transform="translate(-101.404 -179.242)" fill="#eff3f3" fill-rule="evenodd"/>
        <path id="Trazado_879081" data-name="Trazado 879081" d="M71.344,241.27h4.964V260.7H71.344Zm0,0" transform="translate(-64.134 -214.086)" fill="#ffd89e" fill-rule="evenodd"/>
        <path id="Trazado_879082" data-name="Trazado 879082" d="M44.44,406.57H35.23V411h51.9V406.57Zm0,0" transform="translate(-32.265 -359.956)" fill="#60a4ff" fill-rule="evenodd"/>
        <path id="Trazado_879083" data-name="Trazado 879083" d="M64.866,444.3H12.223a2.216,2.216,0,1,0,0,4.432H65.616a2.22,2.22,0,0,0,1.892-1.066v-2.3a2.22,2.22,0,0,0-1.892-1.066Zm0,0" transform="translate(-10.004 -393.249)" fill="#aac0c1" fill-rule="evenodd"/>
        <path id="Trazado_879084" data-name="Trazado 879084" d="M192.859,264.07h7.817v16.75h-7.817Zm0,0" transform="translate(-171.366 -234.206)" fill="#9bc6ff" fill-rule="evenodd"/>
        <path id="Trazado_879085" data-name="Trazado 879085" d="M259.359,264.07h7.82v16.75h-7.82Zm0,0" transform="translate(-230.049 -234.206)" fill="#9bc6ff" fill-rule="evenodd"/>
        <path id="Trazado_879086" data-name="Trazado 879086" d="M401.172,241.27h4.964V260.7h-4.964Zm0,0" transform="translate(-355.193 -214.086)" fill="#ffd89e" fill-rule="evenodd"/>
        <path id="Trazado_879087" data-name="Trazado 879087" d="M174.34,42.18a10.873,10.873,0,1,0,10.875,10.867A10.874,10.874,0,0,0,174.34,42.18Zm0,0" transform="translate(-145.426 -38.398)" fill="#ffc15a" fill-rule="evenodd"/>
      </g>
      <path id="Trazado_879088" data-name="Trazado 879088" d="M217.906,321.82A1.176,1.176,0,0,0,216.73,323v.02a1.176,1.176,0,1,0,2.351,0V323A1.175,1.175,0,0,0,217.906,321.82Zm0,0" transform="translate(-191.255 -283.993)"/>
      <path id="Trazado_879089" data-name="Trazado 879089" d="M283.187,321.82A1.175,1.175,0,0,0,282.012,323v.02a1.176,1.176,0,1,0,2.351,0V323A1.176,1.176,0,0,0,283.187,321.82Zm0,0" transform="translate(-248.863 -283.993)"/>
      <path id="Trazado_879090" data-name="Trazado 879090" d="M57.213,51.076V47.789a1.175,1.175,0,0,0-1.175-1.175H53.3V29.535H55.2a2.047,2.047,0,0,0,2.045-2.045v-2.6h1.13a1.176,1.176,0,0,0,1.176-1.176V19.283a1.176,1.176,0,0,0-1.176-1.176H57.14v-2.36a1.176,1.176,0,0,0-.4-.888L39.956.288A1.175,1.175,0,0,0,39.185,0H20.344a1.175,1.175,0,0,0-.771.288L14.584,4.623A1.176,1.176,0,0,0,16.127,6.4l4.656-4.047H38.746L54.789,16.284v1.824H41.924c0-.014,0-.028.006-.041a12.051,12.051,0,1,0-23.676.027c0,.005,0,.009,0,.014H4.74V16.284l4.606-4A1.176,1.176,0,1,0,7.8,10.508L2.794,14.86a1.176,1.176,0,0,0-.4.888v2.36h-.34A1.176,1.176,0,0,0,.873,19.283v4.435a1.176,1.176,0,0,0,1.175,1.176h1.2v2.6a2.047,2.047,0,0,0,2.046,2.045H7.21V46.614H4.141a1.176,1.176,0,0,0-1.176,1.176v3.287a3.391,3.391,0,0,0,.43,6.755H56.788a3.391,3.391,0,0,0,.426-6.755Zm-6.269-4.462H48.331V29.535h2.613Zm-11.463,0V31.039a1.175,1.175,0,0,0-1.175-1.175H22.669a1.175,1.175,0,0,0-1.175,1.175V46.614H14.526V29.535h1.91a2.047,2.047,0,0,0,2.046-2.045v-2.6H22.17a12.034,12.034,0,0,0,15.839,0h4v2.6a2.049,2.049,0,0,0,2.049,2.045h1.92V46.614Zm-7.82,0v-14.4H37.13v14.4Zm-7.816,0v-14.4H29.31v14.4ZM54.9,27.183H44.362V24.894H54.9ZM41.214,20.459H57.2v2.083H40.091a12.07,12.07,0,0,0,1.124-2.083ZM30.089,6.133a9.691,9.691,0,1,1-9.7,9.691A9.706,9.706,0,0,1,30.089,6.133ZM3.224,20.459h15.74a12.087,12.087,0,0,0,1.124,2.083H3.224ZM5.6,24.894H16.129v2.289H5.6Zm3.965,4.641h2.613V46.614H9.561Zm45.3,19.43v2.083H5.316V48.965Zm1.925,6.514H3.395a1.04,1.04,0,1,1,0-2.08H56.788a1.04,1.04,0,1,1,0,2.08Zm0,0"/>
      <path id="Trazado_879091" data-name="Trazado 879091" d="M231.334,78.384a3.116,3.116,0,0,1-.809,2.247,3.889,3.889,0,0,1-1.962,1.116v1.378a1.082,1.082,0,0,1-1.08,1.062,1.065,1.065,0,0,1-1.059-1.062V81.756a4.084,4.084,0,0,1-1.3-.533,3.389,3.389,0,0,1-.826-.666l-.236-.306c-.976-1.279.636-2.643,1.576-1.658.117.12.233.263.373.416a1.853,1.853,0,0,0,1.436.506q1.334,0,1.332-1.1c0-.263-.167-.466-.5-.609a7.648,7.648,0,0,0-1.226-.39,10.409,10.409,0,0,1-1.439-.456,2.763,2.763,0,0,1-1.223-.992,2.961,2.961,0,0,1-.506-1.778,3.111,3.111,0,0,1,2.559-3.056l0-1.238a1.059,1.059,0,1,1,2.119,0v1.252a4.3,4.3,0,0,1,.92.306,3.713,3.713,0,0,1,.576.323l.16.146c1.4,1.042.05,2.894-1.153,1.881-.816-.686-2.662-.836-2.662.42a.732.732,0,0,0,.37.639,2.188,2.188,0,0,0,.906.323,10.113,10.113,0,0,1,1.19.27,8.127,8.127,0,0,1,1.189.443,2.076,2.076,0,0,1,.91.889,3.179,3.179,0,0,1,.367,1.595Zm0,0" transform="translate(-197.456 -60.745)"/>
      <path id="Trazado_879092" data-name="Trazado 879092" d="M94.689,62.922a1.176,1.176,0,0,1-.735-2.094l.017-.013a1.176,1.176,0,1,1,1.469,1.836l-.017.013A1.17,1.17,0,0,1,94.689,62.922Zm0,0" transform="translate(-82.521 -53.44)"/>
    </g>
  </g>
</svg>
