<svg xmlns="http://www.w3.org/2000/svg" width="80" height="80" viewBox="0 0 80 80">
  <g id="Grupo_1102624" data-name="Grupo 1102624" transform="translate(-505.051 -655)">
    <rect id="Rectángulo_401663" data-name="Rectángulo 401663" width="80" height="80" rx="8" transform="translate(505.051 655)" fill="#efddcf"/>
    <g id="Grupo_1102690" data-name="Grupo 1102690" transform="translate(518.85 668.787)">
      <path id="Trazado_879132" data-name="Trazado 879132" d="M91.961,40H64V87.185h38.447v-36.7H91.961Zm0,0" transform="translate(-57.01 -35.632)" fill="#dcf4ca"/>
      <path id="Trazado_879133" data-name="Trazado 879133" d="M136,272.466h30.583V248C166.583,260.557,150.972,272.466,136,272.466Zm0,0" transform="translate(-121.146 -220.913)" fill="#c9eeae"/>
      <path id="Trazado_879134" data-name="Trazado 879134" d="M9.748,8H28.971a1.748,1.748,0,0,1,1.748,1.748V34.214a1.748,1.748,0,0,1-1.748,1.748H9.748A1.748,1.748,0,0,1,8,34.214V9.748A1.748,1.748,0,0,1,9.748,8Zm0,0" transform="translate(-7.127 -7.127)" fill="#d1e7f8"/>
      <path id="Trazado_879135" data-name="Trazado 879135" d="M320,50.486h10.486L320,40Zm0,0" transform="translate(-285.049 -35.632)" fill="#006df0"/>
      <path id="Trazado_879136" data-name="Trazado 879136" d="M32,32H49.476v4.369H32Zm0,0" transform="translate(-28.505 -28.506)" fill="#88f236"/>
      <g id="Grupo_1102689" data-name="Grupo 1102689" transform="translate(4.369 10.485)">
        <path id="Trazado_879137" data-name="Trazado 879137" d="M40.874,96h1.748a.874.874,0,0,1,.874.874v1.748a.874.874,0,0,1-.874.874H40.874A.874.874,0,0,1,40,98.621V96.874A.874.874,0,0,1,40.874,96Zm0,0" transform="translate(-40 -96)" fill="#006df0"/>
        <path id="Trazado_879138" data-name="Trazado 879138" d="M96.874,96h1.748a.874.874,0,0,1,.874.874v1.748a.874.874,0,0,1-.874.874H96.874A.874.874,0,0,1,96,98.621V96.874A.874.874,0,0,1,96.874,96Zm0,0" transform="translate(-89.883 -96)" fill="#006df0"/>
        <path id="Trazado_879139" data-name="Trazado 879139" d="M152.874,96h1.748a.874.874,0,0,1,.874.874v1.748a.874.874,0,0,1-.874.874h-1.748a.874.874,0,0,1-.874-.874V96.874A.874.874,0,0,1,152.874,96Zm0,0" transform="translate(-139.767 -96)" fill="#006df0"/>
        <path id="Trazado_879140" data-name="Trazado 879140" d="M40.874,152h1.748a.874.874,0,0,1,.874.874v1.748a.874.874,0,0,1-.874.874H40.874a.874.874,0,0,1-.874-.874v-1.748A.874.874,0,0,1,40.874,152Zm0,0" transform="translate(-40 -145.883)" fill="#006df0"/>
        <path id="Trazado_879141" data-name="Trazado 879141" d="M96.874,152h1.748a.874.874,0,0,1,.874.874v1.748a.874.874,0,0,1-.874.874H96.874a.874.874,0,0,1-.874-.874v-1.748A.874.874,0,0,1,96.874,152Zm0,0" transform="translate(-89.883 -145.883)" fill="#006df0"/>
        <path id="Trazado_879142" data-name="Trazado 879142" d="M152.874,152h1.748a.874.874,0,0,1,.874.874v1.748a.874.874,0,0,1-.874.874h-1.748a.874.874,0,0,1-.874-.874v-1.748A.874.874,0,0,1,152.874,152Zm0,0" transform="translate(-139.767 -145.883)" fill="#006df0"/>
        <path id="Trazado_879143" data-name="Trazado 879143" d="M40.874,208h1.748a.874.874,0,0,1,.874.874v1.748a.874.874,0,0,1-.874.874H40.874a.874.874,0,0,1-.874-.874v-1.748A.874.874,0,0,1,40.874,208Zm0,0" transform="translate(-40 -195.767)" fill="#006df0"/>
        <path id="Trazado_879144" data-name="Trazado 879144" d="M96.874,208h1.748a.874.874,0,0,1,.874.874v1.748a.874.874,0,0,1-.874.874H96.874a.874.874,0,0,1-.874-.874v-1.748A.874.874,0,0,1,96.874,208Zm0,0" transform="translate(-89.883 -195.767)" fill="#006df0"/>
      </g>
      <path id="Trazado_879145" data-name="Trazado 879145" d="M436.844,259.218a1.748,1.748,0,1,0-2.472-2.472l-1.236,1.235,2.472,2.472Zm0,0" transform="translate(-385.828 -228.249)" fill="#d1d3d4"/>
      <path id="Trazado_879146" data-name="Trazado 879146" d="M290.11,301.033,288,305.615l4.581-2.109,11.9-11.9-2.471-2.471Zm0,0" transform="translate(-256.544 -257.557)" fill="#ed1c24"/>
      <path id="Trazado_879147" data-name="Trazado 879147" d="M416.234,274.088l1.846-1.845,2.472,2.471-1.846,1.846Zm0,0" transform="translate(-370.772 -242.508)" fill="#f7941d"/>
      <path id="Trazado_879148" data-name="Trazado 879148" d="M127.728,303.864A7.864,7.864,0,1,1,119.864,296,7.864,7.864,0,0,1,127.728,303.864Zm0,0" transform="translate(-99.767 -263.671)" fill="#ff9811"/>
      <path id="Trazado_879149" data-name="Trazado 879149" d="M40,135.728H57.476a1.753,1.753,0,0,0,1.748-1.748V120C59.223,128.694,50.625,135.728,40,135.728Zm0,0" transform="translate(-35.631 -106.894)" fill="#c2dff6"/>
      <path id="Trazado_879150" data-name="Trazado 879150" d="M152.874,208h1.748a.874.874,0,0,1,.874.874v1.748a.874.874,0,0,1-.874.874h-1.748a.874.874,0,0,1-.874-.874v-1.748A.874.874,0,0,1,152.874,208Zm0,0" transform="translate(-135.398 -185.282)" fill="#006df0"/>
      <path id="Trazado_879151" data-name="Trazado 879151" d="M112.738,288a8.738,8.738,0,1,0,8.738,8.738A8.738,8.738,0,0,0,112.738,288Zm0,15.728a6.99,6.99,0,1,1,6.99-6.99A6.99,6.99,0,0,1,112.738,303.728Zm0,0" transform="translate(-92.641 -256.544)"/>
      <path id="Trazado_879152" data-name="Trazado 879152" d="M155.5,322.621c1.067,0,1.748.517,1.748.874h1.748a2.852,2.852,0,0,0-2.621-2.534V320h-1.748v.961A2.849,2.849,0,0,0,152,323.5c0,1.471,1.535,2.621,3.5,2.621,1.067,0,1.748.517,1.748.874s-.681.874-1.748.874-1.748-.517-1.748-.874H152a2.852,2.852,0,0,0,2.621,2.534v.961h1.748v-.961a2.849,2.849,0,0,0,2.621-2.534c0-1.471-1.535-2.621-3.5-2.621-1.067,0-1.748-.517-1.748-.874S154.428,322.621,155.5,322.621Zm0,0" transform="translate(-135.398 -285.049)"/>
      <path id="Trazado_879153" data-name="Trazado 879153" d="M44.563,50.679H7.864V29.708H21.844a2.622,2.622,0,0,0,2.621-2.621V5.242h9.612V15.727H44.563V27.96h1.748V14.492l-11-11H24.466V2.62A2.622,2.622,0,0,0,21.844,0H2.621A2.622,2.622,0,0,0,0,2.62V27.087a2.622,2.622,0,0,0,2.621,2.621h3.5V52.427H46.311V40.193H44.563Zm-8.738-44.2,7.5,7.5h-7.5ZM1.747,27.087V2.62a.874.874,0,0,1,.874-.874H21.844a.874.874,0,0,1,.874.874V27.087a.874.874,0,0,1-.874.874H2.621a.874.874,0,0,1-.874-.874Zm0,0"/>
      <path id="Trazado_879154" data-name="Trazado 879154" d="M256,200h1.748v1.748H256Zm0,0" transform="translate(-228.039 -178.156)"/>
      <path id="Trazado_879155" data-name="Trazado 879155" d="M288,200h10.485v1.748H288Zm0,0" transform="translate(-256.544 -178.156)"/>
      <path id="Trazado_879156" data-name="Trazado 879156" d="M256,168h1.748v1.748H256Zm0,0" transform="translate(-228.039 -149.651)"/>
      <path id="Trazado_879157" data-name="Trazado 879157" d="M288,168h10.485v1.748H288Zm0,0" transform="translate(-256.544 -149.651)"/>
      <path id="Trazado_879158" data-name="Trazado 879158" d="M256,232h1.748v1.748H256Zm0,0" transform="translate(-228.039 -206.661)"/>
      <path id="Trazado_879159" data-name="Trazado 879159" d="M288,232h10.485v1.748H288Zm0,0" transform="translate(-256.544 -206.661)"/>
      <path id="Trazado_879160" data-name="Trazado 879160" d="M256,264h1.748v1.748H256Zm0,0" transform="translate(-228.039 -235.166)"/>
      <path id="Trazado_879161" data-name="Trazado 879161" d="M288,264h10.485v1.748H288Zm0,0" transform="translate(-256.544 -235.166)"/>
      <path id="Trazado_879162" data-name="Trazado 879162" d="M43.223,24H24v6.117H43.223Zm-1.748,4.369H25.748V25.748H41.476Zm0,0" transform="translate(-21.379 -21.38)"/>
      <path id="Trazado_879163" data-name="Trazado 879163" d="M35.5,88H33.748A1.748,1.748,0,0,0,32,89.748V91.5a1.748,1.748,0,0,0,1.748,1.748H35.5A1.748,1.748,0,0,0,37.243,91.5V89.748A1.748,1.748,0,0,0,35.5,88Zm-1.748,3.5V89.748H35.5V91.5Zm0,0" transform="translate(-28.505 -78.389)"/>
      <path id="Trazado_879164" data-name="Trazado 879164" d="M91.5,88H89.748A1.748,1.748,0,0,0,88,89.748V91.5a1.748,1.748,0,0,0,1.748,1.748H91.5A1.748,1.748,0,0,0,93.243,91.5V89.748A1.748,1.748,0,0,0,91.5,88Zm-1.748,3.5V89.748H91.5V91.5Zm0,0" transform="translate(-78.389 -78.389)"/>
      <path id="Trazado_879165" data-name="Trazado 879165" d="M147.5,88h-1.748A1.748,1.748,0,0,0,144,89.748V91.5a1.748,1.748,0,0,0,1.748,1.748H147.5a1.748,1.748,0,0,0,1.748-1.748V89.748A1.748,1.748,0,0,0,147.5,88Zm-1.748,3.5V89.748H147.5V91.5Zm0,0" transform="translate(-128.272 -78.389)"/>
      <path id="Trazado_879166" data-name="Trazado 879166" d="M35.5,144H33.748A1.748,1.748,0,0,0,32,145.748V147.5a1.748,1.748,0,0,0,1.748,1.748H35.5a1.748,1.748,0,0,0,1.748-1.748v-1.748A1.748,1.748,0,0,0,35.5,144Zm-1.748,3.5v-1.748H35.5V147.5Zm0,0" transform="translate(-28.505 -128.273)"/>
      <path id="Trazado_879167" data-name="Trazado 879167" d="M91.5,144H89.748A1.748,1.748,0,0,0,88,145.748V147.5a1.748,1.748,0,0,0,1.748,1.748H91.5a1.748,1.748,0,0,0,1.748-1.748v-1.748A1.748,1.748,0,0,0,91.5,144Zm-1.748,3.5v-1.748H91.5V147.5Zm0,0" transform="translate(-78.389 -128.273)"/>
      <path id="Trazado_879168" data-name="Trazado 879168" d="M147.5,144h-1.748A1.748,1.748,0,0,0,144,145.748V147.5a1.748,1.748,0,0,0,1.748,1.748H147.5a1.748,1.748,0,0,0,1.748-1.748v-1.748A1.748,1.748,0,0,0,147.5,144Zm-1.748,3.5v-1.748H147.5V147.5Zm0,0" transform="translate(-128.272 -128.273)"/>
      <path id="Trazado_879169" data-name="Trazado 879169" d="M35.5,200H33.748A1.748,1.748,0,0,0,32,201.748V203.5a1.748,1.748,0,0,0,1.748,1.748H35.5a1.748,1.748,0,0,0,1.748-1.748v-1.748A1.748,1.748,0,0,0,35.5,200Zm-1.748,3.5v-1.748H35.5V203.5Zm0,0" transform="translate(-28.505 -178.156)"/>
      <path id="Trazado_879170" data-name="Trazado 879170" d="M91.5,200H89.748A1.748,1.748,0,0,0,88,201.748V203.5a1.748,1.748,0,0,0,1.748,1.748H91.5a1.748,1.748,0,0,0,1.748-1.748v-1.748A1.748,1.748,0,0,0,91.5,200Zm-1.748,3.5v-1.748H91.5V203.5Zm0,0" transform="translate(-78.389 -178.156)"/>
      <path id="Trazado_879171" data-name="Trazado 879171" d="M147.5,200h-1.748A1.748,1.748,0,0,0,144,201.748V203.5a1.748,1.748,0,0,0,1.748,1.748H147.5a1.748,1.748,0,0,0,1.748-1.748v-1.748A1.748,1.748,0,0,0,147.5,200Zm-1.748,3.5v-1.748H147.5V203.5Zm0,0" transform="translate(-128.272 -178.156)"/>
      <path id="Trazado_879172" data-name="Trazado 879172" d="M301.063,249.209a2.683,2.683,0,0,0-3.706,0l-14.98,14.979a.884.884,0,0,0-.175.253l-2.109,4.581a.874.874,0,0,0,1.159,1.159l4.581-2.109a.874.874,0,0,0,.253-.175l14.978-14.98a2.621,2.621,0,0,0,0-3.707Zm-16.1,17.339-2.289,1.055,1.055-2.289,11.169-11.169,1.236,1.236Zm12.408-12.408L296.13,252.9l.612-.612,1.236,1.236Zm2.464-2.464-.618.618-1.236-1.236.619-.618a.893.893,0,0,1,1.235,0A.874.874,0,0,1,299.83,251.676Zm0,0" transform="translate(-249.429 -221.329)"/>
    </g>
  </g>
</svg>
