<svg xmlns="http://www.w3.org/2000/svg" width="80" height="80" viewBox="0 0 80 80">
  <g id="Grupo_1102623" data-name="Grupo 1102623" transform="translate(-820.051 -655)">
    <rect id="Rect치ngulo_401664" data-name="Rect치ngulo 401664" width="80" height="80" rx="8" transform="translate(820.051 655)" fill="#efddcf"/>
    <g id="Grupo_1102688" data-name="Grupo 1102688" transform="translate(813.52 648.469)">
      <path id="Trazado_879108" data-name="Trazado 879108" d="M64,256h48.851v25.443H64Z" transform="translate(-41.894 -209.469)" fill="#fff1d8"/>
      <path id="Trazado_879109" data-name="Trazado 879109" d="M416,256h8.142v2.035a4.071,4.071,0,0,1-8.142,0Z" transform="translate(-349.114 -209.469)" fill="#f2e368"/>
      <path id="Trazado_879110" data-name="Trazado 879110" d="M352,256h8.142v2.035a4.071,4.071,0,0,1-8.142,0Z" transform="translate(-293.256 -209.469)" fill="#eb352f"/>
      <path id="Trazado_879111" data-name="Trazado 879111" d="M288,256h8.142v2.035a4.071,4.071,0,0,1-8.142,0Z" transform="translate(-237.397 -209.469)" fill="#f2e368"/>
      <path id="Trazado_879112" data-name="Trazado 879112" d="M224,256h8.142v2.035a4.071,4.071,0,0,1-8.142,0Z" transform="translate(-181.539 -209.469)" fill="#eb352f"/>
      <path id="Trazado_879113" data-name="Trazado 879113" d="M160,256h8.142v2.035a4.071,4.071,0,0,1-8.142,0Z" transform="translate(-125.681 -209.469)" fill="#f2e368"/>
      <path id="Trazado_879114" data-name="Trazado 879114" d="M96,256h8.142v2.035a4.071,4.071,0,0,1-8.142,0Z" transform="translate(-69.823 -209.469)" fill="#eb352f"/>
      <path id="Trazado_879115" data-name="Trazado 879115" d="M32,256h8.142v2.035a4.071,4.071,0,0,1-8.142,0Z" transform="translate(-13.965 -209.469)" fill="#f2e368"/>
      <path id="Trazado_879116" data-name="Trazado 879116" d="M41.16,192,32,200.142h8.142L45.23,192Z" transform="translate(-13.965 -153.611)" fill="#fff29e"/>
      <path id="Trazado_879117" data-name="Trazado 879117" d="M105.16,192l-1.018,8.142H96L101.089,192Z" transform="translate(-69.823 -153.611)" fill="#f56c49"/>
      <path id="Trazado_879118" data-name="Trazado 879118" d="M161.018,192h7.124v8.142H160Z" transform="translate(-125.681 -153.611)" fill="#fff29e"/>
      <path id="Trazado_879119" data-name="Trazado 879119" d="M380.071,192l9.16,8.142h-8.142L376,192Z" transform="translate(-314.202 -153.611)" fill="#fff29e"/>
      <path id="Trazado_879120" data-name="Trazado 879120" d="M344,192l1.018,8.142h8.142L348.071,192Z" transform="translate(-286.273 -153.611)" fill="#f56c49"/>
      <path id="Trazado_879121" data-name="Trazado 879121" d="M295.124,192H288v8.142h8.142Z" transform="translate(-237.397 -153.611)" fill="#fff29e"/>
      <path id="Trazado_879122" data-name="Trazado 879122" d="M224,192h8.142v8.142H224Z" transform="translate(-181.539 -153.611)" fill="#f56c49"/>
      <g id="Grupo_1102687" data-name="Grupo 1102687" transform="translate(26.22 56.708)">
        <path id="Trazado_879123" data-name="Trazado 879123" d="M224,336h8.142v15.266H224Z" transform="translate(-207.759 -336)" fill="#fc7"/>
        <path id="Trazado_879124" data-name="Trazado 879124" d="M320,336h12.213v9.159H320Z" transform="translate(-291.546 -336)" fill="#fc7"/>
        <path id="Trazado_879125" data-name="Trazado 879125" d="M96.333,336H108.5v9.159H96.333Z" transform="translate(-96.333 -336)" fill="#fc7"/>
      </g>
      <path id="Trazado_879126" data-name="Trazado 879126" d="M106.035,112h34.6a2.035,2.035,0,0,1,2.035,2.035v8.142H104v-8.142A2.035,2.035,0,0,1,106.035,112Z" transform="translate(-76.805 -83.788)" fill="#fcb73f"/>
      <rect id="Rect치ngulo_402188" data-name="Rect치ngulo 402188" width="60" height="5" rx="2.5" transform="translate(16.531 71.531)" fill="#fcb73f"/>
      <path id="Trazado_879127" data-name="Trazado 879127" d="M189.23,64H177.018L176,76.213h14.248Z" transform="translate(-139.646 -41.894)" fill="#eb352f"/>
      <path id="Trazado_879128" data-name="Trazado 879128" d="M281.018,76.213h6.106L286.106,64H280Z" transform="translate(-230.415 -41.894)" fill="#c7161f"/>
      <path id="Trazado_879129" data-name="Trazado 879129" d="M313.018,339.195H325.23a1.018,1.018,0,0,0,1.018-1.018v-9.159A1.018,1.018,0,0,0,325.23,328H313.018A1.018,1.018,0,0,0,312,329.018v9.16A1.018,1.018,0,0,0,313.018,339.195Zm1.018-9.16h10.177v7.124H314.035Z" transform="translate(-258.344 -272.309)"/>
      <path id="Trazado_879130" data-name="Trazado 879130" d="M101.521,328H89.351a1.018,1.018,0,0,0-1.018,1.018v9.16a1.018,1.018,0,0,0,1.018,1.018h12.17a1.018,1.018,0,0,0,1.018-1.018v-9.159A1.018,1.018,0,0,0,101.521,328Zm-1.018,9.16H90.369v-7.124H100.5Z" transform="translate(-63.132 -272.309)"/>
      <path id="Trazado_879131" data-name="Trazado 879131" d="M74.01,70.957H71.975v-17.4a5.1,5.1,0,0,0,4.071-4.986V46.531a1.014,1.014,0,0,0-.342-.76h0l-8.818-7.838V30.248a3.057,3.057,0,0,0-3.053-3.053h-6.7l-.431-5.173a1.018,1.018,0,0,0-1.014-.933H50.6V19.053a3.051,3.051,0,0,0-5.089-2.273,3.051,3.051,0,0,0-5.089,2.273v2.035H37.372a1.018,1.018,0,0,0-1.014.933l-.431,5.173h-6.7a3.057,3.057,0,0,0-3.053,3.053v7.685l-8.818,7.838h0a1.014,1.014,0,0,0-.342.76v2.035a5.1,5.1,0,0,0,4.071,4.986v17.4H19.053a3.053,3.053,0,0,0,0,6.106H74.01a3.053,3.053,0,0,0,0-6.106Zm0-22.39a3.053,3.053,0,1,1-6.106,0V47.549H74.01Zm-46.428-9.16H29.43l-3.816,6.106h-4.9Zm44.769,6.106h-4.9l-3.816-6.106h1.848ZM61.233,39.407l3.816,6.106H59.643l-.763-6.106Zm-4.405,0,.763,6.106H51.62V39.407Zm-7.243,6.106H43.479V39.407h6.106Zm-8.142,0H35.472l.763-6.106h5.208Zm-8.022,0H28.013l3.816-6.106h2.354Zm-6.226,2.035H33.3v1.018a3.053,3.053,0,1,1-6.106,0Zm8.142,0h6.106v1.018a3.053,3.053,0,1,1-6.106,0Zm8.142,0h6.106v1.018a3.053,3.053,0,1,1-6.106,0Zm8.142,0h6.106v1.018a3.053,3.053,0,1,1-6.106,0Zm8.142,0h6.106v1.018a3.053,3.053,0,1,1-6.106,0ZM54.755,23.124,55.6,33.3H51.539l-.848-10.177Zm-7.205-5.089a1.019,1.019,0,0,1,1.018,1.018v2.035H46.532V19.053A1.019,1.019,0,0,1,47.549,18.035Zm-5.089,1.018a1.018,1.018,0,0,1,2.035,0v2.035H42.461Zm-4.152,4.071h2.117v2.035h2.035V23.124H44.5v2.035h2.035V23.124h2.117L49.5,33.3H37.461Zm-10.1,7.124A1.019,1.019,0,0,1,29.23,29.23h6.527l-.417,5a1.018,1.018,0,0,0,1.014,1.1H56.709a1.018,1.018,0,0,0,1.014-1.1l-.417-5h6.527a1.019,1.019,0,0,1,1.018,1.018v7.124H28.213Zm-9.16,18.319V47.549h6.106v1.018a3.053,3.053,0,1,1-6.106,0Zm4.071,4.986a5.1,5.1,0,0,0,3.053-1.937,5.083,5.083,0,0,0,8.142,0,5.083,5.083,0,0,0,8.142,0,5.083,5.083,0,0,0,8.142,0,5.083,5.083,0,0,0,8.142,0,5.083,5.083,0,0,0,8.142,0,5.1,5.1,0,0,0,3.053,1.937v17.4H51.62V56.708A1.018,1.018,0,0,0,50.6,55.691H42.461a1.018,1.018,0,0,0-1.018,1.018V70.957H23.124Zm26.461,17.4H43.479V57.726h6.106ZM74.01,75.027H19.053a1.018,1.018,0,0,1,0-2.035H74.01a1.018,1.018,0,0,1,0,2.035Z" transform="translate(0 0)"/>
    </g>
  </g>
</svg>
