<svg id="Grupo_1102728" data-name="Grupo 1102728" xmlns="http://www.w3.org/2000/svg" width="60" height="60" viewBox="0 0 60 60">
  <g id="Grupo_1102719" data-name="Grupo 1102719" transform="translate(0 10)">
    <g id="Grupo_1102718" data-name="Grupo 1102718">
      <path id="Trazado_879187" data-name="Trazado 879187" d="M56.834,94.359A8,8,0,1,0,46.726,94H41.414l-6.707-6.707a1,1,0,0,0-1.414,0l-4,4a1,1,0,0,0,0,1.414l9,9A1,1,0,0,0,39,102h8v7H29.868l4.964-7.445-1.664-1.109L27.465,109H25v-5a1,1,0,0,0-1-1H16V99a5,5,0,0,0-3.166-4.641,8,8,0,1,0-9.668,0A5,5,0,0,0,0,99v14a5.006,5.006,0,0,0,5,5v12H7V118h7v11a1,1,0,0,0,1,1h7a1,1,0,0,0,1-1V114a4.973,4.973,0,0,0-1-3h7v17H25v2H35v-2H31V111h7.026A4.948,4.948,0,0,0,37,114v15a1,1,0,0,0,1,1h7a1,1,0,0,0,1-1V118h7v12h2V118a5.006,5.006,0,0,0,5-5V99A5,5,0,0,0,56.834,94.359ZM2,88a6,6,0,1,1,6,6A6.006,6.006,0,0,1,2,88Zm21,21H10v-8H8v9a1,1,0,0,0,1,1h9a3,3,0,0,1,3,3v14H16V117a1,1,0,0,0-1-1H5a3,3,0,0,1-3-3V99a3,3,0,0,1,3-3h6a3,3,0,0,1,3,3v5a1,1,0,0,0,1,1h8ZM46,88a6,6,0,1,1,6,6A6.006,6.006,0,0,1,46,88Zm12,25a3,3,0,0,1-3,3H45a1,1,0,0,0-1,1v11H39V114a3,3,0,0,1,3-3h6a1,1,0,0,0,1-1v-9a1,1,0,0,0-1-1H39.414l-8-8L34,89.414l6.293,6.293A1,1,0,0,0,41,96H55a3,3,0,0,1,3,3Z" transform="translate(0 -80)" fill="#201144"/>
    </g>
  </g>
  <g id="Grupo_1102721" data-name="Grupo 1102721" transform="translate(17)">
    <g id="Grupo_1102720" data-name="Grupo 1102720">
      <path id="Trazado_879188" data-name="Trazado 879188" d="M159,0H139a3,3,0,0,0-3,3v8a3,3,0,0,0,3,3h1v6a1,1,0,0,0,.617.924A.987.987,0,0,0,141,21a1,1,0,0,0,.707-.293L148.414,14H159a3,3,0,0,0,3-3V3A3,3,0,0,0,159,0Zm1,11a1,1,0,0,1-1,1H148a1,1,0,0,0-.707.293L142,17.586V13a1,1,0,0,0-1-1h-2a1,1,0,0,1-1-1V3a1,1,0,0,1,1-1h20a1,1,0,0,1,1,1Z" transform="translate(-136)" fill="#201144"/>
    </g>
  </g>
  <g id="Grupo_1102723" data-name="Grupo 1102723" transform="translate(21 4)">
    <g id="Grupo_1102722" data-name="Grupo 1102722">
      <rect id="Rectángulo_402194" data-name="Rectángulo 402194" width="6" height="2" fill="#201144"/>
    </g>
  </g>
  <g id="Grupo_1102725" data-name="Grupo 1102725" transform="translate(21 8)">
    <g id="Grupo_1102724" data-name="Grupo 1102724">
      <rect id="Rectángulo_402195" data-name="Rectángulo 402195" width="18" height="2" fill="#201144"/>
    </g>
  </g>
  <g id="Grupo_1102727" data-name="Grupo 1102727" transform="translate(29 4)">
    <g id="Grupo_1102726" data-name="Grupo 1102726">
      <rect id="Rectángulo_402196" data-name="Rectángulo 402196" width="10" height="2" fill="#201144"/>
    </g>
  </g>
</svg>
