<svg xmlns="http://www.w3.org/2000/svg" width="48.56" height="64" viewBox="0 0 48.56 64">
  <g id="Grupo_1102729" data-name="Grupo 1102729" transform="translate(-61.76)">
    <path id="Trazado_879189" data-name="Trazado 879189" d="M81.447,44.4l-3.509,3.534a.184.184,0,0,1-.133.055h0a.184.184,0,0,1-.133-.055l-1.3-1.3a.937.937,0,1,0-1.326,1.326l1.3,1.3a2.049,2.049,0,0,0,1.458.6h0a2.049,2.049,0,0,0,1.46-.609l3.509-3.534A.938.938,0,0,0,81.447,44.4Zm1.326-25.529a.937.937,0,0,0-1.326,0l-3.509,3.534a.184.184,0,0,1-.133.055h0a.184.184,0,0,1-.133-.055l-1.3-1.3a.937.937,0,1,0-1.326,1.326l1.3,1.3a2.049,2.049,0,0,0,1.458.6h0a2.049,2.049,0,0,0,1.46-.609l3.509-3.534A.938.938,0,0,0,82.773,18.866Zm0,12.762a.938.938,0,0,0-1.326,0l-3.509,3.534a.184.184,0,0,1-.133.055h0a.184.184,0,0,1-.133-.055l-1.3-1.3a.937.937,0,1,0-1.326,1.326l1.3,1.3a2.048,2.048,0,0,0,1.458.6h0a2.049,2.049,0,0,0,1.46-.609l3.509-3.534a.938.938,0,0,0,0-1.326ZM76.9,17.818H73.84a2.065,2.065,0,0,0-2.062,2.063v6.762a2.065,2.065,0,0,0,2.063,2.063H80.6a2.065,2.065,0,0,0,2.062-2.062V24.271a.937.937,0,1,0-1.875,0v2.372a.188.188,0,0,1-.187.187H73.84a.188.188,0,0,1-.187-.187V19.881a.188.188,0,0,1,.188-.188H76.9a.937.937,0,1,0,0-1.875ZM105.647,1.925h-4.3a.937.937,0,1,0,0,1.875h4.3a2.8,2.8,0,0,1,2.8,2.8v52.73a2.8,2.8,0,0,1-2.8,2.8H66.432a2.8,2.8,0,0,1-2.8-2.8V6.6a2.8,2.8,0,0,1,2.8-2.8h7.1V5.66H67.055a1.562,1.562,0,0,0-1.56,1.56V45.827a.938.938,0,0,0,1.875,0V7.535h4.455a2.792,2.792,0,0,0-.159.93v2.6a2.808,2.808,0,0,0,2.8,2.805H97.609a2.808,2.808,0,0,0,2.8-2.805v-2.6a2.792,2.792,0,0,0-.159-.93h4.455v41.1H99.845a4.678,4.678,0,0,0-4.672,4.673v4.866H67.37v-8.6a.938.938,0,1,0-1.875,0v8.916a1.562,1.562,0,0,0,1.56,1.56H96.11a.941.941,0,0,0,.663-.275l0,0,9.535-9.536a.947.947,0,0,0,.272-.6c0-.008,0-42.395,0-42.416a1.562,1.562,0,0,0-1.56-1.56H98.547v-2.6A3.063,3.063,0,0,0,95.488,0h-18.9a3.063,3.063,0,0,0-2.84,1.925H66.432A4.678,4.678,0,0,0,61.76,6.6v52.73A4.678,4.678,0,0,0,66.432,64h39.215a4.678,4.678,0,0,0,4.673-4.673V6.6a4.678,4.678,0,0,0-4.673-4.673Zm-8.6,54.926V53.312a2.8,2.8,0,0,1,2.8-2.8h3.539ZM75.408,3.059a1.185,1.185,0,0,1,1.184-1.184h18.9a1.185,1.185,0,0,1,1.184,1.184V6.5a1.185,1.185,0,0,1-1.184,1.184h-18.9A1.185,1.185,0,0,1,75.408,6.5ZM73.54,8.465a.927.927,0,0,1,.283-.667,3.062,3.062,0,0,0,2.768,1.76h18.9A3.062,3.062,0,0,0,98.257,7.8a.927.927,0,0,1,.283.667v2.6a.931.931,0,0,1-.93.93H74.47a.931.931,0,0,1-.93-.93ZM71.778,39.4a2.065,2.065,0,0,0,2.063,2.063H80.6A2.065,2.065,0,0,0,82.665,39.4V37.033a.937.937,0,1,0-1.875,0V39.4a.188.188,0,0,1-.187.188H73.84a.188.188,0,0,1-.187-.187V32.643a.188.188,0,0,1,.188-.187H76.9a.937.937,0,1,0,0-1.875H73.84a2.065,2.065,0,0,0-2.062,2.062Zm14.215,5.813H99.365a.938.938,0,1,0,0-1.875H85.993a.937.937,0,1,0,0,1.875ZM71.778,52.167a2.065,2.065,0,0,0,2.063,2.063H80.6a2.065,2.065,0,0,0,2.062-2.062V49.795a.937.937,0,1,0-1.875,0v2.372a.188.188,0,0,1-.187.188H73.84a.188.188,0,0,1-.187-.187V45.4a.188.188,0,0,1,.188-.187H76.9a.938.938,0,1,0,0-1.875H73.84A2.065,2.065,0,0,0,71.778,45.4Zm14.215-3.2H93.74a.938.938,0,1,0,0-1.875H85.993a.938.938,0,1,0,0,1.875Zm0-12.762H93.74a.937.937,0,1,0,0-1.875H85.993a.937.937,0,1,0,0,1.875Zm0-3.75H99.365a.937.937,0,1,0,0-1.875H85.993a.938.938,0,0,0,0,1.875Zm0-9.012H99.365a.937.937,0,1,0,0-1.875H85.993a.937.937,0,1,0,0,1.875Zm0-3.75H99.365a.937.937,0,1,0,0-1.875H85.993a.937.937,0,1,0,0,1.875Z" transform="translate(0 0)" fill="#201144"/>
  </g>
</svg>
