<svg xmlns="http://www.w3.org/2000/svg" width="80" height="80" viewBox="0 0 80 80">
  <g id="Grupo_1100496" data-name="Grupo 1100496" transform="translate(-820.051 -535)">
    <rect id="Rectángulo_401661" data-name="Rectángulo 401661" width="80" height="80" rx="8" transform="translate(820.051 535)" fill="#efddcf"/>
    <g id="Grupo_1100495" data-name="Grupo 1100495" transform="translate(773.496 545.971)">
      <g id="Grupo_1100493" data-name="Grupo 1100493" transform="translate(66.017 1.134)">
        <g id="Grupo_1100492" data-name="Grupo 1100492" transform="translate(0)">
          <path id="Trazado_875308" data-name="Trazado 875308" d="M110.439,220.608a12.581,12.581,0,0,1-5.611,10.129v6.225h-5.4v-3.606a20.532,20.532,0,0,1-11.451,0v3.606h-5.4v-6.225a14.12,14.12,0,0,1-4.23-4.726H74.883V215.205h3.459a14.02,14.02,0,0,1,3.986-4.549l.719-7.593,5.736,4.577a20.4,20.4,0,0,1,4.918-.594c9.245,0,16.739,6.073,16.739,13.562Z" transform="translate(-74.883 -181.17)" fill="#ff7d97"/>
          <circle id="Elipse_11635" data-name="Elipse 11635" cx="10.596" cy="10.596" r="10.596" transform="translate(8.303)" fill="#fff2a0"/>
        </g>
      </g>
      <g id="Grupo_1100494" data-name="Grupo 1100494" transform="translate(64.883)">
        <circle id="Elipse_11636" data-name="Elipse 11636" cx="1.134" cy="1.134" r="1.134" transform="translate(9.435 34.258)"/>
        <path id="Trazado_875309" data-name="Trazado 875309" d="M208.687,276.263a17.256,17.256,0,0,0-7.611,0,1.134,1.134,0,0,0,.5,2.212,14.988,14.988,0,0,1,6.611,0,1.134,1.134,0,1,0,.5-2.212Z" transform="translate(-184.849 -244.559)"/>
        <path id="Trazado_875310" data-name="Trazado 875310" d="M107.3,204.116a1.134,1.134,0,1,0-1.921,1.205,3.822,3.822,0,0,1,.312,3.34,3.565,3.565,0,0,1-3.03,1.993,13.629,13.629,0,0,0-5.275-9.383,19.92,19.92,0,0,0-12.55-4.225,21.638,21.638,0,0,0-4.64.5l-5.306-4.234a1.134,1.134,0,0,0-1.836.779l-.672,7.1a15.079,15.079,0,0,0-3.562,4.011h-2.8a1.134,1.134,0,0,0-1.134,1.134v10.805a1.134,1.134,0,0,0,1.134,1.134h2.8a15.417,15.417,0,0,0,3.754,4.16v5.657a1.134,1.134,0,0,0,1.134,1.134h5.4a1.134,1.134,0,0,0,1.134-1.134v-2.146a21.818,21.818,0,0,0,9.183,0v2.146a1.134,1.134,0,0,0,1.134,1.134h5.4a1.134,1.134,0,0,0,1.134-1.134v-5.657a13.837,13.837,0,0,0,5.552-9.512,5.858,5.858,0,0,0,5.105-3.326,6.1,6.1,0,0,0-.455-5.484Zm-12,16.834a1.134,1.134,0,0,0-.471.92v5.091H91.694v-2.472a1.134,1.134,0,0,0-1.455-1.088,19.4,19.4,0,0,1-10.809,0,1.134,1.134,0,0,0-1.455,1.088v2.472H74.84V221.87a1.134,1.134,0,0,0-.471-.92,13.067,13.067,0,0,1-3.894-4.342,1.134,1.134,0,0,0-1-.6H67.151v-8.537h2.325a1.134,1.134,0,0,0,1-.6,12.8,12.8,0,0,1,3.667-4.178,1.134,1.134,0,0,0,.449-.8l.521-5.506,4.1,3.27a1.133,1.133,0,0,0,.981.214,19.278,19.278,0,0,1,4.644-.561c8.6,0,15.6,5.575,15.6,12.428A11.494,11.494,0,0,1,95.3,220.95Z" transform="translate(-64.883 -171.169)"/>
        <path id="Trazado_875311" data-name="Trazado 875311" d="M149.831,33.049a11.732,11.732,0,0,0,5.484-22.1,1.134,1.134,0,1,0-1.062,2,9.462,9.462,0,1,1-8.846,0,1.134,1.134,0,0,0-1.062-2,11.732,11.732,0,0,0,5.486,22.1Z" transform="translate(-129.798 -9.588)"/>
        <circle id="Elipse_11637" data-name="Elipse 11637" cx="1.134" cy="1.134" r="1.134" transform="translate(18.899)"/>
        <path id="Trazado_875312" data-name="Trazado 875312" d="M206.283,75.59a1.134,1.134,0,0,0,1.6,0l5.805-5.805a1.134,1.134,0,0,0-1.6-1.6l-5.805,5.805A1.134,1.134,0,0,0,206.283,75.59Z" transform="translate(-189.954 -60.155)"/>
        <path id="Trazado_875313" data-name="Trazado 875313" d="M203.6,67.1a1.134,1.134,0,1,0,0-1.6A1.134,1.134,0,0,0,203.6,67.1Z" transform="translate(-187.571 -57.772)"/>
        <circle id="Elipse_11638" data-name="Elipse 11638" cx="1.134" cy="1.134" r="1.134" transform="translate(22.107 13.804)"/>
      </g>
    </g>
  </g>
</svg>
