<svg xmlns="http://www.w3.org/2000/svg" width="62" height="62" viewBox="0 0 62 62">
  <g id="Grupo_1102730" data-name="Grupo 1102730" transform="translate(-1 -1)">
    <path id="Trazado_879190" data-name="Trazado 879190" d="M21,26a3,3,0,1,0-3,3A3,3,0,0,0,21,26Zm-3,1a1,1,0,1,1,1-1A1,1,0,0,1,18,27Z" fill="#201144"/>
    <path id="Trazado_879191" data-name="Trazado 879191" d="M40,23a3,3,0,1,0,3,3A3,3,0,0,0,40,23Zm0,4a1,1,0,1,1,1-1A1,1,0,0,1,40,27Z" fill="#201144"/>
    <path id="Trazado_879192" data-name="Trazado 879192" d="M40,13A13,13,0,1,0,53,26,13.015,13.015,0,0,0,40,13ZM50.586,27a13.593,13.593,0,0,1-4.97,3.161,6.947,6.947,0,0,0,0-8.322A13.6,13.6,0,0,1,50.586,25a1.415,1.415,0,0,1,0,2ZM29,26a1.425,1.425,0,0,1,.414-1,13.593,13.593,0,0,1,4.97-3.161,6.947,6.947,0,0,0,0,8.322A13.6,13.6,0,0,1,29.414,27,1.425,1.425,0,0,1,29,26Zm6,0a5,5,0,1,1,5,5A5.006,5.006,0,0,1,35,26Zm5-11a11.007,11.007,0,0,1,10.279,7.118A15.527,15.527,0,0,0,40.929,19H39.072a15.532,15.532,0,0,0-9.351,3.118A11.007,11.007,0,0,1,40,15Zm0,22a11.007,11.007,0,0,1-10.279-7.118A15.527,15.527,0,0,0,39.071,33h1.857a15.532,15.532,0,0,0,9.351-3.118A11.007,11.007,0,0,1,40,37Z" fill="#201144"/>
    <path id="Trazado_879193" data-name="Trazado 879193" d="M61.671,41.258l-6.89-6.891A16.974,16.974,0,0,0,43.423,9.346,11.994,11.994,0,0,0,32,1a5.983,5.983,0,0,0-4.46,2H18.215A14.165,14.165,0,0,0,5.354,23.209,6,6,0,0,0,10,33h.16a14.027,14.027,0,0,0,8.281,10.843l-.319,2.233-7.9.718A10.139,10.139,0,0,0,1,56.891V63H47V56.891a10.139,10.139,0,0,0-9.221-10.1l-7.9-.718-.32-2.241a13.979,13.979,0,0,0,3.6-2.283,16.878,16.878,0,0,0,15.205-.771l6.89,6.891a4.535,4.535,0,1,0,6.414-6.414ZM32,3a10,10,0,0,1,9.189,6.06C40.794,9.033,40.4,9,40,9a17.012,17.012,0,0,0-2.425.193A5.985,5.985,0,0,0,38,7V6H36V7a4,4,0,0,1-1.174,2.811A16.945,16.945,0,0,0,32.018,11H32a4,4,0,1,1,0-8ZM18.215,5H26.35a5.977,5.977,0,0,0,3.32,7.529,17.1,17.1,0,0,0-3.577,3.723,16.817,16.817,0,0,1-1.469-1.033l-.624-.5-.625.5A17.314,17.314,0,0,1,12.6,19H10v2a5.952,5.952,0,0,0-3.069.854A12.183,12.183,0,0,1,18.215,5ZM6,27a4,4,0,0,1,4-4v8A4,4,0,0,1,6,27ZM37.6,48.786a8.137,8.137,0,0,1,7.4,8.1V61H39V55H37v6H11V55H9v6H3V56.891a8.137,8.137,0,0,1,7.4-8.1l8.166-.743L24,54.563l5.433-6.519ZM27.947,46.7,24,51.438,20.053,46.7l.314-2.2a13.636,13.636,0,0,0,7.267,0ZM24,43A12.013,12.013,0,0,1,12,31V21h.6A19.335,19.335,0,0,0,24,17.259c.33.241.675.472,1.029.7A16.89,16.89,0,0,0,24.526,33H19v2a4.988,4.988,0,0,0,8.977,3.007,17.119,17.119,0,0,0,3.268,2.538A11.909,11.909,0,0,1,24,43Zm2.611-6.561A2.987,2.987,0,0,1,21,35h4.6A17.158,17.158,0,0,0,26.611,36.439ZM25,26A15,15,0,1,1,40,41,15.017,15.017,0,0,1,25,26ZM58.464,47a2.521,2.521,0,0,1-1.793-.742l-6.6-6.6a17.122,17.122,0,0,0,3.586-3.586l6.6,6.6A2.535,2.535,0,0,1,58.464,47Z" fill="#201144"/>
  </g>
</svg>
