<svg xmlns="http://www.w3.org/2000/svg" width="57.005" height="60" viewBox="0 0 57.005 60">
  <g id="Grupo_1102731" data-name="Grupo 1102731" transform="translate(-3.5 -2)">
    <path id="Trazado_879194" data-name="Trazado 879194" d="M12.5,38a1,1,0,0,0-1,1v5a1,1,0,0,0,2,0V39A1,1,0,0,0,12.5,38Z" fill="#201144"/>
    <path id="Trazado_879195" data-name="Trazado 879195" d="M24.5,51h-14a1,1,0,0,0,0,2h1v5a1,1,0,0,0,1.372.929L17.5,57.077l4.628,1.852A1,1,0,0,0,23.5,58V53h1a1,1,0,1,0,0-2Zm-3,5.523c-.2-.049-3.881-1.632-4-1.523-.111-.112-3.813,1.479-4,1.523V53h8Z" fill="#201144"/>
    <path id="Trazado_879196" data-name="Trazado 879196" d="M54.729,32.275c4.73-6.766,3.114-17.158-3.229-22.213V7a5.006,5.006,0,0,0-5-5H8.5a5.006,5.006,0,0,0-5,5V57a5.006,5.006,0,0,0,5,5h42a1,1,0,1,0,0-2h-2V50h2a1,1,0,0,0,1-1V38.954l3.026,3.026a3.5,3.5,0,1,0,4.951-4.958ZM55.5,23a15.017,15.017,0,0,1-15,15c-19.9-.824-19.894-29.179,0-30a15.017,15.017,0,0,1,15,15Zm-9,37H8.5a3,3,0,0,1-3-3V53a3,3,0,0,1,3-3h38ZM8.5,48a4.951,4.951,0,0,0-3,1.026V7a3,3,0,0,1,3-3h3V34a1,1,0,0,0,2,0V4h33a3,3,0,0,1,3,3V8.6C38.537,1.454,23.311,9.838,23.5,23c-.19,13.16,15.039,21.548,26,14.4V48Zm49.566-7.44a1.518,1.518,0,0,1-2.128,0l-4.531-4.54A17.146,17.146,0,0,0,53.528,33.9l4.532,4.532a1.519,1.519,0,0,1,.007,2.126Z" fill="#201144"/>
    <path id="Trazado_879197" data-name="Trazado 879197" d="M40.5,10a13.014,13.014,0,0,0-13,13c-.092,11.135,13.51,17.152,21.639,9.687C57.985,24.9,52.416,9.993,40.5,10Zm0,24a11.013,11.013,0,0,1-11-11c.6-14.593,21.4-14.589,22,0A11.012,11.012,0,0,1,40.5,34Z" fill="#201144"/>
    <path id="Trazado_879198" data-name="Trazado 879198" d="M44.5,16h-8a1,1,0,1,0,0,2h8a1,1,0,1,0,0-2Z" fill="#201144"/>
    <path id="Trazado_879199" data-name="Trazado 879199" d="M44.5,20h-8a1,1,0,1,0,0,2h8a1,1,0,1,0,0-2Z" fill="#201144"/>
    <path id="Trazado_879200" data-name="Trazado 879200" d="M44.5,24h-8a1,1,0,1,0,0,2h8a1,1,0,1,0,0-2Z" fill="#201144"/>
    <path id="Trazado_879201" data-name="Trazado 879201" d="M44.5,28h-8a1,1,0,1,0,0,2h8a1,1,0,1,0,0-2Z" fill="#201144"/>
  </g>
</svg>
