<svg xmlns="http://www.w3.org/2000/svg" width="62.721" height="62" viewBox="0 0 62.721 62">
  <g id="Grupo_1102732" data-name="Grupo 1102732" transform="translate(-0.279 -1)">
    <path id="Trazado_879202" data-name="Trazado 879202" d="M43,53H37V47.554L45.887,42,37,36.446V30h6V22H37V15h8V1H27V15h8v7H29v3H20v2h9v3h6v6.446L26.113,42,35,47.554V53H29a3,3,0,0,0-3,3v4a3,3,0,0,0,3,3H43a3,3,0,0,0,3-3V56A3,3,0,0,0,43,53ZM29,3H43V13H29Zm2,21H41v4H31Zm5,14.179L42.113,42,36,45.821,29.887,42ZM44,60a1,1,0,0,1-1,1H29a1,1,0,0,1-1-1V56a1,1,0,0,1,1-1H43a1,1,0,0,1,1,1Z" fill="#201144"/>
    <path id="Trazado_879203" data-name="Trazado 879203" d="M18.293,54.707,20.586,57h-8.77A3,3,0,0,0,10,55.184V34H8V55.184A2.993,2.993,0,1,0,11.816,59h8.77l-2.293,2.293,1.414,1.414L24.414,58l-4.707-4.707ZM9,59a1,1,0,1,1,1-1A1,1,0,0,1,9,59Z" fill="#201144"/>
    <path id="Trazado_879204" data-name="Trazado 879204" d="M61,39.184V10.816A2.993,2.993,0,1,0,57.184,7H47V9H57.184A3,3,0,0,0,59,10.816V39.185A3,3,0,0,0,57.184,41h-6.77l2.293-2.293-1.414-1.414L46.586,42l4.707,4.707,1.414-1.414L50.414,43h6.77A2.993,2.993,0,1,0,61,39.184ZM60,7a1,1,0,1,1-1,1A1,1,0,0,1,60,7Zm0,36a1,1,0,1,1,1-1A1,1,0,0,1,60,43Z" fill="#201144"/>
    <path id="Trazado_879205" data-name="Trazado 879205" d="M17.721,26,9,19.771.279,26,9,32.229ZM9,22.229,14.279,26,9,29.771,3.721,26Z" fill="#201144"/>
    <path id="Trazado_879206" data-name="Trazado 879206" d="M31,5H41V7H31Z" fill="#201144"/>
    <path id="Trazado_879207" data-name="Trazado 879207" d="M31,9h6v2H31Z" fill="#201144"/>
    <path id="Trazado_879208" data-name="Trazado 879208" d="M39,9h2v2H39Z" fill="#201144"/>
    <path id="Trazado_879209" data-name="Trazado 879209" d="M56,57h2v2H56Z" fill="#201144"/>
    <path id="Trazado_879210" data-name="Trazado 879210" d="M52,57h2v2H52Z" fill="#201144"/>
    <path id="Trazado_879211" data-name="Trazado 879211" d="M48,57h2v2H48Z" fill="#201144"/>
    <path id="Trazado_879212" data-name="Trazado 879212" d="M19,9h2v2H19Z" fill="#201144"/>
    <path id="Trazado_879213" data-name="Trazado 879213" d="M23,9h2v2H23Z" fill="#201144"/>
    <path id="Trazado_879214" data-name="Trazado 879214" d="M15,9h2v2H15Z" fill="#201144"/>
  </g>
</svg>
