<svg xmlns="http://www.w3.org/2000/svg" width="110" height="110" viewBox="0 0 110 110">
  <g id="Grupo_1102796" data-name="Grupo 1102796" transform="translate(-0.43)">
    <circle id="Elipse_11868" data-name="Elipse 11868" cx="55" cy="55" r="55" transform="translate(0.43)" fill="#22cac5"/>
    <g id="Grupo_1102794" data-name="Grupo 1102794" transform="translate(19.75 20.874)">
      <g id="Grupo_1102793" data-name="Grupo 1102793" transform="translate(1.034 1.034)">
        <path id="Trazado_879362" data-name="Trazado 879362" d="M189.733,324.372h8.9c2.9.87,5.422,2.572,5.422,4.532v11.628H184.311V328.9C184.311,326.944,186.825,325.242,189.733,324.372Z" transform="translate(-159.967 -281.866)" fill="#ebd2ff" fill-rule="evenodd"/>
        <path id="Trazado_879363" data-name="Trazado 879363" d="M269.5,328.9v11.628h3.341V328.9c0-1.959-2.518-3.661-5.422-4.532h-3.341C266.983,325.242,269.5,326.944,269.5,328.9Z" transform="translate(-228.751 -281.866)" fill="#d7bef0" fill-rule="evenodd"/>
        <path id="Trazado_879364" data-name="Trazado 879364" d="M94.281,432.685h5.262l4.3-.6,4.266.6h16.882l4.2-.824,4.368.824h5.265v8.056H94.281Z" transform="translate(-82.333 -374.555)" fill="#d09080" fill-rule="evenodd"/>
        <path id="Trazado_879365" data-name="Trazado 879365" d="M7.512,354.372V337.237a3.845,3.845,0,0,1,3.833-3.833h6.331c.109,0,.219,0,.324.012a2.946,2.946,0,0,1,2.631,1.151l5.152,6.823a1.169,1.169,0,0,0,1.054.523h6.452a2.935,2.935,0,1,1,0,5.87H24.721a2.927,2.927,0,0,1-2.338-1.167l-.874-1.155v10.379H8.976a1.81,1.81,0,0,1-1.464-1.467Z" transform="translate(-7.512 -289.653)" fill="#ff6978" fill-rule="evenodd"/>
        <path id="Trazado_879366" data-name="Trazado 879366" d="M324.687,354.372V337.237a3.845,3.845,0,0,0-3.837-3.833h-6.327q-.164,0-.328.012a2.946,2.946,0,0,0-2.631,1.151l-5.149,6.823a1.187,1.187,0,0,1-1.054.523H298.91a2.935,2.935,0,1,0,0,5.87h8.564a2.935,2.935,0,0,0,2.342-1.167l.87-1.155v10.379h12.533A1.819,1.819,0,0,0,324.687,354.372Z" transform="translate(-256.252 -289.653)" fill="#ccf49f" fill-rule="evenodd"/>
        <path id="Trazado_879367" data-name="Trazado 879367" d="M204.126,92.86h16.815l4.254,4.255c.34.336.726.141.726-.3V92.86a3.953,3.953,0,0,0,3.938-3.942V78.972a3.95,3.95,0,0,0-3.938-3.938h-21.8a3.953,3.953,0,0,0-3.942,3.938v9.945A3.957,3.957,0,0,0,204.126,92.86Z" transform="translate(-173.654 -66.861)" fill="#ecf4ff" fill-rule="evenodd"/>
        <path id="Trazado_879368" data-name="Trazado 879368" d="M21.833,37.7h17.69a5.246,5.246,0,0,0,5.23-5.23V20.905a5.245,5.245,0,0,0-5.23-5.226H16.852a5.245,5.245,0,0,0-5.23,5.226V32.474a5.246,5.246,0,0,0,5.23,5.23v3.954a.408.408,0,0,0,.726.3Z" transform="translate(-11.056 -15.679)" fill="#ecf4ff" fill-rule="evenodd"/>
        <path id="Trazado_879369" data-name="Trazado 879369" d="M226.669,245.844a5.574,5.574,0,0,1-11.148,0v-5.972a3.128,3.128,0,0,1,3.123-3.119h7.193a.746.746,0,0,1,.832.828Z" transform="translate(-186.879 -206.313)" fill="#ffcbbe" fill-rule="evenodd"/>
        <path id="Trazado_879370" data-name="Trazado 879370" d="M215.521,239.871v1.8h11.148V237.58a.746.746,0,0,0-.832-.828h-7.193A3.129,3.129,0,0,0,215.521,239.871Z" transform="translate(-186.879 -206.311)" fill="#ffe5a0" fill-rule="evenodd"/>
        <path id="Trazado_879371" data-name="Trazado 879371" d="M17.858,245.844a5.574,5.574,0,0,0,11.148,0v-5.972a3.128,3.128,0,0,0-3.123-3.119H20.977a3.128,3.128,0,0,0-3.119,3.119v5.972Z" transform="translate(-16.433 -206.313)" fill="#ffcbbe" fill-rule="evenodd"/>
        <path id="Trazado_879372" data-name="Trazado 879372" d="M424.357,245.844a5.572,5.572,0,1,1-11.144,0v-5.972a3.125,3.125,0,0,1,3.119-3.119h4.906a3.125,3.125,0,0,1,3.119,3.119Z" transform="translate(-357.35 -206.313)" fill="#c68b87" fill-rule="evenodd"/>
        <path id="Trazado_879373" data-name="Trazado 879373" d="M448.774,265.374a5.589,5.589,0,0,1-5.57,5.574,5.67,5.67,0,0,1-1.674-.257,5.6,5.6,0,0,0,3.876-4.774,7.459,7.459,0,0,0,3.365-.347l0-6.167Z" transform="translate(-381.768 -225.842)" fill="#bd7d79" fill-rule="evenodd"/>
        <path id="Trazado_879374" data-name="Trazado 879374" d="M29.006,239.872v2.17a4.183,4.183,0,0,1-3.614-.324c-.585-.332-.687-.336-.757.2-.2,1.565-.909,5.886-6.768,4.118l-.008-6.167a3.128,3.128,0,0,1,3.119-3.119h4.906A3.128,3.128,0,0,1,29.006,239.872Z" transform="translate(-16.433 -206.312)" fill="#c68b87" fill-rule="evenodd"/>
        <path id="Trazado_879375" data-name="Trazado 879375" d="M413.212,239.872v2.17a4.176,4.176,0,0,0,3.61-.324c.589-.332.687-.336.757.2.2,1.565.909,5.886,6.772,4.118l0-6.167a3.123,3.123,0,0,0-3.119-3.119h-4.906A3.125,3.125,0,0,0,413.212,239.872Z" transform="translate(-357.349 -206.312)" fill="#477b9e" fill-rule="evenodd"/>
        <path id="Trazado_879376" data-name="Trazado 879376" d="M450.347,239.871v5.972a5.058,5.058,0,0,1-.027.543,7.458,7.458,0,0,0,3.365-.347l0-6.167a3.127,3.127,0,0,0-2.9-3.111,2.029,2.029,0,0,0-.219-.008h-3.341A3.125,3.125,0,0,1,450.347,239.871Z" transform="translate(-386.681 -206.311)" fill="#365e7d" fill-rule="evenodd"/>
        <path id="Trazado_879377" data-name="Trazado 879377" d="M50.109,277.84a5.6,5.6,0,0,1-3.9,5.316,5.57,5.57,0,0,0,7.244-5.316v-3.8a4.127,4.127,0,0,1-3.341-.18v3.981Z" transform="translate(-40.878 -238.309)" fill="#f7beaf" fill-rule="evenodd"/>
        <path id="Trazado_879378" data-name="Trazado 879378" d="M51.875,236.753A3.128,3.128,0,0,1,55,239.872v1.991a4.127,4.127,0,0,0,3.341.18v-2.17a3.128,3.128,0,0,0-3.123-3.119Z" transform="translate(-45.766 -206.312)" fill="#bd7d79" fill-rule="evenodd"/>
        <path id="Trazado_879379" data-name="Trazado 879379" d="M247.771,276.642a5.6,5.6,0,0,1-3.9,5.316,5.57,5.57,0,0,0,7.244-5.316V272.47h-3.341v4.172Z" transform="translate(-211.323 -237.111)" fill="#f7beaf" fill-rule="evenodd"/>
        <path id="Trazado_879380" data-name="Trazado 879380" d="M267.008,237.581v4.091h3.341v-4.091a.746.746,0,0,0-.832-.828h-3.341A.746.746,0,0,1,267.008,237.581Z" transform="translate(-230.56 -206.312)" fill="#f2ce7e" fill-rule="evenodd"/>
        <path id="Trazado_879381" data-name="Trazado 879381" d="M85.306,392.146a.223.223,0,0,0-.406.137v14.13h3.341V396.033Z" transform="translate(-74.244 -340.226)" fill="#cf4351" fill-rule="evenodd"/>
        <path id="Trazado_879382" data-name="Trazado 879382" d="M471.061,337.393v17.135A1.819,1.819,0,0,1,469.593,356h3.341a1.819,1.819,0,0,0,1.468-1.468V337.393a3.852,3.852,0,0,0-3.4-3.809,5.532,5.532,0,0,1-1.347.851A3.832,3.832,0,0,1,471.061,337.393Z" transform="translate(-405.967 -289.81)" fill="#b3e59f" fill-rule="evenodd"/>
        <path id="Trazado_879383" data-name="Trazado 879383" d="M200.5,89.721a3.955,3.955,0,0,0,3.9,3.384h16.815l4.254,4.255c.34.336.726.141.726-.3V93.1a3.953,3.953,0,0,0,3.938-3.942V79.217a3.951,3.951,0,0,0-3.38-3.9,3.768,3.768,0,0,1,.039.558v9.945a3.95,3.95,0,0,1-3.939,3.938h-21.8A3.747,3.747,0,0,1,200.5,89.721Z" transform="translate(-173.924 -67.106)" fill="#ddeafb" fill-rule="evenodd"/>
        <path id="Trazado_879384" data-name="Trazado 879384" d="M43.05,30.747a5.242,5.242,0,0,1-5.23,5.23H15.15a5.207,5.207,0,0,1-1.628-.261,5.25,5.25,0,0,0,4.969,3.6v3.954a.408.408,0,0,0,.726.3l4.254-4.255H41.161a5.246,5.246,0,0,0,5.23-5.23V22.519a5.257,5.257,0,0,0-3.6-4.969,5.244,5.244,0,0,1,.261,1.628V30.747Z" transform="translate(-12.694 -17.292)" fill="#ddeafb" fill-rule="evenodd"/>
        <path id="Trazado_879385" data-name="Trazado 879385" d="M378.571,437.843h3.341V445.9h-3.341Z" transform="translate(-327.478 -379.713)" fill="#be694f" fill-rule="evenodd"/>
      </g>
      <path id="Trazado_879386" data-name="Trazado 879386" d="M3.771,50.29a4.541,4.541,0,0,0,8.8-1.557V46.207a5.2,5.2,0,0,1-2.451-.4,8.449,8.449,0,0,1-.211.835,5.432,5.432,0,0,1-1.725,2.7A5.037,5.037,0,0,1,4.629,50.38a7.779,7.779,0,0,1-.859-.09Zm26.753-6.764H39.6V40.673H32.611a2.1,2.1,0,0,0-2.088,2.088ZM39.6,45.591H30.523v3.142a4.539,4.539,0,0,0,9.079,0V45.591Zm28.3,6.893a4.918,4.918,0,0,1,1.444,1.163A4.837,4.837,0,0,1,70.5,56.785v6.963a1.032,1.032,0,0,1-2.065,0V56.785a2.789,2.789,0,0,0-.663-1.807,2.836,2.836,0,0,0-1.429-.905,6.571,6.571,0,0,1-7.861-.082,1.977,1.977,0,0,0-.609.172,1.891,1.891,0,0,0-.7.574l-5.547,7.346a1.037,1.037,0,0,1-.823.414H43.693a1.9,1.9,0,1,0,0,3.805h8.489a1.857,1.857,0,0,0,.925-.2,6.117,6.117,0,0,0,1.573-1.76l3.673-4.859A1.03,1.03,0,1,1,60,60.723L56.5,65.352v9H68.435V68.424a1.032,1.032,0,0,1,2.065,0v6.963a1.029,1.029,0,0,1-1.03,1.03H1.034A1.033,1.033,0,0,1,0,75.387V68.424a1.032,1.032,0,0,1,2.065,0v5.929H14v-9l-3.5-4.629a1.031,1.031,0,0,1,1.647-1.241l3.591,4.754c.328.433.656.87.984,1.307a1.9,1.9,0,0,0,.671.558,1.807,1.807,0,0,0,.863.2h8.552a1.9,1.9,0,1,0,0-3.805H19.7a1.031,1.031,0,0,1-.823-.414L13.33,54.736a1.909,1.909,0,0,0-1.311-.745,6.579,6.579,0,0,1-7.861.086,2.83,2.83,0,0,0-1.413.882,2.8,2.8,0,0,0-.679,1.827v6.963a1.033,1.033,0,0,1-2.065,0V56.785a4.852,4.852,0,0,1,1.187-3.173A4.971,4.971,0,0,1,2.6,52.484a6.549,6.549,0,0,1-1.175-3.751V42.761a4.158,4.158,0,0,1,4.149-4.153h4.906a4.158,4.158,0,0,1,4.153,4.153v5.972a6.561,6.561,0,0,1-1.07,3.595,4,4,0,0,1,1.409,1.167l5.234,6.932h4.133V56.239a4.307,4.307,0,0,1,1.647-3.169,10.85,10.85,0,0,1,2.974-1.8,6.556,6.556,0,0,1-.508-2.537V42.761a4.158,4.158,0,0,1,4.153-4.153h8.025a1.036,1.036,0,0,1,1.035,1.034v9.091a6.6,6.6,0,0,1-.457,2.408,11.238,11.238,0,0,1,3.193,1.834,4.375,4.375,0,0,1,1.749,3.263v4.188h4.133l5.234-6.932a3.954,3.954,0,0,1,1.413-1.163,6.555,6.555,0,0,1-1.073-3.6V42.761a4.158,4.158,0,0,1,4.153-4.153h4.906a4.158,4.158,0,0,1,4.153,4.153v5.972A6.579,6.579,0,0,1,67.9,52.484ZM66.729,50.29a7.681,7.681,0,0,1-.859.09,5.033,5.033,0,0,1-3.552-1.031,5.412,5.412,0,0,1-1.729-2.7,8.435,8.435,0,0,1-.207-.835,5.221,5.221,0,0,1-2.455.4v2.525a4.54,4.54,0,0,0,8.8,1.557Zm-8.8-6.151a3.366,3.366,0,0,0,2.564-.761,1.042,1.042,0,0,1,.671-.289,1.027,1.027,0,0,1,1.077.98,8.221,8.221,0,0,0,.32,1.971,3.419,3.419,0,0,0,1.046,1.706,3.1,3.1,0,0,0,2.166.578,7.434,7.434,0,0,0,1.237-.18V42.761a2.106,2.106,0,0,0-2.088-2.088H60.016a2.106,2.106,0,0,0-2.088,2.088Zm-45.355,0V42.761a2.1,2.1,0,0,0-2.088-2.088H5.578a2.1,2.1,0,0,0-2.084,2.088v5.383a7.35,7.35,0,0,0,1.233.18,3.1,3.1,0,0,0,2.166-.578,3.453,3.453,0,0,0,1.05-1.706,8.033,8.033,0,0,0,.316-1.971A1.033,1.033,0,0,1,10,43.37,3.368,3.368,0,0,0,12.572,44.139Zm17.5,8.907A8.972,8.972,0,0,0,27.362,54.6a2.357,2.357,0,0,0-.952,1.636v4.188h.4A3.968,3.968,0,0,1,30.293,66.3h9.914a3.973,3.973,0,0,1,3.486-5.874h.4V56.239a2.432,2.432,0,0,0-1.023-1.7,9.6,9.6,0,0,0-2.92-1.6c-.133.16-.273.316-.418.461a6.582,6.582,0,0,1-9.332,0q-.17-.17-.328-.351ZM8.607,15.813a1.032,1.032,0,0,1,0-2.065H27.725a1.032,1.032,0,0,1,0,2.065Zm0,10.866a1.034,1.034,0,0,1,0-2.069h9.559a1.034,1.034,0,1,1,0,2.069Zm0-5.433a1.032,1.032,0,0,1,0-2.065H27.725a1.032,1.032,0,0,1,0,2.065ZM28.782,32.257a2.855,2.855,0,0,0,.668,1.054,2.886,2.886,0,0,0,2.057.855h6.069a1.032,1.032,0,0,1,0,2.065H31.507a4.933,4.933,0,0,1-3.517-1.468,5.019,5.019,0,0,1-1.351-2.506h-14.4L7.565,36.933A1.035,1.035,0,0,1,5.8,36.207V32.171A6.283,6.283,0,0,1,.57,26V14.428A6.277,6.277,0,0,1,6.831,8.167H29.5a6.277,6.277,0,0,1,6.261,6.261V16.34H53.3a4.984,4.984,0,0,1,4.973,4.973v9.945a4.987,4.987,0,0,1-3.942,4.864v4.059a1.031,1.031,0,0,1-1.76.73l-4.68-4.68h-5.64a1.032,1.032,0,1,1,0-2.065h6.069a1.02,1.02,0,0,1,.734.308l3.212,3.212V35.2A1.034,1.034,0,0,1,53.3,34.166a2.919,2.919,0,0,0,2.908-2.908V21.313A2.919,2.919,0,0,0,53.3,18.405H35.761V26A6.277,6.277,0,0,1,29.5,32.258h-.718ZM11.811,30.193H29.5A4.211,4.211,0,0,0,33.7,26V14.428a4.211,4.211,0,0,0-4.2-4.2H6.831a4.211,4.211,0,0,0-4.2,4.2V26a4.211,4.211,0,0,0,4.2,4.2,1.033,1.033,0,0,1,1.03,1.034v2.486l3.22-3.216a1.025,1.025,0,0,1,.73-.3ZM54.438,68.366H16.066v5.987H54.438V68.366Z" transform="translate(0 -8.167)"/>
    </g>
  </g>
</svg>
