<svg xmlns="http://www.w3.org/2000/svg" width="110" height="110" viewBox="0 0 110 110">
  <g id="Grupo_1102800" data-name="Grupo 1102800" transform="translate(-0.191)">
    <circle id="Elipse_11872" data-name="Elipse 11872" cx="55" cy="55" r="55" transform="translate(0.191)" fill="#22cac5"/>
    <g id="Grupo_1102795" data-name="Grupo 1102795" transform="translate(27 27)">
      <path id="Trazado_879387" data-name="Trazado 879387" d="M160.032,10H132.208A2.208,2.208,0,0,0,130,12.208V62.115a2.208,2.208,0,0,0,2.208,2.208h36.657a2.208,2.208,0,0,0,2.208-2.208V21.041Zm0,0" transform="translate(-115.646 -8.896)" fill="#f2f2fc"/>
      <path id="Trazado_879388" data-name="Trazado 879388" d="M413.041,21.041H402V10Zm0,0" transform="translate(-357.614 -8.896)" fill="#bfe7f2"/>
      <path id="Trazado_879389" data-name="Trazado 879389" d="M421.208,276A2.208,2.208,0,1,1,419,278.208,2.208,2.208,0,0,1,421.208,276Zm0,0" transform="translate(-372.737 -245.526)" fill="#ff6961"/>
      <path id="Trazado_879390" data-name="Trazado 879390" d="M318.208,396A2.208,2.208,0,1,1,316,398.208,2.208,2.208,0,0,1,318.208,396Zm0,0" transform="translate(-281.11 -352.277)" fill="#ffd685"/>
      <path id="Trazado_879391" data-name="Trazado 879391" d="M248.208,316A2.208,2.208,0,1,1,246,318.208,2.208,2.208,0,0,1,248.208,316Zm0,0" transform="translate(-218.838 -281.11)" fill="#65a8d1"/>
      <path id="Trazado_879392" data-name="Trazado 879392" d="M121.041,81.041H110V70a11.029,11.029,0,0,1,11.041,11.041Zm0,0" transform="translate(-97.855 -62.271)" fill="#ffd685"/>
      <path id="Trazado_879393" data-name="Trazado 879393" d="M21.041,81.041H32.083A11.041,11.041,0,1,1,21.041,70Zm0,0" transform="translate(-8.896 -62.271)" fill="#65a8d1"/>
      <path id="Trazado_879394" data-name="Trazado 879394" d="M174.416,398.208A2.208,2.208,0,1,1,172.208,396,2.208,2.208,0,0,1,174.416,398.208Zm0,0" transform="translate(-151.23 -352.277)" fill="#70ccc9"/>
      <path id="Trazado_879395" data-name="Trazado 879395" d="M241.1,162.208a1.1,1.1,0,1,0-1.1-1.1A1.1,1.1,0,0,0,241.1,162.208Zm0,0" transform="translate(-213.501 -142.334)"/>
      <path id="Trazado_879396" data-name="Trazado 879396" d="M241.1,202.208a1.1,1.1,0,1,0-1.1-1.1A1.1,1.1,0,0,0,241.1,202.208Zm0,0" transform="translate(-213.501 -177.918)"/>
      <path id="Trazado_879397" data-name="Trazado 879397" d="M56.207,11.365,45.166.324A1.116,1.116,0,0,0,44.386,0H16.562a3.316,3.316,0,0,0-3.312,3.312V6.676c-.367-.033-.735-.051-1.1-.051a12.145,12.145,0,0,0,0,24.291c.369,0,.738-.018,1.1-.051V53.219a3.316,3.316,0,0,0,3.312,3.312H53.219a3.316,3.316,0,0,0,3.312-3.312V12.146a1.111,1.111,0,0,0-.323-.781ZM45.49,3.77l7.272,7.272H45.49ZM13.249,8.895a9.952,9.952,0,0,1,8.769,8.771H13.249ZM2.208,18.77a9.951,9.951,0,0,1,8.833-9.875V18.77a1.1,1.1,0,0,0,1.1,1.1h9.873a9.936,9.936,0,0,1-19.81-1.1ZM53.219,54.323H16.562a1.105,1.105,0,0,1-1.1-1.1V30.456a12.146,12.146,0,0,0,0-23.371V3.313a1.105,1.105,0,0,1,1.1-1.1h26.72v9.937a1.1,1.1,0,0,0,1.1,1.1h9.937V53.219a1.105,1.105,0,0,1-1.1,1.1Zm0,0" transform="translate(0 0)"/>
      <path id="Trazado_879398" data-name="Trazado 879398" d="M247.1,62.208h11.7a1.1,1.1,0,0,0,0-2.208H247.1a1.1,1.1,0,0,0,0,2.208Zm0,0" transform="translate(-218.838 -53.375)"/>
      <path id="Trazado_879399" data-name="Trazado 879399" d="M247.1,102.208h11.7a1.1,1.1,0,1,0,0-2.208H247.1a1.1,1.1,0,1,0,0,2.208Zm0,0" transform="translate(-218.838 -88.959)"/>
      <path id="Trazado_879400" data-name="Trazado 879400" d="M47.729,166.625a5.527,5.527,0,0,1-5.521-5.521,1.1,1.1,0,0,0-2.208,0,7.738,7.738,0,0,0,7.729,7.729,1.1,1.1,0,0,0,0-2.208Zm0,0" transform="translate(-35.583 -142.334)"/>
      <path id="Trazado_879401" data-name="Trazado 879401" d="M190.805,266a3.311,3.311,0,0,0-2.747,5.162l-7.667,8.229a3.316,3.316,0,0,0-2.289.136l-3.453-4.281a3.312,3.312,0,1,0-5.917-.055l-4.026,4.364a3.313,3.313,0,1,0,1.58,1.544l4.026-4.364a3.323,3.323,0,0,0,2.723.028l3.453,4.281a3.313,3.313,0,1,0,5.691-.332l7.667-8.229a3.312,3.312,0,1,0,.959-6.483Zm-27.493,17.666a1.1,1.1,0,1,1,1.1-1.1A1.105,1.105,0,0,1,163.312,283.666Zm7.287-9.937a1.1,1.1,0,1,1,1.1,1.1A1.105,1.105,0,0,1,170.6,273.729Zm8.833,9.937a1.1,1.1,0,1,1,1.1-1.1A1.105,1.105,0,0,1,179.433,283.666Zm11.373-13.25a1.1,1.1,0,1,1,1.1-1.1A1.105,1.105,0,0,1,190.805,270.417Zm0,0" transform="translate(-142.334 -236.63)"/>
      <path id="Trazado_879402" data-name="Trazado 879402" d="M280,161.1a1.1,1.1,0,0,0,1.1,1.1h16.783a1.1,1.1,0,0,0,0-2.208H281.1A1.1,1.1,0,0,0,280,161.1Zm0,0" transform="translate(-249.084 -142.334)"/>
      <path id="Trazado_879403" data-name="Trazado 879403" d="M297.887,200H281.1a1.1,1.1,0,1,0,0,2.208h16.783a1.1,1.1,0,1,0,0-2.208Zm0,0" transform="translate(-249.084 -177.918)"/>
    </g>
  </g>
</svg>
