<svg xmlns="http://www.w3.org/2000/svg" width="59.024" height="65.582" viewBox="0 0 59.024 65.582">
  <g id="Report-Papers-Business-Graph-Financial" transform="translate(-5 -2)">
    <path id="Trazado_879410" data-name="Trazado 879410" d="M49.843,6.32A1.093,1.093,0,0,0,49.07,6h-30.6a5.465,5.465,0,0,0-5.293,4.1l2.116.546a3.279,3.279,0,0,1,3.176-2.46H47.977v5.465a3.279,3.279,0,0,0,3.279,3.279h5.465V61.745a3.279,3.279,0,0,1-3.279,3.279H18.465a3.279,3.279,0,0,1-3.279-3.279V36.6H13v25.14a5.472,5.472,0,0,0,5.465,5.465H53.442a5.472,5.472,0,0,0,5.465-5.465V15.837a1.093,1.093,0,0,0-.32-.773Zm.32,7.331V9.732l5.013,5.013h-3.92A1.093,1.093,0,0,1,50.163,13.651Z" transform="translate(0.744 0.372)" fill="#22cac5"/>
    <path id="Trazado_879411" data-name="Trazado 879411" d="M57.285,2H22.308a5.466,5.466,0,0,0-3.616,1.367L20.14,5.006a3.267,3.267,0,0,1,2.167-.82H57.285a3.279,3.279,0,0,1,3.279,3.279v50.28a3.267,3.267,0,0,1-.82,2.167l1.64,1.448a5.465,5.465,0,0,0,1.366-3.616V7.465A5.472,5.472,0,0,0,57.285,2Z" transform="translate(1.274)" fill="#22cac5"/>
    <path id="Trazado_879412" data-name="Trazado 879412" d="M16.465,29.116V28.023a3.279,3.279,0,1,0,0-6.558H14.279a1.093,1.093,0,1,1,0-2.186h2.186a1.093,1.093,0,0,1,1.093,1.093h2.186a3.279,3.279,0,0,0-3.279-3.279V16H14.279v1.093a3.279,3.279,0,1,0,0,6.558h2.186a1.093,1.093,0,1,1,0,2.186H14.279a1.093,1.093,0,0,1-1.093-1.093H11a3.279,3.279,0,0,0,3.279,3.279v1.093Z" transform="translate(0.558 1.302)" fill="#22cac5"/>
    <path id="Trazado_879413" data-name="Trazado 879413" d="M26.861,22.93a10.93,10.93,0,1,0-10.93,10.93,10.93,10.93,0,0,0,10.93-10.93Zm-19.675,0a8.744,8.744,0,1,1,8.744,8.744A8.744,8.744,0,0,1,7.186,22.93Z" transform="translate(0 0.93)" fill="#22cac5"/>
    <path id="Trazado_879414" data-name="Trazado 879414" d="M28,16H41.116v2.186H28Z" transform="translate(2.14 1.302)" fill="#22cac5"/>
    <path id="Trazado_879415" data-name="Trazado 879415" d="M28,12h2.186v2.186H28Z" transform="translate(2.14 0.93)" fill="#22cac5"/>
    <path id="Trazado_879416" data-name="Trazado 879416" d="M32,12h8.744v2.186H32Z" transform="translate(2.512 0.93)" fill="#22cac5"/>
    <path id="Trazado_879417" data-name="Trazado 879417" d="M24.279,31.744a1.093,1.093,0,0,0-1.093,1.093V38.3H21v2.186H49.419V38.3H47.233V24.093A1.093,1.093,0,0,0,46.14,23H41.768a1.093,1.093,0,0,0-1.093,1.093V38.3H38.489V28.465A1.093,1.093,0,0,0,37.4,27.372H33.023a1.093,1.093,0,0,0-1.093,1.093V38.3H29.744V32.837a1.093,1.093,0,0,0-1.093-1.093Zm18.582-6.558h2.186V38.3H42.861Zm-8.744,4.372H36.3V38.3H34.116ZM25.372,38.3V33.93h2.186V38.3Z" transform="translate(1.489 1.954)" fill="#22cac5"/>
    <path id="Trazado_879418" data-name="Trazado 879418" d="M22.093,43A1.093,1.093,0,0,0,21,44.093v10.93a1.093,1.093,0,0,0,1.093,1.093h10.93a1.093,1.093,0,0,0,1.093-1.093V44.093A1.093,1.093,0,0,0,33.023,43ZM31.93,53.93H23.186V45.186H31.93Z" transform="translate(1.489 3.814)" fill="#22cac5"/>
    <path id="Trazado_879419" data-name="Trazado 879419" d="M37,43H50.116v2.186H37Z" transform="translate(2.977 3.814)" fill="#22cac5"/>
    <path id="Trazado_879420" data-name="Trazado 879420" d="M37,51H50.116v2.186H37Z" transform="translate(2.977 4.559)" fill="#22cac5"/>
    <path id="Trazado_879421" data-name="Trazado 879421" d="M37,47H50.116v2.186H37Z" transform="translate(2.977 4.187)" fill="#22cac5"/>
  </g>
</svg>
