<svg xmlns="http://www.w3.org/2000/svg" width="83" height="83" viewBox="0 0 83 83">
  <g id="Grupo_1102120" data-name="Grupo 1102120" transform="translate(-764.781 -2279)">
    <rect id="Rectángulo_401243" data-name="Rectángulo 401243" width="83" height="83" transform="translate(764.781 2279)" fill="none"/>
    <g id="Grupo_1102808" data-name="Grupo 1102808" transform="translate(767.198 2284.24)">
      <path id="Trazado_879422" data-name="Trazado 879422" d="M39.908,31.7V28.341H37.625V31.7A21.584,21.584,0,0,1,39.908,31.7Zm2.126.229a20.483,20.483,0,0,1,15.208,11.4,7.75,7.75,0,0,1,1.141-.088,8.086,8.086,0,0,1,4.264,1.234,1.062,1.062,0,0,1-1.134,1.8,5.829,5.829,0,0,0-1.5-.675,5.936,5.936,0,0,0-1.933-.221,20.529,20.529,0,0,1-1.607,17.012H68.221a4.3,4.3,0,0,0,0-8.6H65.207a1.065,1.065,0,0,1-1.077-1.286,5.958,5.958,0,0,0-.149-3.054A1.059,1.059,0,1,1,66,48.79a8,8,0,0,1,.378,2.062c.012.265.012.531,0,.8h1.845a6.428,6.428,0,0,1,0,12.857H55.059A20.466,20.466,0,0,1,38.766,72.59H9.307a6.416,6.416,0,0,1-5.719-9.352,1.059,1.059,0,1,1,1.885.968A4.183,4.183,0,0,0,5,66.16a4.323,4.323,0,0,0,4.3,4.3H29.671A20.472,20.472,0,0,1,18.35,53.5a5.876,5.876,0,0,0-5.08,5.824,5.126,5.126,0,0,0,.032.631,5.508,5.508,0,0,0,.084.559,1.057,1.057,0,0,1-1.025,1.346H9.307a4.066,4.066,0,0,0-.824.076,1.062,1.062,0,1,1-.406-2.086,6.64,6.64,0,0,1,1.23-.121h1.849c-.008-.137-.012-.273-.012-.406a8,8,0,0,1,7.174-7.962A20.456,20.456,0,0,1,35.5,31.927V27.281a1.063,1.063,0,0,1,1.061-1.065H37.7V19.761h-8.91a1.065,1.065,0,0,1,0-2.13H37.7V4.771H15.669l2.813,5.98a1.048,1.048,0,0,1,0,.9l-2.813,5.976h8.3a1.065,1.065,0,1,1,0,2.13H14.05a1.16,1.16,0,0,1-.506-.1,1.064,1.064,0,0,1-.506-1.415L16.353,11.2,13.069,4.228A1.062,1.062,0,0,1,14,2.644H37.7V1.065a1.063,1.063,0,1,1,2.126,0v25.15h1.141a1.067,1.067,0,0,1,1.065,1.065ZM57.1,52.13a18.332,18.332,0,1,0-5.369,12.965A18.265,18.265,0,0,0,57.1,52.13ZM42.588,44.437a1.061,1.061,0,1,1-1.419,1.579,3.323,3.323,0,0,0-1.439-.687v5.341c.317.121.655.241,1,.366a4.776,4.776,0,0,1,3.07,2.974,5,5,0,0,1,.165,2.54,5.56,5.56,0,0,1-1.053,2.335,5.285,5.285,0,0,1-3.187,1.973v1.33a1.063,1.063,0,0,1-2.126,0V60.944a6.773,6.773,0,0,1-1.342-.185,7.374,7.374,0,0,1-2.315-1.081A1.062,1.062,0,0,1,35.113,57.9a5.464,5.464,0,0,0,1.66.8,4.991,4.991,0,0,0,.832.121V52.094A10.827,10.827,0,0,1,35.3,50.776,3.53,3.53,0,0,1,34.1,48.995a4.475,4.475,0,0,1-.088-2.13,4.714,4.714,0,0,1,.912-1.993A4.26,4.26,0,0,1,37.07,43.4c.181-.052.358-.1.535-.137v-1.19a1.063,1.063,0,1,1,2.126,0v1.113A5.723,5.723,0,0,1,42.588,44.437ZM37.6,45.458a2.129,2.129,0,0,0-1.009.715,2.611,2.611,0,0,0-.494,1.1,2.367,2.367,0,0,0,.036,1.117,1.417,1.417,0,0,0,.462.715,7.009,7.009,0,0,0,1,.635v-4.28Zm2.126,7.475v5.735a3.177,3.177,0,0,0,1.507-1.081,3.356,3.356,0,0,0,.647-1.427A2.935,2.935,0,0,0,41.8,54.69a2.42,2.42,0,0,0-.759-1.089A3.8,3.8,0,0,0,39.731,52.933Zm-.965-16.341a15.533,15.533,0,1,1-10.988,4.55,15.491,15.491,0,0,1,10.988-4.55Zm9.481,6.052a13.414,13.414,0,1,0,3.926,9.485A13.382,13.382,0,0,0,48.247,42.645Z" transform="translate(0 0)" fill="#201144"/>
    </g>
  </g>
</svg>
