<svg xmlns="http://www.w3.org/2000/svg" width="83" height="83" viewBox="0 0 83 83">
  <g id="Grupo_1102121" data-name="Grupo 1102121" transform="translate(-764.781 -2279)">
    <rect id="Rectángulo_401243" data-name="Rectángulo 401243" width="83" height="83" transform="translate(764.781 2279)" fill="none"/>
    <g id="Grupo_1102809" data-name="Grupo 1102809" transform="translate(727.77 2284.179)">
      <path id="Trazado_879423" data-name="Trazado 879423" d="M77.361,16.534a1.062,1.062,0,0,1-1.428,1.573,3.4,3.4,0,0,0-1.48-.7v5.446c.326.125.668.249,1.029.378a4.821,4.821,0,0,1,3.1,3.008,5.024,5.024,0,0,1,.165,2.57,5.6,5.6,0,0,1-1.062,2.361,5.339,5.339,0,0,1-3.237,2v1.363a1.066,1.066,0,0,1-2.132,0V33.252a7.015,7.015,0,0,1-1.368-.185,7.345,7.345,0,0,1-2.345-1.1,1.062,1.062,0,1,1,1.162-1.778A5.5,5.5,0,0,0,71.461,31a4.617,4.617,0,0,0,.861.125V24.28a11.027,11.027,0,0,1-2.345-1.343,3.566,3.566,0,0,1-1.207-1.794,4.535,4.535,0,0,1-.085-2.156,4.818,4.818,0,0,1,.917-2.019,4.318,4.318,0,0,1,2.172-1.488c.185-.056.37-.1.547-.141V14.117a1.066,1.066,0,0,1,2.132,0v1.142a5.837,5.837,0,0,1,2.908,1.275ZM95.6,51.125a1.064,1.064,0,1,1-1.5,1.5l-1.307-1.307a1.056,1.056,0,0,1-.314-.752V44.811l-2.16-2.16c-.889,1.194-1.669,2.192-2.349,3.061-3.29,4.211-4.114,5.269-4.114,12.339v9.395a5.2,5.2,0,0,1-5.2,5.2H68.324a5.2,5.2,0,0,1-5.2-5.2V65.158a1.064,1.064,0,0,1,2.128,0v2.288a3.076,3.076,0,0,0,3.069,3.069H78.652a3.076,3.076,0,0,0,3.069-3.069V59.113H65.255V60.34a1.064,1.064,0,0,1-2.128,0V58.051c0-7.07-.824-8.128-4.114-12.339-1.436-1.838-3.31-4.239-5.743-7.867A24.314,24.314,0,0,1,55.555,7.9L51.292,3.632V7.264a1.064,1.064,0,0,1-2.127,0v-6.2A1.068,1.068,0,0,1,50.23,0h6.2a1.064,1.064,0,0,1,0,2.127H52.8l4.263,4.263a24.294,24.294,0,0,1,30.4-1.979,1.061,1.061,0,1,1-1.219,1.737A22.206,22.206,0,0,0,58.563,7.895l2.224,2.224a19.054,19.054,0,0,1,26.906,26.9l2.369,2.369c.583-.82,1.211-1.725,1.882-2.727a22.176,22.176,0,0,0-2.24-27.5,1.06,1.06,0,0,1,1.548-1.448,24.3,24.3,0,0,1,2.453,30.127c-.764,1.134-1.468,2.152-2.124,3.069l2.393,2.393h5.759a1.058,1.058,0,0,1,.756.318l7.054,7.054a1.066,1.066,0,0,1,0,1.5,1.053,1.053,0,0,1-.752.31h-3.628l1.581,1.585a1.064,1.064,0,1,1-1.5,1.5L101.657,54v3.628a1.064,1.064,0,0,1-1.818.748L97.5,56.04a1.066,1.066,0,0,1,1.508-1.508l.523.527V51.869L94.6,46.943v3.185Zm5.438-.76h3.189l-4.931-4.931H96.107ZM88.8,41.135l-2.61-2.606a19.054,19.054,0,0,1-26.9-26.906L57.059,9.4a22.165,22.165,0,0,0-2.027,27.264c2.4,3.579,4.243,5.936,5.651,7.742,3.483,4.46,4.48,5.735,4.565,12.58H81.725c.088-6.845,1.086-8.12,4.569-12.58.716-.917,1.544-1.979,2.5-3.27ZM75.419,11.555a1.063,1.063,0,1,1,.306-2.1,14.762,14.762,0,0,1,3.258.869A1.062,1.062,0,1,1,78.21,12.3a13.093,13.093,0,0,0-1.375-.45A11.976,11.976,0,0,0,75.419,11.555Zm6.121,2.675a1.063,1.063,0,0,1,1.323-1.665,15.216,15.216,0,0,1,2.385,2.385,1.062,1.062,0,0,1-1.665,1.319,13.138,13.138,0,0,0-.965-1.074,12.648,12.648,0,0,0-1.078-.965ZM85.513,19.6a1.062,1.062,0,0,1,1.979-.772,14.617,14.617,0,0,1,.527,1.6,14.943,14.943,0,0,1,.342,1.657,1.063,1.063,0,0,1-2.1.306,12.924,12.924,0,0,0-.744-2.791Zm.744,6.652a1.063,1.063,0,1,1,2.1.306,14.741,14.741,0,0,1-.869,3.258,1.062,1.062,0,1,1-1.979-.772,13.065,13.065,0,0,0,.45-1.375,12.828,12.828,0,0,0,.294-1.416Zm-2.675,6.121A1.064,1.064,0,0,1,85.248,33.7a15.514,15.514,0,0,1-1.126,1.259,14.85,14.85,0,0,1-1.259,1.126,1.063,1.063,0,0,1-1.323-1.665,13.132,13.132,0,0,0,2.043-2.043ZM78.21,36.349a1.062,1.062,0,1,1,.772,1.979,14.627,14.627,0,0,1-1.6.527,14.9,14.9,0,0,1-1.657.342,1.063,1.063,0,1,1-.306-2.1,12.8,12.8,0,0,0,1.416-.294,13.026,13.026,0,0,0,1.375-.45Zm-6.652.744a1.063,1.063,0,0,1-.306,2.1,14.938,14.938,0,0,1-1.657-.342,14.646,14.646,0,0,1-1.6-.527,1.062,1.062,0,0,1,.772-1.979,12.915,12.915,0,0,0,2.791.744Zm-6.121-2.674a1.063,1.063,0,0,1-1.323,1.665A15.2,15.2,0,0,1,61.728,33.7a1.063,1.063,0,0,1,1.665-1.323,13.125,13.125,0,0,0,2.043,2.043Zm-3.974-5.373a1.062,1.062,0,0,1-1.979.772,14.616,14.616,0,0,1-.527-1.6,14.932,14.932,0,0,1-.342-1.657,1.063,1.063,0,1,1,2.1-.306,11.941,11.941,0,0,0,.294,1.416,13.1,13.1,0,0,0,.45,1.375Zm-.744-6.652a1.063,1.063,0,0,1-2.1-.306,14.946,14.946,0,0,1,.342-1.657,14.616,14.616,0,0,1,.527-1.6,1.062,1.062,0,0,1,1.979.772,12.79,12.79,0,0,0-.45,1.376,11.947,11.947,0,0,0-.294,1.416Zm2.674-6.125a1.062,1.062,0,0,1-1.665-1.319,15.2,15.2,0,0,1,2.385-2.385,1.063,1.063,0,0,1,1.323,1.665,12.6,12.6,0,0,0-1.078.965,13.215,13.215,0,0,0-.965,1.074Zm5.373-3.97a1.062,1.062,0,1,1-.772-1.979,14.6,14.6,0,0,1,1.6-.527,14.937,14.937,0,0,1,1.657-.342,1.063,1.063,0,0,1,.306,2.1,11.933,11.933,0,0,0-1.416.294A12.8,12.8,0,0,0,68.766,12.3Zm16.691.056a16.93,16.93,0,1,0,4.955,11.969A16.886,16.886,0,0,0,85.457,12.355Zm-13.135,5.18a2.207,2.207,0,0,0-1.046.736,2.66,2.66,0,0,0-.507,1.122,2.422,2.422,0,0,0,.04,1.142,1.45,1.45,0,0,0,.475.732,6.928,6.928,0,0,0,1.038.655Zm2.132,7.581V30.98a3.243,3.243,0,0,0,1.556-1.106,3.432,3.432,0,0,0,.655-1.456,2.748,2.748,0,0,0-2.212-3.3Z" fill="#201144"/>
    </g>
  </g>
</svg>
