<svg xmlns="http://www.w3.org/2000/svg" width="83" height="83" viewBox="0 0 83 83">
  <g id="Grupo_1102122" data-name="Grupo 1102122" transform="translate(-764.781 -2279)">
    <rect id="Rectángulo_401243" data-name="Rectángulo 401243" width="83" height="83" transform="translate(764.781 2279)" fill="none"/>
    <g id="Grupo_1102810" data-name="Grupo 1102810" transform="translate(749.672 2285.378)">
      <path id="Trazado_879424" data-name="Trazado 879424" d="M52.456,9.326a1.026,1.026,0,0,1-1.377,1.521,3,3,0,0,0-1.3-.626v4.959c.3.113.6.222.93.338a4.5,4.5,0,0,1,2.9,2.812,4.654,4.654,0,0,1,.152,2.4,5.185,5.185,0,0,1-.992,2.209A4.986,4.986,0,0,1,49.776,24.8v1.225a1.029,1.029,0,1,1-2.057,0v-1.14a6.235,6.235,0,0,1-1.233-.175A6.834,6.834,0,0,1,44.3,23.689a1.027,1.027,0,1,1,1.124-1.719,5.1,5.1,0,0,0,1.552.746,4.592,4.592,0,0,0,.743.109V16.556a10.219,10.219,0,0,1-2.155-1.237,3.317,3.317,0,0,1-1.132-1.684,4.24,4.24,0,0,1-.082-2.015,4.518,4.518,0,0,1,.86-1.886,4.045,4.045,0,0,1,2.034-1.4c.159-.047.319-.089.474-.124V7.121a1.029,1.029,0,1,1,2.057,0V8.14a5.445,5.445,0,0,1,2.68,1.186ZM87.287,68.187a1.029,1.029,0,0,1,0,2.057H45.11a7.416,7.416,0,0,1-7.42-7.42v-2a1.029,1.029,0,1,1,2.057,0v2a5.364,5.364,0,0,0,5.363,5.363H82.157a7.391,7.391,0,0,1-2.295-5.363V14.078a1.031,1.031,0,0,1,2.061,0V62.824a5.358,5.358,0,0,0,5.363,5.363ZM45.514,54.113h6.658A1.026,1.026,0,0,1,53.2,55.139V61.8a1.026,1.026,0,0,1-1.027,1.027H45.514A1.026,1.026,0,0,1,44.488,61.8V55.139A1.026,1.026,0,0,1,45.514,54.113Zm5.628,2.057h-4.6v4.6h4.6ZM45.514,42.8h6.658A1.029,1.029,0,0,1,53.2,43.826V50.48a1.029,1.029,0,0,1-1.027,1.031H45.514a1.029,1.029,0,0,1-1.027-1.031V43.826a1.029,1.029,0,0,1,1.027-1.03Zm5.628,2.061h-4.6v4.6h4.6ZM45.514,31.482h6.658A1.026,1.026,0,0,1,53.2,32.513v6.654A1.029,1.029,0,0,1,52.172,40.2H45.514a1.029,1.029,0,0,1-1.027-1.031V32.513A1.026,1.026,0,0,1,45.514,31.482Zm5.628,2.057h-4.6v4.6h4.6ZM57.7,57.317a1.029,1.029,0,1,1,0-2.057H75.569a1.029,1.029,0,0,1,0,2.057Zm0,4.36a1.029,1.029,0,1,1,0-2.057H70.91a1.029,1.029,0,1,1,0,2.057ZM57.7,46a1.029,1.029,0,1,1,0-2.057H75.569a1.029,1.029,0,0,1,0,2.057Zm0,4.356a1.029,1.029,0,1,1,0-2.057H70.91a1.029,1.029,0,1,1,0,2.057Zm0-15.669a1.029,1.029,0,1,1,0-2.057H75.569a1.029,1.029,0,0,1,0,2.057Zm0,4.356a1.029,1.029,0,1,1,0-2.057H70.91a1.029,1.029,0,1,1,0,2.057Zm0-28.908a1.029,1.029,0,1,1,0-2.057H75.569a1.029,1.029,0,0,1,0,2.057Zm0,14.763a1.029,1.029,0,1,1,0-2.057H75.569a1.029,1.029,0,0,1,0,2.057Zm0-4.92a1.029,1.029,0,1,1,0-2.057H75.569a1.029,1.029,0,0,1,0,2.057Zm0-4.92A1.031,1.031,0,1,1,57.7,13H75.569a1.031,1.031,0,0,1,0,2.061ZM37.689,21.53H25.933A1.03,1.03,0,0,1,24.9,20.5V7.42A7.423,7.423,0,0,1,32.322,0H74.5a7.423,7.423,0,0,1,7.424,7.42v2a1.031,1.031,0,0,1-2.061,0v-2A5.364,5.364,0,0,0,74.5,2.057H37.452A7.4,7.4,0,0,1,39.747,7.42V56.17a1.029,1.029,0,0,1-2.057,0V21.53ZM32.322,2.057A5.365,5.365,0,0,0,26.959,7.42V19.473h10.73V7.42a5.364,5.364,0,0,0-5.367-5.363Zm15.4,8.288a2,2,0,0,0-.891.649,2.421,2.421,0,0,0-.459,1.019,2.147,2.147,0,0,0,.035,1.034,1.276,1.276,0,0,0,.424.657,6,6,0,0,0,.891.568Zm2.057,7.024v5.3a2.916,2.916,0,0,0,1.365-.992,3.153,3.153,0,0,0,.6-1.33,2.7,2.7,0,0,0-.082-1.365,2.31,2.31,0,0,0-.895-1.155A3.774,3.774,0,0,0,49.777,17.369Z" fill="#201144"/>
    </g>
  </g>
</svg>
