<svg xmlns="http://www.w3.org/2000/svg" width="80" height="80" viewBox="0 0 80 80">
  <g id="Grupo_1100514" data-name="Grupo 1100514" transform="translate(-820.051 -655)">
    <rect id="Rectángulo_401664" data-name="Rectángulo 401664" width="80" height="80" rx="8" transform="translate(820.051 655)" fill="#efddcf"/>
    <g id="Grupo_1100513" data-name="Grupo 1100513" transform="translate(832.102 648.344)">
      <path id="Trazado_875344" data-name="Trazado 875344" d="M63.715,311v4.913a2.729,2.729,0,0,1-2.729,2.729H12.729A2.729,2.729,0,0,1,10,315.913V311Z" transform="translate(-8.908 -258.339)" fill="#9da5be"/>
      <path id="Trazado_875345" data-name="Trazado 875345" d="M167.289,387h-4.367v-6H153.1v6h-4.367A2.729,2.729,0,0,0,146,389.734v2.184h24.019v-2.184A2.729,2.729,0,0,0,167.289,387Z" transform="translate(-130.06 -320.696)" fill="#868eaf"/>
      <path id="Trazado_875346" data-name="Trazado 875346" d="M10,61.569H63.715V33.729A2.729,2.729,0,0,0,60.985,31H12.729A2.729,2.729,0,0,0,10,33.729Z" transform="translate(-8.908 -8.908)" fill="#ccf5fc"/>
      <path id="Trazado_875347" data-name="Trazado 875347" d="M98.14,71h31.546a1.639,1.639,0,0,1,1.64,1.638V91.2a1.639,1.639,0,0,1-1.64,1.638H98.14A1.639,1.639,0,0,1,96.5,91.2V72.638A1.639,1.639,0,0,1,98.14,71Z" transform="translate(-85.964 -44.541)" fill="#d0f2d2"/>
      <path id="Trazado_875348" data-name="Trazado 875348" d="M136.5,111h6.551v4.367H136.5Z" transform="translate(-121.597 -80.174)" fill="#ffd887"/>
      <g id="Grupo_1100512" data-name="Grupo 1100512" transform="translate(0 21)">
        <circle id="Elipse_11641" data-name="Elipse 11641" cx="1.092" cy="1.092" r="1.092" transform="translate(26.835)"/>
        <path id="Trazado_875349" data-name="Trazado 875349" d="M54.779,22.119A3.8,3.8,0,0,0,52.077,21H32.839a1.092,1.092,0,1,0,0,2.184H52.077a1.644,1.644,0,0,1,1.638,1.638V51.569H2.184V24.821a1.645,1.645,0,0,1,1.638-1.638H23.013a1.092,1.092,0,0,0,0-2.184H3.821A3.821,3.821,0,0,0,0,24.821V57.574A3.826,3.826,0,0,0,3.821,61.4H21.945v3.821H18.669a3.826,3.826,0,0,0-3.821,3.821v2.184a1.092,1.092,0,0,0,1.092,1.092H39.959a1.092,1.092,0,0,0,1.092-1.092V69.038a3.826,3.826,0,0,0-3.821-3.821H33.954V61.4H52.077A3.826,3.826,0,0,0,55.9,57.574V24.821A3.8,3.8,0,0,0,54.779,22.119ZM31.77,65.217H30.679a1.092,1.092,0,0,0,0,2.184h6.551a1.64,1.64,0,0,1,1.638,1.638v1.092H17.032V69.038A1.64,1.64,0,0,1,18.669,67.4H25.22a1.092,1.092,0,0,0,0-2.184H24.128V61.4H31.77Zm21.944-7.642a1.64,1.64,0,0,1-1.638,1.638H3.821a1.64,1.64,0,0,1-1.638-1.638V53.753H53.715Z" transform="translate(0 -21)"/>
        <path id="Trazado_875350" data-name="Trazado 875350" d="M86.5,63.729v18.56a2.734,2.734,0,0,0,2.732,2.729h31.546a2.734,2.734,0,0,0,2.732-2.729V63.729A2.734,2.734,0,0,0,120.779,61H89.232A2.734,2.734,0,0,0,86.5,63.729Zm34.827,0v18.56a.548.548,0,0,1-.549.546H89.232a.548.548,0,0,1-.549-.546V63.729a.548.548,0,0,1,.549-.546h31.546A.548.548,0,0,1,121.327,63.729Z" transform="translate(-77.056 -56.633)"/>
        <path id="Trazado_875351" data-name="Trazado 875351" d="M127.592,107.551h6.551a1.092,1.092,0,0,0,1.092-1.092v-4.367A1.092,1.092,0,0,0,134.142,101h-6.551a1.092,1.092,0,0,0-1.092,1.092v4.367A1.092,1.092,0,0,0,127.592,107.551Zm1.092-4.367h4.367v2.184h-4.367Z" transform="translate(-112.689 -92.266)"/>
        <path id="Trazado_875352" data-name="Trazado 875352" d="M269.592,183.184h2.839a1.092,1.092,0,0,0,0-2.184h-2.839a1.092,1.092,0,1,0,0,2.184Z" transform="translate(-239.186 -163.532)"/>
        <path id="Trazado_875353" data-name="Trazado 875353" d="M340.592,183.184h2.839a1.092,1.092,0,0,0,0-2.184h-2.839a1.092,1.092,0,1,0,0,2.184Z" transform="translate(-302.435 -163.532)"/>
        <path id="Trazado_875354" data-name="Trazado 875354" d="M127.592,183.184h2.839a1.092,1.092,0,1,0,0-2.184h-2.839a1.092,1.092,0,0,0,0,2.184Z" transform="translate(-112.689 -163.532)"/>
        <path id="Trazado_875355" data-name="Trazado 875355" d="M197.5,182.092a1.092,1.092,0,0,0,1.092,1.092h2.839a1.092,1.092,0,1,0,0-2.184h-2.839A1.092,1.092,0,0,0,197.5,182.092Z" transform="translate(-175.938 -163.532)"/>
      </g>
    </g>
  </g>
</svg>
