<svg xmlns="http://www.w3.org/2000/svg" width="83" height="83" viewBox="0 0 83 83">
  <g id="Grupo_1102804" data-name="Grupo 1102804" transform="translate(-764.781 -2279)">
    <rect id="Rectángulo_401243" data-name="Rectángulo 401243" width="83" height="83" transform="translate(764.781 2279)" fill="none"/>
    <g id="Grupo_1102811" data-name="Grupo 1102811" transform="translate(770.076 2270.554)">
      <path id="Trazado_879425" data-name="Trazado 879425" d="M68.117,64.209a1.062,1.062,0,0,1-2.125,0V52.951L55.849,63.095V81.77H65.992V69.012a1.062,1.062,0,0,1,2.125,0v13.82a1.061,1.061,0,0,1-1.062,1.059H54.786a1.057,1.057,0,0,1-1.058-1.059V62.658a1.059,1.059,0,0,1,.309-.75L66.3,49.643a1.06,1.06,0,0,1,1.816.746v13.82ZM37.783,23.262a1.056,1.056,0,0,1-1.415,1.568,3.186,3.186,0,0,0-1.347-.649V29.3c.3.112.621.229.958.349a4.659,4.659,0,0,1,2.995,2.9,4.89,4.89,0,0,1,.156,2.474A5.4,5.4,0,0,1,38.1,37.3a5.129,5.129,0,0,1-3.083,1.916v1.267a1.06,1.06,0,1,1-2.121,0V39.3a6.737,6.737,0,0,1-1.271-.176,7.077,7.077,0,0,1-2.257-1.054A1.06,1.06,0,0,1,30.534,36.3a5.087,5.087,0,0,0,1.6.77,4.294,4.294,0,0,0,.766.116V30.719a10.535,10.535,0,0,1-2.221-1.275,3.446,3.446,0,0,1-1.167-1.74,4.319,4.319,0,0,1-.084-2.077,4.646,4.646,0,0,1,.886-1.948A4.269,4.269,0,0,1,32.9,22.115v-1.13a1.06,1.06,0,1,1,2.121,0v1.054A5.622,5.622,0,0,1,37.783,23.262ZM32.9,24.313a2.032,2.032,0,0,0-.918.669,2.45,2.45,0,0,0-.473,1.051,2.232,2.232,0,0,0,.032,1.07,1.347,1.347,0,0,0,.437.674,6.455,6.455,0,0,0,.922.59V24.313Zm2.121,7.241V37.03A3.076,3.076,0,0,0,36.432,36a3.243,3.243,0,0,0,.617-1.371,2.568,2.568,0,0,0-2.029-3.079ZM34.058,16a14.736,14.736,0,1,1-10.416,4.314A14.685,14.685,0,0,1,34.058,16Zm8.917,5.814a12.617,12.617,0,1,0,3.693,8.917A12.575,12.575,0,0,0,42.975,21.815ZM55.191,44.908a1.055,1.055,0,1,1,1.455,1.528L53.1,49.824a1.114,1.114,0,0,1-.762.3h-41L2.12,59.093v5.152L12.6,54.126a1.073,1.073,0,0,1,.794-.3H54.365L66.321,42.314a1.071,1.071,0,0,1,1.491.02l2.482,2.482v-9.1H61.2l2.49,2.49a1.1,1.1,0,0,1-.1,1.588l-3.468,3.316a1.054,1.054,0,1,1-1.455-1.524l2.758-2.642L57.89,35.414a1.073,1.073,0,0,1-.317-.758A1.061,1.061,0,0,1,58.635,33.6H71.357a1.057,1.057,0,0,1,1.058,1.058V47.378a1.059,1.059,0,0,1-1.808.75l-3.568-3.564L55.576,55.6a1.058,1.058,0,0,1-.79.353H13.751l-11.9,11.5A1.062,1.062,0,0,1,0,66.739v-8.03a1.07,1.07,0,0,1,.325-.814l9.8-9.534A1.048,1.048,0,0,1,10.916,48H51.956ZM2.12,81.77H12.268V65.215L2.12,75.363Zm11.206,2.121H1.062A1.061,1.061,0,0,1,0,82.832V74.926a1.063,1.063,0,0,1,.313-.754l12.26-12.261a1.061,1.061,0,0,1,1.816.746V82.833A1.059,1.059,0,0,1,13.326,83.891ZM32.3,70.339a1.06,1.06,0,1,1-2.121,0V63.716H20.03V81.77H30.177V75.146a1.06,1.06,0,1,1,2.121,0v7.686a1.061,1.061,0,0,1-1.062,1.059H18.971a1.058,1.058,0,0,1-1.062-1.059V62.658A1.062,1.062,0,0,1,18.971,61.6H31.236A1.064,1.064,0,0,1,32.3,62.658ZM37.939,81.77H48.087V63.716H37.939Zm11.206,2.121H36.877a1.057,1.057,0,0,1-1.058-1.059V62.658A1.061,1.061,0,0,1,36.877,61.6H49.145a1.064,1.064,0,0,1,1.062,1.062V82.832A1.061,1.061,0,0,1,49.145,83.891Z" fill="#201144"/>
    </g>
  </g>
</svg>
