<svg xmlns="http://www.w3.org/2000/svg" width="83" height="83" viewBox="0 0 83 83">
  <g id="Grupo_1102805" data-name="Grupo 1102805" transform="translate(-764.781 -2279)">
    <rect id="Rectángulo_401243" data-name="Rectángulo 401243" width="83" height="83" transform="translate(764.781 2279)" fill="none"/>
    <g id="Grupo_1102812" data-name="Grupo 1102812" transform="translate(769.417 2271.194)">
      <path id="Trazado_879426" data-name="Trazado 879426" d="M28.231,30.593a1.078,1.078,0,1,1,2.1.5,25.493,25.493,0,0,1-2.71,6.429c.359.3.71.625,1.045.955a16.946,16.946,0,0,1,2.412,3.041H72.652A1.08,1.08,0,0,1,73.73,42.6V58.1a1.077,1.077,0,0,1-1.077,1.078H54a1.08,1.08,0,0,1,0-2.159H71.571V43.68H32.2a16.812,16.812,0,0,1,0,13.34H49.111a1.08,1.08,0,0,1,0,2.159H31.077A16.322,16.322,0,0,1,29.4,61.432l2.808,2.809a5.386,5.386,0,0,1,6.739.686L48.956,74.932a5.362,5.362,0,1,1-7.581,7.584L38.1,79.242a1.08,1.08,0,0,1,1.527-1.527L42.9,80.99a3.2,3.2,0,0,0,4.527-4.527L37.424,66.454A3.2,3.2,0,0,0,32.9,70.98l3.274,3.274a1.081,1.081,0,1,1-1.531,1.527l-3.27-3.274a5.39,5.39,0,0,1-.686-6.739l-2.809-2.8A16.792,16.792,0,0,1,4.919,38.475c.335-.335.69-.653,1.049-.959-1.788-3.163-3.057-6.36-3.057-9.1a13.879,13.879,0,0,1,27.5-2.637,1.076,1.076,0,1,1-2.115.4A11.723,11.723,0,0,0,5.07,28.413c0,6.119,7.642,15.434,11.72,20.267C20.765,43.97,26.827,36.5,28.231,30.593ZM54.3,51.428a1.08,1.08,0,1,1,0-2.159h3.584a1.08,1.08,0,1,1,0,2.159Zm7.9,1.759a1.081,1.081,0,1,1-1.531-1.527l1.31-1.31-1.31-1.31A1.081,1.081,0,1,1,62.2,47.513l1.306,1.31,1.31-1.31a1.08,1.08,0,0,1,1.527,1.527l-1.306,1.31,1.306,1.31a1.08,1.08,0,1,1-1.527,1.527l-1.31-1.31Zm-14.83,0a1.08,1.08,0,0,1-1.527-1.527l1.31-1.31-1.31-1.31a1.08,1.08,0,0,1,1.527-1.527l1.31,1.31,1.31-1.31a1.08,1.08,0,0,1,1.527,1.527l-1.311,1.31,1.311,1.31a1.08,1.08,0,0,1-1.527,1.527l-1.31-1.31Zm-8.364,0a1.08,1.08,0,1,1-1.527-1.527l1.31-1.31-1.31-1.31A1.08,1.08,0,1,1,39,47.513l1.31,1.31,1.31-1.31a1.08,1.08,0,0,1,1.527,1.527l-1.311,1.31,1.311,1.31a1.08,1.08,0,0,1-1.527,1.527l-1.31-1.31ZM15.712,36.6a1.08,1.08,0,1,1,2.159,0v.408a1.08,1.08,0,0,1-2.159,0ZM14.438,26.037a1.08,1.08,0,0,1-2.159,0A4.506,4.506,0,0,1,19.925,22.8a4.5,4.5,0,0,1-2.053,7.609v2.641a1.08,1.08,0,1,1-2.159,0V29.466a1.077,1.077,0,0,1,1.078-1.078,2.325,2.325,0,0,0,1.706-.731,2.355,2.355,0,1,0-4.058-1.621ZM7.09,39.394a14.632,14.632,0,1,0,19.406,0c-.51.812-1.049,1.616-1.6,2.408a11.781,11.781,0,1,1-16.218,0C8.135,41.014,7.6,40.21,7.09,39.394Zm16.536,4.184c-1.906,2.58-3.943,5.021-6.013,7.466a1.077,1.077,0,0,1-1.657-.012c-2.066-2.445-4.1-4.878-6-7.454a9.623,9.623,0,1,0,13.671,0Z" transform="translate(0 0)" fill="#201144"/>
    </g>
  </g>
</svg>
