<svg xmlns="http://www.w3.org/2000/svg" width="83" height="83" viewBox="0 0 83 83">
  <g id="Grupo_1102806" data-name="Grupo 1102806" transform="translate(-764.781 -2279)">
    <rect id="Rectángulo_401243" data-name="Rectángulo 401243" width="83" height="83" transform="translate(764.781 2279)" fill="none"/>
    <g id="Grupo_1102813" data-name="Grupo 1102813" transform="translate(770.699 2282.745)">
      <path id="Trazado_879427" data-name="Trazado 879427" d="M47.525,61.267a1.043,1.043,0,0,1,1.885.9,23.888,23.888,0,0,1-2.031,3.486,20.507,20.507,0,0,1-1.337,1.707,3.122,3.122,0,0,1-1.853,5.632H26.978a3.122,3.122,0,0,1-1.854-5.635,23.34,23.34,0,0,1-3.861-6.3,30.89,30.89,0,0,1-2.283-9.678,1.051,1.051,0,0,1,1.057-1.12H34.723V47.874l-6.093-3.514a6.532,6.532,0,0,1-1.333,1.38,4.548,4.548,0,0,1-2.847.954,5.693,5.693,0,0,1-1.885-.359,8.891,8.891,0,0,1-1.893-.962,1.042,1.042,0,1,1,1.144-1.743,6.847,6.847,0,0,0,1.451.749,3.713,3.713,0,0,0,1.2.237,2.545,2.545,0,0,0,1.577-.54,4.274,4.274,0,0,0,.769-.765L21.95,40.5A1.042,1.042,0,0,1,23,38.7l4.859,2.808a3.443,3.443,0,0,0,.264-1.857c-.418-2.421-4.294-3.514-6.262-3.534a11.109,11.109,0,0,0-4.074.773,11.85,11.85,0,0,0,.359,1.581A10.622,10.622,0,0,0,19,40.539a1.042,1.042,0,1,1-1.826,1.006,12.88,12.88,0,0,1-1.029-2.476,14.373,14.373,0,0,1-.524-2.729,1.041,1.041,0,0,1,.635-1.061,13.473,13.473,0,0,1,5.624-1.239c3.108.032,7.682,1.724,8.3,5.261a5.623,5.623,0,0,1-.5,3.254l5.052,2.918V31.666H1.045A1.044,1.044,0,0,1,0,30.621V3.568A1.047,1.047,0,0,1,1.045,2.523H70.121a1.047,1.047,0,0,1,1.045,1.045V30.621a1.044,1.044,0,0,1-1.045,1.045H36.81V45.473l5.052-2.918a5.657,5.657,0,0,1-.5-3.254,5.625,5.625,0,0,1,3.08-3.86,10.533,10.533,0,0,1,5.221-1.4,13.472,13.472,0,0,1,5.624,1.239,1.046,1.046,0,0,1,.635,1.061,13.462,13.462,0,0,1-1.739,5.529c-1.578,2.67-5.308,5.8-8.7,4.555A5.63,5.63,0,0,1,42.9,44.357L36.81,47.875v2.382H51.145a1.046,1.046,0,0,1,1.037,1.175q-.124,1.579-.386,3.092a31.051,31.051,0,0,1-.682,3.044,1.041,1.041,0,0,1-2.008-.552,29.107,29.107,0,0,0,.635-2.843c.1-.6.189-1.211.26-1.83H21.165A28.585,28.585,0,0,0,23.18,60.25a20.542,20.542,0,0,0,4.22,6.5H43.766a17.978,17.978,0,0,0,1.909-2.3,21.613,21.613,0,0,0,1.85-3.183ZM48.538,38.7a1.041,1.041,0,0,1,1.041,1.8l-4.862,2.808a3.483,3.483,0,0,0,1.475,1.156c2.311.848,5.186-1.96,6.191-3.66a11.026,11.026,0,0,0,1.368-3.916,11.108,11.108,0,0,0-4.078-.773,8.493,8.493,0,0,0-4.2,1.124,3.684,3.684,0,0,0-2.066,2.41,3.523,3.523,0,0,0,.264,1.857Zm-.469-21.607a12.481,12.481,0,1,0-3.656,8.83A12.474,12.474,0,0,0,48.069,17.095Zm.367,6.874H63.468V10.221H57.892a1.043,1.043,0,0,1,0-2.086H64.51a1.041,1.041,0,0,1,1.045,1.041V25.013a1.041,1.041,0,0,1-1.045,1.041H47.075A14.541,14.541,0,0,1,43.1,29.58H69.08V4.609H43.1A14.828,14.828,0,0,1,45.888,6.79a15.293,15.293,0,0,1,1.187,1.345h6.1a1.043,1.043,0,0,1,0,2.086H48.435a14.6,14.6,0,0,1,0,13.747Zm-25.7-13.747H7.7V23.968h5.576a1.043,1.043,0,0,1,0,2.086H6.653a1.04,1.04,0,0,1-1.041-1.041V9.176A1.04,1.04,0,0,1,6.653,8.135H24.092A15.313,15.313,0,0,1,25.279,6.79a14.818,14.818,0,0,1,2.788-2.181H2.086V29.58h25.98A14.828,14.828,0,0,1,25.279,27.4a14.257,14.257,0,0,1-1.187-1.345h-6.1a1.043,1.043,0,0,1,0-2.086h4.736a14.6,14.6,0,0,1,0-13.747Zm16.512-.47a1.039,1.039,0,1,1-1.392,1.542,3.079,3.079,0,0,0-1.317-.635v5.024c.3.114.607.229.939.343a4.577,4.577,0,0,1,2.942,2.851,4.806,4.806,0,0,1,.154,2.433,5.293,5.293,0,0,1-1.006,2.236,5.057,5.057,0,0,1-3.029,1.885v1.242a1.045,1.045,0,1,1-2.09,0V25.518a6.634,6.634,0,0,1-1.25-.174,6.932,6.932,0,0,1-2.212-1.037,1.041,1.041,0,1,1,1.14-1.743,5.021,5.021,0,0,0,1.57.757,4.3,4.3,0,0,0,.753.114V17.083a10.234,10.234,0,0,1-2.181-1.254,3.4,3.4,0,0,1-1.148-1.708A4.4,4.4,0,0,1,33.962,8.75c.162-.047.323-.091.481-.126V7.516a1.045,1.045,0,0,1,2.09,0V8.553a5.475,5.475,0,0,1,2.709,1.2Zm-4.8,1.033a2.326,2.326,0,0,0-1.333,2.741,1.308,1.308,0,0,0,.43.663,6.274,6.274,0,0,0,.9.58Zm2.09,7.118v5.375a3.006,3.006,0,0,0,1.38-1,3.206,3.206,0,0,0,.607-1.349,2.738,2.738,0,0,0-.079-1.384A2.692,2.692,0,0,0,36.534,17.9Zm7.654,50.928H26.978a1.035,1.035,0,0,0,0,2.071h17.21a1.035,1.035,0,0,0,0-2.071Z" transform="translate(0 0)" fill="#201144"/>
    </g>
  </g>
</svg>
