<svg xmlns="http://www.w3.org/2000/svg" width="83" height="83" viewBox="0 0 83 83">
  <g id="Grupo_1102807" data-name="Grupo 1102807" transform="translate(-764.781 -2279)">
    <rect id="Rectángulo_401243" data-name="Rectángulo 401243" width="83" height="83" transform="translate(764.781 2279)" fill="none"/>
    <path id="Trazado_879428" data-name="Trazado 879428" d="M84.642,59.548c-1.755-7.637-5.162-7.764-3.915-9.488A11.589,11.589,0,0,0,81.969,38.4C79.027,56.327,67.643,60.214,56.461,53.107a1.254,1.254,0,0,1,1.345-2.117c8.755,5.565,17.025,3.54,20.593-8.211,3.45-11.359,1.648-26.362-8.421-32.285C58.21,3.573,39.663,11.441,38.95,28.12a1.254,1.254,0,0,1-.712,1.078,5.857,5.857,0,0,0-3.082,6.886c.283,1.191-.721,1.159-2.472,3.155a14.679,14.679,0,0,0-3.3,6.923,37.5,37.5,0,0,0,4.041,10.515,11.3,11.3,0,0,0,4.971-.486,1.254,1.254,0,0,1,.8,2.376,13.579,13.579,0,0,1-4.137.7c10.563,15.2,30.082,17.888,43.632,6.27a14.218,14.218,0,0,0-2.542-3.515,1.254,1.254,0,0,1,1.783-1.764c1.675,1.693,3.65,4.772,3.545,5.729-.183,1.681-9.915,9.26-21.757,9.26-15.7,0-29.123-12.014-32.794-28.571-.332-.852.939-6.889,5.641-10.816a8.291,8.291,0,0,1,3.919-8.568A22.849,22.849,0,0,1,50.112,7.79c16.913-7.8,33.96,4.111,32.334,26.578A14.105,14.105,0,0,1,83.3,50.727a21.009,21.009,0,0,1,3,5.411C99.1,33.065,84.363,2.517,59.72,2.517c-14.778,0-27.661,11.779-30.631,28.008a1.254,1.254,0,0,1-2.467-.452c5.331-29.126,37.941-40.34,57.031-19C95.965,24.843,96.38,46.008,86.9,59.971A1.253,1.253,0,0,1,84.642,59.548Zm-41.284-6.8a1.253,1.253,0,0,0-.253,1.591c12.267,20.439,27.162,17.819,28.781,8.476l.254-1.464a1.254,1.254,0,0,0-2.471-.428l-.254,1.464c-1.256,7.245-13.231,8.169-23.692-8.575a16.7,16.7,0,0,0,1.6-2.521c3.693,5.668,10.436,12.667,16.854,12.667a1.254,1.254,0,0,0,.087-2.5c-5.16-.362-11.171-5.341-15.775-13.031a17.641,17.641,0,0,0,.28-8.907c-1.868-8.39,1.2-20.223,6.84-26.378a1.254,1.254,0,0,0-1.849-1.694A31.987,31.987,0,0,0,46.92,25.011C43.29,39.3,49.533,42.273,44.9,50.517a13.684,13.684,0,0,1-1.54,2.235ZM66.24,36.46a1.255,1.255,0,0,0,.456,2.423c1.864,0,5.467-3.166,4.006-7.15a16.019,16.019,0,0,1-1.188-4.525,1.254,1.254,0,0,0-2.5.152c.247,4.068,2.237,5.389,1.223,7.473A3.172,3.172,0,0,1,66.24,36.46Zm-4.326-8.236V26.969a1.254,1.254,0,0,0-2.508,0v1.254A1.254,1.254,0,0,0,61.915,28.223Zm13.559.627V27.6a1.254,1.254,0,0,0-2.508,0V28.85A1.254,1.254,0,0,0,75.473,28.85ZM64.44,42.723a1.254,1.254,0,0,0-1.742-.331c-1.8,1.222,1.165,4.018,3.928,4.17a5.745,5.745,0,0,0,4.865-2.424,1.254,1.254,0,0,0-2.067-1.42,2.994,2.994,0,0,1-4.985.006Z" transform="translate(746.23 2282.876)" fill="#201144"/>
  </g>
</svg>
