<svg xmlns="http://www.w3.org/2000/svg" width="85" height="85" viewBox="0 0 85 85">
  <g id="Grupo_1102067" data-name="Grupo 1102067" transform="translate(-180 -1153)">
    <rect id="Rect치ngulo_402011" data-name="Rect치ngulo 402011" width="85" height="85" transform="translate(180 1153)" fill="#a6eae8"/>
    <g id="Grupo_1102818" data-name="Grupo 1102818" transform="translate(176.26 1149.26)">
      <path id="Trazado_879435" data-name="Trazado 879435" d="M75.472,248H67.408a1.008,1.008,0,0,0-1.008,1.008v9.072H59.344a1.008,1.008,0,0,0-1.008,1.008v7.056H51.28a1.008,1.008,0,0,0-1.008,1.008v9.072H48.256v-10.08c0-.567-.274-1.627-2.11-2.361a12.034,12.034,0,0,0-7.876,0l-.094.039V261.1c0-.567-.274-1.627-2.11-2.361a10.937,10.937,0,0,0-3.938-.663,10.937,10.937,0,0,0-3.938.663l-.094.039v-7.758c0-.567-.274-1.627-2.11-2.361A10.937,10.937,0,0,0,22.048,248a10.938,10.938,0,0,0-3.938.663c-1.836.734-2.11,1.795-2.11,2.361v25.2c0,.567.274,1.627,2.11,2.361a10.939,10.939,0,0,0,3.938.663,10.939,10.939,0,0,0,3.938-.663,4.855,4.855,0,0,0,1.1-.6,4.855,4.855,0,0,0,1.1.6,10.938,10.938,0,0,0,3.938.663,10.939,10.939,0,0,0,3.938-.663,4.855,4.855,0,0,0,1.1-.6,4.855,4.855,0,0,0,1.1.6,12.035,12.035,0,0,0,7.876,0,5.482,5.482,0,0,0,.717-.345H75.472a1.008,1.008,0,0,0,1.008-1.008V249.008A1.008,1.008,0,0,0,75.472,248ZM18.016,268.466l.094.039a10.936,10.936,0,0,0,3.938.663,10.937,10.937,0,0,0,3.938-.663l.094-.039v2.68c-.175.312-1.57,1.046-4.032,1.046s-3.857-.734-4.032-1.046Zm0-5.04.094.039a10.937,10.937,0,0,0,3.938.663,10.938,10.938,0,0,0,3.938-.663l.094-.039v2.68c-.175.312-1.57,1.046-4.032,1.046s-3.857-.734-4.032-1.046Zm0-5.04.094.039a10.937,10.937,0,0,0,3.938.663,10.937,10.937,0,0,0,3.938-.663l.094-.039v2.68c-.175.312-1.57,1.046-4.032,1.046s-3.857-.734-4.032-1.046Zm0-5.04.094.039a10.937,10.937,0,0,0,3.938.663,10.937,10.937,0,0,0,3.938-.663l.094-.039v2.68c-.175.312-1.57,1.046-4.032,1.046s-3.857-.734-4.032-1.046Zm14.112,13.806c-2.462,0-3.857-.734-4.032-1.046v-2.68l.094.039a10.936,10.936,0,0,0,3.938.663,10.938,10.938,0,0,0,3.938-.663l.094-.039v2.68C35.985,266.418,34.59,267.152,32.128,267.152ZM28.1,268.467l.094.039a10.936,10.936,0,0,0,3.938.663,10.937,10.937,0,0,0,3.938-.663l.094-.039v2.68c-.175.312-1.57,1.046-4.032,1.046s-3.857-.734-4.032-1.046Zm10.08,0,.094.039a12.034,12.034,0,0,0,7.876,0l.094-.039v2.68c-.175.312-1.57,1.046-4.032,1.046s-3.857-.734-4.032-1.046Zm4.032-3.33c2.372,0,3.751.68,4.005,1.009-.262.33-1.642,1.007-4.005,1.007s-3.743-.676-4.005-1.007C38.458,265.817,39.836,265.136,42.208,265.136Zm-10.08-5.04c2.372,0,3.751.68,4.005,1.009-.262.33-1.642,1.007-4.005,1.007s-3.747-.678-4.006-1.008C28.381,260.774,29.762,260.1,32.128,260.1Zm-10.08-10.08c2.372,0,3.751.68,4.005,1.009-.262.33-1.642,1.007-4.005,1.007s-3.743-.676-4.005-1.007C18.3,250.7,19.676,250.016,22.048,250.016Zm0,27.216c-2.458,0-3.853-.732-4.032-1.045v-2.681l.094.039a10.937,10.937,0,0,0,3.938.663,10.938,10.938,0,0,0,3.938-.663l.094-.039v2.681C25.9,276.5,24.506,277.232,22.048,277.232Zm10.08,0c-2.462,0-3.857-.734-4.032-1.046v-2.68l.094.039a10.937,10.937,0,0,0,3.938.663,10.938,10.938,0,0,0,3.938-.663l.094-.039v2.681C35.981,276.5,34.586,277.232,32.128,277.232Zm10.08,0c-2.458,0-3.853-.732-4.032-1.045v-2.681l.094.039a12.035,12.035,0,0,0,7.876,0l.094-.039v2.681C46.061,276.5,44.666,277.232,42.208,277.232Zm10.08-9.072h6.048v8.064H52.288Zm8.064-8.064H66.4v16.128H60.352Zm8.064,16.128V250.016h6.048v26.208Z" transform="translate(0 -202.768)" fill="#201144"/>
      <rect id="Rect치ngulo_402241" data-name="Rect치ngulo 402241" width="2.47" height="1.235" transform="translate(41.937 56.719)" fill="#201144"/>
      <path id="Trazado_879436" data-name="Trazado 879436" d="M256,182.176v2.016h5.04a1.008,1.008,0,0,0,.713-.3l20.455-20.455v1.6h2.016v-4.032A1.008,1.008,0,0,0,283.216,160h-4.032v2.016h1.6l-20.16,20.16Z" transform="translate(-209.76 -125.856)" fill="#201144"/>
      <path id="Trazado_879437" data-name="Trazado 879437" d="M80.588,22.4A24.192,24.192,0,0,0,40,40.192a24.5,24.5,0,0,0,.2,3.154l2-.26a22.483,22.483,0,0,1-.187-2.894c0-.338.009-.674.024-1.008h4.512l2.722,3.629a1.008,1.008,0,0,0,.806.4h7.493l2.263,3.771-3.3,2.479a1.008,1.008,0,0,0-.4.806V53.3h2.016v-2.52l3.629-2.722a1.008,1.008,0,0,0,.26-1.325l-3.024-5.04a1.008,1.008,0,0,0-.864-.489h-7.56l-2.722-3.629a1.008,1.008,0,0,0-.806-.4H42.223a22.071,22.071,0,0,1,4.444-10.549l3.413,2.048v3.461a1.008,1.008,0,0,0,1.008,1.008h4.622l3.737,3.737A1.008,1.008,0,0,0,60.719,37l6.048-4.032a1.008,1.008,0,0,0,.449-.839V26.5l6.389-6.389A22.124,22.124,0,0,1,78,22.838l-5.38,4.484a1.008,1.008,0,0,0-.291,1.149l1.806,4.514L71.752,36.16H67.216a1.008,1.008,0,0,0-.6.2l-4.032,3.024a1.008,1.008,0,0,0-.234,1.366L66.378,46.8a1.008,1.008,0,0,0,.839.449H70.24V53.3h2.016V46.24a1.008,1.008,0,0,0-1.008-1.008H67.756l-3.2-4.806,3-2.25h4.7a1.008,1.008,0,0,0,.806-.4l3.024-4.032a1.008,1.008,0,0,0,.13-.979L74.472,28.4l5.064-4.22a22.094,22.094,0,0,1,6.75,14.081l2.009-.173A24.113,24.113,0,0,0,80.588,22.4ZM65.5,25.367a1.008,1.008,0,0,0-.3.713v5.509l-4.912,3.274-3.448-3.448a1.008,1.008,0,0,0-.713-.3H52.1V28.1a1.008,1.008,0,0,0-.489-.864l-3.613-2.168A22.167,22.167,0,0,1,71.583,19.28Z" transform="translate(-20.976 0)" fill="#201144"/>
    </g>
  </g>
</svg>
