<svg id="Grupo_1101718" data-name="Grupo 1101718" xmlns="http://www.w3.org/2000/svg" width="85" height="85" viewBox="0 0 85 85">
  <rect id="Rectángulo_401847" data-name="Rectángulo 401847" width="85" height="85" fill="#201144"/>
  <g id="Grupo_1102820" data-name="Grupo 1102820" transform="translate(16.981 17.06)">
    <path id="Trazado_879444" data-name="Trazado 879444" d="M21.105,19.306a3.476,3.476,0,0,1-.425-1.75V17.5a3.518,3.518,0,1,1,7.037.008v.111a3.5,3.5,0,0,1-1.03,2.488l-1.2,1.2a3.152,3.152,0,0,0-1.135,2.647" transform="translate(1.239 0.375)" fill="none" stroke="#22cac5" stroke-linecap="round" stroke-linejoin="round" stroke-width="2"/>
    <circle id="Elipse_11879" data-name="Elipse 11879" cx="12.17" cy="12.17" r="12.17" transform="translate(13.422 8.844)" fill="none" stroke="#22cac5" stroke-linecap="round" stroke-linejoin="round" stroke-width="2"/>
    <circle id="Elipse_11880" data-name="Elipse 11880" cx="1.106" cy="1.106" r="1.106" transform="translate(24.485 26.546)" fill="#22cac5"/>
    <path id="Trazado_879445" data-name="Trazado 879445" d="M3.081,1.006H49.548a2.213,2.213,0,0,1,2.213,2.213L51.906,43.4v8.483L41.623,43.041H3.081A2.213,2.213,0,0,1,.868,40.828V3.219A2.213,2.213,0,0,1,3.081,1.006Z" transform="translate(-0.868 -1.006)" fill="none" stroke="#22cac5" stroke-linecap="round" stroke-linejoin="round" stroke-width="2"/>
  </g>
</svg>
