<svg xmlns="http://www.w3.org/2000/svg" width="85" height="83.176" viewBox="0 0 85 83.176">
  <g id="Grupo_1102914" data-name="Grupo 1102914" transform="translate(-7.998 -9.775)">
    <g id="Grupo_1102913" data-name="Grupo 1102913" transform="translate(9.349 11.12)">
      <g id="Grupo_1102909" data-name="Grupo 1102909" transform="translate(0 48.667)">
        <path id="Trazado_879570" data-name="Trazado 879570" d="M46.9,316.466l14.644-8.484c2.748-1.592,5.543-2.721,8.564-1.741,3.368,1.092,8.868,3.438,14.476,4.449a4.068,4.068,0,0,1,2.813,4.873c-.566,2.114-2.353,3.2-4.873,2.814l1.961.314a9.128,9.128,0,0,0,6.276-1.093l14.079-8.2c10.944-6.374,12.552,3.432,8.913,5.672L88.207,330.8a9.37,9.37,0,0,1-7.587,1.07l-18.533-4.966-6.863,3.963a2.772,2.772,0,0,1-3.779-1.013l-5.55-9.613a2.772,2.772,0,0,1,1.009-3.777Z" transform="translate(-40.539 -305.874)" fill="#f6dccd" fill-rule="evenodd"/>
        <path id="Trazado_879571" data-name="Trazado 879571" d="M218.8,351.222c-.783,1.529-2.4,2.269-4.539,1.937-3.036-.8-6.068-1.626-9.1-2.439a1.523,1.523,0,0,1,.788-2.942Z" transform="translate(-172.275 -340.658)" fill="#f1cbbc" fill-rule="evenodd"/>
        <path id="Trazado_879572" data-name="Trazado 879572" d="M46.9,316.466l14.644-8.484c2.748-1.592,5.543-2.721,8.564-1.741,1.8.584,4.214,1.527,6.926,2.433L48.672,325.051,45.9,320.243A2.772,2.772,0,0,1,46.9,316.466Z" transform="translate(-40.539 -305.874)" fill="#f1cbbc" fill-rule="evenodd"/>
        <path id="Trazado_879573" data-name="Trazado 879573" d="M23.827,336.054,35.44,356.574a2.079,2.079,0,0,1-.783,2.825l-3.95,2.236a2.079,2.079,0,0,1-2.825-.783L16.268,340.331a2.079,2.079,0,0,1,.783-2.825L21,335.27A2.079,2.079,0,0,1,23.827,336.054Z" transform="translate(-16.001 -330.083)" fill="#d1d1d6" fill-rule="evenodd"/>
        <path id="Trazado_879574" data-name="Trazado 879574" d="M56.561,350.152l2.056,3.632,2.033,3.592a2.079,2.079,0,0,1-.777,2.822l1.411-.8a2.079,2.079,0,0,0,.783-2.825l-2.04-3.6-4.1-7.236-4.1-7.244-1.379-2.436a2.081,2.081,0,0,0-2.414-.96l2.387,4.218,4.1,7.236,2.039,3.6Z" transform="translate(-42.628 -330.083)" fill="#b1b1b5" fill-rule="evenodd"/>
      </g>
      <g id="Grupo_1102910" data-name="Grupo 1102910" transform="translate(3.008 0.214)">
        <circle id="Elipse_11886" data-name="Elipse 11886" cx="12.732" cy="12.732" r="12.732" transform="translate(0 0)" fill="#ffc338"/>
        <path id="Trazado_879575" data-name="Trazado 879575" d="M103.827,19.006a12.732,12.732,0,0,1,0,25.464c-.367,0-.73-.017-1.09-.047a12.732,12.732,0,0,0,0-25.37C103.1,19.023,103.46,19.006,103.827,19.006Z" transform="translate(-91.095 -19.006)" fill="#f5b829" fill-rule="evenodd"/>
      </g>
      <g id="Grupo_1102911" data-name="Grupo 1102911" transform="translate(22.975 0)">
        <circle id="Elipse_11887" data-name="Elipse 11887" cx="22.456" cy="22.456" r="22.456" fill="#fe646f"/>
        <path id="Trazado_879576" data-name="Trazado 879576" d="M288.86,24.322a22.455,22.455,0,0,1-18.318,38.2,22.455,22.455,0,0,0,0-44.645,22.412,22.412,0,0,1,18.318,6.444Z" transform="translate(-250.525 -17.745)" fill="#fd4755" fill-rule="evenodd"/>
        <path id="Trazado_879577" data-name="Trazado 879577" d="M213.266,71.364h11.575v7.611h7.611V90.55h-7.611v7.611H213.266V90.55h-7.611V78.975h7.611Z" transform="translate(-196.597 -62.306)" fill="#eceff1" fill-rule="evenodd"/>
        <path id="Trazado_879578" data-name="Trazado 879578" d="M213.266,71.364h2.9v7.611h-2.9Zm0,19.186v7.611h2.9V90.55Zm-4.709-11.575h-2.9V90.55h2.9Z" transform="translate(-196.597 -62.306)" fill="#d1d1d6" fill-rule="evenodd"/>
      </g>
      <g id="Grupo_1102912" data-name="Grupo 1102912" transform="translate(53.016 16.958)">
        <circle id="Elipse_11888" data-name="Elipse 11888" cx="12.732" cy="12.732" r="12.732" transform="translate(0 5.857) rotate(-13.3)" fill="#ffc338"/>
        <path id="Trazado_879579" data-name="Trazado 879579" d="M415.257,133.6a12.732,12.732,0,1,1,0,25.464c-.367,0-.73-.016-1.09-.047a12.732,12.732,0,0,0,0-25.37C414.526,133.612,414.89,133.6,415.257,133.6Z" transform="translate(-399.932 -130.984)" fill="#f5b829" fill-rule="evenodd"/>
      </g>
    </g>
    <path id="Trazado_879580" data-name="Trazado 879580" d="M77.922,42.036c-2.48-.407-2.524-1.333-2.54-1.681-.064-1.312,1.358-1.7,1.643-1.767a2.67,2.67,0,0,1,3.169,1.483,1.351,1.351,0,0,0,2.491-1.045,5.1,5.1,0,0,0-3.644-3.065v-.6a1.351,1.351,0,1,0-2.7,0v.615a4.456,4.456,0,0,0-3.659,4.513c.078,1.576.973,3.587,4.8,4.216,2.446.4,2.85,1.2,2.929,1.856a1.083,1.083,0,0,1-.249.91,3.378,3.378,0,0,1-2.337.851,2.732,2.732,0,0,1-2.908-1.807,1.351,1.351,0,1,0-2.622.653,5.107,5.107,0,0,0,4.044,3.714v.591a1.351,1.351,0,1,0,2.7,0V50.9a5.47,5.47,0,0,0,3.165-1.667,3.768,3.768,0,0,0,.887-3c-.275-2.266-2.015-3.678-5.172-4.2Zm11.149,1.38a11.381,11.381,0,1,1-11.38-11.381A11.394,11.394,0,0,1,89.071,43.415ZM66.829,34.462V29.135h-6.26a1.351,1.351,0,0,1-1.351-1.351V21.524H50.345v6.259a1.351,1.351,0,0,1-1.351,1.351H42.735v8.872h6.259a1.352,1.352,0,0,1,1.351,1.351v6.261h8.873V39.358a1.352,1.352,0,0,1,1.351-1.351h4.122a14.077,14.077,0,0,1,2.138-3.545Zm-.735,16.931A21.107,21.107,0,0,1,39.858,18.648,21.1,21.1,0,0,1,75.49,29.506a14,14,0,0,0-5.959,2.442V27.783a1.351,1.351,0,0,0-1.351-1.351h-6.26V20.172a1.351,1.351,0,0,0-1.351-1.351H48.994a1.35,1.35,0,0,0-1.351,1.351v6.259h-6.26a1.351,1.351,0,0,0-1.351,1.351V39.358a1.351,1.351,0,0,0,1.351,1.351h6.26V46.97a1.352,1.352,0,0,0,1.351,1.351H60.569a1.352,1.352,0,0,0,1.351-1.351V40.709h1.951a14.044,14.044,0,0,0,2.222,10.683Zm-35.106-17.6A23.784,23.784,0,0,1,35.54,19.55a11.384,11.384,0,1,0-4.552,14.243Zm60.786,9.622A14.073,14.073,0,0,1,67.847,53.474a23.8,23.8,0,0,1-13.07,3.9q-.862,0-1.727-.062A23.779,23.779,0,0,1,31.2,36.752a14.084,14.084,0,1,1,6.23-19.48c.171-.181.342-.36.518-.535a23.833,23.833,0,0,1,33.668,0,23.547,23.547,0,0,1,6.6,12.608A14.1,14.1,0,0,1,91.774,43.415ZM14.513,68.823a1.41,1.41,0,1,0,1.6,1.191,1.412,1.412,0,0,0-1.6-1.191ZM82.543,63.8c-1.14-1.905-4.209-1.65-8.208.679l-14.081,8.2a10.428,10.428,0,0,1-7.17,1.26l-1.752-.284-.054-.01c-2.189-.448-4.221-1.029-6.373-1.643-.978-.279-1.991-.568-3.021-.845a1.351,1.351,0,0,1,.7-2.609c1.052.282,2.076.574,3.066.856,2.079.594,4.047,1.155,6.114,1.581A2.583,2.583,0,0,0,54.9,69.124a2.7,2.7,0,0,0-1.846-3.213,73.137,73.137,0,0,1-11.575-3.429c-1.141-.414-2.128-.77-2.982-1.047-2.627-.851-5.141.279-7.471,1.627L20.621,69.088l6.867,12.136,2.73-1.576a1.351,1.351,0,0,1,1.025-.135l18.534,4.966a8.04,8.04,0,0,0,6.532-.914L81.861,67.83a3.182,3.182,0,0,0,.682-4.033ZM27.616,86.934a.731.731,0,0,1-.273.985l-3.951,2.236a.734.734,0,0,1-.985-.274L10.793,69.359a.728.728,0,0,1,.273-.983l3.951-2.236a.7.7,0,0,1,.349-.093.729.729,0,0,1,.2.027.722.722,0,0,1,.437.337ZM84.862,62.408c-.75-1.25-3.821-4.966-11.887-.269l-14.081,8.2a7.722,7.722,0,0,1-1.909.8,5.863,5.863,0,0,0,.53-1.322,5.438,5.438,0,0,0-3.7-6.508,1.531,1.531,0,0,0-.177-.046A70.463,70.463,0,0,1,42.4,59.941c-1.116-.4-2.171-.784-3.067-1.076-3.643-1.18-6.927.275-9.658,1.858L19.29,66.737l-.938-1.657a3.429,3.429,0,0,0-4.667-1.294L9.735,66.023A3.428,3.428,0,0,0,8.442,70.69L20.056,91.213a3.425,3.425,0,0,0,4.667,1.294l3.951-2.236A3.43,3.43,0,0,0,29.968,85.6l-1.149-2.029,2.265-1.307L49.078,87.09a11.538,11.538,0,0,0,2.986.4,10.679,10.679,0,0,0,5.66-1.627L83.278,70.131c2.372-1.461,3.128-5.142,1.584-7.722Zm-54.37-35.53a3.774,3.774,0,0,1-.886,3,5.494,5.494,0,0,1-3.165,1.667v.567a1.351,1.351,0,1,1-2.7,0v-.591a5.109,5.109,0,0,1-4.043-3.714,1.351,1.351,0,0,1,2.622-.654,2.733,2.733,0,0,0,2.908,1.807,3.377,3.377,0,0,0,2.338-.851,1.083,1.083,0,0,0,.248-.91c-.079-.654-.483-1.454-2.927-1.854-3.831-.63-4.726-2.642-4.8-4.217a4.456,4.456,0,0,1,3.658-4.513V16a1.351,1.351,0,0,1,2.7,0v.6a5.088,5.088,0,0,1,3.643,3.064,1.351,1.351,0,1,1-2.491,1.045,2.67,2.67,0,0,0-3.168-1.483c-.285.064-1.707.454-1.644,1.767.018.35.061,1.275,2.54,1.682,3.157.517,4.9,1.929,5.171,4.2Z" transform="translate(0)" fill-rule="evenodd"/>
  </g>
</svg>
