<svg xmlns="http://www.w3.org/2000/svg" width="85" height="107.491" viewBox="0 0 85 107.491">
  <g id="Grupo_1102924" data-name="Grupo 1102924" transform="translate(-53.563)">
    <g id="Grupo_1102922" data-name="Grupo 1102922" transform="translate(55.138 1.575)">
      <g id="Grupo_1102921" data-name="Grupo 1102921" transform="translate(0 22.772)">
        <path id="Trazado_879583" data-name="Trazado 879583" d="M296.09,410.937v15.074a4.567,4.567,0,0,1-4.566,4.568h-11.1a4.563,4.563,0,0,1-4.232-2.853l-1-2.454-5.807-14.335Z" transform="translate(-225.651 -349.01)" fill="#ffcbbe"/>
        <path id="Trazado_879584" data-name="Trazado 879584" d="M142.121,410.937l-5.807,14.335-1,2.454a4.563,4.563,0,0,1-4.232,2.853h-11.1a4.567,4.567,0,0,1-4.566-4.568V410.937Z" transform="translate(-104.007 -349.01)" fill="#ffcbbe"/>
        <g id="Grupo_1102917" data-name="Grupo 1102917" transform="translate(11.411 61.927)">
          <path id="Trazado_879585" data-name="Trazado 879585" d="M126.344,430.583h-6.361a4.567,4.567,0,0,1-4.566-4.568V410.941h6.359v15.074A4.568,4.568,0,0,0,126.344,430.583Z" transform="translate(-115.416 -410.94)" fill="#eaac9d"/>
          <g id="Grupo_1102916" data-name="Grupo 1102916" transform="translate(0)">
            <path id="Trazado_879586" data-name="Trazado 879586" d="M115.418,410.937h26.7l-5.807,14.335q-3.351-.072-6.706-.206a26.115,26.115,0,0,1-14.19-4.852v-9.277Z" transform="translate(-115.418 -410.937)" fill="#eaac9d"/>
            <path id="Trazado_879587" data-name="Trazado 879587" d="M296.09,410.937v9.277a26.115,26.115,0,0,1-14.19,4.852q-3.354.132-6.706.206l-5.807-14.335h26.7Z" transform="translate(-237.062 -410.937)" fill="#eaac9d"/>
          </g>
          <path id="Trazado_879588" data-name="Trazado 879588" d="M285.616,430.579h-5.194a4.563,4.563,0,0,1-4.232-2.853l-1-2.454-5.807-14.335h5.194l5.807,14.335,1,2.454A4.564,4.564,0,0,0,285.616,430.579Z" transform="translate(-237.062 -410.937)" fill="#eaac9d"/>
        </g>
        <g id="Grupo_1102918" data-name="Grupo 1102918" transform="translate(0.238)">
          <path id="Trazado_879589" data-name="Trazado 879589" d="M143.571,153.853q-.022,4.976-.218,9.954a26.187,26.187,0,0,1-25.145,25.1q-15.323.6-30.647,0a26.187,26.187,0,0,1-25.145-25.1q-.194-4.976-.218-9.954a37.786,37.786,0,0,1,35.468-37.884v7.164a2.981,2.981,0,0,0,2.979,2.981h4.48a2.981,2.981,0,0,0,2.979-2.981v-7.164a37.787,37.787,0,0,1,35.468,37.884Z" transform="translate(-62.196 -115.969)" fill="#ffcbbe"/>
        </g>
        <g id="Grupo_1102919" data-name="Grupo 1102919" transform="translate(0.237 0.449)">
          <path id="Trazado_879590" data-name="Trazado 879590" d="M93.711,118.106C85,124.128,78.874,138.692,78.919,155.628q.011,5.31.137,10.618c.254,10.911,4.195,20.2,9.766,24.4-.422-.014-.842-.031-1.264-.048a26.189,26.189,0,0,1-25.145-25.1q-.194-4.976-.218-9.954a37.8,37.8,0,0,1,31.516-37.435Z" transform="translate(-62.194 -118.106)" fill="#eaac9d"/>
        </g>
        <g id="Grupo_1102920" data-name="Grupo 1102920" transform="translate(0 13.937)">
          <path id="Trazado_879591" data-name="Trazado 879591" d="M67.027,209.294s-5.212-7.921-5.954-21a5.616,5.616,0,0,1,6.35-5.893,48.364,48.364,0,0,1,20.693,8.021s-10.584-.973-10.584,10.584" transform="translate(-61.064 -182.351)" fill="#eaac9d"/>
          <path id="Trazado_879592" data-name="Trazado 879592" d="M343.169,209.294s5.212-7.921,5.954-21a5.616,5.616,0,0,0-6.35-5.893,48.364,48.364,0,0,0-20.693,8.021" transform="translate(-267.281 -182.351)" fill="#ffcbbe"/>
        </g>
        <path id="Trazado_879593" data-name="Trazado 879593" d="M204.885,302.373q-5.4-.177-10.8,0a9.94,9.94,0,0,0-9.591,9.713q-.05,1.994,0,3.989a9.94,9.94,0,0,0,9.591,9.713q5.4.177,10.8,0a9.94,9.94,0,0,0,9.591-9.713q.05-1.994,0-3.989A9.94,9.94,0,0,0,204.885,302.373Z" transform="translate(-158.557 -263.169)" fill="#ffddce"/>
      </g>
      <circle id="Elipse_11889" data-name="Elipse 11889" cx="15.564" cy="15.564" r="15.564" transform="translate(7.672)" fill="#ffd064"/>
    </g>
    <g id="Grupo_1102923" data-name="Grupo 1102923" transform="translate(53.563)">
      <path id="Trazado_879594" data-name="Trazado 879594" d="M136.261,38.626a7.166,7.166,0,0,0-5.838-1.853c-.372.049-.759.106-1.158.17a39.367,39.367,0,0,0-27.887-14.165,1.574,1.574,0,0,0-1.669,1.572v7.161a1.407,1.407,0,0,1-1.4,1.407h-4.48a1.407,1.407,0,0,1-1.4-1.407V26.944a17.131,17.131,0,1,0-31-7.27,1.575,1.575,0,0,0,3.114-.47,13.983,13.983,0,1,1,1.9,5.234,1.575,1.575,0,0,0-2.685,1.645,17.2,17.2,0,0,0,4.9,5.188,39.494,39.494,0,0,0-5.785,5.672c-.4-.064-.79-.121-1.163-.171a7.191,7.191,0,0,0-8.129,7.543,54.448,54.448,0,0,0,1.234,8.874A39.515,39.515,0,0,0,53.8,62.236c.014,3.3.088,6.667.22,10.011a27.626,27.626,0,0,0,8.122,18.516,27.943,27.943,0,0,0,2.832,2.468v8.117a6.149,6.149,0,0,0,6.141,6.143h11.1a6.111,6.111,0,0,0,5.692-3.836l1.842-4.548q3.153.051,6.312.055t6.312-.055l1.842,4.546a6.111,6.111,0,0,0,5.692,3.838h11.1a6.149,6.149,0,0,0,6.141-6.143V93.239a28.149,28.149,0,0,0,3.784-3.475,1.575,1.575,0,1,0-2.332-2.116,24.45,24.45,0,0,1-17.279,8.065c-10.126.4-20.4.4-30.524,0A24.612,24.612,0,0,1,57.167,72.124c-.13-3.307-.2-6.638-.217-9.9,0-.619.013-1.238.042-1.855a33.169,33.169,0,0,0,2.793,5.725,1.575,1.575,0,0,0,2.632-1.729c-.05-.076-4.992-7.774-5.7-20.225a4.041,4.041,0,0,1,4.57-4.243,46.841,46.841,0,0,1,20.017,7.763,1.575,1.575,0,1,0,1.767-2.607,50.737,50.737,0,0,0-16.656-7.4,36.314,36.314,0,0,1,5.251-4.728,17.177,17.177,0,0,0,17.6-2.566v1.152a4.56,4.56,0,0,0,4.554,4.556H98.3a4.56,4.56,0,0,0,4.554-4.556v-5.45a36.227,36.227,0,0,1,22.851,11.593,50.739,50.739,0,0,0-16.655,7.4,1.575,1.575,0,1,0,1.767,2.607,46.84,46.84,0,0,1,20.017-7.763,4.041,4.041,0,0,1,4.57,4.243c-.706,12.451-5.649,20.149-5.7,20.225a1.575,1.575,0,0,0,2.632,1.729,33.169,33.169,0,0,0,2.793-5.725c.029.618.045,1.236.042,1.856-.014,3.263-.087,6.594-.217,9.9a24.278,24.278,0,0,1-2.937,10.709,1.575,1.575,0,1,0,2.769,1.5,27.4,27.4,0,0,0,3.315-12.087c.131-3.343.205-6.711.22-10.01a39.515,39.515,0,0,0-1.008-9.047,54.444,54.444,0,0,0,1.234-8.874,7.18,7.18,0,0,0-2.291-5.69ZM111.449,98.86A27.634,27.634,0,0,0,124,95.317v6.031a3,3,0,0,1-2.992,2.994h-11.1a2.977,2.977,0,0,1-2.773-1.87l-1.391-3.434q2.858-.071,5.7-.178Zm-25.067.178-1.392,3.436a2.976,2.976,0,0,1-2.772,1.868h-11.1a3,3,0,0,1-2.992-2.994V95.3A27.717,27.717,0,0,0,80.677,98.86q2.846.112,5.7.178Z" transform="translate(-53.563)"/>
      <path id="Trazado_879595" data-name="Trazado 879595" d="M378.5,222.553a1.574,1.574,0,0,0,2.181-.45,16.162,16.162,0,0,0,2.158-7.484,3.368,3.368,0,0,0-3.808-3.532,17.052,17.052,0,0,0-7.285,2.82,1.575,1.575,0,0,0,1.767,2.607,13.887,13.887,0,0,1,5.933-2.3.219.219,0,0,1,.249.232,13.321,13.321,0,0,1-1.649,5.937A1.574,1.574,0,0,0,378.5,222.553Z" transform="translate(-304.401 -166.748)"/>
      <path id="Trazado_879596" data-name="Trazado 879596" d="M88.183,214.209a13.885,13.885,0,0,1,5.933,2.3,1.575,1.575,0,0,0,1.767-2.607,17.052,17.052,0,0,0-7.285-2.82,3.368,3.368,0,0,0-3.807,3.532,16.162,16.162,0,0,0,2.158,7.483,1.575,1.575,0,0,0,2.631-1.731,13.3,13.3,0,0,1-1.645-5.931.219.219,0,0,1,.248-.232Z" transform="translate(-78.23 -166.747)"/>
      <path id="Trazado_879597" data-name="Trazado 879597" d="M199.012,294.874c-3.619-.119-7.289-.119-10.908,0a11.528,11.528,0,0,0-11.113,11.247c-.034,1.35-.034,2.718,0,4.068A11.528,11.528,0,0,0,188.1,321.437c1.81.059,3.632.089,5.454.089s3.644-.03,5.454-.089a11.528,11.528,0,0,0,11.113-11.247c.034-1.35.034-2.718,0-4.068A11.528,11.528,0,0,0,199.012,294.874Zm7.965,15.236a8.376,8.376,0,0,1-8.068,8.179c-3.55.117-7.151.117-10.7,0a8.376,8.376,0,0,1-8.068-8.179c-.032-1.3-.032-2.613,0-3.91a8.376,8.376,0,0,1,8.068-8.179c1.775-.058,3.563-.087,5.35-.087s3.575.029,5.35.087a8.376,8.376,0,0,1,8.068,8.179C207.009,307.5,207.009,308.813,206.977,310.111Z" transform="translate(-151.058 -232.897)"/>
      <path id="Trazado_879598" data-name="Trazado 879598" d="M231.23,343.766a1.574,1.574,0,0,0-1.575,1.575v3.347a1.575,1.575,0,0,0,3.149,0v-3.347A1.574,1.574,0,0,0,231.23,343.766Z" transform="translate(-192.685 -271.594)"/>
      <path id="Trazado_879599" data-name="Trazado 879599" d="M268.916,343.766a1.574,1.574,0,0,0-1.575,1.575v3.347a1.575,1.575,0,1,0,3.149,0v-3.347A1.575,1.575,0,0,0,268.916,343.766Z" transform="translate(-222.46 -271.594)"/>
      <path id="Trazado_879600" data-name="Trazado 879600" d="M142.049,314c1.474,0,2.673-1.991,2.673-4.438s-1.2-4.437-2.673-4.437-2.673,1.99-2.673,4.437S140.575,314,142.049,314Z" transform="translate(-121.36 -241.063)"/>
      <path id="Trazado_879601" data-name="Trazado 879601" d="M349.83,305.122c-1.474,0-2.673,1.99-2.673,4.437s1.2,4.438,2.673,4.438,2.673-1.991,2.673-4.438S351.3,305.122,349.83,305.122Z" transform="translate(-285.519 -241.063)"/>
      <path id="Trazado_879602" data-name="Trazado 879602" d="M144.378,41.028a7.911,7.911,0,0,1-4.771-1.037,1.575,1.575,0,1,0-1.494,2.772,10.1,10.1,0,0,0,4.7,1.385v.971a1.575,1.575,0,0,0,3.149,0V44.035a6.763,6.763,0,0,0,5.739-5.458c.392-2.806-1.4-5.216-4.578-6.14a23.783,23.783,0,0,1-5.512-2.121,1.273,1.273,0,0,1-.538-1.342,2.45,2.45,0,0,1,1.968-1.885,6.971,6.971,0,0,1,1.435-.2l.036,0a5.526,5.526,0,0,1,3.226.834,1.575,1.575,0,0,0,1.892-2.517,8.329,8.329,0,0,0-3.67-1.38v-.842a1.575,1.575,0,0,0-3.149,0v.938c-.174.034-.35.071-.529.115a5.634,5.634,0,0,0-4.316,4.424,4.407,4.407,0,0,0,1.935,4.5,24.4,24.4,0,0,0,6.34,2.5c1.658.482,2.511,1.459,2.34,2.68C148.322,40,146.222,41.018,144.378,41.028Z" transform="translate(-119.709 -16.91)"/>
    </g>
  </g>
</svg>
