<svg xmlns="http://www.w3.org/2000/svg" width="100" height="100" viewBox="0 0 100 100">
  <g id="Grupo_1102934" data-name="Grupo 1102934" transform="translate(-385 -1751)">
    <circle id="Elipse_11894" data-name="Elipse 11894" cx="50" cy="50" r="50" transform="translate(385 1751)" fill="#e8faf9"/>
    <g id="Grupo_1102933" data-name="Grupo 1102933" transform="translate(403 1769)">
      <path id="Trazado_879610" data-name="Trazado 879610" d="M46,47V42a2.006,2.006,0,0,0-2-2H43V36.49a1.994,1.994,0,0,0-2.43-1.95L16,40V60a2.006,2.006,0,0,0,2,2H44a2.006,2.006,0,0,0,2-2V55h2V47Z" fill="#8ea0b3"/>
      <path id="Trazado_879611" data-name="Trazado 879611" d="M44,40H16V60a2.006,2.006,0,0,0,2,2H44a2.006,2.006,0,0,0,2-2V42A2.006,2.006,0,0,0,44,40Z" fill="#67cc6d"/>
      <path id="Trazado_879612" data-name="Trazado 879612" d="M40,47h8v8H40a1,1,0,0,1-1-1V48A1,1,0,0,1,40,47Z" fill="#f2f2f2"/>
      <g id="Grupo_1102933-2" data-name="Grupo 1102933">
        <circle id="Elipse_11891" data-name="Elipse 11891" cx="7" cy="7" r="7" transform="translate(25 2)" fill="#fc6"/>
        <circle id="Elipse_11892" data-name="Elipse 11892" cx="7" cy="7" r="7" transform="translate(2 2)" fill="#fc6"/>
        <circle id="Elipse_11893" data-name="Elipse 11893" cx="7" cy="7" r="7" transform="translate(48 2)" fill="#fc6"/>
      </g>
      <path id="Trazado_879613" data-name="Trazado 879613" d="M32,1a8,8,0,1,0,8,8A8.011,8.011,0,0,0,32,1Zm0,14a6,6,0,1,1,6-6A6,6,0,0,1,32,15Z"/>
      <path id="Trazado_879614" data-name="Trazado 879614" d="M31.5,7h1a.5.5,0,0,1,.5.5h2a2.5,2.5,0,0,0-2-2.45V4H31V5.05A2.5,2.5,0,0,0,31.5,10h1a.5.5,0,0,1,0,1h-1a.5.5,0,0,1-.5-.5H29a2.5,2.5,0,0,0,2,2.45V14h2V12.95A2.5,2.5,0,0,0,32.5,8h-1a.5.5,0,0,1,0-1Z"/>
      <path id="Trazado_879615" data-name="Trazado 879615" d="M17,9a8,8,0,1,0-8,8A8.011,8.011,0,0,0,17,9ZM9,15a6,6,0,1,1,6-6A6,6,0,0,1,9,15Z"/>
      <path id="Trazado_879616" data-name="Trazado 879616" d="M8.5,7h1a.5.5,0,0,1,.5.5h2a2.5,2.5,0,0,0-2-2.45V4H8V5.05A2.5,2.5,0,0,0,8.5,10h1a.5.5,0,0,1,0,1h-1a.5.5,0,0,1-.5-.5H6a2.5,2.5,0,0,0,2,2.45V14h2V12.95A2.5,2.5,0,0,0,9.5,8h-1a.5.5,0,0,1,0-1Z"/>
      <path id="Trazado_879617" data-name="Trazado 879617" d="M55,1a8,8,0,1,0,8,8A8.011,8.011,0,0,0,55,1Zm0,14a6,6,0,1,1,6-6A6,6,0,0,1,55,15Z"/>
      <path id="Trazado_879618" data-name="Trazado 879618" d="M54.5,7h1a.5.5,0,0,1,.5.5h2a2.5,2.5,0,0,0-2-2.45V4H54V5.05A2.5,2.5,0,0,0,54.5,10h1a.5.5,0,0,1,0,1h-1a.5.5,0,0,1-.5-.5H52a2.5,2.5,0,0,0,2,2.45V14h2V12.95A2.5,2.5,0,0,0,55.5,8h-1a.5.5,0,0,1,0-1Z"/>
      <path id="Trazado_879619" data-name="Trazado 879619" d="M42.88,34.15a2.993,2.993,0,0,0-2.53-.59L15.78,39.02v.02A.987.987,0,0,0,15,40V60a3.009,3.009,0,0,0,3,3H44a3.009,3.009,0,0,0,3-3V56h1a1,1,0,0,0,1-1V47a1,1,0,0,0-1-1H47V42a3.009,3.009,0,0,0-3-3V36.49a3,3,0,0,0-1.12-2.34Zm-2.09,1.36a.951.951,0,0,1,.84.2.976.976,0,0,1,.37.78V39H25.11l15.67-3.48Zm6.22,12.48v6h-7v-6Zm-2-6v4h-5a2.006,2.006,0,0,0-2,2v6a2.006,2.006,0,0,0,2,2h5v4a1,1,0,0,1-1,1h-26a1,1,0,0,1-1-1v-19h27A1,1,0,0,1,45.01,41.99Z"/>
      <path id="Trazado_879620" data-name="Trazado 879620" d="M42,50h2v2H42Z"/>
      <path id="Trazado_879621" data-name="Trazado 879621" d="M31,20v8l-1.2-1.6-1.6,1.2,3,4a1,1,0,0,0,1.6,0l3-4-1.6-1.2L33,28V20Z"/>
      <path id="Trazado_879622" data-name="Trazado 879622" d="M51.21,20.52l-4.51,7.4-.19-1.99-1.99.19L45,31.1a1.022,1.022,0,0,0,.48.76.98.98,0,0,0,.52.15.937.937,0,0,0,.37-.07l4.64-1.86-.74-1.86-1.86.74,4.51-7.4Z"/>
      <path id="Trazado_879623" data-name="Trazado 879623" d="M12.99,30.07l4.64,1.86a.991.991,0,0,0,.89-.08,1.032,1.032,0,0,0,.48-.76l.48-4.98-1.99-.19-.19,1.99-4.51-7.4-1.71,1.04,4.51,7.4-1.86-.74Z"/>
    </g>
  </g>
</svg>
