<svg xmlns="http://www.w3.org/2000/svg" width="100" height="100" viewBox="0 0 100 100">
  <g id="Grupo_1102936" data-name="Grupo 1102936" transform="translate(-750 -1751)">
    <circle id="Elipse_11895" data-name="Elipse 11895" cx="50" cy="50" r="50" transform="translate(750 1751)" fill="#e8faf9"/>
    <g id="Grupo_1102935" data-name="Grupo 1102935" transform="translate(768.213 1767.764)">
      <path id="Trazado_879624" data-name="Trazado 879624" d="M117.858,122.6a19.187,19.187,0,0,0-10.222-13.157v-7.658a1.075,1.075,0,0,0-1.213-1.068,9.173,9.173,0,0,0-7.645,6.73H86.661a19.364,19.364,0,0,0-19.346,19.207,19.118,19.118,0,0,0,7.445,15.1,68.108,68.108,0,0,0,.663,7.679,4.289,4.289,0,0,0,8.5,0c.156-1.116.313-2.416.437-3.8a19.3,19.3,0,0,0,2.115.119H99.124c.494,0,.984-.02,1.47-.056.12,1.319.27,2.563.419,3.641a4.353,4.353,0,0,0,4.237,3.789,4.288,4.288,0,0,0,4.271-3.7,69.593,69.593,0,0,0,.649-7.187,19.236,19.236,0,0,0,6.582-8.152.888.888,0,0,1,.818-.541H121.3a1.875,1.875,0,0,0,1.875-1.875v-7.206A1.875,1.875,0,0,0,121.3,122.6Zm0,0" transform="translate(-58.576 -87.634)" fill="#ffd2c0"/>
      <path id="Trazado_879625" data-name="Trazado 879625" d="M352.674,269.328h-1.063c0,.048.008.1.008.143v7.207a1.875,1.875,0,0,1-1.875,1.874h-3.8a.783.783,0,0,0-.722.478,19.234,19.234,0,0,1-6.3,7.99.793.793,0,0,0-.325.608c-.1,2.465-.371,4.9-.636,6.8a4.288,4.288,0,0,1-4.271,3.7,4.239,4.239,0,0,1-.484-.031,4.268,4.268,0,0,0,7.685-1.934,69.854,69.854,0,0,0,.649-7.186,19.236,19.236,0,0,0,6.581-8.152.889.889,0,0,1,.818-.541h3.732a1.875,1.875,0,0,0,1.874-1.874V271.2a1.875,1.875,0,0,0-1.874-1.875Zm0,0" transform="translate(-289.947 -234.361)" fill="#edaa9d"/>
      <path id="Trazado_879626" data-name="Trazado 879626" d="M160.165,435.3H146.036a19.447,19.447,0,0,1-2.116-.119c-.124,1.38-.281,2.68-.437,3.8a4.289,4.289,0,0,1-7.716,1.931,4.193,4.193,0,0,0,.538.034,4.288,4.288,0,0,0,4.248-3.7c.156-1.116.312-2.416.437-3.8a19.446,19.446,0,0,0,2.116.119s12.186-.013,16.919-.037c.039.6.087,1.192.14,1.768Zm0,0" transform="translate(-118.14 -377.177)" fill="#edaa9d"/>
      <path id="Trazado_879627" data-name="Trazado 879627" d="M182.214,86.657a7.949,7.949,0,0,1-3.793,6.781h-6.507c-.134,0-.269,0-.4.006-.425.011-.847.04-1.265.086a7.958,7.958,0,1,1,11.968-6.873Zm0,0" transform="translate(-144.71 -68.482)" fill="#ffcd34"/>
      <path id="Trazado_879628" data-name="Trazado 879628" d="M194.242,83.555a7.958,7.958,0,0,1-8.547,13.132,7.987,7.987,0,0,0,1.432,1.068c1.128-.124,1.181-.091,8.17-.092,5.373-3.306,5.373-10.884-1.054-14.109Zm0,0" transform="translate(-161.586 -72.707)" fill="#e69012"/>
      <path id="Trazado_879629" data-name="Trazado 879629" d="M46.891,15.457A7.957,7.957,0,1,1,38.934,7.5a7.957,7.957,0,0,1,7.957,7.957Zm0,0" transform="translate(-26.956 -6.527)" fill="#ffcd34"/>
      <path id="Trazado_879630" data-name="Trazado 879630" d="M58.918,12.355a7.958,7.958,0,0,1-8.547,13.132,7.957,7.957,0,1,0,8.547-13.132Zm0,0" transform="translate(-43.832 -10.752)" fill="#e69012"/>
      <path id="Trazado_879631" data-name="Trazado 879631" d="M393.033,232.849a.974.974,0,0,0,.974-.974v-2.186a.974.974,0,0,0-1.948,0v2.186A.973.973,0,0,0,393.033,232.849Zm0,0" transform="translate(-341.158 -199.021)"/>
      <path id="Trazado_879632" data-name="Trazado 879632" d="M140.945,95.949h-2.672a20.161,20.161,0,0,0-10.02-12.776V76.107a2.05,2.05,0,0,0-2.314-2.033A10.09,10.09,0,0,0,117.7,80.8h-1.028q.024-.331.024-.666a8.931,8.931,0,1,0-17.631,2.006,20.44,20.44,0,0,0-8.978,6.727.974.974,0,0,0,1.549,1.181,18.5,18.5,0,0,1,8.074-6.07,9.023,9.023,0,0,0,1.736,2.462c-.1.026-.2.053-.3.081a.974.974,0,1,0,.519,1.877,14.066,14.066,0,0,1,2.2-.424c1.111-.122.466-.085,11.758-.086a.974.974,0,1,0,0-1.947H114.56a8.826,8.826,0,0,0,1.753-3.194h2.108a.974.974,0,0,0,.941-.724,8.151,8.151,0,0,1,6.831-6.014.09.09,0,0,1,.077.024.1.1,0,0,1,.035.078v7.659a.973.973,0,0,0,.54.872,18.328,18.328,0,0,1,9.7,12.488.973.973,0,0,0,.952.771h3.444a.9.9,0,0,1,.9.9V106a.9.9,0,0,1-.9.9h-3.733a1.864,1.864,0,0,0-1.714,1.134,18.373,18.373,0,0,1-1,1.992.973.973,0,1,0,1.685.976,20.1,20.1,0,0,0,1.081-2.154h3.676A2.851,2.851,0,0,0,143.794,106V98.8a2.852,2.852,0,0,0-2.849-2.849ZM103.985,86a6.977,6.977,0,1,1,10.63-4.5,1.014,1.014,0,0,0-.027.131,6.931,6.931,0,0,1-2.943,4.3C105.606,85.958,105.223,85.891,103.985,86Zm0,0" transform="translate(-78.219 -61.955)"/>
      <path id="Trazado_879633" data-name="Trazado 879633" d="M55.341,252.485a.973.973,0,0,0-1.375.062,18.372,18.372,0,0,1-2.933,2.589.972.972,0,0,0-.411.763,67.605,67.605,0,0,1-.641,7.084A3.326,3.326,0,0,1,46.7,265.84h-.018a3.382,3.382,0,0,1-3.267-2.874c-.174-1.255-.314-2.471-.418-3.616-.056-.605-.1-1.191-.138-1.742-.038-.6-.066-1.178-.084-1.732a.974.974,0,0,0-1.946.061c.018.575.047,1.179.087,1.8.015.237.032.48.052.727-.139,0-.278.005-.416.005H27.894a18.463,18.463,0,0,1-2.009-.113.974.974,0,0,0-1.076.881c-.109,1.21-.254,2.471-.432,3.749a3.315,3.315,0,0,1-6.567,0c0-.027-.008-.054-.011-.081,0-.01,0-.02,0-.029s0-.018,0-.027c-.193-1.4-.415-3.295-.542-5.3a31.409,31.409,0,0,1,.27-7.718.974.974,0,0,0-1.912-.37,24.568,24.568,0,0,0-.392,3.852,18.05,18.05,0,0,1-5.5-12.979c0-.08,0-.16,0-.24v-.029a17.659,17.659,0,0,1,1.681-7.327.974.974,0,1,0-1.763-.826,19.583,19.583,0,0,0-1.83,7.177c-2.807.045-4.78.641-6.17,1.852a4.308,4.308,0,0,0-1.452,4.537,3.072,3.072,0,0,0,5.145,1.453,2.643,2.643,0,0,0,.779-2.18A.974.974,0,1,0,4.172,245a.744.744,0,0,1-.238.57,1.019,1.019,0,0,1-.789.322,1.333,1.333,0,0,1-1.108-1,2.366,2.366,0,0,1,.875-2.484c1-.875,2.6-1.326,4.867-1.37a20,20,0,0,0,7.441,14.88,70.019,70.019,0,0,0,.661,7.333,5.263,5.263,0,0,0,10.425,0c.135-.973.253-1.937.349-2.877.419.026.833.04,1.239.04H40.547c.2,0,.393,0,.591-.009.093.9.2,1.824.333,2.753,0,.03.009.061.014.092h0l0,.029a5.339,5.339,0,0,0,5.179,4.508H46.7a5.28,5.28,0,0,0,5.213-4.536c.34-2.44.555-4.729.641-6.812a20.29,20.29,0,0,0,2.852-2.579.974.974,0,0,0-.061-1.376Zm0,0" transform="translate(0 -201.314)"/>
      <path id="Trazado_879634" data-name="Trazado 879634" d="M207.117,102.518h-1.345a.534.534,0,1,1,0-1.069h2.575a.974.974,0,1,0,0-1.947h-.784V99.02a.974.974,0,0,0-1.947,0v.487a2.482,2.482,0,0,0,.156,4.958h1.345a.534.534,0,1,1,0,1.068h-2.575a.974.974,0,1,0,0,1.947h1.074v.482a.974.974,0,1,0,1.947,0v-.522a2.482,2.482,0,0,0-.446-4.923Zm0,0" transform="translate(-176.897 -85.317)"/>
      <path id="Trazado_879635" data-name="Trazado 879635" d="M32.407,17.861A8.931,8.931,0,1,0,27.413,1.526.974.974,0,0,0,28.5,3.14a6.973,6.973,0,1,1-2.32,2.62.974.974,0,0,0-1.734-.885,8.934,8.934,0,0,0,7.958,12.987Zm0,0" transform="translate(-20.429)"/>
      <path id="Trazado_879636" data-name="Trazado 879636" d="M71.268,26.848a.974.974,0,0,0-.974.974v.487a2.482,2.482,0,0,0,.156,4.958H71.8a.534.534,0,0,1,0,1.068H69.221a.974.974,0,1,0,0,1.947h1.074v.482a.974.974,0,1,0,1.947,0v-.522a2.482,2.482,0,0,0-.446-4.923H70.45a.534.534,0,1,1,0-1.068h2.575a.974.974,0,1,0,0-1.947h-.783v-.482a.974.974,0,0,0-.974-.974Zm0,0" transform="translate(-59.145 -23.362)"/>
    </g>
  </g>
</svg>
