<svg xmlns="http://www.w3.org/2000/svg" width="100" height="100" viewBox="0 0 100 100">
  <g id="Grupo_1102940" data-name="Grupo 1102940" transform="translate(-1116 -1751)">
    <circle id="Elipse_11896" data-name="Elipse 11896" cx="50" cy="50" r="50" transform="translate(1116 1751)" fill="#e8faf9"/>
    <g id="Grupo_1102939" data-name="Grupo 1102939" transform="translate(1109.904 1767.227)">
      <g id="Grupo_1102937" data-name="Grupo 1102937" transform="translate(26.704 0.989)">
        <path id="Trazado_879637" data-name="Trazado 879637" d="M107.194,22.5a1.979,1.979,0,0,0-1.979,1.979v3.012h24.539V24.479a1.979,1.979,0,0,0-1.979-1.979Z" transform="translate(-95.716 -20.521)" fill="#dbd9dc"/>
        <path id="Trazado_879638" data-name="Trazado 879638" d="M252.156,24.479v3.012H248.2V24.479a1.98,1.98,0,0,0-1.979-1.979h3.958A1.98,1.98,0,0,1,252.156,24.479Z" transform="translate(-218.117 -20.521)" fill="#c9c6ca"/>
        <path id="Trazado_879639" data-name="Trazado 879639" d="M76.752,108.834a3.3,3.3,0,0,1-3.3,3.3H36.513a3.3,3.3,0,0,1-3.3-3.3V55.8a3.3,3.3,0,0,1,3.3-3.3H73.454a3.3,3.3,0,0,1,3.3,3.3Z" transform="translate(-33.215 -46.563)" fill="#d19a6e"/>
        <path id="Trazado_879640" data-name="Trazado 879640" d="M315.475,55.8v53.036a3.3,3.3,0,0,1-3.3,3.3h-3.958a3.3,3.3,0,0,0,3.3-3.3V55.8a3.3,3.3,0,0,0-3.3-3.3h3.958A3.3,3.3,0,0,1,315.475,55.8Z" transform="translate(-271.938 -46.563)" fill="#bc845e"/>
        <path id="Trazado_879641" data-name="Trazado 879641" d="M98.836,133.557a.66.66,0,0,1-.66.66h-34.3a.66.66,0,0,1-.66-.66V83.16a.66.66,0,0,1,.66-.66h34.3a.66.66,0,0,1,.66.66Z" transform="translate(-59.257 -72.605)" fill="#fff"/>
        <path id="Trazado_879642" data-name="Trazado 879642" d="M173.339,19.374h-5.8a1.319,1.319,0,0,1-1.319-1.319V8.819A1.319,1.319,0,0,1,167.534,7.5h5.8a1.319,1.319,0,0,1,1.319,1.319v9.235A1.319,1.319,0,0,1,173.339,19.374Z" transform="translate(-148.668 -7.5)" fill="#f4f4f4"/>
        <path id="Trazado_879643" data-name="Trazado 879643" d="M195.5,8.819v9.235a1.32,1.32,0,0,1-1.319,1.319h-3.958a1.32,1.32,0,0,0,1.319-1.319V8.819A1.32,1.32,0,0,0,190.219,7.5h3.958A1.32,1.32,0,0,1,195.5,8.819Z" transform="translate(-169.505 -7.5)" fill="#edebed"/>
        <path id="Trazado_879644" data-name="Trazado 879644" d="M110.142,373.458a1.979,1.979,0,1,1,1.979-1.979A1.979,1.979,0,0,1,110.142,373.458Z" transform="translate(-98.275 -321.741)" fill="#ffe07d"/>
        <path id="Trazado_879645" data-name="Trazado 879645" d="M110.142,298.458a1.979,1.979,0,1,1,1.979-1.979A1.979,1.979,0,0,1,110.142,298.458Z" transform="translate(-98.275 -256.636)" fill="#ffe07d"/>
        <path id="Trazado_879646" data-name="Trazado 879646" d="M98.84,444.5v3.3a.66.66,0,0,1-.66.66h-34.3a.659.659,0,0,1-.66-.66v-3.3Z" transform="translate(-59.261 -386.846)" fill="#f4f4f4"/>
        <path id="Trazado_879647" data-name="Trazado 879647" d="M433.246,158.826l2.379-2.379a1.265,1.265,0,0,1,1.819.047l1.4,1.4a1.265,1.265,0,0,1,.047,1.819l-2.379,2.379-3.265.182Z" transform="translate(-380.47 -136.48)" fill="#edebed"/>
        <path id="Trazado_879648" data-name="Trazado 879648" d="M270.9,172.854a1.924,1.924,0,0,1,2.752.047l3.265,3.265a1.924,1.924,0,0,1,.047,2.752l-21.5,21.5-4.477-1.117-1.586-4.946Z" transform="translate(-220.878 -150.556)" fill="#7bb1ff"/>
        <path id="Trazado_879649" data-name="Trazado 879649" d="M298.446,185.958l-21.5,21.5-2.8-2.8,21.5-21.5a1.923,1.923,0,0,0-.047-2.752l2.8,2.8A1.923,1.923,0,0,1,298.446,185.958Z" transform="translate(-242.358 -157.595)" fill="#62a5f4"/>
        <path id="Trazado_879650" data-name="Trazado 879650" d="M0,0H3.826V8.575H0Z" transform="translate(35.23 37.086) rotate(-45)" fill="#bde4ff"/>
        <path id="Trazado_879651" data-name="Trazado 879651" d="M0,0H3.958V3.826H0Z" transform="translate(41.208 37.635) rotate(45)" fill="#99dbff"/>
        <path id="Trazado_879652" data-name="Trazado 879652" d="M236.44,345.571l-6.064-6.064-2.852,8.074a.66.66,0,0,0,.842.842Z" transform="translate(-201.855 -295.705)" fill="#edebed"/>
        <path id="Trazado_879653" data-name="Trazado 879653" d="M249.725,367.054l-4.136,1.461-2.8-2.8,4.137-1.461Z" transform="translate(-215.141 -317.188)" fill="#dbd9dc"/>
        <path id="Trazado_879654" data-name="Trazado 879654" d="M232.3,374.249l-3.938,1.391a.66.66,0,0,1-.842-.842l1.391-3.938Z" transform="translate(-201.855 -322.922)" fill="#6f6571"/>
        <path id="Trazado_879655" data-name="Trazado 879655" d="M232.3,378.133l-3.938,1.391a.661.661,0,0,1-.629-.1.654.654,0,0,1-.213-.737l1.069-3.024.912-.323Z" transform="translate(-201.853 -326.806)" fill="#5d5360"/>
      </g>
      <g id="Grupo_1102938" data-name="Grupo 1102938" transform="translate(25.715 0)">
        <path id="Trazado_879656" data-name="Trazado 879656" d="M94.516,125.207c-.284-.1-.574-.206-.864-.315v-4.635a2.984,2.984,0,0,1,1.2.575.99.99,0,0,0,1.335-1.461,5.079,5.079,0,0,0-2.53-1.129V117.3a.989.989,0,1,0-1.979,0v1.019c-.144.032-.291.068-.441.114a4.009,4.009,0,0,0-2.746,3.145,3.53,3.53,0,0,0,1.156,3.479,9.489,9.489,0,0,0,2.031,1.163V132.1a4.04,4.04,0,0,1-2.136-.8.989.989,0,0,0-1.083,1.656,5.911,5.911,0,0,0,3.22,1.13v1.057a.989.989,0,1,0,1.979,0v-1.135a4.821,4.821,0,0,0,3.778-3.954A4.234,4.234,0,0,0,94.516,125.207ZM90.864,123.5a1.578,1.578,0,0,1-.433-1.555,2.075,2.075,0,0,1,1.242-1.571v3.645A5.872,5.872,0,0,1,90.864,123.5Zm4.615,6.224a2.884,2.884,0,0,1-1.827,2.225V127l.2.073A2.287,2.287,0,0,1,95.479,129.723Z" transform="translate(-79.787 -100.965)"/>
        <path id="Trazado_879657" data-name="Trazado 879657" d="M177.205,236.979h4.42a.989.989,0,1,0,0-1.979h-4.42a.989.989,0,1,0,0,1.979Z" transform="translate(-156.36 -203.996)"/>
        <path id="Trazado_879658" data-name="Trazado 879658" d="M177.205,206.979h7.058a.989.989,0,1,0,0-1.979h-7.058a.989.989,0,1,0,0,1.979Z" transform="translate(-156.36 -177.954)"/>
        <path id="Trazado_879659" data-name="Trazado 879659" d="M177.205,176.979h9.7a.989.989,0,1,0,0-1.979h-9.7a.989.989,0,1,0,0,1.979Z" transform="translate(-156.36 -151.912)"/>
        <path id="Trazado_879660" data-name="Trazado 879660" d="M177.205,146.979H192.18a.989.989,0,0,0,0-1.979H177.205a.989.989,0,1,0,0,1.979Z" transform="translate(-156.36 -125.87)"/>
        <path id="Trazado_879661" data-name="Trazado 879661" d="M85.778,21.7l-1.4-1.4a2.253,2.253,0,0,0-3.218-.047l-1.8,1.8a2.941,2.941,0,0,0-1.236-.309,2.852,2.852,0,0,0-2.1.846h0l-4.8,4.8V10.225a4.293,4.293,0,0,0-4.288-4.288H61.732V4.947a2.972,2.972,0,0,0-2.968-2.968H53.658A2.31,2.31,0,0,0,51.375,0h-5.8a2.31,2.31,0,0,0-2.282,1.979H38.182a2.972,2.972,0,0,0-2.968,2.968v.989H30a4.293,4.293,0,0,0-4.288,4.288v43.8a.989.989,0,0,0,1.979,0v-43.8A2.311,2.311,0,0,1,30,7.916H43.262V9.895H31.322a1.651,1.651,0,0,0-1.649,1.649v50.4a1.651,1.651,0,0,0,1.649,1.649h34.3a1.651,1.651,0,0,0,1.649-1.649V46.27l1.979-1.979V63.261a2.311,2.311,0,0,1-2.309,2.309H30a2.311,2.311,0,0,1-2.309-2.309V58.643a.989.989,0,1,0-1.979,0v4.618A4.293,4.293,0,0,0,30,67.548H66.943a4.293,4.293,0,0,0,4.288-4.288V42.313L83.492,30.051a2.85,2.85,0,0,0,.846-2.1,2.941,2.941,0,0,0-.309-1.236l1.8-1.8A2.252,2.252,0,0,0,85.778,21.7ZM59.753,4.947V6.926a.989.989,0,0,0,.989.989h6.2a2.311,2.311,0,0,1,2.309,2.309V29.365l-1.979,1.979v-19.8a1.651,1.651,0,0,0-1.649-1.649H53.684V7.916h2.441a.989.989,0,1,0,0-1.979H53.684V3.958h5.079a.991.991,0,0,1,.989.989Zm8.253,37.791-4.664-4.664,1.306-1.306,4.664,4.664Zm-6.717,6.717-4.664-4.664,5.317-5.317,4.664,4.665Zm-7.115,1.281,1.169,1.169-1.807.638Zm3.237.438-2.506-2.506.73-2.068,3.844,3.844ZM45.241,2.309a.33.33,0,0,1,.33-.33h5.8a.33.33,0,0,1,.33.33v9.235a.33.33,0,0,1-.33.33h-5.8a.33.33,0,0,1-.33-.33ZM37.193,5.937V4.947a.991.991,0,0,1,.989-.989h5.079V5.937ZM31.652,61.612V59.633H65.294v1.979Zm33.642-3.958H31.652V11.874H43.288a2.31,2.31,0,0,0,2.282,1.979h5.8a2.31,2.31,0,0,0,2.282-1.979H65.294V33.246c0,.025,0,.049,0,.073L54.526,44.092a1,1,0,0,0-.233.37L51.44,52.536a1.636,1.636,0,0,0,.389,1.715,1.653,1.653,0,0,0,1.715.389l8.074-2.852a1,1,0,0,0,.37-.233l3.305-3.305v9.4Zm16.8-29L70.712,40.033l-4.664-4.664L77.428,23.988a.935.935,0,0,1,1.353.047L82.046,27.3a.935.935,0,0,1,.047,1.353Zm2.332-5.131L82.746,25.2,80.88,23.335l1.679-1.679a.28.28,0,0,1,.42.047l1.4,1.4C84.4,23.125,84.606,23.34,84.425,23.521Z" transform="translate(-25.715 0)"/>
        <path id="Trazado_879662" data-name="Trazado 879662" d="M103.632,362a2.968,2.968,0,1,0,2.968,2.968A2.972,2.972,0,0,0,103.632,362Zm0,3.958a.99.99,0,1,1,.989-.99A.991.991,0,0,1,103.632,365.958Z" transform="translate(-90.776 -314.241)"/>
        <path id="Trazado_879663" data-name="Trazado 879663" d="M165.545,392h-3.892a.989.989,0,0,0,0,1.979h3.892a.989.989,0,1,0,0-1.979Z" transform="translate(-142.86 -340.283)"/>
        <path id="Trazado_879664" data-name="Trazado 879664" d="M165.545,362h-3.892a.989.989,0,1,0,0,1.979h3.892a.989.989,0,1,0,0-1.979Z" transform="translate(-142.86 -314.241)"/>
        <path id="Trazado_879665" data-name="Trazado 879665" d="M103.632,287a2.968,2.968,0,1,0,2.968,2.968A2.972,2.972,0,0,0,103.632,287Zm0,3.958a.989.989,0,1,1,.989-.989A.99.99,0,0,1,103.632,290.958Z" transform="translate(-90.776 -249.136)"/>
        <path id="Trazado_879666" data-name="Trazado 879666" d="M165.545,317h-3.892a.989.989,0,1,0,0,1.979h3.892a.989.989,0,1,0,0-1.979Z" transform="translate(-142.86 -275.178)"/>
        <path id="Trazado_879667" data-name="Trazado 879667" d="M161.653,288.979h9.169a.989.989,0,0,0,0-1.979h-9.169a.989.989,0,0,0,0,1.979Z" transform="translate(-142.86 -249.136)"/>
      </g>
    </g>
  </g>
</svg>
