<svg xmlns="http://www.w3.org/2000/svg" width="80" height="80" viewBox="0 0 80 80">
  <g id="Grupo_1100506" data-name="Grupo 1100506" transform="translate(-505.051 -775)">
    <rect id="Rectángulo_401666" data-name="Rectángulo 401666" width="80" height="80" rx="8" transform="translate(505.051 775)" fill="#efddcf"/>
    <g id="Grupo_1100505" data-name="Grupo 1100505" transform="translate(516.046 786.199)">
      <g id="Grupo_1100481" data-name="Grupo 1100481" transform="translate(1.354 1.125)">
        <g id="Grupo_1100475" data-name="Grupo 1100475" transform="translate(31.594 4.995)">
          <path id="Trazado_875264" data-name="Trazado 875264" d="M314.758,57.823V73.635a3.423,3.423,0,0,1-3.422,3.422H291.051V54.4h20.285A3.423,3.423,0,0,1,314.758,57.823Z" transform="translate(-291.051 -54.401)" fill="#fdc051" fill-rule="evenodd"/>
        </g>
        <g id="Grupo_1100476" data-name="Grupo 1100476" transform="translate(31.594 10.436)">
          <path id="Trazado_875265" data-name="Trazado 875265" d="M291.051,102.762h23.707v6.185H291.051Z" transform="translate(-291.051 -102.762)" fill="#8690af" fill-rule="evenodd"/>
        </g>
        <g id="Grupo_1100477" data-name="Grupo 1100477">
          <path id="Trazado_875266" data-name="Trazado 875266" d="M36.506,10H15.545a5.316,5.316,0,0,0-5.316,5.316v44.72a5.316,5.316,0,0,0,5.316,5.316H36.506a5.316,5.316,0,0,0,5.316-5.316V15.316A5.316,5.316,0,0,0,36.506,10Z" transform="translate(-10.229 -10)" fill="#e6e8ef" fill-rule="evenodd"/>
        </g>
        <g id="Grupo_1100478" data-name="Grupo 1100478" transform="translate(4.931 7.712)">
          <path id="Trazado_875267" data-name="Trazado 875267" d="M54.062,78.547H75.793V95.77H54.062Z" transform="translate(-54.062 -78.547)" fill="#8cde92" fill-rule="evenodd"/>
        </g>
        <g id="Grupo_1100479" data-name="Grupo 1100479" transform="translate(26.662 7.712)">
          <path id="Trazado_875268" data-name="Trazado 875268" d="M247.218,78.547h4.931V95.77h-4.931Z" transform="translate(-247.218 -78.547)" fill="#8690af" fill-rule="evenodd"/>
        </g>
        <g id="Grupo_1100480" data-name="Grupo 1100480" transform="translate(0 7.712)">
          <path id="Trazado_875269" data-name="Trazado 875269" d="M10.229,78.547H15.16V95.77H10.229Z" transform="translate(-10.229 -78.547)" fill="#8690af" fill-rule="evenodd"/>
        </g>
      </g>
      <g id="Grupo_1100482" data-name="Grupo 1100482" transform="translate(0.229)">
        <path id="Trazado_875270" data-name="Trazado 875270" d="M53.232,5H33.907a6.451,6.451,0,0,0-6.276-5H6.67A6.449,6.449,0,0,0,.229,6.441v44.72A6.449,6.449,0,0,0,6.67,57.6h5.418a1.125,1.125,0,1,0,0-2.25H6.67a4.2,4.2,0,0,1-4.191-4.191V27.185H31.823V51.161a4.2,4.2,0,0,1-4.191,4.191H22.214a1.125,1.125,0,1,0,0,2.25h5.418a6.449,6.449,0,0,0,6.441-6.441V29.9h19.16a4.553,4.553,0,0,0,4.548-4.548V9.543A4.553,4.553,0,0,0,53.232,5Zm2.3,4.548v.893H34.073V7.245h19.16a2.3,2.3,0,0,1,2.3,2.3Zm0,7.078H34.073V12.686H55.53ZM6.67,2.25H27.631a4.2,4.2,0,0,1,4.191,4.191V7.712H2.479V6.441A4.2,4.2,0,0,1,6.67,2.25ZM2.479,9.962H5.16V24.935H2.479Zm4.932,0H26.891V24.935H7.411ZM29.141,24.935V9.962h2.681V24.935H29.141Zm24.091,2.717H34.073V18.871H55.53v6.483A2.3,2.3,0,0,1,53.232,27.652Z" transform="translate(-0.229)"/>
        <path id="Trazado_875271" data-name="Trazado 875271" d="M413.827,196.594h-4.013a1.125,1.125,0,0,0,0,2.25h4.013a1.125,1.125,0,0,0,0-2.25Z" transform="translate(-362.736 -174.476)"/>
        <path id="Trazado_875272" data-name="Trazado 875272" d="M125.792,430.557h-4.637a1.125,1.125,0,1,0,0,2.25h4.637a1.125,1.125,0,0,0,0-2.25Z" transform="translate(-106.552 -382.118)"/>
        <path id="Trazado_875273" data-name="Trazado 875273" d="M125.792,388.945h-4.637a1.125,1.125,0,0,0,0,2.25h4.637a1.125,1.125,0,0,0,0-2.25Z" transform="translate(-106.552 -345.187)"/>
        <path id="Trazado_875274" data-name="Trazado 875274" d="M199.406,391.2h4.637a1.125,1.125,0,0,0,0-2.25h-4.637a1.125,1.125,0,0,0,0,2.25Z" transform="translate(-175.999 -345.187)"/>
        <path id="Trazado_875275" data-name="Trazado 875275" d="M47.541,388.945H42.9a1.125,1.125,0,0,0,0,2.25h4.637a1.125,1.125,0,0,0,0-2.25Z" transform="translate(-37.104 -345.187)"/>
        <path id="Trazado_875276" data-name="Trazado 875276" d="M125.792,347.333h-4.637a1.125,1.125,0,0,0,0,2.25h4.637a1.125,1.125,0,0,0,0-2.25Z" transform="translate(-106.552 -308.257)"/>
        <path id="Trazado_875277" data-name="Trazado 875277" d="M199.406,349.583h4.637a1.125,1.125,0,0,0,0-2.25h-4.637a1.125,1.125,0,0,0,0,2.25Z" transform="translate(-175.999 -308.257)"/>
        <path id="Trazado_875278" data-name="Trazado 875278" d="M47.541,347.333H42.9a1.125,1.125,0,0,0,0,2.25h4.637a1.125,1.125,0,0,0,0-2.25Z" transform="translate(-37.104 -308.257)"/>
        <path id="Trazado_875279" data-name="Trazado 875279" d="M125.792,305.721h-4.637a1.125,1.125,0,0,0,0,2.25h4.637a1.125,1.125,0,0,0,0-2.25Z" transform="translate(-106.552 -271.326)"/>
        <path id="Trazado_875280" data-name="Trazado 875280" d="M199.406,307.971h4.637a1.125,1.125,0,0,0,0-2.25h-4.637a1.125,1.125,0,0,0,0,2.25Z" transform="translate(-175.999 -271.326)"/>
        <path id="Trazado_875281" data-name="Trazado 875281" d="M47.541,305.721H42.9a1.125,1.125,0,0,0,0,2.25h4.637a1.125,1.125,0,0,0,0-2.25Z" transform="translate(-37.104 -271.326)"/>
        <path id="Trazado_875282" data-name="Trazado 875282" d="M125.792,264.109h-4.637a1.125,1.125,0,0,0,0,2.25h4.637a1.125,1.125,0,0,0,0-2.25Z" transform="translate(-106.552 -234.396)"/>
        <path id="Trazado_875283" data-name="Trazado 875283" d="M199.406,266.359h4.637a1.125,1.125,0,0,0,0-2.25h-4.637a1.125,1.125,0,0,0,0,2.25Z" transform="translate(-175.999 -234.396)"/>
        <path id="Trazado_875284" data-name="Trazado 875284" d="M47.541,264.109H42.9a1.125,1.125,0,0,0,0,2.25h4.637a1.125,1.125,0,0,0,0-2.25Z" transform="translate(-37.104 -234.396)"/>
        <path id="Trazado_875285" data-name="Trazado 875285" d="M117.374,125.161l-3.763,3.763-1.5-1.5a1.125,1.125,0,0,0-1.591,1.591l2.292,2.292a1.125,1.125,0,0,0,1.591,0l4.559-4.559a1.125,1.125,0,0,0-1.591-1.591Z" transform="translate(-97.822 -110.788)"/>
        <path id="Trazado_875286" data-name="Trazado 875286" d="M142.818,492.734a1.125,1.125,0,1,0-1.038,1.555A1.131,1.131,0,0,0,142.818,492.734Z" transform="translate(-124.858 -436.686)"/>
      </g>
    </g>
  </g>
</svg>
