<svg xmlns="http://www.w3.org/2000/svg" width="100" height="100" viewBox="0 0 100 100">
  <g id="Grupo_1102948" data-name="Grupo 1102948" transform="translate(-23947 9344)">
    <circle id="Elipse_11898" data-name="Elipse 11898" cx="50" cy="50" r="50" transform="translate(23947 -9344)" fill="#e8faf9"/>
    <g id="Fill_Outline" data-name="Fill Outline" transform="translate(23963.023 -9327.979)">
      <g id="Color" transform="translate(3.066 3.066)">
        <ellipse id="Elipse_11900" data-name="Elipse 11900" cx="3" cy="3.5" rx="3" ry="3.5" transform="translate(27.912 48.913)" fill="#f9dbaf"/>
        <path id="Trazado_879704" data-name="Trazado 879704" d="M32.2,55A3.2,3.2,0,0,0,29,58.2v3.2h6.4V58.2A3.2,3.2,0,0,0,32.2,55Z" transform="translate(-1.287 0.426)" fill="#f9dbaf"/>
        <path id="Trazado_879705" data-name="Trazado 879705" d="M41,59.4h6.4V53H43.132L41,56.2Z" transform="translate(-0.496 0.294)" fill="#ef5350"/>
        <path id="Trazado_879706" data-name="Trazado 879706" d="M47.4,53v6.4H41V56.2h1.066a3.2,3.2,0,0,0,3.2-3.2Z" transform="translate(-0.496 0.294)" fill="#e53935"/>
        <path id="Trazado_879707" data-name="Trazado 879707" d="M47,50H61.922v9.593H47Z" transform="translate(-0.101 0.097)" fill="#fcea42"/>
        <path id="Trazado_879708" data-name="Trazado 879708" d="M61.922,56.4v3.2H47V50h2.132a6.4,6.4,0,0,0,6.4,6.4Z" transform="translate(-0.101 0.097)" fill="#fdc741"/>
        <ellipse id="Elipse_11901" data-name="Elipse 11901" cx="2.5" cy="2" rx="2.5" ry="2" transform="translate(53.912 57.913)" fill="#656b76"/>
        <circle id="Elipse_11902" data-name="Elipse 11902" cx="2" cy="2" r="2" transform="translate(42.912 57.913)" fill="#656b76"/>
        <circle id="Elipse_11903" data-name="Elipse 11903" cx="1" cy="1" r="1" transform="translate(55.912 58.913)" fill="#d0d8da"/>
        <circle id="Elipse_11904" data-name="Elipse 11904" cx="1" cy="1" r="1" transform="translate(43.912 58.913)" fill="#d0d8da"/>
        <path id="Trazado_879709" data-name="Trazado 879709" d="M37.922,37H27.264A4.264,4.264,0,0,1,23,32.737V24.21a9.593,9.593,0,1,1,19.186,0v8.527A4.264,4.264,0,0,1,37.922,37Z" transform="translate(-1.682 -2.234)" fill="#fcea42"/>
        <path id="Trazado_879710" data-name="Trazado 879710" d="M42.186,32.737A4.264,4.264,0,0,1,37.922,37H27.264A4.264,4.264,0,0,1,23,32.737V24.21a9.593,9.593,0,0,1,9.593-9.593,9.486,9.486,0,0,1,5.521,1.759,2.155,2.155,0,0,1-1.215.373H31.644a3.268,3.268,0,0,0-3.315,3.166v3.23a9.593,9.593,0,0,0,9.593,9.593Z" transform="translate(-1.682 -2.234)" fill="#fdc741"/>
        <path id="Trazado_879711" data-name="Trazado 879711" d="M36.659,15.881H28.132a2.132,2.132,0,1,1,0-4.264h8.527a2.132,2.132,0,1,1,0,4.264Z" transform="translate(-1.485 -2.432)" fill="#48cae4"/>
        <path id="Trazado_879712" data-name="Trazado 879712" d="M39.988,4.724,37.465,3.463a3.4,3.4,0,0,0-3.371.191,3.4,3.4,0,0,1-3.394.18l-.909-.464a3.4,3.4,0,0,0-3.06-.012L24,4.724l.09.091a15.864,15.864,0,0,1,4.174,7.371h8.527a7.7,7.7,0,0,1,1.1-3.962Z" transform="translate(-1.616 -3)" fill="#fcea42"/>
        <path id="Trazado_879713" data-name="Trazado 879713" d="M38.791,13.749a2.148,2.148,0,0,1-2.132,2.132H28.132a2.132,2.132,0,1,1,0-4.264,2.138,2.138,0,0,0,2.132,2.132Z" transform="translate(-1.485 -2.432)" fill="#00b4d8"/>
        <path id="Trazado_879714" data-name="Trazado 879714" d="M37.132,9.922a7.548,7.548,0,0,0-.341,2.238H28.264a15.828,15.828,0,0,0-4.178-7.373L24,4.7l2.654-1.332A14.5,14.5,0,0,0,37.132,9.922Z" transform="translate(-1.616 -2.976)" fill="#fdc741"/>
        <path id="Trazado_879715" data-name="Trazado 879715" d="M3,49H15.791V61.791H3Z" transform="translate(-3 0.031)" fill="#fcea42"/>
        <path id="Trazado_879716" data-name="Trazado 879716" d="M7,49h4.264v4.264H7Z" transform="translate(-2.736 0.031)" fill="#fffa48"/>
        <path id="Trazado_879717" data-name="Trazado 879717" d="M15,55h6.4v6.4H15Z" transform="translate(-2.209 0.426)" fill="#fdc741"/>
        <path id="Trazado_879718" data-name="Trazado 879718" d="M21.4,59.264V61.4H15V55h2.132v1.066a3.2,3.2,0,0,0,3.2,3.2Z" transform="translate(-2.209 0.426)" fill="#efad1b"/>
        <path id="Trazado_879719" data-name="Trazado 879719" d="M13.659,57.527v2.132H12.593A7.461,7.461,0,0,1,5.132,52.2V49H3V61.791H15.791V55.4A2.132,2.132,0,0,0,13.659,57.527Z" transform="translate(-3 0.031)" fill="#fdc741"/>
        <g id="Grupo_1102947" data-name="Grupo 1102947" transform="translate(27.711 49.169)">
          <path id="Trazado_879720" data-name="Trazado 879720" d="M35.257,53.116A3.2,3.2,0,1,1,31.27,49.13a3.3,3.3,0,0,0-.139.927,3.2,3.2,0,0,0,3.2,3.2,3.3,3.3,0,0,0,.927-.139Z" transform="translate(-28.998 -49.13)" fill="#edb88e"/>
          <path id="Trazado_879721" data-name="Trazado 879721" d="M35.4,59.264V61.4H29V58.2A3.2,3.2,0,0,1,32.2,55a3.151,3.151,0,0,1,1.109.2,3.264,3.264,0,0,1-2.025.853A4.242,4.242,0,0,0,35.4,59.264Z" transform="translate(-28.998 -48.743)" fill="#edb88e"/>
        </g>
      </g>
      <g id="Outline_copy" data-name="Outline copy" transform="translate(2 2.002)">
        <path id="Trazado_879722" data-name="Trazado 879722" d="M27.329,38.9H37.988a5.336,5.336,0,0,0,5.329-5.329V31.845a1.066,1.066,0,1,0-2.132,0v1.724a3.2,3.2,0,0,1-3.2,3.2H27.329a3.2,3.2,0,0,1-3.2-3.2V25.041a8.514,8.514,0,0,1,4.426-7.461h8.207a8.517,8.517,0,0,1,4.423,7.461v2.54a1.066,1.066,0,1,0,2.132,0v-2.54a10.614,10.614,0,0,0-4.137-8.4A3.187,3.187,0,0,0,38.048,11.4a6.632,6.632,0,0,1,.888-2.558l2.1-3.5a1.066,1.066,0,0,0-.437-1.5L38.074,2.574a4.477,4.477,0,0,0-4.43.252,2.334,2.334,0,0,1-2.328.124l-.909-.464a4.482,4.482,0,0,0-4.021-.015L23.655,3.836a1.066,1.066,0,0,0-.277,1.705l.09.091a14.78,14.78,0,0,1,2.476,3.28,1.066,1.066,0,1,0,1.864-1.034,16.871,16.871,0,0,0-1.919-2.771l1.457-.729a2.345,2.345,0,0,1,2.1.007l.909.464a4.477,4.477,0,0,0,4.459-.237,2.345,2.345,0,0,1,2.313-.131l1.492.746L37.106,7.743a8.721,8.721,0,0,0-1.172,3.442h-1.8l.6-1.794a1.066,1.066,0,0,0-1.945-.853A4.927,4.927,0,0,0,31,7.03a1.066,1.066,0,1,0-.953,1.907,2.76,2.76,0,0,1,1.507,2.244H28.4a3.2,3.2,0,0,0-2.258,5.459A10.613,10.613,0,0,0,22,25.041v8.527A5.336,5.336,0,0,0,27.329,38.9ZM28.4,13.316h8.527a1.066,1.066,0,0,1,0,2.132H28.4a1.066,1.066,0,1,1,0-2.132Z" transform="translate(-0.682 -2.002)" fill="#323232"/>
        <path id="Trazado_879723" data-name="Trazado 879723" d="M32.2,22.881a1.066,1.066,0,0,1,1.066,1.066,1.066,1.066,0,1,0,2.132,0,3.2,3.2,0,0,0-2.132-3V19.683a1.066,1.066,0,1,0-2.132,0v1.261a3.19,3.19,0,0,0,1.066,6.2,1.066,1.066,0,1,1-1.066,1.066,1.066,1.066,0,0,0-2.132,0,3.2,3.2,0,0,0,2.132,3v1.262a1.066,1.066,0,1,0,2.132,0V31.212a3.19,3.19,0,0,0-1.066-6.2,1.066,1.066,0,0,1,0-2.132Z" transform="translate(-0.221 -0.908)" fill="#323232"/>
        <path id="Trazado_879724" data-name="Trazado 879724" d="M36.527,52.265a4.264,4.264,0,1,0-7.054,3.2A4.237,4.237,0,0,0,28,58.66v3.2a1.066,1.066,0,0,0,1.066,1.066h6.4a1.066,1.066,0,0,0,1.066-1.066v-3.2a4.237,4.237,0,0,0-1.473-3.2,4.237,4.237,0,0,0,1.473-3.2ZM34.4,58.66v2.132H30.132V58.66a2.132,2.132,0,1,1,4.264,0Zm-4.264-6.4A2.132,2.132,0,1,1,32.264,54.4,2.132,2.132,0,0,1,30.132,52.265Z" transform="translate(-0.287 1.027)" fill="#323232"/>
        <path id="Trazado_879725" data-name="Trazado 879725" d="M9.066,46.461A1.066,1.066,0,0,0,10.132,45.4V43.264H32.515V45.4a1.066,1.066,0,1,0,2.132,0V43.264H57.031v3.2a1.066,1.066,0,0,0,2.132,0V42.2A1.066,1.066,0,0,0,58.1,41.132H34.647V40.066a1.066,1.066,0,1,0-2.132,0v1.066H9.066A1.066,1.066,0,0,0,8,42.2v3.2A1.066,1.066,0,0,0,9.066,46.461Z" transform="translate(-1.605 0.435)" fill="#323232"/>
        <path id="Trazado_879726" data-name="Trazado 879726" d="M62.384,49H47.461A1.066,1.066,0,0,0,46.4,50.066V52.2H43.2a1.066,1.066,0,0,0-.887.474l-2.132,3.2a1.072,1.072,0,0,0-.179.592v3.2a1.066,1.066,0,0,0,1.066,1.066h1.262a3.178,3.178,0,0,0,6,0h2.328a1.066,1.066,0,1,0,0-2.132H48.527V51.132H61.318v7.461H60.056a3.2,3.2,0,1,0,0,2.132h2.328a1.066,1.066,0,0,0,1.066-1.066V50.066A1.066,1.066,0,0,0,62.384,49ZM42.132,56.781l1.636-2.452H46.4v2.328a3.141,3.141,0,0,0-4.067,1.936h-.2Zm3.2,3.944A1.066,1.066,0,1,1,46.4,59.659,1.066,1.066,0,0,1,45.329,60.725Zm11.725,0a1.066,1.066,0,1,1,1.066-1.066A1.066,1.066,0,0,1,57.054,60.725Z" transform="translate(0.504 1.094)" fill="#323232"/>
        <path id="Trazado_879727" data-name="Trazado 879727" d="M22.252,54.4H16.922V49.066A1.066,1.066,0,0,0,15.857,48H3.066A1.066,1.066,0,0,0,2,49.066V61.857a1.066,1.066,0,0,0,1.066,1.066h8.527a1.066,1.066,0,0,0,0-2.132H4.132V50.132H6.264v3.2A1.066,1.066,0,0,0,7.329,54.4h4.264a1.066,1.066,0,0,0,1.066-1.066v-3.2h2.132V61.857a1.066,1.066,0,0,0,1.066,1.066h6.4a1.066,1.066,0,0,0,1.066-1.066v-6.4A1.066,1.066,0,0,0,22.252,54.4ZM10.527,52.264H8.4V50.132h2.132Zm10.659,8.527H16.922V56.527h4.264Z" transform="translate(-2 1.028)" fill="#323232"/>
      </g>
    </g>
  </g>
</svg>
