<svg xmlns="http://www.w3.org/2000/svg" width="80" height="80" viewBox="0 0 80 80">
  <g id="Grupo_1100511" data-name="Grupo 1100511" transform="translate(-190.051 -655)">
    <rect id="Rectángulo_401662" data-name="Rectángulo 401662" width="80" height="80" rx="8" transform="translate(190.051 655)" fill="#efddcf"/>
    <g id="Grupo_1102965" data-name="Grupo 1102965" transform="translate(204.52 669.466)">
      <g id="Grupo_1102951" data-name="Grupo 1102951" transform="translate(0.795 0.798)">
        <g id="Grupo_1102949" data-name="Grupo 1102949">
          <path id="Trazado_879728" data-name="Trazado 879728" d="M12.509,8.012H38.467A4.548,4.548,0,0,1,43,12.547V45.7a4.548,4.548,0,0,1-4.535,4.535H12.509A4.548,4.548,0,0,1,7.974,45.7V12.547a4.548,4.548,0,0,1,4.535-4.535Z" transform="translate(-7.974 -8.012)" fill="#837683" fill-rule="evenodd"/>
          <path id="Trazado_879729" data-name="Trazado 879729" d="M287.647,8.011h2.6a4.548,4.548,0,0,1,4.535,4.535V45.7a4.548,4.548,0,0,1-4.535,4.535h-2.6a4.548,4.548,0,0,0,4.535-4.535V12.546a4.548,4.548,0,0,0-4.535-4.535Z" transform="translate(-259.752 -8.011)" fill="#685e68" fill-rule="evenodd"/>
          <path id="Trazado_879730" data-name="Trazado 879730" d="M59.186,73.272H82.122a1.044,1.044,0,0,1,1.043,1.043v4.092a1.044,1.044,0,0,1-1.043,1.043H59.186a1.044,1.044,0,0,1-1.042-1.043V74.315A1.044,1.044,0,0,1,59.186,73.272Z" transform="translate(-53.14 -66.763)" fill="#6cf5c2" fill-rule="evenodd"/>
          <path id="Trazado_879731" data-name="Trazado 879731" d="M81.865,73.271h.257a1.044,1.044,0,0,1,1.042,1.043v4.092a1.044,1.044,0,0,1-1.042,1.042H59.186a1.044,1.044,0,0,1-1.042-1.042v-.257H80.823a1.044,1.044,0,0,0,1.042-1.043V73.271Z" transform="translate(-53.14 -66.762)" fill="#00e499" fill-rule="evenodd"/>
          <path id="Trazado_879732" data-name="Trazado 879732" d="M68.789,184.979h3.9a1.044,1.044,0,0,1,1.042,1.042v1.355a1.044,1.044,0,0,1-1.042,1.043h-3.9a1.044,1.044,0,0,1-1.042-1.043v-1.355A1.044,1.044,0,0,1,68.789,184.979ZM85.913,199.6h3.9a1.044,1.044,0,0,1,1.043,1.042V202a1.044,1.044,0,0,1-1.043,1.042h-3.9A1.044,1.044,0,0,1,84.87,202v-1.355A1.044,1.044,0,0,1,85.913,199.6Zm-8.562,0h3.9a1.044,1.044,0,0,1,1.042,1.042V202a1.044,1.044,0,0,1-1.042,1.042h-3.9A1.044,1.044,0,0,1,76.309,202v-1.355A1.045,1.045,0,0,1,77.351,199.6Zm-8.562,0h3.9a1.044,1.044,0,0,1,1.042,1.042V202a1.044,1.044,0,0,1-1.042,1.042h-3.9A1.044,1.044,0,0,1,67.747,202v-1.355A1.044,1.044,0,0,1,68.789,199.6Zm17.123-7.311h3.9a1.044,1.044,0,0,1,1.043,1.042v1.355a1.044,1.044,0,0,1-1.043,1.043h-3.9a1.044,1.044,0,0,1-1.043-1.043v-1.355A1.044,1.044,0,0,1,85.913,192.29Zm-8.562,0h3.9a1.044,1.044,0,0,1,1.042,1.042v1.355a1.044,1.044,0,0,1-1.042,1.043h-3.9a1.044,1.044,0,0,1-1.043-1.043v-1.355A1.045,1.045,0,0,1,77.351,192.29Zm-8.562,0h3.9a1.044,1.044,0,0,1,1.042,1.042v1.355a1.044,1.044,0,0,1-1.042,1.043h-3.9a1.044,1.044,0,0,1-1.042-1.043v-1.355A1.044,1.044,0,0,1,68.789,192.29Zm17.123-7.311h3.9a1.044,1.044,0,0,1,1.043,1.042v1.355a1.044,1.044,0,0,1-1.043,1.042h-3.9a1.044,1.044,0,0,1-1.043-1.042v-1.355A1.044,1.044,0,0,1,85.913,184.979Zm-8.562,0h3.9a1.044,1.044,0,0,1,1.042,1.042v1.355a1.044,1.044,0,0,1-1.042,1.042h-3.9a1.044,1.044,0,0,1-1.043-1.042v-1.355A1.045,1.045,0,0,1,77.351,184.979Z" transform="translate(-61.785 -167.328)" fill="#eceff1" fill-rule="evenodd"/>
          <path id="Trazado_879733" data-name="Trazado 879733" d="M73.368,185.126a1.045,1.045,0,0,1,.868,1.028v1.355a1.044,1.044,0,0,1-1.043,1.042H69.3a1.045,1.045,0,0,1-.986-.7,1.045,1.045,0,0,0,.174.015h3.9a1.044,1.044,0,0,0,1.043-1.043v-1.355A1.037,1.037,0,0,0,73.368,185.126Zm17.123,14.621a1.045,1.045,0,0,1,.868,1.028v1.355a1.044,1.044,0,0,1-1.042,1.043h-3.9a1.045,1.045,0,0,1-.986-.7,1.043,1.043,0,0,0,.174.015h3.9a1.044,1.044,0,0,0,1.042-1.042v-1.355A1.04,1.04,0,0,0,90.491,199.747Zm-8.562,0a1.045,1.045,0,0,1,.868,1.028v1.355a1.044,1.044,0,0,1-1.043,1.043h-3.9a1.045,1.045,0,0,1-.986-.7,1.043,1.043,0,0,0,.174.015h3.9a1.044,1.044,0,0,0,1.043-1.042v-1.355A1.04,1.04,0,0,0,81.929,199.747Zm-8.562,0a1.045,1.045,0,0,1,.868,1.028v1.355a1.044,1.044,0,0,1-1.043,1.043H69.3a1.045,1.045,0,0,1-.986-.7,1.043,1.043,0,0,0,.174.015h3.9a1.044,1.044,0,0,0,1.043-1.042v-1.355A1.037,1.037,0,0,0,73.368,199.747Zm17.123-7.311a1.045,1.045,0,0,1,.868,1.028v1.355a1.044,1.044,0,0,1-1.042,1.042h-3.9a1.045,1.045,0,0,1-.986-.7,1.047,1.047,0,0,0,.174.015h3.9a1.044,1.044,0,0,0,1.042-1.042v-1.355A1.04,1.04,0,0,0,90.491,192.437Zm-8.562,0a1.045,1.045,0,0,1,.868,1.028v1.355a1.044,1.044,0,0,1-1.043,1.042h-3.9a1.045,1.045,0,0,1-.986-.7,1.047,1.047,0,0,0,.174.015h3.9a1.044,1.044,0,0,0,1.043-1.042v-1.355A1.041,1.041,0,0,0,81.929,192.437Zm-8.562,0a1.045,1.045,0,0,1,.868,1.028v1.355a1.044,1.044,0,0,1-1.043,1.042H69.3a1.045,1.045,0,0,1-.986-.7,1.047,1.047,0,0,0,.174.015h3.9a1.044,1.044,0,0,0,1.043-1.042v-1.355A1.038,1.038,0,0,0,73.368,192.437Zm17.123-7.311a1.045,1.045,0,0,1,.868,1.028v1.355a1.044,1.044,0,0,1-1.042,1.042h-3.9a1.045,1.045,0,0,1-.986-.7,1.045,1.045,0,0,0,.174.015h3.9a1.044,1.044,0,0,0,1.042-1.042v-1.355A1.04,1.04,0,0,0,90.491,185.126Zm-8.562,0a1.045,1.045,0,0,1,.868,1.028v1.355a1.044,1.044,0,0,1-1.043,1.042h-3.9a1.045,1.045,0,0,1-.986-.7,1.045,1.045,0,0,0,.174.015h3.9a1.044,1.044,0,0,0,1.043-1.042v-1.355A1.04,1.04,0,0,0,81.929,185.126Z" transform="translate(-62.293 -167.46)" fill="#d1d1d6" fill-rule="evenodd"/>
        </g>
        <g id="Grupo_1102950" data-name="Grupo 1102950" transform="translate(21.851 8.37)">
          <path id="Trazado_879734" data-name="Trazado 879734" d="M243.822,100.818l1.365,4.076a56.46,56.46,0,0,1,7.775,9.9c5.2,9.126-2.2,18.4-12.1,18.229-9.9.167-17.3-9.1-12.1-18.229a56.454,56.454,0,0,1,7.775-9.9l1.369-4.072-3.333-3.333a2.092,2.092,0,0,1,2.611-3.239,1.076,1.076,0,0,0,1.632-.676,2.092,2.092,0,0,1,4.089,0,1.076,1.076,0,0,0,1.632.676,2.1,2.1,0,0,1,2.611.28h0a2.1,2.1,0,0,1,0,2.959Z" transform="translate(-227.053 -91.926)" fill="#ffc338" fill-rule="evenodd"/>
          <path id="Trazado_879735" data-name="Trazado 879735" d="M319.872,100.818l1.365,4.076a56.46,56.46,0,0,1,7.775,9.9c5.2,9.126-2.2,18.4-12.1,18.229-.194,0-.386,0-.578,0,9.609-.195,16.617-9.279,11.521-18.227a56.456,56.456,0,0,0-7.775-9.9l-1.365-4.076,3.329-3.329a2.1,2.1,0,0,0,0-2.959h0a2.073,2.073,0,0,0-.9-.53,2.1,2.1,0,0,1,2.058.53h0a2.1,2.1,0,0,1,0,2.959ZM311.529,94a2.1,2.1,0,0,1,1.708.249l0,0a1.146,1.146,0,0,1-.168.086,1.047,1.047,0,0,1-.993-.089A2.069,2.069,0,0,0,311.529,94Zm4.806-1.993a2.1,2.1,0,0,1,1.467,1.566,1.075,1.075,0,0,0,1.628.678,1.042,1.042,0,0,1-.471-.679,2.09,2.09,0,0,0-2.623-1.566Z" transform="translate(-303.103 -91.926)" fill="#f5b829" fill-rule="evenodd"/>
          <path id="Trazado_879736" data-name="Trazado 879736" d="M301.6,185.2h9.083a2.036,2.036,0,1,0,0-4.072H301.6a2.036,2.036,0,1,0,0,4.072Z" transform="translate(-292.336 -172.228)" fill="#685e68" fill-rule="evenodd"/>
          <path id="Trazado_879737" data-name="Trazado 879737" d="M399.448,185.2H400.6a2.036,2.036,0,1,0,0-4.072h-1.157a2.036,2.036,0,1,1,0,4.072Z" transform="translate(-382.253 -172.228)" fill="#544854" fill-rule="evenodd"/>
        </g>
      </g>
      <path id="Trazado_879738" data-name="Trazado 879738" d="M40.73,38.7a2.9,2.9,0,0,1-.678,2.311,4.5,4.5,0,0,1-2.832,1.368v.809a.8.8,0,1,1-1.595,0v-.821a4.111,4.111,0,0,1-3.51-2.994.8.8,0,0,1,1.548-.386,2.681,2.681,0,0,0,2.752,1.846.325.325,0,0,1,.033,0h.1a3.251,3.251,0,0,0,2.3-.866,1.319,1.319,0,0,0,.306-1.074c-.127-1.031-1-1.626-2.847-1.928-3.068-.5-3.783-2.073-3.844-3.3a3.511,3.511,0,0,1,2.955-3.544c.071-.016.141-.03.212-.043v-.832a.8.8,0,1,1,1.595,0v.825a4.085,4.085,0,0,1,3.185,2.491.8.8,0,0,1-1.473.617,2.567,2.567,0,0,0-2.456-1.58.848.848,0,0,1-.089,0,3.136,3.136,0,0,0-.621.078,1.941,1.941,0,0,0-1.713,1.909c.019.383.071,1.4,2.508,1.8.951.157,3.844.631,4.169,3.311Zm7.288,4.733a10.549,10.549,0,0,0-.151-10.985,53.972,53.972,0,0,0-7.429-9.5H32.487a54.206,54.206,0,0,0-7.429,9.5,10.559,10.559,0,0,0-.151,10.985A13,13,0,0,0,36.2,49.483h.527a12.982,12.982,0,0,0,11.292-6.054ZM25.8,28.412h-.866a.245.245,0,0,1-.245-.244V26.813a.245.245,0,0,1,.245-.244h2.287Q26.448,27.524,25.8,28.412Zm3.275-8.91v1.356a.249.249,0,0,1-.245.244h-3.9a.246.246,0,0,1-.245-.244V19.5a.245.245,0,0,1,.245-.244h3.9A.248.248,0,0,1,29.071,19.5ZM5.335,42.233H22.578A12.444,12.444,0,0,1,23.67,31.654c.306-.538.649-1.091,1.026-1.662a1.842,1.842,0,0,1-1.6-1.824V26.813a1.841,1.841,0,0,1,1.84-1.84h3.609c.64-.75,1.327-1.531,2.075-2.348a2.866,2.866,0,0,1-.569-.392,1.834,1.834,0,0,1-1.219.466h-3.9a1.841,1.841,0,0,1-1.84-1.84V19.5a1.84,1.84,0,0,1,1.84-1.84h3.9a1.82,1.82,0,0,1,1.139.4A2.835,2.835,0,0,1,31.6,17.3l-1.99-1.99a2.93,2.93,0,0,1-.659-1.013H6.85a1.845,1.845,0,0,1-1.844-1.84V8.36A1.845,1.845,0,0,1,6.85,6.52H29.782a1.845,1.845,0,0,1,1.844,1.84v2.018a2.873,2.873,0,0,1,1.59.453.257.257,0,0,0,.259.023.254.254,0,0,0,.165-.2,2.9,2.9,0,0,1,1.393-1.89V5.344A3.74,3.74,0,0,0,31.3,1.607H5.335A3.74,3.74,0,0,0,1.6,5.344V38.5a3.74,3.74,0,0,0,3.736,3.737ZM28.822,12.7H6.85a.246.246,0,0,1-.245-.244V8.36a.245.245,0,0,1,.245-.244H29.782a.248.248,0,0,1,.245.244v2.516a2.755,2.755,0,0,0-.414.342A2.854,2.854,0,0,0,28.822,12.7ZM37.728,11a1.874,1.874,0,0,0,2.842,1.178,1.3,1.3,0,0,1,1.619,2l-3.1,3.1H33.837l-3.1-3.1a1.312,1.312,0,0,1,0-1.83,1.307,1.307,0,0,1,1.619-.173A1.872,1.872,0,0,0,35.2,11a1.3,1.3,0,0,1,2.531,0Zm4.512,9.115A1.239,1.239,0,0,1,41,21.349h-9.08a1.238,1.238,0,0,1,0-2.476H41A1.239,1.239,0,0,1,42.24,20.111Zm7.015,11.543a52.863,52.863,0,0,0-6.945-9.03,2.832,2.832,0,0,0-.983-5.328l1.99-1.99a2.892,2.892,0,0,0-3.609-4.475.257.257,0,0,1-.259.023.262.262,0,0,1-.165-.2,2.9,2.9,0,0,0-2.658-2.269V5.344A5.338,5.338,0,0,0,31.3.011H5.335A5.337,5.337,0,0,0,0,5.344V38.5a5.338,5.338,0,0,0,5.331,5.333H23.3c.075.139.151.276.231.414A14.588,14.588,0,0,0,36.2,51.079h.527a14.588,14.588,0,0,0,12.666-6.836,12.251,12.251,0,0,0-.136-12.589ZM16.123,26.813a.248.248,0,0,1,.245-.244h3.9a.248.248,0,0,1,.245.244v1.356a.248.248,0,0,1-.245.244h-3.9a.248.248,0,0,1-.245-.244Zm.245,3.2a1.841,1.841,0,0,1-1.84-1.84V26.813a1.841,1.841,0,0,1,1.84-1.84h3.9a1.841,1.841,0,0,1,1.84,1.84v1.356a1.841,1.841,0,0,1-1.84,1.84Zm-4.423-9.15a.246.246,0,0,1-.245.244H7.8a.249.249,0,0,1-.245-.244V19.5a.248.248,0,0,1,.245-.244h3.9a.245.245,0,0,1,.245.244Zm-.245-3.2a1.844,1.844,0,0,1,1.844,1.84v1.356A1.845,1.845,0,0,1,11.7,22.7H7.8a1.844,1.844,0,0,1-1.84-1.84V19.5a1.843,1.843,0,0,1,1.84-1.84Zm8.808,17.816a.249.249,0,0,1-.245.246h-3.9a.249.249,0,0,1-.245-.246V34.124a.249.249,0,0,1,.245-.246h3.9a.249.249,0,0,1,.245.246Zm1.6-1.354v1.354a1.841,1.841,0,0,1-1.84,1.841h-3.9a1.841,1.841,0,0,1-1.84-1.841V34.124a1.841,1.841,0,0,1,1.84-1.841h3.9A1.841,1.841,0,0,1,22.1,34.124ZM11.945,28.168a.245.245,0,0,1-.245.244H7.8a.248.248,0,0,1-.245-.244V26.813a.248.248,0,0,1,.245-.244h3.9a.245.245,0,0,1,.245.244Zm-.245-3.2a1.845,1.845,0,0,1,1.844,1.84v1.356a1.845,1.845,0,0,1-1.844,1.84H7.8a1.844,1.844,0,0,1-1.84-1.84V26.813a1.844,1.844,0,0,1,1.84-1.84Zm.245,10.506a.246.246,0,0,1-.245.246H7.8a.249.249,0,0,1-.245-.246V34.124a.249.249,0,0,1,.245-.246h3.9a.246.246,0,0,1,.245.246Zm-.245-3.2a1.845,1.845,0,0,1,1.844,1.841v1.354A1.845,1.845,0,0,1,11.7,37.319H7.8a1.844,1.844,0,0,1-1.84-1.841V34.124A1.844,1.844,0,0,1,7.8,32.282ZM16.123,19.5a.248.248,0,0,1,.245-.244h3.9a.248.248,0,0,1,.245.244v1.356a.249.249,0,0,1-.245.244h-3.9a.249.249,0,0,1-.245-.244Zm.245,3.2a1.841,1.841,0,0,1-1.84-1.84V19.5a1.84,1.84,0,0,1,1.84-1.84h3.9A1.84,1.84,0,0,1,22.1,19.5v1.356a1.841,1.841,0,0,1-1.84,1.84Z" transform="translate(-0.004 -0.011)" fill-rule="evenodd"/>
    </g>
  </g>
</svg>
