<svg xmlns="http://www.w3.org/2000/svg" width="80" height="80" viewBox="0 0 80 80">
  <g id="Grupo_1100504" data-name="Grupo 1100504" transform="translate(-505.051 -655)">
    <rect id="Rectángulo_401663" data-name="Rectángulo 401663" width="80" height="80" rx="8" transform="translate(505.051 655)" fill="#efddcf"/>
    <g id="Grupo_1102966" data-name="Grupo 1102966" transform="translate(520.181 669.466)">
      <g id="Grupo_1102958" data-name="Grupo 1102958" transform="translate(0.797 0.781)">
        <g id="Grupo_1102953" data-name="Grupo 1102953" transform="translate(26.068 10.108)">
          <path id="Trazado_879739" data-name="Trazado 879739" d="M304.606,145.484l-.015-9.831c0-1.845.241-3.579,1.611-4.814a59.814,59.814,0,0,0,6.443-5.991,2.363,2.363,0,0,1,3.269,0,2.287,2.287,0,0,1,0,3.269l.727-.9a5.3,5.3,0,0,0,1.273-3.475l-.036-9.465c-.028-7.357,5.372-5.318,5.442-2.836l.494,17.424A5.443,5.443,0,0,1,322.149,133l-7.881,7.881v4.6a1.61,1.61,0,0,1-1.607,1.607h-6.448A1.61,1.61,0,0,1,304.606,145.484Z" transform="translate(-301.739 -109.168)" fill="#f6dccd" fill-rule="evenodd"/>
          <path id="Trazado_879740" data-name="Trazado 879740" d="M369.9,270.613a2.334,2.334,0,0,1-.344,2.846c-1.286,1.294-2.58,2.581-3.87,3.87a.885.885,0,1,1-1.251-1.251Z" transform="translate(-355.377 -254.51)" fill="#f1cbbc" fill-rule="evenodd"/>
          <path id="Trazado_879741" data-name="Trazado 879741" d="M304.6,316l-.015-9.831c0-1.845.241-3.579,1.611-4.814.817-.737,1.992-1.676,3.236-2.778v19.028h-3.225A1.61,1.61,0,0,1,304.6,316Z" transform="translate(-301.738 -279.689)" fill="#f1cbbc" fill-rule="evenodd"/>
          <path id="Trazado_879742" data-name="Trazado 879742" d="M277.238,452.4l13.7.118a1.208,1.208,0,0,1,1.194,1.215l-.023,2.637a1.208,1.208,0,0,1-1.214,1.194l-13.7-.118A1.208,1.208,0,0,1,276,456.231l.023-2.637A1.208,1.208,0,0,1,277.238,452.4Z" transform="translate(-276.001 -418.166)" fill="#d1d1d6" fill-rule="evenodd"/>
          <path id="Trazado_879743" data-name="Trazado 879743" d="M286.582,453.424l2.424.021,2.4.021a1.208,1.208,0,0,1,1.194,1.21l.008-.942a1.208,1.208,0,0,0-1.194-1.214l-2.405-.021-4.83-.041-4.836-.042-1.626-.014a1.209,1.209,0,0,0-1.184.936l2.815.024,4.83.042,2.405.021Z" transform="translate(-276.478 -418.167)" fill="#b1b1b5" fill-rule="evenodd"/>
        </g>
        <g id="Grupo_1102954" data-name="Grupo 1102954" transform="translate(0 10.108)">
          <path id="Trazado_879744" data-name="Trazado 879744" d="M33.862,145.484l.015-9.831c0-1.845-.241-3.579-1.611-4.814a59.818,59.818,0,0,1-6.443-5.991,2.363,2.363,0,0,0-3.269,0,2.287,2.287,0,0,0,0,3.269l-.727-.9a5.3,5.3,0,0,1-1.273-3.475l.036-9.465c.028-7.357-5.372-5.318-5.442-2.836l-.494,17.424A5.443,5.443,0,0,0,16.318,133l7.881,7.881v4.6a1.61,1.61,0,0,0,1.607,1.607h6.448a1.61,1.61,0,0,0,1.607-1.6Z" transform="translate(-14.65 -109.168)" fill="#f6dccd" fill-rule="evenodd"/>
          <path id="Trazado_879745" data-name="Trazado 879745" d="M87.357,270.613a2.334,2.334,0,0,0,.344,2.846c1.286,1.294,2.58,2.58,3.87,3.87a.885.885,0,0,0,1.251-1.251Z" transform="translate(-79.798 -254.51)" fill="#f1cbbc" fill-rule="evenodd"/>
          <path id="Trazado_879746" data-name="Trazado 879746" d="M163.645,316.006l.015-9.831c0-1.845-.241-3.579-1.611-4.814-.817-.737-1.992-1.676-3.236-2.778V317.61h3.225A1.61,1.61,0,0,0,163.645,316.006Z" transform="translate(-144.434 -279.689)" fill="#f1cbbc" fill-rule="evenodd"/>
          <path id="Trazado_879747" data-name="Trazado 879747" d="M89.193,452.4l-13.7.118a1.208,1.208,0,0,0-1.194,1.215l.023,2.637a1.208,1.208,0,0,0,1.214,1.194l13.7-.118a1.208,1.208,0,0,0,1.194-1.214l-.023-2.637A1.208,1.208,0,0,0,89.193,452.4Z" transform="translate(-68.353 -418.166)" fill="#d1d1d6" fill-rule="evenodd"/>
          <path id="Trazado_879748" data-name="Trazado 879748" d="M80.326,453.425l-2.424.021-2.4.021a1.208,1.208,0,0,0-1.194,1.21l-.008-.942A1.208,1.208,0,0,1,75.5,452.52L77.9,452.5l4.83-.042,4.835-.042,1.626-.014a1.209,1.209,0,0,1,1.184.936l-2.815.024-4.83.042-2.405.021Z" transform="translate(-68.353 -418.168)" fill="#b1b1b5" fill-rule="evenodd"/>
        </g>
        <g id="Grupo_1102955" data-name="Grupo 1102955" transform="translate(28.738 0.001)">
          <ellipse id="Elipse_11905" data-name="Elipse 11905" cx="5.735" cy="5.735" rx="5.735" ry="5.735" transform="translate(0 0)" fill="#ffd064"/>
          <path id="Trazado_879749" data-name="Trazado 879749" d="M357.864,7.842a5.735,5.735,0,0,1,0,11.46q.12.005.242,0a5.735,5.735,0,1,0,0-11.47q-.121,0-.242.005Z" transform="translate(-352.37 -7.837)" fill="#ffc338" fill-rule="evenodd"/>
          <ellipse id="Elipse_11906" data-name="Elipse 11906" cx="4.38" cy="4.38" rx="4.38" ry="4.38" transform="translate(0.605 9.205) rotate(-79.106)" fill="#ffc338"/>
          <path id="Trazado_879750" data-name="Trazado 879750" d="M316.905,25.81a4.38,4.38,0,0,1,4.118-4.372q-.13-.008-.261-.008a4.379,4.379,0,1,0,0,8.759q.131,0,.261-.008A4.38,4.38,0,0,1,316.905,25.81Z" transform="translate(-315.026 -20.075)" fill="#f5b829" fill-rule="evenodd"/>
        </g>
        <g id="Grupo_1102956" data-name="Grupo 1102956" transform="translate(16.093 11.839)">
          <ellipse id="Elipse_11907" data-name="Elipse 11907" cx="7.979" cy="7.979" rx="7.979" ry="7.979" fill="#ffd064"/>
          <path id="Trazado_879751" data-name="Trazado 879751" d="M252.626,126.529a7.979,7.979,0,0,1,0,15.945q.167.007.336.007a7.979,7.979,0,0,0,0-15.959Q252.793,126.522,252.626,126.529Z" transform="translate(-244.983 -126.522)" fill="#ffc338" fill-rule="evenodd"/>
          <ellipse id="Elipse_11908" data-name="Elipse 11908" cx="6.093" cy="6.093" rx="6.093" ry="6.093" transform="translate(1.886 1.886)" fill="#ffc338"/>
          <path id="Trazado_879752" data-name="Trazado 879752" d="M195.639,151.527a6.093,6.093,0,0,1,5.73-6.082q-.18-.011-.363-.011a6.093,6.093,0,0,0,0,12.186q.183,0,.363-.011A6.093,6.093,0,0,1,195.639,151.527Z" transform="translate(-193.026 -143.548)" fill="#f5b829" fill-rule="evenodd"/>
        </g>
        <g id="Grupo_1102957" data-name="Grupo 1102957" transform="translate(7.935)">
          <ellipse id="Elipse_11909" data-name="Elipse 11909" cx="5.735" cy="5.735" rx="5.735" ry="5.735" fill="#ffd064"/>
          <path id="Trazado_879753" data-name="Trazado 879753" d="M149.286,7.842a5.735,5.735,0,0,1,0,11.46q.12.005.242,0a5.735,5.735,0,0,0,0-11.47q-.121,0-.242.005Z" transform="translate(-143.793 -7.836)" fill="#ffc338" fill-rule="evenodd"/>
          <ellipse id="Elipse_11910" data-name="Elipse 11910" cx="4.379" cy="4.379" rx="4.379" ry="4.379" transform="translate(1.356 1.357)" fill="#ffc338"/>
          <path id="Trazado_879754" data-name="Trazado 879754" d="M108.327,25.81a4.38,4.38,0,0,1,4.118-4.372q-.13-.008-.261-.008a4.379,4.379,0,0,0,0,8.759q.131,0,.261-.008A4.38,4.38,0,0,1,108.327,25.81Z" transform="translate(-106.449 -20.074)" fill="#f5b829" fill-rule="evenodd"/>
        </g>
      </g>
      <path id="Trazado_879755" data-name="Trazado 879755" d="M41.924,1.6A4.9,4.9,0,1,1,37.019,6.5,4.911,4.911,0,0,1,41.924,1.6Zm0,11.405a6.5,6.5,0,1,0-6.5-6.5A6.508,6.508,0,0,0,41.924,13Zm.962-4.81a1.342,1.342,0,0,1-.906.314,1.04,1.04,0,0,1-1.111-.663.8.8,0,0,0-1.549.386A2.458,2.458,0,0,0,41.126,10v.113a.8.8,0,0,0,1.6,0v-.1a2.589,2.589,0,0,0,1.371-.777,1.874,1.874,0,0,0,.443-1.494c-.135-1.111-.967-1.8-2.477-2.047-.956-.158-.972-.47-.977-.573-.02-.424.444-.562.587-.595a1.02,1.02,0,0,1,1.2.55.8.8,0,1,0,1.471-.617,2.461,2.461,0,0,0-1.617-1.447V2.893a.8.8,0,0,0-1.6,0V3.02A2.162,2.162,0,0,0,39.487,5.2c.031.636.373,1.751,2.313,2.07,1.092.178,1.133.519,1.151.663A.3.3,0,0,1,42.886,8.191ZM21.12,1.6a4.9,4.9,0,1,1-4.9,4.905A4.91,4.91,0,0,1,21.12,1.6ZM21.12,13a6.5,6.5,0,1,0-6.5-6.5A6.508,6.508,0,0,0,21.12,13Zm.962-4.81a1.344,1.344,0,0,1-.906.314,1.04,1.04,0,0,1-1.111-.663.8.8,0,1,0-1.548.386A2.458,2.458,0,0,0,20.322,10v.113a.8.8,0,1,0,1.6,0v-.1a2.593,2.593,0,0,0,1.371-.777,1.877,1.877,0,0,0,.443-1.494c-.135-1.111-.968-1.8-2.477-2.047-.957-.158-.972-.47-.977-.573-.02-.424.444-.562.587-.595a1.018,1.018,0,0,1,1.2.55.8.8,0,1,0,1.471-.617,2.46,2.46,0,0,0-1.617-1.447V2.893a.8.8,0,1,0-1.6,0V3.02A2.162,2.162,0,0,0,18.683,5.2c.031.636.373,1.751,2.313,2.07,1.092.178,1.134.519,1.151.663a.294.294,0,0,1-.065.259Zm9.44,19.578a7.186,7.186,0,1,1,7.186-7.186A7.194,7.194,0,0,1,31.522,27.769ZM40.3,20.583A8.782,8.782,0,1,1,31.522,11.8,8.792,8.792,0,0,1,40.3,20.583Zm-5.443,1.772c-.169-1.4-1.247-2.267-3.2-2.588-1.594-.262-1.624-.872-1.634-1.1-.042-.862.883-1.116,1.069-1.158a1.723,1.723,0,0,1,2.044.959.8.8,0,1,0,1.471-.618,3.147,3.147,0,0,0-2.288-1.9v-.417a.8.8,0,1,0-1.6,0v.424a2.751,2.751,0,0,0-2.294,2.789c.047.971.6,2.209,2.97,2.6,1.565.256,1.825.779,1.877,1.206a.737.737,0,0,1-.167.609,2.176,2.176,0,0,1-1.5.55,1.76,1.76,0,0,1-1.872-1.17.8.8,0,1,0-1.548.386,3.163,3.163,0,0,0,2.537,2.3v.41a.8.8,0,1,0,1.6,0v-.4a3.406,3.406,0,0,0,2-1.037,2.318,2.318,0,0,0,.544-1.845ZM27.79,47.339a.819.819,0,1,1-1.064-.459A.819.819,0,0,1,27.79,47.339Zm.536,2.016a.411.411,0,0,0,.4-.41l-.023-2.636a.412.412,0,0,0-.406-.4h0l-13.7.118a.412.412,0,0,0-.4.41l.023,2.636a.414.414,0,0,0,.41.4ZM14.8,30.364c.864.972,1.721,1.8,2.616,2.674.4.39.816.793,1.241,1.218a.8.8,0,1,0,1.128-1.128c-.433-.434-.852-.841-1.258-1.234-.939-.913-1.834-1.783-2.727-2.808a1.44,1.44,0,0,1,.115-1.97,1.553,1.553,0,0,1,2.133,0,42.45,42.45,0,0,0,5.088,4.828c.539.454,1,.846,1.392,1.2,1.188,1.071,1.35,2.662,1.348,4.221l-.011,6.974L17.8,44.4V42.583a.8.8,0,0,0-.234-.565L9.681,34.137A4.658,4.658,0,0,1,8.249,30.6l.494-17.423a1.832,1.832,0,0,1,1.793-1.5h.024c1.281.02,2.04,1.633,2.03,4.313l-.036,9.464a6.079,6.079,0,0,0,1.451,3.982q.267.328.531.633ZM28.3,44.309h-.017l-.82.007.01-6.958c0-1.836-.217-3.914-1.875-5.408-.407-.367-.9-.787-1.432-1.231a40.865,40.865,0,0,1-4.936-4.682.78.78,0,0,0-.075-.078,3.171,3.171,0,0,0-4.367.029,3.4,3.4,0,0,0-.5.626,4.485,4.485,0,0,1-.142-1.161l.036-9.464c.02-5.434-2.75-5.9-3.6-5.915a3.418,3.418,0,0,0-3.438,3.053L6.654,30.551a6.279,6.279,0,0,0,1.9,4.715L16.2,42.913v1.5l-1.615.014A2,2,0,0,0,12.6,46.446l.023,2.637a2,2,0,0,0,2,1.985h.017l13.7-.118a2,2,0,0,0,1.985-2.019L30.3,46.294a2,2,0,0,0-2-1.985Zm6.954,3.029a.819.819,0,1,1,.459,1.063A.818.818,0,0,1,35.254,47.339ZM48.507,30.063q.265-.306.532-.633a6.071,6.071,0,0,0,1.451-3.982l-.036-9.464c-.01-2.68.749-4.293,2.03-4.313a1.84,1.84,0,0,1,1.817,1.5L54.795,30.6a4.661,4.661,0,0,1-1.432,3.541l-7.881,7.882a.794.794,0,0,0-.234.565V44.4l-8.07-.069-.011-6.974c0-1.559.159-3.15,1.348-4.221.387-.349.853-.741,1.392-1.2a42.469,42.469,0,0,0,5.089-4.828,1.554,1.554,0,0,1,2.133,0,1.44,1.44,0,0,1,.114,1.97c-.892,1.025-1.787,1.9-2.727,2.808-.405.393-.824.8-1.257,1.234a.8.8,0,0,0,1.128,1.128c.425-.425.84-.828,1.241-1.218.9-.87,1.752-1.7,2.616-2.674Zm.34,16.37a.412.412,0,0,0-.4-.41l-13.7-.118h0a.411.411,0,0,0-.406.4l-.023,2.636a.413.413,0,0,0,.4.41l13.7.118h0a.412.412,0,0,0,.406-.4Zm5.644-11.167a6.277,6.277,0,0,0,1.9-4.715L55.9,13.127a3.418,3.418,0,0,0-3.437-3.053c-.85.014-3.621.481-3.6,5.915l.036,9.464a4.464,4.464,0,0,1-.142,1.161,3.376,3.376,0,0,0-.5-.626,3.173,3.173,0,0,0-4.368-.029.97.97,0,0,0-.075.078,40.772,40.772,0,0,1-4.936,4.682c-.527.445-1.024.864-1.431,1.231-1.658,1.493-1.878,3.572-1.875,5.408l.011,6.958-.821-.007h-.017a2,2,0,0,0-2,1.985l-.023,2.637A2,2,0,0,0,34.7,50.95l13.7.118h.017a2,2,0,0,0,2-1.985l.023-2.637a2.005,2.005,0,0,0-1.985-2.019l-1.615-.014v-1.5Z" transform="translate(-6.652 0)" fill-rule="evenodd"/>
    </g>
  </g>
</svg>
