<svg xmlns="http://www.w3.org/2000/svg" width="80" height="80" viewBox="0 0 80 80">
  <g id="Grupo_1100514" data-name="Grupo 1100514" transform="translate(-820.051 -655)">
    <rect id="Rectángulo_401664" data-name="Rectángulo 401664" width="80" height="80" rx="8" transform="translate(820.051 655)" fill="#efddcf"/>
    <g id="Grupo_1102967" data-name="Grupo 1102967" transform="translate(835.783 669.466)">
      <path id="Trazado_879756" data-name="Trazado 879756" d="M150.65,226.271l-1.728-.553a1.335,1.335,0,0,1-.865-.873c-1.988-6.321-9.369-9.224-16.8-9.224-8.693,0-15.739,3.972-15.739,12.744a11.455,11.455,0,0,0,6.311,10.642.353.353,0,0,1,.182.245l.6,4.458a.889.889,0,0,0,.874.724h2.9a.889.889,0,0,0,.874-.724l.731-2.479a.353.353,0,0,1,.39-.284,25.076,25.076,0,0,0,2.884.163,26.259,26.259,0,0,0,3.915-.291.354.354,0,0,1,.4.283l.755,2.608a.889.889,0,0,0,.874.724h2.9a.889.889,0,0,0,.874-.724l.63-4.72a.353.353,0,0,1,.185-.247,12.924,12.924,0,0,0,5.358-4.885,1.284,1.284,0,0,1,.717-.585l2.783-.891a1.7,1.7,0,0,0,1.184-1.623v-2.864a1.7,1.7,0,0,0-1.184-1.623Zm0,0" transform="translate(-104.046 -194.115)" fill="#ff94a6"/>
      <path id="Trazado_879757" data-name="Trazado 879757" d="M213.3,236.847l-1.728-.553a1.335,1.335,0,0,1-.865-.874c-1.258-4-4.676-6.631-8.9-8.023a.51.51,0,0,0-.477.882A10.805,10.805,0,0,1,205.1,233.6c3.048,9.885-6.512,15.148-6.547,15.154a37.7,37.7,0,0,1-5.185.356,30.56,30.56,0,0,1-3.525-.2.433.433,0,0,0-.477.348l-.893,3.03a1.088,1.088,0,0,1-1.068.885h-2.3l.149,1.112a.889.889,0,0,0,.874.724h2.9a.889.889,0,0,0,.874-.724l.731-2.478a.353.353,0,0,1,.39-.285,25.075,25.075,0,0,0,2.884.163,26.261,26.261,0,0,0,3.915-.291.354.354,0,0,1,.323.122.379.379,0,0,1,.04.058c0,.008.009.016.012.024a.224.224,0,0,1,.009.023.347.347,0,0,1,.017.056l.755,2.608a.89.89,0,0,0,.874.724h2.9a.89.89,0,0,0,.874-.724l.148-1.112.482-3.608a.355.355,0,0,1,.185-.247,12.922,12.922,0,0,0,5.36-4.888,1.279,1.279,0,0,1,.715-.581l2.783-.891a1.7,1.7,0,0,0,1.184-1.623v-2.864a1.7,1.7,0,0,0-1.184-1.623Zm0,0" transform="translate(-166.692 -204.691)" fill="#f4849c"/>
      <path id="Trazado_879758" data-name="Trazado 879758" d="M339.311,203.135a1.353,1.353,0,0,1,.766-.944c1.494-.684,5.728-2.583,6.706-2.07,1.225.642.47,7.057-1.4,8.114C343.583,209.256,338.036,209.188,339.311,203.135Zm0,0" transform="translate(-305.347 -180.082)" fill="#f4849c"/>
      <path id="Trazado_879759" data-name="Trazado 879759" d="M187.081,65.412a6.249,6.249,0,1,0,5.819,6.65,6.249,6.249,0,0,0-5.819-6.65Zm0,0" transform="translate(-162.472 -58.875)" fill="#fdbd37"/>
      <path id="Trazado_879760" data-name="Trazado 879760" d="M221.172,65.421a6.218,6.218,0,0,0-2.885.5,6.249,6.249,0,0,1,0,11.479,6.249,6.249,0,1,0,2.887-11.974Zm0,0" transform="translate(-196.562 -58.883)" fill="#fa9a39"/>
      <path id="Trazado_879761" data-name="Trazado 879761" d="M40.639,17l-2.859-.191a1.2,1.2,0,0,1-.825-.409l-.011-.012a1.523,1.523,0,0,1-.076-1.647l3.5-3.059,2.187.361,1.506,1.267a31.79,31.79,0,0,0,3.66,2.489c.249.109,1.816-.567,1.075-1.61-.877-1.207-2.82-4.044-3.326-4.785a2.25,2.25,0,0,0-1.5-.951l-5.563-.9a3.961,3.961,0,0,0-2.356.343c-.284.137-.609.292-.959.457s-.7.329-1.077.5c-.708.323-1.452.649-2.131.925a14.476,14.476,0,0,1-1.842.641l-4.564-.3-.526,7.9,2.2.146a2.458,2.458,0,0,1,1.161.382l2.966,1.726a5.634,5.634,0,0,0,3.087.742l2.651-.132,6.79.452c.782.052,1.437-.207,1.489-.99.241-1.372-2.515-3.2-4.65-3.342Zm0,0" transform="translate(-22.51 -6.755)" fill="#fed6a6"/>
      <path id="Trazado_879762" data-name="Trazado 879762" d="M40.639,68.415l-2.859-.191a1.2,1.2,0,0,1-.825-.409l-.011-.012a1.05,1.05,0,0,1-.189-.334l-2.395.119a5.635,5.635,0,0,1-3.087-.741L28.307,65.12a2.45,2.45,0,0,0-1.161-.382l-1.876-.125-.321,4.817,2.2.146a2.455,2.455,0,0,1,1.161.383l2.966,1.726a5.631,5.631,0,0,0,3.087.742l2.651-.132,6.79.453c.782.052,1.437-.207,1.489-.99.241-1.373-2.515-3.2-4.65-3.343Zm0,0" transform="translate(-22.51 -58.168)" fill="#efc79c"/>
      <path id="Trazado_879763" data-name="Trazado 879763" d="M8,29.718V20.285a.633.633,0,0,1,.633-.633h2.6a.633.633,0,0,1,.633.633v9.433a.633.633,0,0,1-.633.633h-2.6A.633.633,0,0,1,8,29.718Zm0,0" transform="translate(-7.252 -17.692)" fill="#fc6a58"/>
      <path id="Trazado_879764" data-name="Trazado 879764" d="M8,81.817a.633.633,0,0,0,.633.633h2.6a.633.633,0,0,0,.633-.633V77.523H8Zm0,0" transform="translate(-7.252 -69.791)" fill="#e35052"/>
      <path id="Trazado_879765" data-name="Trazado 879765" d="M221.25,65.8a25.074,25.074,0,0,0,3.187,2.131c.249.109,1.816-.567,1.075-1.61-.144-.2-.317-.441-.507-.709a6.238,6.238,0,0,0-3.754.188Zm0,0" transform="translate(-199.232 -58.883)" fill="#fa9a39"/>
      <path id="Trazado_879766" data-name="Trazado 879766" d="M374.437,320.111a1,1,0,0,1-1.984-.041.748.748,0,1,0-1.453.355,2.487,2.487,0,0,0,4.879.083.748.748,0,1,0-1.442-.4Zm0,0" transform="translate(-334.026 -287.631)"/>
      <path id="Trazado_879767" data-name="Trazado 879767" d="M210.437,249.667a.748.748,0,1,0,.767,1.285,7.317,7.317,0,0,1,6.481-.563.748.748,0,0,0,.534-1.4,8.785,8.785,0,0,0-7.782.676Zm0,0" transform="translate(-189.169 -223.61)"/>
      <path id="Trazado_879768" data-name="Trazado 879768" d="M333.331,201.828a5.224,5.224,0,0,0,3.081.914,5.52,5.52,0,0,0,2.589-.586c1.678-.951,2.407-4.6,2.372-6.768-.024-1.451-.35-2.321-1-2.66-.664-.348-2.058-.376-7.365,2.053a2.106,2.106,0,0,0-1.187,1.47c-.676,3.2.446,4.8,1.506,5.577Zm-.042-5.268a.605.605,0,0,1,.346-.418c4.108-1.88,5.5-2.093,5.919-2.093a.851.851,0,0,1,.106.006,6.612,6.612,0,0,1,.053,3.371c-.332,1.98-.984,3.166-1.448,3.429a4.271,4.271,0,0,1-4.049-.234C333.19,199.871,332.879,198.5,333.288,196.56Zm0,0" transform="translate(-298.593 -173.352)"/>
      <path id="Trazado_879769" data-name="Trazado 879769" d="M64.369,218.811l-1.728-.553a.589.589,0,0,1-.379-.385,11.279,11.279,0,0,0-.721-1.759.748.748,0,1,0-1.331.683,9.766,9.766,0,0,1,.625,1.524,2.087,2.087,0,0,0,1.35,1.361l1.728.553a.953.953,0,0,1,.664.911v2.864a.953.953,0,0,1-.664.911l-2.783.891a2.03,2.03,0,0,0-1.137.922,12.1,12.1,0,0,1-5.056,4.6,1.1,1.1,0,0,0-.575.772c0,.013,0,.026-.006.04l-.627,4.692a.142.142,0,0,1-.136.1h-2.9a.142.142,0,0,1-.139-.115.682.682,0,0,0-.016-.069l-.747-2.583a1.1,1.1,0,0,0-1.24-.84,25.521,25.521,0,0,1-3.8.283,24.358,24.358,0,0,1-2.8-.158,1.106,1.106,0,0,0-1.2.842l-.722,2.453q-.011.036-.018.072a.141.141,0,0,1-.139.115h-2.9a.142.142,0,0,1-.136-.1l-.593-4.43c0-.014,0-.028-.007-.042a1.1,1.1,0,0,0-.564-.763,10.712,10.712,0,0,1-5.915-9.982,10.6,10.6,0,0,1,4.3-9.059c2.619-1.922,6.315-2.938,10.687-2.938a26.837,26.837,0,0,1,3.513.228.748.748,0,1,0,.2-1.483,28.339,28.339,0,0,0-3.709-.241c-4.692,0-8.694,1.116-11.572,3.227a11.688,11.688,0,0,0-3.3,3.682,8.9,8.9,0,0,0-2.938-.057,7.388,7.388,0,0,0-2.105.618c-2.241-.156-4.85,1.247-5.377,2.94a.748.748,0,1,0,1.429.444,3.285,3.285,0,0,1,2.016-1.6,3.471,3.471,0,0,0-.228,2.409c.688,2.923,5.53,2.035,5.367-.932a3.412,3.412,0,0,0-1.006-2.38,7.034,7.034,0,0,1,2.172-.041,13.821,13.821,0,0,0-.946,5.186,12.782,12.782,0,0,0,1.831,6.844,12.521,12.521,0,0,0,4.7,4.361l.568,4.239c0,.013,0,.026.006.04a1.639,1.639,0,0,0,1.609,1.333h2.9a1.639,1.639,0,0,0,1.6-1.291l.638-2.165a26.041,26.041,0,0,0,2.639.132,27.079,27.079,0,0,0,3.685-.251l.66,2.282a1.64,1.64,0,0,0,1.6,1.293h2.9A1.639,1.639,0,0,0,55.2,237.1c0-.013,0-.027.006-.04l.6-4.5a13.48,13.48,0,0,0,5.478-5.078.538.538,0,0,1,.3-.247l2.783-.891a2.445,2.445,0,0,0,1.7-2.335v-2.864a2.443,2.443,0,0,0-1.7-2.335Zm-38.9,1.268c-.462.067-1.2-.048-1.339-.637a2.043,2.043,0,0,1,1-2.3,1.7,1.7,0,0,1,1.415,1.792A1.121,1.121,0,0,1,25.47,220.079Zm0,0" transform="translate(-17.537 -187.367)"/>
      <path id="Trazado_879770" data-name="Trazado 879770" d="M29.959,8.167a6.951,6.951,0,0,0-3.231-2.09c-1-1.423-2.38-3.438-2.658-3.846A3.009,3.009,0,0,0,22.076.965l-5.563-.9a4.688,4.688,0,0,0-2.8.408c-.282.136-.6.29-.953.454A.748.748,0,0,0,13.4,2.278c.353-.166.68-.323.965-.461a3.2,3.2,0,0,1,1.911-.278l5.563.9a1.506,1.506,0,0,1,1,.634c.209.305,1.035,1.513,1.86,2.7a6.976,6.976,0,0,0-2.04.305c-.564-.428-1.093-.909-1.634-1.364a.752.752,0,0,0-.36-.166l-2.187-.36a.75.75,0,0,0-.614.175l-3.5,3.059a.752.752,0,0,0-.128.146,2.249,2.249,0,0,0,.134,2.556l.011.012a1.937,1.937,0,0,0,1.338.663L18.579,11a5.9,5.9,0,0,1,3.7,1.854,1.107,1.107,0,0,1,.277.671c-.022.347-.457.331-.712.314-1.964-.131-3.924-.336-5.892-.414-1.216-.048-2.421.033-3.636.093a4.877,4.877,0,0,1-2.673-.641L6.685,11.153a3.207,3.207,0,0,0-.82-.369V4.273s2.146.142,2.162.142A.736.736,0,0,0,8.2,4.394a14.725,14.725,0,0,0,1.948-.676.748.748,0,1,0-.562-1.386,15.078,15.078,0,0,1-1.629.58L5.866,2.773V2.6A1.383,1.383,0,0,0,4.485,1.214H1.88A1.383,1.383,0,0,0,.5,2.6v9.433A1.382,1.382,0,0,0,1.88,13.409h2.6a1.383,1.383,0,0,0,1.336-1.031l3.069,1.789a6.372,6.372,0,0,0,3.5.84,48.7,48.7,0,0,1,5.7.076,7,7,0,1,0,11.87-6.917ZM4.37,11.913H2V2.71H4.37ZM18.514,9.491,15.82,9.312c-.4-.027-.5-.529-.374-.844l3.133-2.742L20.214,6l.909.765a6.992,6.992,0,0,0-2.609,2.73Zm5.513,4.188a2.128,2.128,0,0,0,.005-.431c.378.214.779.4,1.151.619a.972.972,0,0,1,.588,1.042,1.044,1.044,0,0,1-1,.732,1.665,1.665,0,0,1-1.21-.479,1.459,1.459,0,0,1-.189-.249,3.018,3.018,0,0,0,.449-.528,1.985,1.985,0,0,0,.207-.707Zm6.154-.54a5.5,5.5,0,0,1-10.428,2.055s2.472.131,2.593.115L22.3,16a.118.118,0,0,0,.109.125l.541.036a.118.118,0,0,0,.125-.109l.017-.258c-.011.154.983.453,1.131.486l-.051.868a.255.255,0,0,0,.238.27l.372.025a.256.256,0,0,0,.272-.237l.061-.867a1.934,1.934,0,0,0,1.905-2.36,2.509,2.509,0,0,0-1.24-1.456,8.868,8.868,0,0,1-1.71-1.052.873.873,0,0,1,.692-1.5,1.312,1.312,0,0,1,1.006.475,2.284,2.284,0,0,1,.4,1.148.119.119,0,0,0,.109.105l.413.028a.118.118,0,0,0,.125-.11L26.953,9.6a.118.118,0,0,0-.109-.125l-.507-.034a.118.118,0,0,0-.125.11l-.017.261a2.359,2.359,0,0,0-.728-.4l.058-.764a.255.255,0,0,0-.238-.274l-.39-.026a.255.255,0,0,0-.272.238l-.045.673a1.818,1.818,0,0,0-2.057,1.767A8.087,8.087,0,0,0,20.08,9.777a5.5,5.5,0,0,1,10.1,3.363Zm0,0" transform="translate(-0.499 -0.001)"/>
    </g>
  </g>
</svg>
