<svg xmlns="http://www.w3.org/2000/svg" width="80" height="80" viewBox="0 0 80 80">
  <g id="Grupo_1100521" data-name="Grupo 1100521" transform="translate(-820.051 -775)">
    <rect id="Rectángulo_401667" data-name="Rectángulo 401667" width="80" height="80" rx="8" transform="translate(820.051 775)" fill="#efddcf"/>
    <g id="Grupo_1100520" data-name="Grupo 1100520" transform="translate(833.794 732.523)">
      <g id="Grupo_1100518" data-name="Grupo 1100518" transform="translate(1.028 63.098)">
        <g id="Grupo_1100517" data-name="Grupo 1100517">
          <path id="Trazado_875368" data-name="Trazado 875368" d="M10,220.134a2.055,2.055,0,0,0,2.055,2.055H58.5a2.055,2.055,0,0,0,2.055-2.055v-17.2H10Z" transform="translate(-10 -189.482)" fill="#e1e3e9"/>
          <path id="Trazado_875369" data-name="Trazado 875369" d="M10,132.93H60.56v7.193H10Z" transform="translate(-10 -126.676)" fill="#98a1b3"/>
          <path id="Trazado_875370" data-name="Trazado 875370" d="M60.56,74.124A2.055,2.055,0,0,0,58.5,72.069H12.055A2.055,2.055,0,0,0,10,74.124v4.2H60.56Z" transform="translate(-10 -72.069)" fill="#e1e3e9"/>
          <circle id="Elipse_11643" data-name="Elipse 11643" cx="9.608" cy="9.608" r="9.608" transform="translate(25.878 18.586)" fill="#fff2a0"/>
        </g>
      </g>
      <g id="Grupo_1100519" data-name="Grupo 1100519" transform="translate(0 62.07)">
        <path id="Trazado_875371" data-name="Trazado 875371" d="M49.532,62.07h-18.6a1.028,1.028,0,1,0,0,2.055h18.6a1.029,1.029,0,0,1,1.028,1.028v3.171H2.055V65.153a1.029,1.029,0,0,1,1.028-1.028h18.6a1.028,1.028,0,0,0,0-2.055H3.083A3.086,3.086,0,0,0,0,65.153v28.6a3.086,3.086,0,0,0,3.083,3.083H27.438a10.63,10.63,0,0,0,18.151,0h3.943a3.086,3.086,0,0,0,3.083-3.083v-28.6A3.086,3.086,0,0,0,49.532,62.07Zm1.028,8.31v5.138H2.055V70.38ZM36.514,99.873a8.581,8.581,0,1,1,8.581-8.581A8.591,8.591,0,0,1,36.514,99.873Zm13.018-5.1h-2.97a10.636,10.636,0,1,0-20.1,0H3.083A1.029,1.029,0,0,1,2.055,93.75V77.573h48.5V93.75A1.029,1.029,0,0,1,49.532,94.778Z" transform="translate(0 -62.07)"/>
        <circle id="Elipse_11644" data-name="Elipse 11644" cx="1.028" cy="1.028" r="1.028" transform="translate(25.28)"/>
        <path id="Trazado_875372" data-name="Trazado 875372" d="M51.028,285.352h8.022a1.028,1.028,0,1,0,0-2.055H51.028a1.028,1.028,0,1,0,0,2.055Z" transform="translate(-44.862 -260.563)"/>
        <path id="Trazado_875373" data-name="Trazado 875373" d="M66.3,330.346H51.028a1.028,1.028,0,0,0,0,2.055H66.3a1.028,1.028,0,0,0,0-2.055Z" transform="translate(-44.862 -302.777)"/>
        <path id="Trazado_875374" data-name="Trazado 875374" d="M326.576,288.428a1.237,1.237,0,1,1,.858-2.127,1.028,1.028,0,1,0,1.429-1.477,3.276,3.276,0,0,0-1.259-.761v-.106a1.028,1.028,0,0,0-2.055,0v.107a3.291,3.291,0,0,0,1.028,6.419,1.237,1.237,0,1,1-.858,2.126,1.028,1.028,0,0,0-1.429,1.477,3.276,3.276,0,0,0,1.259.761v.106a1.028,1.028,0,1,0,2.055,0v-.107a3.291,3.291,0,0,0-1.028-6.419Z" transform="translate(-290.062 -260.234)"/>
      </g>
    </g>
  </g>
</svg>
