<svg xmlns="http://www.w3.org/2000/svg" width="80" height="80" viewBox="0 0 80 80">
  <g id="Grupo_1104757" data-name="Grupo 1104757" transform="translate(-190.051 -655)">
    <rect id="Rectángulo_401662" data-name="Rectángulo 401662" width="80" height="80" rx="8" transform="translate(190.051 655)" fill="#efddcf"/>
    <g id="Grupo_1104780" data-name="Grupo 1104780" transform="translate(138.641 662.902)">
      <g id="Grupo_1104778" data-name="Grupo 1104778" transform="translate(68.753 0.94)">
        <g id="Grupo_1104777" data-name="Grupo 1104777" transform="translate(0)">
          <g id="Grupo_1104773" data-name="Grupo 1104773" transform="translate(3.551)">
            <path id="Trazado_880762" data-name="Trazado 880762" d="M213.344,173.167a10.3,10.3,0,0,0,5.789-2.179.993.993,0,0,0-.205-1.728l-.007,0a3.486,3.486,0,0,1-2.074-3.187v-5.205h-8.014v5.205a3.487,3.487,0,0,1-1.657,2.966l-.024.014a.991.991,0,0,0-.1,1.656A10.762,10.762,0,0,0,213.344,173.167Z" transform="translate(-193.737 -141.636)" fill="#ffddce"/>
            <g id="Grupo_1104772" data-name="Grupo 1104772">
              <g id="Grupo_1104771" data-name="Grupo 1104771">
                <g id="Grupo_1104770" data-name="Grupo 1104770">
                  <g id="Grupo_1104767" data-name="Grupo 1104767" transform="translate(8.625 2.058)">
                    <path id="Trazado_880763" data-name="Trazado 880763" d="M193.375,34.066a1.481,1.481,0,0,0-1.479-1.484l-.555,0-.009-2.235c-.02-4.683-3.884-6.4-8.169-6.435-4.266.066-8.122,1.8-8.1,6.5l.007,1.576,0,.659h-.526a2.118,2.118,0,0,0-2.117,2.119v1.92a2.118,2.118,0,0,0,2.119,2.116h.544a7.7,7.7,0,0,0,2.59,5.648,8.257,8.257,0,0,0,11.135-.048,7.7,7.7,0,0,0,2.543-5.67l.557,0a1.482,1.482,0,0,0,1.466-1.5Z" transform="translate(-172.427 -23.914)" fill="#ffece4"/>
                  </g>
                  <path id="Trazado_880764" data-name="Trazado 880764" d="M130.986,226.781c-.22-.042-.788-.156-1.44-.287a3.432,3.432,0,0,1-.726-.233,8.633,8.633,0,0,1-11.548-.04c-.067-.058-.132-.12-.2-.18a3.473,3.473,0,0,1-1.144.453c-.652.131-1.22.245-1.44.287a13.385,13.385,0,0,0-10.855,13.143v6.515a2.734,2.734,0,0,0,2.734,2.734h32.737a2.734,2.734,0,0,0,2.734-2.734v-6.515A13.385,13.385,0,0,0,130.986,226.781Z" transform="translate(-103.636 -198.639)" fill="#88a8d8"/>
                  <g id="Grupo_1104768" data-name="Grupo 1104768" transform="translate(22.482 27.621)">
                    <path id="Trazado_880765" data-name="Trazado 880765" d="M287.809,228.315c-.22-.042-.788-.156-1.44-.287a3.441,3.441,0,0,1-.726-.233,9.228,9.228,0,0,1-2.7,1.623,13.388,13.388,0,0,1,7.539,12.042v6.515a2.734,2.734,0,0,1-2.734,2.734h8.185a2.734,2.734,0,0,0,2.734-2.734v-6.515A13.385,13.385,0,0,0,287.809,228.315Z" transform="translate(-282.941 -227.794)" fill="#7296d1"/>
                  </g>
                  <path id="Trazado_880766" data-name="Trazado 880766" d="M126.323,253.2c-5.085-3.441-12.782-3.653-15.9-3.58a1.42,1.42,0,0,0-1.387,1.421v20.5a1.419,1.419,0,0,0,1.453,1.421c2.993-.064,9.983.141,15,3.059a3.913,3.913,0,0,0,3.938,0c6.55-3.807,16.45-3,16.457-2.995v-21.99a1.42,1.42,0,0,0-1.387-1.421c-3.121-.072-10.818.139-15.9,3.58A2.024,2.024,0,0,1,126.323,253.2Z" transform="translate(-108.356 -219.253)" fill="#f7f4f7"/>
                  <g id="Grupo_1104769" data-name="Grupo 1104769" transform="translate(28.103 30.357)">
                    <path id="Trazado_880767" data-name="Trazado 880767" d="M335.812,249.62a40.212,40.212,0,0,0-8.038.617,1.42,1.42,0,0,1,1.24,1.409v21.73a39.947,39.947,0,0,1,8.185-.346V251.041A1.42,1.42,0,0,0,335.812,249.62Z" transform="translate(-327.774 -249.61)" fill="#edeaed"/>
                  </g>
                  <path id="Trazado_880768" data-name="Trazado 880768" d="M194.682,9.462A1.993,1.993,0,0,0,192.689,7.5h-8.841a6.419,6.419,0,0,0-6.419,6.419v4.242a1.464,1.464,0,0,0,.983,1.383l1.581.551a.85.85,0,0,0,1.129-.8l0-2.991q0-.072,0-.143a2.05,2.05,0,0,1,3.585-1.215c1.458,1.63,4.453,4.114,8.566,3.12a1.028,1.028,0,0,1,1.166.535h0a1.9,1.9,0,0,0,2.328.947,1.464,1.464,0,0,0,.983-1.383v-5.6a1.958,1.958,0,0,0-1.927-1.958A1.16,1.16,0,0,1,194.682,9.462Z" transform="translate(-168.176 -7.5)" fill="#89808c"/>
                  <path id="Trazado_880769" data-name="Trazado 880769" d="M247.162,34.381a1.481,1.481,0,0,0-1.479-1.484l-.555,0-.009-2.235c-.018-4.29-3.263-6.094-7.1-6.39a5.038,5.038,0,0,1,.956,2.958l0,11.823a7.7,7.7,0,0,1-2.543,5.67,8.9,8.9,0,0,1-2.51,1.568,8.343,8.343,0,0,0,3.119.615,8.473,8.473,0,0,0,5.559-2.183,7.7,7.7,0,0,0,2.543-5.67l.557,0a1.482,1.482,0,0,0,1.466-1.5Z" transform="translate(-217.589 -22.171)" fill="#ffddce"/>
                  <path id="Trazado_880770" data-name="Trazado 880770" d="M240.6,10.6a1.16,1.16,0,0,1-1.141-1.142A1.993,1.993,0,0,0,237.466,7.5h-8.191a5.063,5.063,0,0,1,5.063,5.061l0,5.5a7.64,7.64,0,0,0,3.71,0,1.028,1.028,0,0,1,1.166.535h0a1.9,1.9,0,0,0,2.328.947,1.464,1.464,0,0,0,.983-1.383v-5.6A1.958,1.958,0,0,0,240.6,10.6Z" transform="translate(-212.953 -7.5)" fill="#756e78"/>
                </g>
              </g>
            </g>
          </g>
          <g id="Grupo_1104776" data-name="Grupo 1104776" transform="translate(2.999 33.574)">
            <g id="Grupo_1104774" data-name="Grupo 1104774" transform="translate(0 0)">
              <path id="Trazado_880771" data-name="Trazado 880771" d="M287.052,275.279c-3.2-.074-10.917.134-16.327,3.415V303.58q.128-.063.252-.135c5.612-3.262,13.531-3.346,16.433-3.252a1.087,1.087,0,0,0,1.122-1.088V276.795A1.515,1.515,0,0,0,287.052,275.279Z" transform="translate(-249.222 -275.268)" fill="#ecbe6b"/>
              <path id="Trazado_880772" data-name="Trazado 880772" d="M117.037,278.694c-5.411-3.281-13.126-3.489-16.327-3.415a1.515,1.515,0,0,0-1.48,1.515v22.311a1.087,1.087,0,0,0,1.122,1.088c2.9-.094,10.821-.011,16.433,3.252q.124.072.252.135Z" transform="translate(-99.23 -275.268)" fill="#ecbe6b"/>
            </g>
            <g id="Grupo_1104775" data-name="Grupo 1104775" transform="translate(29.233 0)">
              <path id="Trazado_880773" data-name="Trazado 880773" d="M340.979,275.279a42.845,42.845,0,0,0-8.6.661l.4.007a1.515,1.515,0,0,1,1.48,1.515v22.311a1.085,1.085,0,0,1-.377.822,43.974,43.974,0,0,1,7.454-.4,1.087,1.087,0,0,0,1.122-1.088V276.794A1.515,1.515,0,0,0,340.979,275.279Z" transform="translate(-332.382 -275.268)" fill="#e8ae4d"/>
            </g>
            <path id="Trazado_880774" data-name="Trazado 880774" d="M239.618,301.61c-.181-.115-.365-.226-.552-.334v24.9l.022.012a4.173,4.173,0,0,0,4.2,0l.022-.012v-24.9q-.28.162-.552.334A2.921,2.921,0,0,1,239.618,301.61Z" transform="translate(-221.533 -298.015)" fill="#e49542"/>
          </g>
          <path id="Trazado_880775" data-name="Trazado 880775" d="M76.678,347.571l1.632-1v1.594a1.187,1.187,0,0,0,1.187,1.187h.779A2.144,2.144,0,0,1,82.42,351.5v2.793a1.34,1.34,0,0,1-1.34,1.34H78.4a3.086,3.086,0,0,1-3.086-3.086V350.01A2.861,2.861,0,0,1,76.678,347.571Z" transform="translate(-75.312 -304.057)" fill="#ffece4"/>
          <path id="Trazado_880776" data-name="Trazado 880776" d="M385.738,347.571l-1.632-1v1.594a1.187,1.187,0,0,1-1.187,1.187h-.779A2.144,2.144,0,0,0,380,351.5v2.793a1.34,1.34,0,0,0,1.34,1.34h2.683a3.086,3.086,0,0,0,3.086-3.086V350.01A2.861,2.861,0,0,0,385.738,347.571Z" transform="translate(-341.794 -304.057)" fill="#ffddce"/>
        </g>
      </g>
      <g id="Grupo_1104779" data-name="Grupo 1104779" transform="translate(67.813 0)">
        <path id="Trazado_880777" data-name="Trazado 880777" d="M297.345,328.088a.94.94,0,1,0,.59,1.786,35.1,35.1,0,0,1,9.229-1.535.94.94,0,0,0-.078-1.879A36.983,36.983,0,0,0,297.345,328.088Z" transform="translate(-268.001 -285.527)"/>
        <path id="Trazado_880778" data-name="Trazado 880778" d="M112,42.926V41.742a.94.94,0,1,0-1.881,0v3.342a.246.246,0,0,1-.243.211H109.1a3.088,3.088,0,0,0-3.085,3.085v2.793a2.283,2.283,0,0,0,2.28,2.28h1.826v4.9a.146.146,0,0,1-.151.148c-2.91-.1-9.9,0-15.5,2.632v-22.8c5.191-2.778,12.24-2.934,15.091-2.868a.588.588,0,0,1,.1.013l.012,0a.571.571,0,0,1,.445.561v1.294a.94.94,0,1,0,1.881,0V36.041a2.441,2.441,0,0,0-1.229-2.133v-1.18a2.347,2.347,0,0,0-2.306-2.361c-.808-.019-1.926-.018-3.23.051a14.2,14.2,0,0,0-5.405-2.259,8.958,8.958,0,0,1-1.96-.456h0a2.547,2.547,0,0,1-1.515-2.327v-.027A10.243,10.243,0,0,0,97.939,24.2a8.567,8.567,0,0,0,2.8-5.461,2.428,2.428,0,0,0,2.083-2.417l-.007-3.177a2.434,2.434,0,0,0-.129-.768,2.4,2.4,0,0,0,.13-.776V6a2.912,2.912,0,0,0-2.852-2.9.219.219,0,0,1-.216-.216A2.946,2.946,0,0,0,96.818,0H87.976a7.389,7.389,0,0,0-7.2,5.842.94.94,0,0,0,1.841.386,5.5,5.5,0,0,1,5.362-4.347h8.841A1.057,1.057,0,0,1,97.87,2.917a2.092,2.092,0,0,0,2.066,2.068,1.023,1.023,0,0,1,1,1.018v5.6a.524.524,0,0,1-.352.495.964.964,0,0,1-1.177-.48,1.96,1.96,0,0,0-2.229-1.029c-3.656.883-6.359-1.4-7.645-2.833a3.012,3.012,0,0,0-3.263-.83,2.9,2.9,0,0,0-1.962,2.626c-.008.156,0-.029,0,3.054l-1.46-.509A.524.524,0,0,1,82.5,11.6V10.425a.94.94,0,1,0-1.881,0V11.6a2.4,2.4,0,0,0,.028.363,3.047,3.047,0,0,0-.655,1.893v1.92a3.062,3.062,0,0,0,2.73,3.038,8.565,8.565,0,0,0,2.848,5.437,10.56,10.56,0,0,0,.891.689v.433a2.532,2.532,0,0,1-1.21,2.167h0a6.061,6.061,0,0,1-2.267.617,14.2,14.2,0,0,0-5.406,2.26c-1.3-.07-2.422-.07-3.229-.052a2.347,2.347,0,0,0-2.306,2.361v1.18a2.441,2.441,0,0,0-1.229,2.133v6.887c-.43.38-3,1.205-3,3.966v2.532a4.033,4.033,0,0,0,3,3.893v5.033A2.027,2.027,0,0,0,72.9,60.38c9-.293,14.125,2.08,15.91,3.113h0l0,0,.023.013a5.128,5.128,0,0,0,5.136,0L94,63.492h0c1.786-1.034,6.909-3.405,15.908-3.112A2.026,2.026,0,0,0,112,58.352V53.32a4.033,4.033,0,0,0,3-3.894V46.894c0-2.757-2.585-3.6-3-3.968ZM84.534,17.87a.94.94,0,0,0-.94-.917h-.545a1.179,1.179,0,0,1-1.177-1.176c0-2.029-.009-1.926.007-2.059a2.407,2.407,0,0,0,.352.155l1.581.551a1.79,1.79,0,0,0,2.379-1.693c0-3.482,0-3.019,0-3.088A1.044,1.044,0,0,1,86.9,8.7a1.126,1.126,0,0,1,1.233.311c1.566,1.75,4.88,4.52,9.488,3.407a.089.089,0,0,1,.1.041,2.849,2.849,0,0,0,3.212,1.494l.005,2.378a.542.542,0,0,1-.53.552l-.557,0a.94.94,0,0,0-.936.924,6.761,6.761,0,0,1-2.223,4.98,7.327,7.327,0,0,1-9.9.042,6.759,6.759,0,0,1-2.265-4.961Zm10.014,8.293a4.43,4.43,0,0,0,1.319,2.431,7.625,7.625,0,0,1-8.654-.267A4.382,4.382,0,0,0,88.3,25.944,9,9,0,0,0,94.547,26.163Zm-11.21,3.843a10.853,10.853,0,0,0,2.267-.539,9.539,9.539,0,0,0,12.063.161c.282.083,1.528.324,1.809.378a12.464,12.464,0,0,1,2.426.728,23.674,23.674,0,0,0-9.888,3.375,1.08,1.08,0,0,1-1.217,0,23.673,23.673,0,0,0-9.888-3.375A12.456,12.456,0,0,1,83.338,30.006ZM74.39,32.248c.833-.019,2.016-.018,3.392.065H77.8c3.568.216,8.434.98,11.94,3.353a2.952,2.952,0,0,0,3.325,0c4.868-3.295,12.359-3.488,15.354-3.419a.477.477,0,0,1,.469.48v.847c-5.351-.032-11.9.871-16.42,3.74a1.969,1.969,0,0,1-2.131,0c-4.505-2.865-11.057-3.773-16.42-3.74v-.847A.477.477,0,0,1,74.39,32.248Zm-4.7,17.178V46.894a2.049,2.049,0,0,1,1.119-1.761,2.13,2.13,0,0,0,2.125,2.043h.779a1.205,1.205,0,0,1,1.2,1.2v2.793a.4.4,0,0,1-.4.4H71.839a2.148,2.148,0,0,1-2.146-2.146Zm3.15,9.074a.147.147,0,0,1-.151-.148v-4.9h1.829a2.283,2.283,0,0,0,2.28-2.28V48.379a3.088,3.088,0,0,0-3.085-3.085h-.779a.246.246,0,0,1-.246-.24V36.041a.571.571,0,0,1,.445-.561l.014,0a.59.59,0,0,1,.1-.013c2.85-.067,9.9.091,15.091,2.868v22.8C82.745,58.5,75.754,58.406,72.843,58.5Zm19.745,3.594a3.25,3.25,0,0,1-2.363,0V39.32a3.9,3.9,0,0,0,2.363,0Zm20.535-12.668a2.148,2.148,0,0,1-2.146,2.146H108.3a.4.4,0,0,1-.4-.4V48.379a1.205,1.205,0,0,1,1.2-1.2h.779A2.133,2.133,0,0,0,112,45.133l.2.124a1.932,1.932,0,0,1,.917,1.637v2.532Z" transform="translate(-67.813 0)"/>
      </g>
    </g>
  </g>
</svg>
