<svg xmlns="http://www.w3.org/2000/svg" width="80" height="80" viewBox="0 0 80 80">
  <g id="Grupo_1104753" data-name="Grupo 1104753" transform="translate(-505.051 -655)">
    <rect id="Rect치ngulo_401663" data-name="Rect치ngulo 401663" width="80" height="80" rx="8" transform="translate(505.051 655)" fill="#efddcf"/>
    <g id="Filled_outline" data-name="Filled outline" transform="translate(499.333 649.234)">
      <path id="Trazado_880779" data-name="Trazado 880779" d="M49.588,147.645A22.609,22.609,0,0,1,32.5,115.236l1.92,1.453.044-9.917-9.532,2.734,2.583,1.955a28.763,28.763,0,0,0,43.93,35.662l-4.593-4.2A22.533,22.533,0,0,1,49.588,147.645Z" transform="translate(-7.031 -79.507)" fill="#c6dc3a"/>
      <path id="Trazado_880780" data-name="Trazado 880780" d="M152.9,145.89l-2.154-2.154V130.843a13.889,13.889,0,0,0-10.168-13.381L143.8,112H129.918l3.227,5.462a13.89,13.89,0,0,0-10.169,13.381v12.893l-2.154,2.154a2.805,2.805,0,0,0-.822,1.983h0a2.805,2.805,0,0,0,2.8,2.805h28.11a2.805,2.805,0,0,0,2.805-2.8h0a2.805,2.805,0,0,0-.822-1.984Z" transform="translate(-91.14 -84.086)" fill="#86b63b"/>
      <path id="Trazado_880781" data-name="Trazado 880781" d="M73.455,362.667h-7.6a2.975,2.975,0,0,0-2.975,2.975h0a2.975,2.975,0,0,0,2.975,2.975H63.868l-11.277-5.165a3.241,3.241,0,0,0-3.13.238h0A3.241,3.241,0,0,0,48,366.4v.216a3.241,3.241,0,0,0,1.792,2.9L61.355,375.3a11.9,11.9,0,0,0,5.322,1.257H87.67V362.667h0a14.32,14.32,0,0,0-13.962-.138Z" transform="translate(-28.066 -302.026)" fill="#fdc8a2"/>
      <rect id="Rect치ngulo_402910" data-name="Rect치ngulo 402910" width="11.901" height="13.885" transform="translate(59.604 60.642)" fill="#375e8d"/>
      <path id="Trazado_880782" data-name="Trazado 880782" d="M144.359,24.267A28.656,28.656,0,0,0,123.968,29.1l3.311,5.205a22.6,22.6,0,0,1,33.3,28.49l-1.943-1.471-.044,9.917,9.532-2.734-2.563-1.94a28.776,28.776,0,0,0-21.2-42.3Z" transform="translate(-94.616 -6.978)" fill="#c6dc3a"/>
      <path id="Trazado_880783" data-name="Trazado 880783" d="M28.425,27.27l-.045,9.918a.992.992,0,0,1-1.591.786l-.936-.709a21.636,21.636,0,0,0,2.124,20.828l-1.629,1.132a23.615,23.615,0,0,1-1.768-23.936.992.992,0,0,1,1.488-.35l.337.255.03-6.611-6.354,1.822,1,.758a.992.992,0,0,1,.271,1.267,27.66,27.66,0,0,0-1.706,3.758l-1.862-.682a29.657,29.657,0,0,1,1.427-3.269L17.3,30.791a.992.992,0,0,1,.325-1.744l9.532-2.735a.992.992,0,0,1,1.265.958ZM19.124,59.1l1.773-.891a27.6,27.6,0,0,1-2.672-16.334,28.17,28.17,0,0,1,.684-3.351l-1.916-.514a30.137,30.137,0,0,0-.731,3.588,29.574,29.574,0,0,0,2.862,17.5ZM40.965,36.939a10.945,10.945,0,0,0-1.792,1.1l1.193,1.585a8.954,8.954,0,0,1,1.467-.9ZM34.81,47.749h1.984v-.992A8.9,8.9,0,0,1,39.1,40.775l-1.471-1.331a10.881,10.881,0,0,0-2.82,7.313ZM72.5,74.526V65.6H70.514v7.934H60.6v-11.9h.992V59.65H59.859a15.3,15.3,0,0,0-14.688-.018l-.033.018H37.786a3.972,3.972,0,0,0-3.831,5.006l-3.863-1.77a1.815,1.815,0,0,1,.291-.381l2.153-2.153a.992.992,0,0,0,.29-.7V46.757a12.928,12.928,0,0,1,9.442-12.426.992.992,0,0,0,.589-1.46l-2.343-3.966H50.924l-2.343,3.966a.992.992,0,0,0,.589,1.46,12.928,12.928,0,0,1,9.443,12.426V57.666H60.6V46.757a14.924,14.924,0,0,0-9.678-13.942l2.6-4.4a.992.992,0,0,0-.854-1.5H38.777a.992.992,0,0,0-.854,1.5l2.6,4.4a14.924,14.924,0,0,0-9.678,13.942V59.239L28.98,61.1a3.786,3.786,0,0,0-.7.956l-3.347-1.533a4.28,4.28,0,0,0-5.487,1.839,4.453,4.453,0,0,0,1.831,6.013l11.564,5.782a12.965,12.965,0,0,0,5.765,1.36H52.662V73.534H38.611a10.97,10.97,0,0,1-4.878-1.151L22.169,66.6a2.5,2.5,0,0,1-.972-3.3,2.272,2.272,0,0,1,2.916-.976l11.277,5.165a.992.992,0,0,0,.413.09H46.711V65.6H37.786a1.984,1.984,0,1,1,0-3.967h7.6a.992.992,0,0,0,.472-.12l.257-.139a13.324,13.324,0,0,1,12.495-.143v12.3H54.645v1.984h16.86A.992.992,0,0,0,72.5,74.526Zm-5.951-4.959a1.984,1.984,0,1,0-1.984,1.984A1.984,1.984,0,0,0,66.547,69.567ZM46.711,42.79v3.967a3.967,3.967,0,1,1,0,7.934v1.984H44.728V54.691a3.971,3.971,0,0,1-3.967-3.967h1.984a1.986,1.986,0,0,0,1.984,1.984V48.741a3.967,3.967,0,0,1,0-7.934V38.823h1.984v1.984a3.971,3.971,0,0,1,3.967,3.967H48.695A1.986,1.986,0,0,0,46.711,42.79Zm-1.984,0a1.984,1.984,0,1,0,0,3.967Zm1.984,5.951v3.967a1.984,1.984,0,1,0,0-3.967ZM49.6,18.271A27.779,27.779,0,0,1,73.077,40.977l1.954-.341A29.758,29.758,0,0,0,28.787,21.3a.992.992,0,0,0-.272,1.348l3.311,5.205a.992.992,0,0,0,1.41.277A21.612,21.612,0,0,1,65.58,54.279l-.96-.727a.992.992,0,0,0-1.59.786l-.044,9.917a.992.992,0,0,0,1.265.958l9.532-2.734a.992.992,0,0,0,.325-1.744L72.218,59.3A29.944,29.944,0,0,0,75.4,43.715l-1.979.135a27.964,27.964,0,0,1-.213,5.8,27.664,27.664,0,0,1-3.135,9.459.992.992,0,0,0,.271,1.267l.981.743-6.355,1.822L65,56.33l.361.273a.992.992,0,0,0,1.487-.35,23.591,23.591,0,0,0-33.9-30.323L30.709,22.4A27.675,27.675,0,0,1,49.6,18.271Z"/>
    </g>
  </g>
</svg>
