<svg xmlns="http://www.w3.org/2000/svg" width="80" height="80" viewBox="0 0 80 80">
  <g id="Grupo_1104755" data-name="Grupo 1104755" transform="translate(-505.051 -655)">
    <rect id="Rectángulo_401663" data-name="Rectángulo 401663" width="80" height="80" rx="8" transform="translate(505.051 655)" fill="#efddcf"/>
    <g id="Grupo_1104783" data-name="Grupo 1104783" transform="translate(516.084 666.62)">
      <path id="Trazado_880809" data-name="Trazado 880809" d="M38.8,10a1.767,1.767,0,0,1,1.767,1.767v42.4A1.767,1.767,0,0,1,38.8,55.934H8.767A1.767,1.767,0,0,1,7,54.167v-42.4A1.767,1.767,0,0,1,8.767,10Z" transform="translate(-0.117 -1.051)" fill="#606060"/>
      <path id="Trazado_880810" data-name="Trazado 880810" d="M38.8,10H8.767A1.767,1.767,0,0,0,7,11.767v15.09A29.078,29.078,0,0,0,36.076,55.934H38.8a1.767,1.767,0,0,0,1.767-1.767v-42.4A1.767,1.767,0,0,0,38.8,10Z" transform="translate(-0.117 -1.051)" fill="#757575"/>
      <path id="Trazado_880811" data-name="Trazado 880811" d="M11,18H37.5V53.334H11Z" transform="translate(-0.583 -1.984)" fill="#ddd1c4"/>
      <path id="Trazado_880812" data-name="Trazado 880812" d="M11,41.691A29.206,29.206,0,0,0,22.642,53.334H37.5V18H11Z" transform="translate(-0.583 -1.984)" fill="#f3e8d8"/>
      <path id="Trazado_880813" data-name="Trazado 880813" d="M39.65,47.667,54.118,33.2a1.874,1.874,0,0,0-2.65-2.65L37,45.017Z" transform="translate(-3.617 -3.384)" fill="#4fb5dc"/>
      <path id="Trazado_880814" data-name="Trazado 880814" d="M39.417,49.65,36.767,47l-.883.883L35,51.417l3.533-.883Z" transform="translate(-3.383 -5.367)" fill="#474747"/>
      <path id="Trazado_880815" data-name="Trazado 880815" d="M34.433,12.6V8.183a1.767,1.767,0,0,0-1.767-1.767H29.133a4.417,4.417,0,1,0-8.833,0H16.767A1.767,1.767,0,0,0,15,8.183V12.6Z" transform="translate(-1.05 -0.117)" fill="#fe8e39"/>
      <path id="Trazado_880816" data-name="Trazado 880816" d="M32.805,6.417H29.272a4.417,4.417,0,1,0-8.833,0H16.905a1.767,1.767,0,0,0-.719.155A10.591,10.591,0,0,0,25.738,12.6h8.833V8.183A1.767,1.767,0,0,0,32.805,6.417Z" transform="translate(-1.188 -0.117)" fill="#ffaa71"/>
      <path id="Trazado_880817" data-name="Trazado 880817" d="M17.533,30.067A1.767,1.767,0,1,1,19.3,28.3h1.767a3.533,3.533,0,0,0-2.65-3.408V23H16.65v1.892a3.526,3.526,0,0,0,.883,6.941A1.767,1.767,0,1,1,15.767,33.6H14a3.533,3.533,0,0,0,2.65,3.408V38.9h1.767V37.008a3.526,3.526,0,0,0-.883-6.941Z" transform="translate(-0.933 -2.567)" fill="#4ead54"/>
      <g id="Grupo_1104782" data-name="Grupo 1104782" transform="translate(18.367 5.416)">
        <path id="Trazado_880818" data-name="Trazado 880818" d="M30.6,52.533H27.067a.883.883,0,0,1-.624-.259L25.3,51.132l-1.142,1.142a.883.883,0,0,1-.625.259H20V50.767h3.168l1.508-1.508a.883.883,0,0,1,1.249,0l1.508,1.508H30.6Z" transform="translate(-20 -11.016)" fill="#474747"/>
        <path id="Trazado_880819" data-name="Trazado 880819" d="M24,25H36.367v1.767H24Z" transform="translate(-20.467 -8.217)" fill="#474747"/>
        <path id="Trazado_880820" data-name="Trazado 880820" d="M24,29H36.367v1.767H24Z" transform="translate(-20.467 -8.683)" fill="#474747"/>
        <path id="Trazado_880821" data-name="Trazado 880821" d="M24,33H36.367v1.767H24Z" transform="translate(-20.467 -9.15)" fill="#474747"/>
        <path id="Trazado_880822" data-name="Trazado 880822" d="M24,37H36.367v1.767H24Z" transform="translate(-20.467 -9.617)" fill="#474747"/>
        <path id="Trazado_880823" data-name="Trazado 880823" d="M25,6h1.767V7.767H25Z" transform="translate(-20.583 -6)" fill="#474747"/>
      </g>
      <path id="Trazado_880824" data-name="Trazado 880824" d="M21.067,33.6a3.533,3.533,0,0,0-3.533-3.533A1.767,1.767,0,1,1,19.3,28.3h1.767a3.533,3.533,0,0,0-2.65-3.408V23H16.65v1.892a3.526,3.526,0,0,0,.883,6.941A1.767,1.767,0,1,1,15.767,33.6H14a3.533,3.533,0,0,0,2.65,3.408V38.9h1.767V37.008A3.533,3.533,0,0,0,21.067,33.6Z" transform="translate(-0.933 -2.567)"/>
      <path id="Trazado_880825" data-name="Trazado 880825" d="M25.925,49.259a.883.883,0,0,0-1.249,0l-1.508,1.508H20v1.767h3.533a.883.883,0,0,0,.624-.259L25.3,51.132l1.142,1.142a.883.883,0,0,0,.625.259H30.6V50.767H27.432Z" transform="translate(-1.633 -5.6)"/>
      <path id="Trazado_880826" data-name="Trazado 880826" d="M24,25H36.367v1.767H24Z" transform="translate(-2.1 -2.801)"/>
      <path id="Trazado_880827" data-name="Trazado 880827" d="M24,29H36.367v1.767H24Z" transform="translate(-2.1 -3.267)"/>
      <path id="Trazado_880828" data-name="Trazado 880828" d="M24,33H36.367v1.767H24Z" transform="translate(-2.1 -3.734)"/>
      <path id="Trazado_880829" data-name="Trazado 880829" d="M24,37H36.367v1.767H24Z" transform="translate(-2.1 -4.2)"/>
      <path id="Trazado_880830" data-name="Trazado 880830" d="M51.934,28.49a2.757,2.757,0,0,0-4.706-1.95l-5.894,5.894V10.716a2.65,2.65,0,0,0-2.65-2.65H34.267a2.65,2.65,0,0,0-2.65-2.65H28.893a5.3,5.3,0,0,0-10.453,0H15.717a2.65,2.65,0,0,0-2.65,2.65H8.65A2.65,2.65,0,0,0,6,10.716v42.4a2.65,2.65,0,0,0,2.65,2.65H38.684a2.65,2.65,0,0,0,2.65-2.65V40.232l9.793-9.793a2.775,2.775,0,0,0,.807-1.95ZM14.833,8.066a.883.883,0,0,1,.883-.883H19.25a.883.883,0,0,0,.883-.883,3.533,3.533,0,1,1,7.067,0,.883.883,0,0,0,.883.883h3.533a.883.883,0,0,1,.883.883V11.6H14.833Zm24.733,45.05a.883.883,0,0,1-.883.883H8.65a.883.883,0,0,1-.883-.883v-42.4a.883.883,0,0,1,.883-.883h4.417v2.65a.883.883,0,0,0,.883.883H33.383a.883.883,0,0,0,.883-.883V9.833h4.417a.883.883,0,0,1,.883.883V34.2L37.8,35.967V16.016a.883.883,0,0,0-.883-.883h-26.5a.883.883,0,0,0-.883.883V51.35a.883.883,0,0,0,.883.883h26.5a.883.883,0,0,0,.883-.883V43.765L39.567,42ZM33.3,42.969l.088-.088,1.4,1.4-.088.088-1.867.467Zm-1.422-1.077a.883.883,0,0,0-.232.411l-.883,3.533a.883.883,0,0,0,1.071,1.071l3.533-.883a.883.883,0,0,0,.411-.232l.261-.259v4.934H11.3V16.9H36.034V37.734Zm18-12.7L36.034,43.034l-1.4-1.4L48.476,27.789a.991.991,0,0,1,1.4,1.4Z" transform="translate(0)"/>
      <path id="Trazado_880831" data-name="Trazado 880831" d="M25,6h1.767V7.767H25Z" transform="translate(-2.217 -0.584)"/>
    </g>
  </g>
</svg>
