<svg xmlns="http://www.w3.org/2000/svg" width="80" height="80" viewBox="0 0 80 80">
  <g id="Grupo_1104758" data-name="Grupo 1104758" transform="translate(-190.051 -655)">
    <rect id="Rectángulo_401662" data-name="Rectángulo 401662" width="80" height="80" rx="8" transform="translate(190.051 655)" fill="#efddcf"/>
    <g id="Grupo_1104797" data-name="Grupo 1104797" transform="translate(186.683 666.402)">
      <g id="Grupo_1104794" data-name="Grupo 1104794" transform="translate(17.461 0.837)">
        <g id="Grupo_1104790" data-name="Grupo 1104790" transform="translate(0 8.526)">
          <path id="Trazado_880832" data-name="Trazado 880832" d="M55.588,117.876l-1.042-4.17a29.612,29.612,0,0,0-5.977-11.772l-1.217-1.461-.277-3.7a26.689,26.689,0,0,0,3.816-7.5l.12-.372a.867.867,0,0,0-.418-1.038,7.916,7.916,0,0,0-4.534-.83h0q.118-.451.216-.9l.137-.639a.864.864,0,0,0-.739-.954,23.048,23.048,0,0,0-11.446,0,.864.864,0,0,0-.739.954l.137.639q.1.454.216.9h0a7.916,7.916,0,0,0-4.534.83.867.867,0,0,0-.418,1.038l.12.372a26.69,26.69,0,0,0,3.816,7.5l-.277,3.7-1.217,1.461a29.611,29.611,0,0,0-5.977,11.772l-1.042,4.17a7.4,7.4,0,0,0,1.949,7.031l.067.067a6.105,6.105,0,0,0,3.848,1.769l.238.018a123.891,123.891,0,0,0,19.209-.018l.179-.014a5.937,5.937,0,0,0,3.725-1.715l.112-.112a7.389,7.389,0,0,0,1.952-7.025Z" transform="translate(-24.088 -83.817)" fill="#ea9b58"/>
          <path id="Trazado_880833" data-name="Trazado 880833" d="M92.346,285.149l1.852-.334,4.409-2.952,2.14-7.453-3.062-5.147-4.62-2.4H91.2a9.252,9.252,0,0,0,0,18.325Z" transform="translate(-76.625 -246.415)" fill="#ffe177"/>
          <path id="Trazado_880834" data-name="Trazado 880834" d="M217.934,143.076l-1.042-4.17a29.612,29.612,0,0,0-5.977-11.772l-1.217-1.461-.277-3.7a26.689,26.689,0,0,0,3.815-7.5l.12-.372a.867.867,0,0,0-.418-1.038,7.917,7.917,0,0,0-4.363-.846,7.963,7.963,0,0,1,1.866.681.867.867,0,0,1,.418,1.038l-.12.372a27.835,27.835,0,0,1-3.888,7.66l.277,3.7,1.217,1.461a29.612,29.612,0,0,1,5.977,11.772l1.079,4.342a7.389,7.389,0,0,1-1.952,7.025l-.112.112a5.937,5.937,0,0,1-3.725,1.715l-.178.014q1.266-.074,2.531-.172l.179-.014a5.937,5.937,0,0,0,3.725-1.715l.112-.112A7.389,7.389,0,0,0,217.934,143.076Z" transform="translate(-186.433 -109.017)" fill="#d88a55"/>
          <path id="Trazado_880835" data-name="Trazado 880835" d="M155.851,266.05a9.32,9.32,0,0,0-1.285.091,9.252,9.252,0,0,1,0,18.325,9.253,9.253,0,1,0,1.285-18.416Z" transform="translate(-139.99 -245.692)" fill="#ffd15b"/>
          <g id="Grupo_1104785" data-name="Grupo 1104785" transform="translate(6.607 12.955)">
            <g id="Grupo_1104784" data-name="Grupo 1104784">
              <path id="Trazado_880836" data-name="Trazado 880836" d="M99.553,203.483H85.083a1.851,1.851,0,1,1,0-3.7h14.47a1.851,1.851,0,1,1,0,3.7Z" transform="translate(-83.232 -199.782)" fill="#ffe177"/>
            </g>
          </g>
          <path id="Trazado_880837" data-name="Trazado 880837" d="M211.9,199.783h-2.569a1.851,1.851,0,1,1,0,3.7H211.9a1.851,1.851,0,0,0,0-3.7Z" transform="translate(-188.638 -186.828)" fill="#ffd15b"/>
          <g id="Grupo_1104789" data-name="Grupo 1104789" transform="translate(8.022 3.168)">
            <g id="Grupo_1104788" data-name="Grupo 1104788">
              <g id="Grupo_1104786" data-name="Grupo 1104786" transform="translate(0 0)">
                <path id="Trazado_880838" data-name="Trazado 880838" d="M99.37,118.839a.837.837,0,0,0,.492-1.224,21.721,21.721,0,0,1-2.239-5.388v0h0a7.888,7.888,0,0,0-1.729-.008,23.269,23.269,0,0,0,2.518,6.235A.839.839,0,0,0,99.37,118.839Z" transform="translate(-95.894 -112.178)" fill="#d88a55"/>
              </g>
              <g id="Grupo_1104787" data-name="Grupo 1104787" transform="translate(11.597)">
                <path id="Trazado_880839" data-name="Trazado 880839" d="M201.266,118.455a23.269,23.269,0,0,0,2.518-6.235,7.88,7.88,0,0,0-1.729.008h0l0-.014a21.714,21.714,0,0,1-2.241,5.4.838.838,0,0,0,1.45.841Z" transform="translate(-199.703 -112.176)" fill="#d88a55"/>
              </g>
            </g>
          </g>
        </g>
        <g id="Grupo_1104791" data-name="Grupo 1104791" transform="translate(30.534)">
          <path id="Trazado_880840" data-name="Trazado 880840" d="M305.28,19.985V15.05a.463.463,0,0,1,.463-.463h1.388a.463.463,0,0,0,.37-.74l-4.627-6.169a.463.463,0,0,0-.74,0l-4.627,6.169a.463.463,0,0,0,.37.74h1.388a.463.463,0,0,1,.463.463v4.935a.463.463,0,0,0,.463.463h4.627a.463.463,0,0,0,.463-.463Z" transform="translate(-297.414 -7.493)" fill="#6fd7a3"/>
          <path id="Trazado_880841" data-name="Trazado 880841" d="M337.763,13.847l-4.627-6.169a.463.463,0,0,0-.74,0L331.481,8.9l3.712,4.95a.463.463,0,0,1-.37.74h-1.388a.463.463,0,0,0-.463.463v4.935a.463.463,0,0,1-.463.463h2.569a.463.463,0,0,0,.463-.463V15.05a.463.463,0,0,1,.463-.463h1.388A.463.463,0,0,0,337.763,13.847Z" transform="translate(-327.675 -7.493)" fill="#3ec3a4"/>
        </g>
        <g id="Grupo_1104792" data-name="Grupo 1104792" transform="translate(39.748 11.103)">
          <path id="Trazado_880842" data-name="Trazado 880842" d="M387.764,107.345v4.935a.463.463,0,0,0,.463.463h1.388a.463.463,0,0,1,.37.74l-4.627,6.169a.463.463,0,0,1-.74,0l-4.627-6.169a.463.463,0,0,1,.37-.74h1.388a.463.463,0,0,0,.463-.463v-4.935a.463.463,0,0,1,.463-.463H387.3A.463.463,0,0,1,387.764,107.345Z" transform="translate(-379.897 -106.882)" fill="#fd8087"/>
          <path id="Trazado_880843" data-name="Trazado 880843" d="M420.246,113.481l-4.627,6.169a.463.463,0,0,1-.74,0l-.915-1.219,3.712-4.95a.463.463,0,0,0-.37-.74h-1.388a.463.463,0,0,1-.463-.463v-4.935a.463.463,0,0,0-.463-.463h2.569a.463.463,0,0,1,.463.463v4.935a.463.463,0,0,0,.463.463h1.388A.463.463,0,0,1,420.246,113.481Z" transform="translate(-410.158 -106.88)" fill="#fe646f"/>
        </g>
        <g id="Grupo_1104793" data-name="Grupo 1104793" transform="translate(25.911 29.642)">
          <path id="Trazado_880844" data-name="Trazado 880844" d="M278.167,298.717H259.8a3.76,3.76,0,0,1-3.364-5.441l9.185-18.362a3.762,3.762,0,0,1,6.728,0l9.185,18.362A3.76,3.76,0,0,1,278.167,298.717Z" transform="translate(-256.032 -272.836)" fill="#ffe177"/>
          <path id="Trazado_880845" data-name="Trazado 880845" d="M374.3,293.286l-9.185-18.362a3.756,3.756,0,0,0-4.649-1.855,3.7,3.7,0,0,1,2.079,1.855l9.185,18.362a3.76,3.76,0,0,1-3.364,5.441h2.569A3.76,3.76,0,0,0,374.3,293.286Z" transform="translate(-348.796 -272.846)" fill="#ffd15b"/>
        </g>
      </g>
      <g id="Grupo_1104795" data-name="Grupo 1104795" transform="translate(16.627 0)">
        <path id="Trazado_880846" data-name="Trazado 880846" d="M364.984,444.841a.877.877,0,1,0-.877-.877A.877.877,0,0,0,364.984,444.841Z" transform="translate(-325.289 -393.589)"/>
        <path id="Trazado_880847" data-name="Trazado 880847" d="M365.415,323.964a.838.838,0,0,0,.838-.838V311.9a.838.838,0,0,0-1.676,0v11.228A.838.838,0,0,0,365.415,323.964Z" transform="translate(-325.707 -276.311)"/>
        <path id="Trazado_880848" data-name="Trazado 880848" d="M69.619,118.26,60.436,99.9a4.6,4.6,0,0,0-8.226,0l-3.462,6.92-.018-.072a30.627,30.627,0,0,0-6.146-12.1l-.422-.506a2.686,2.686,0,0,0-.3-4.7,27.519,27.519,0,0,0,3.192-6.654l.12-.372a1.7,1.7,0,0,0-.831-2.041A8.743,8.743,0,0,0,40.5,79.4l.1-.481a1.689,1.689,0,0,0-1.348-1.941,24.044,24.044,0,0,0-11.865,0,1.689,1.689,0,0,0-1.348,1.941l.1.481a8.745,8.745,0,0,0-3.848.972,1.7,1.7,0,0,0-.831,2.041l.12.372a27.517,27.517,0,0,0,3.191,6.654,2.686,2.686,0,0,0-.3,4.7l-.422.506c-.536.644-1.053,1.319-1.535,2.006a.838.838,0,1,0,1.372.962c.455-.649.944-1.287,1.45-1.9l.966-1.16H40.331l.966,1.16A28.94,28.94,0,0,1,47.1,107.155l.492,1.968-4.57,9.137a4.646,4.646,0,0,0-.34.908,123.413,123.413,0,0,1-18.836,0l-.238-.018a5.272,5.272,0,0,1-3.321-1.527l-.065-.065a6.6,6.6,0,0,1-1.729-6.234l1.042-4.169a28.8,28.8,0,0,1,2.356-6.238.838.838,0,0,0-1.489-.77,30.488,30.488,0,0,0-2.493,6.6l-1.042,4.169a8.279,8.279,0,0,0,2.17,7.826l.067.067a6.948,6.948,0,0,0,4.376,2.011l.238.018c3.17.243,6.36.365,9.55.365,3.107,0,6.213-.117,9.3-.347a4.606,4.606,0,0,0,4.569,4.056h2.043a.838.838,0,1,0,0-1.676H47.139a2.921,2.921,0,0,1-2.614-4.228l9.184-18.36a2.923,2.923,0,0,1,5.229,0l9.184,18.36a2.921,2.921,0,0,1-2.614,4.228H53.085a.838.838,0,1,0,0,1.676H65.506a4.6,4.6,0,0,0,4.113-6.653ZM23.179,82.267l-.12-.372a.041.041,0,0,1,0-.035,7.067,7.067,0,0,1,3.5-.784,22.907,22.907,0,0,0,2.745,5.968.838.838,0,0,0,1.409-.907,20.906,20.906,0,0,1-2.9-6.932l-.12-.559a.381.381,0,0,1,.113-.047,22.336,22.336,0,0,1,11.025,0,.38.38,0,0,1,.113.047l-.12.559a20.9,20.9,0,0,1-2.9,6.932.838.838,0,1,0,1.409.907,22.9,22.9,0,0,0,2.745-5.968,7.07,7.07,0,0,1,3.5.783.038.038,0,0,1,0,.035l-.12.372a25.816,25.816,0,0,1-3.449,6.915H26.628a25.809,25.809,0,0,1-3.449-6.915Zm2.741,10.616a1.013,1.013,0,1,1,0-2.025h14.8a1.013,1.013,0,0,1,0,2.025h-14.8Z" transform="translate(-16.627 -67.717)"/>
        <path id="Trazado_880849" data-name="Trazado 880849" d="M85.83,278.581a10.09,10.09,0,1,0-10.09-10.09A10.1,10.1,0,0,0,85.83,278.581Zm0-18.5a8.415,8.415,0,1,1-8.415,8.415A8.424,8.424,0,0,1,85.83,260.076Z" transform="translate(-69.136 -229.534)"/>
        <path id="Trazado_880850" data-name="Trazado 880850" d="M138.042,302.3a3.889,3.889,0,0,0,1.883.708v.454a.838.838,0,0,0,1.676,0v-.534a3.272,3.272,0,0,0,2.349-2.6,2.882,2.882,0,0,0-1.959-3.261c-.128-.045-.259-.092-.39-.141V294.51a1.788,1.788,0,0,1,.191.093.821.821,0,0,0,.481.1l.049,0a.823.823,0,0,0,.339-1.531,3.5,3.5,0,0,0-1.06-.4v-.4a.838.838,0,0,0-1.676,0v.461c-.039.01-.077.02-.116.031a2.717,2.717,0,0,0-1.863,2.129,2.418,2.418,0,0,0,.8,2.381,5.847,5.847,0,0,0,1.179.693v3.269a2.433,2.433,0,0,1-.986-.437.838.838,0,0,0-1.217.344A.85.85,0,0,0,138.042,302.3Zm3.558-3.581a1.181,1.181,0,0,1,.7,1.334,1.6,1.6,0,0,1-.7,1.066Zm-1.82-2.677a.778.778,0,0,1-.188-.752,1.162,1.162,0,0,1,.333-.62v1.477C139.874,296.116,139.825,296.081,139.78,296.046Z" transform="translate(-124.124 -258.957)"/>
        <path id="Trazado_880851" data-name="Trazado 880851" d="M374.716,105.248H373.7a1.3,1.3,0,0,0-1.04,2.081l4.626,6.168a1.3,1.3,0,0,0,2.081,0L384,107.329a1.3,1.3,0,0,0-1.04-2.081h-1.013v-4.559a1.3,1.3,0,0,0-1.3-1.3h-4.626a1.3,1.3,0,0,0-1.3,1.3Zm1.676.375v-4.559h3.876v4.559a1.3,1.3,0,0,0,1.3,1.3h.637l-3.876,5.168-3.876-5.168h.637A1.3,1.3,0,0,0,376.392,105.623Z" transform="translate(-332.658 -88.285)"/>
        <path id="Trazado_880852" data-name="Trazado 880852" d="M291.218,8.769h1.013v4.559a1.3,1.3,0,0,0,1.3,1.3h4.626a1.3,1.3,0,0,0,1.3-1.3V8.769h1.013a1.3,1.3,0,0,0,1.04-2.081L296.885.52a1.29,1.29,0,0,0-1.04-.52h0a1.29,1.29,0,0,0-1.04.52l-4.626,6.168a1.3,1.3,0,0,0,1.04,2.081Zm4.626-6.843,3.876,5.168h-.637a1.3,1.3,0,0,0-1.3,1.3v4.559h-3.876V8.394a1.3,1.3,0,0,0-1.3-1.3h-.638Z" transform="translate(-259.387 0)"/>
      </g>
    </g>
  </g>
</svg>
