<svg xmlns="http://www.w3.org/2000/svg" width="80" height="80" viewBox="0 0 80 80">
  <g id="Grupo_1104754" data-name="Grupo 1104754" transform="translate(-505.051 -655)">
    <rect id="Rectángulo_401663" data-name="Rectángulo 401663" width="80" height="80" rx="8" transform="translate(505.051 655)" fill="#efddcf"/>
    <g id="Grupo_1104803" data-name="Grupo 1104803" transform="translate(515.547 665.496)">
      <g id="Grupo_1104801" data-name="Grupo 1104801" transform="translate(0.623 0.52)">
        <path id="Trazado_880853" data-name="Trazado 880853" d="M22.5,13.407a7.759,7.759,0,0,1-8.2,8.2c-3.1,0-5.826-.894-7.419-3.3A8.893,8.893,0,0,1,19.073,5.9C21.552,7.48,22.5,10.251,22.5,13.407Z" transform="translate(-5.41 -4.514)" fill="#e8edf2"/>
        <path id="Trazado_880854" data-name="Trazado 880854" d="M30.394,16.555a8.893,8.893,0,0,1-12.189,12.41,8.893,8.893,0,1,0,12.189-12.41Z" transform="translate(-16.73 -15.167)" fill="#d1dfe8"/>
        <path id="Trazado_880855" data-name="Trazado 880855" d="M368.119,13.408a7.759,7.759,0,0,1-8.2,8.2c-2.992,0-5.637-.786-7.249-3.051q-.087-.122-.169-.246A8.893,8.893,0,0,1,364.687,5.9q.194.124.381.257c2.264,1.612,3.051,4.257,3.051,7.248Z" transform="translate(-311.192 -4.515)" fill="#e8edf2"/>
        <path id="Trazado_880856" data-name="Trazado 880856" d="M377.688,18.786a8.893,8.893,0,0,1-12.4,12.4,8.893,8.893,0,1,0,12.4-12.4Z" transform="translate(-323.812 -17.141)" fill="#d1dfe8"/>
        <g id="Grupo_1104799" data-name="Grupo 1104799" transform="translate(3.366 40.241)">
          <g id="Grupo_1104798" data-name="Grupo 1104798">
            <path id="Trazado_880857" data-name="Trazado 880857" d="M34.612,354.135v13.336a.461.461,0,0,0,.461.461h10.4a.461.461,0,0,0,.461-.461V354.135a.461.461,0,0,0-.461-.461h-10.4A.461.461,0,0,0,34.612,354.135Z" transform="translate(-34.612 -353.674)" fill="#d1dfe8"/>
          </g>
        </g>
        <g id="Grupo_1104800" data-name="Grupo 1104800" transform="translate(0.241 43.365)">
          <path id="Trazado_880858" data-name="Trazado 880858" d="M7.5,381.246v13.336a.461.461,0,0,0,.461.461H16.3l1.828-.231a.461.461,0,0,0,.461-.461V381.477a.461.461,0,0,0-.461-.461l-1.828-.231H7.961A.461.461,0,0,0,7.5,381.246Z" transform="translate(-7.5 -380.785)" fill="#f5f8f9"/>
        </g>
        <path id="Trazado_880859" data-name="Trazado 880859" d="M377.371,379.515h4.748l2.246-.346,2.246.346h2.5l2.022-.231a.352.352,0,0,0,.352-.352V368.878a.461.461,0,0,0-.192-.374l-2.182-1.966-4.473-3.217a.461.461,0,0,0-.538,0l-6.885,4.953a.461.461,0,0,0-.192.374v10.515A.352.352,0,0,0,377.371,379.515Z" transform="translate(-334.191 -321.891)" fill="#f5f8f9"/>
        <path id="Trazado_880860" data-name="Trazado 880860" d="M421.276,440.507h2.246l2.015-.231v-7.644a.23.23,0,0,0-.231-.23l-1.785-.23h-2.015a.23.23,0,0,0-.23.23Z" transform="translate(-373.347 -382.883)" fill="#e8edf2"/>
        <path id="Trazado_880861" data-name="Trazado 880861" d="M156.461,142.924a13.644,13.644,0,0,1-1.542,6.321,14.613,14.613,0,0,1-.9,1.556A14.247,14.247,0,0,1,142.9,157.36q-.446.027-.9.028t-.9-.028a14.236,14.236,0,0,1-11.2-6.414,15.213,15.213,0,0,1-.838-1.291c-.045-.085-.185-.083-.228-.17a14.729,14.729,0,0,1,0-13.121c.139-.279.527-.313.683-.582.145-.249.058-.734.217-.974a14.687,14.687,0,0,1,11.362-6.559c.3-.018.6.212.9.212s.6-.23.9-.212a14.806,14.806,0,0,1,5.785,1.577,21.834,21.834,0,0,1,5.336,5.222,14.617,14.617,0,0,1,.9,1.556A13.64,13.64,0,0,1,156.461,142.924Z" transform="translate(-113.248 -113.988)" fill="#fee97d"/>
        <path id="Trazado_880862" data-name="Trazado 880862" d="M168,148.478c-.129-.258-.5-.391-.647-.639-.156-.271-.081-.656-.253-.917a14.763,14.763,0,0,0-5.576-4.982c.045.085.09.17.133.256a14.441,14.441,0,0,1,1.421,6.532c0,.174,0,.348-.009.521a14.405,14.405,0,0,1-1.412,6.068,14.726,14.726,0,0,1-12.261,8.115q-.446.027-.9.028t-.9-.028a14.618,14.618,0,0,1-5.788-1.576,14.728,14.728,0,0,0,12.131,7.858c.3.018.6-.212.9-.212s.6.23.9.212a14.688,14.688,0,0,0,11.361-6.559c.16-.241.074-.727.22-.978.155-.267.542-.3.681-.578a14.73,14.73,0,0,0,0-13.121Z" transform="translate(-126.093 -126.102)" fill="#fcda70"/>
        <path id="Trazado_880863" data-name="Trazado 880863" d="M187.456,178.355a9.656,9.656,0,0,1-9.821,9.821,12.159,12.159,0,0,1-5.541-1.422,10.062,10.062,0,1,1,11.139-16.76,9.9,9.9,0,0,1,2.633,2.574A10.835,10.835,0,0,1,187.456,178.355Z" transform="translate(-148.885 -149.418)" fill="#fcda70"/>
        <path id="Trazado_880864" data-name="Trazado 880864" d="M219.155,211.428a14.727,14.727,0,0,1-12.261,8.115l-.1.005a10.067,10.067,0,0,0,15.608-8.4,10.656,10.656,0,0,0-1.837-5.789A15.314,15.314,0,0,1,219.155,211.428Z" transform="translate(-183.582 -182.212)" fill="#ffc969"/>
        <path id="Trazado_880865" data-name="Trazado 880865" d="M484.316,393.638,481.9,391.9V404.88h2.252a.352.352,0,0,0,.352-.352V394.013A.461.461,0,0,0,484.316,393.638Z" transform="translate(-426.987 -347.256)" fill="#e8edf2"/>
        <path id="Trazado_880866" data-name="Trazado 880866" d="M85.889,380.785H83.83v14.258h2.059a.461.461,0,0,0,.461-.461V381.246A.461.461,0,0,0,85.889,380.785Z" transform="translate(-74.792 -337.42)" fill="#e8edf2"/>
        <path id="Trazado_880867" data-name="Trazado 880867" d="M442.775,432.171H440.76v8.336h2.246V432.4A.231.231,0,0,0,442.775,432.171Z" transform="translate(-390.586 -382.883)" fill="#d1dfe8"/>
      </g>
      <g id="Grupo_1104802" data-name="Grupo 1104802" transform="translate(0)">
        <path id="Trazado_880868" data-name="Trazado 880868" d="M33.286,419.779h-5a.864.864,0,0,0,0,1.729h5a.864.864,0,0,0,0-1.729Z" transform="translate(-24.258 -371.399)"/>
        <path id="Trazado_880869" data-name="Trazado 880869" d="M40.8,450.506H38.047a.864.864,0,0,0,0,1.729H40.8a.864.864,0,0,0,0-1.729Z" transform="translate(-32.898 -398.585)"/>
        <path id="Trazado_880870" data-name="Trazado 880870" d="M231.921,203.865c-.2-.071-.394-.136-.578-.2a3.55,3.55,0,0,1-1.44-.683,1.125,1.125,0,0,1-.262-1.059.962.962,0,0,1,.675-.666,1.456,1.456,0,0,1,1.479.339.864.864,0,0,0,1.257-1.187,3.134,3.134,0,0,0-1.424-.835v-.792a.864.864,0,0,0-1.729,0v.8a2.706,2.706,0,0,0-1.918,1.862,2.86,2.86,0,0,0,.617,2.673,4.617,4.617,0,0,0,2.2,1.189c.175.059.359.12.55.188a1.119,1.119,0,0,1,.81,1.312,1.462,1.462,0,0,1-1.451,1.234,2.416,2.416,0,0,1-1.743-.457.864.864,0,0,0-.946,1.447,3.844,3.844,0,0,0,1.885.711v.7a.864.864,0,0,0,1.729,0v-.808a3.24,3.24,0,0,0,2.233-2.542A2.854,2.854,0,0,0,231.921,203.865Z" transform="translate(-201.39 -175.111)"/>
        <path id="Trazado_880871" data-name="Trazado 880871" d="M398.947,41.564v.464a.864.864,0,1,0,1.729,0v-.647a2.744,2.744,0,0,0,1.016-4.448,2.744,2.744,0,0,0-1.016-4.448v-.647a.864.864,0,1,0-1.729,0V32.3h-1.161v-.464a.864.864,0,1,0-1.729,0V32.3h-.423a.864.864,0,0,0,0,1.729h.423v2.037h-.465a.864.864,0,1,0,0,1.729h.465v2.037h-.465a.864.864,0,1,0,0,1.729h.465v.464a.864.864,0,0,0,1.729,0v-.464Zm-1.161-7.531h1.908a1.018,1.018,0,0,1,0,2.037h-1.908Zm0,3.766h1.908a1.018,1.018,0,0,1,0,2.037h-1.908Z" transform="translate(-349.236 -27.405)"/>
        <path id="Trazado_880872" data-name="Trazado 880872" d="M58.457,46.2l-6.8-4.888v-7.2a3.173,3.173,0,0,0-3.169-3.169H44.921c.044-.475.067-.955.067-1.441s-.024-.966-.067-1.441h2.254a3.173,3.173,0,0,0,3.169-3.169V19.016a9.529,9.529,0,1,0-1.729,0v5.878a1.442,1.442,0,0,1-1.441,1.441h-2.51a15.616,15.616,0,0,0-30.581,0h-2.25a1.442,1.442,0,0,1-1.441-1.441V19.017A9.528,9.528,0,1,0,.205,7.555.864.864,0,0,0,1.9,7.912a7.8,7.8,0,1,1,.1,3.633.864.864,0,0,0-1.671.445,9.535,9.535,0,0,0,8.343,7.028v5.876a3.173,3.173,0,0,0,3.169,3.169h1.993c-.044.475-.067.955-.067,1.441s.024.966.067,1.441H10.516a3.173,3.173,0,0,0-3.169,3.169V39.9H4.45a1.327,1.327,0,0,0-1.325,1.325v1.8h-1.8A1.327,1.327,0,0,0,0,44.346V57.683a1.327,1.327,0,0,0,1.325,1.325H11.72a1.327,1.327,0,0,0,1.325-1.325v-1.8h1.8a1.327,1.327,0,0,0,1.325-1.325V41.222A1.327,1.327,0,0,0,14.845,39.9H9.075V34.114a1.442,1.442,0,0,1,1.441-1.441h3.568a15.616,15.616,0,0,0,30.581,0h3.828a1.442,1.442,0,0,1,1.441,1.441v7.2l-6.8,4.888a1.329,1.329,0,0,0-.55,1.076v3.492a.864.864,0,1,0,1.729,0V47.483L50.8,42.821l6.482,4.662v9.8H53.908V50.038a1.1,1.1,0,0,0-1.095-1.095h-4.03a1.1,1.1,0,0,0-1.095,1.095V57.28H44.316V54.8a.864.864,0,1,0-1.729,0v2.988A1.218,1.218,0,0,0,43.8,59.008H57.791a1.218,1.218,0,0,0,1.217-1.217V47.277A1.33,1.33,0,0,0,58.457,46.2ZM41.68,9.529a7.8,7.8,0,1,1,7.8,7.8,7.809,7.809,0,0,1-7.8-7.8ZM14.442,54.155h-1.4v-2.33a.864.864,0,0,0-1.729,0V57.28H1.729V44.749h9.588v3.042a.864.864,0,1,0,1.729,0V44.346a1.327,1.327,0,0,0-1.325-1.325H4.853v-1.4h9.588Zm26.5-32.326L38.4,23.295a10.965,10.965,0,0,0-1.757-1.99A.864.864,0,1,0,35.495,22.6a9.2,9.2,0,1,1-3.2-1.85.864.864,0,0,0,.548-1.64,10.876,10.876,0,0,0-2.6-.527V15.646a13.89,13.89,0,0,1,10.7,6.182Zm-12.43-6.182V18.58A10.962,10.962,0,0,0,20.35,23.3l-2.541-1.467a13.89,13.89,0,0,1,10.7-6.182ZM16.942,23.325l2.54,1.467a10.946,10.946,0,0,0,0,9.425l-2.54,1.467a13.863,13.863,0,0,1,0-12.359Zm.867,13.854,2.541-1.467a10.962,10.962,0,0,0,8.16,4.716v2.934A13.89,13.89,0,0,1,17.808,37.179Zm12.429,6.183V40.428a10.96,10.96,0,0,0,8.16-4.716l2.542,1.467A13.89,13.89,0,0,1,30.238,43.362Zm11.568-7.678-2.541-1.467a10.944,10.944,0,0,0,0-9.425l2.542-1.467a13.864,13.864,0,0,1,0,12.359Zm7.611,14.988h2.762V57.28H49.417Z" transform="translate(0)"/>
        <path id="Trazado_880873" data-name="Trazado 880873" d="M57.187,41.1a.864.864,0,1,0-1.431-.97l-2.189,3.23L51.356,40.1a.864.864,0,1,0-1.43.972L52.7,45.159l0,1.427H50.854a.864.864,0,0,0,0,1.729H52.7l0,1.222a.864.864,0,0,0,.862.866h0a.864.864,0,0,0,.864-.862l0-1.226h1.835a.864.864,0,0,0,0-1.729H54.428l0-1.424Z" transform="translate(-44.04 -35.145)"/>
      </g>
    </g>
  </g>
</svg>
