<svg xmlns="http://www.w3.org/2000/svg" width="80" height="80" viewBox="0 0 80 80">
  <g id="Grupo_1104760" data-name="Grupo 1104760" transform="translate(-820.051 -655)">
    <rect id="Rectángulo_401664" data-name="Rectángulo 401664" width="80" height="80" rx="8" transform="translate(820.051 655)" fill="#efddcf"/>
    <g id="Grupo_1104811" data-name="Grupo 1104811" transform="translate(827.601 659.52)">
      <g id="Grupo_1104809" data-name="Grupo 1104809" transform="translate(0.951 9.503)">
        <path id="Trazado_880874" data-name="Trazado 880874" d="M65.768,66.166H95.189v-7.1a8,8,0,0,0-8-8H73.763a8,8,0,0,0-8,8Z" transform="translate(-58.382 -51.074)" fill="#8d9ca8"/>
        <path id="Trazado_880875" data-name="Trazado 880875" d="M219.183,59.067v7.1h-3.429v-7.1a8,8,0,0,0-7.995-8h3.428A8,8,0,0,1,219.183,59.067Z" transform="translate(-182.376 -51.071)" fill="#7a8c98"/>
        <path id="Trazado_880876" data-name="Trazado 880876" d="M95.189,112.895H65.768v-1.879a6.429,6.429,0,0,1,6.429-6.429H88.76a6.429,6.429,0,0,1,6.429,6.429v1.879Z" transform="translate(-58.382 -97.803)" fill="#f9629f"/>
        <path id="Trazado_880877" data-name="Trazado 880877" d="M231.487,111.011v1.879h-3.208v-1.879a6.429,6.429,0,0,0-6.429-6.43h3.207A6.43,6.43,0,0,1,231.487,111.011Z" transform="translate(-194.68 -97.798)" fill="#f9438e"/>
        <path id="Trazado_880878" data-name="Trazado 880878" d="M80.009,210.9h-29.5a22.16,22.16,0,0,1-1.991,8.272,2.418,2.418,0,0,0,1.375,3.3,43.085,43.085,0,0,0,15.366,2.213,43.085,43.085,0,0,0,15.366-2.213,2.418,2.418,0,0,0,1.375-3.3A22.16,22.16,0,0,1,80.009,210.9Z" transform="translate(-43.122 -190.641)" fill="#8d9ca8"/>
        <path id="Trazado_880879" data-name="Trazado 880879" d="M264.212,222.469a36.706,36.706,0,0,1-5.682,1.491c.826-.337,1.549-.639,2.164-.857a2.416,2.416,0,0,0,1.375-3.3,24.2,24.2,0,0,1-1.99-8.906H263.6a22.141,22.141,0,0,0,1.99,8.272A2.417,2.417,0,0,1,264.212,222.469Z" transform="translate(-226.71 -190.641)" fill="#7a8c98"/>
        <g id="Grupo_1104804" data-name="Grupo 1104804" transform="translate(0 10.39)">
          <path id="Trazado_880880" data-name="Trazado 880880" d="M95.838,133.043A3.952,3.952,0,0,0,91.886,137v8.734a8.323,8.323,0,0,0,7.09,8.18v5.424h8.7V153.91a8.323,8.323,0,0,0,7.09-8.18V137a3.952,3.952,0,0,0-3.952-3.952Z" transform="translate(-81.189 -133.043)" fill="#ffdfcf"/>
          <path id="Trazado_880881" data-name="Trazado 880881" d="M199.928,136.993v8.735a8.325,8.325,0,0,1-7.09,8.181v5.424H189.41v-5.424a8.324,8.324,0,0,0,7.09-8.181v-8.735a3.952,3.952,0,0,0-3.952-3.952h3.429A3.952,3.952,0,0,1,199.928,136.993Z" transform="translate(-166.352 -133.041)" fill="#ffcebf"/>
          <path id="Trazado_880882" data-name="Trazado 880882" d="M59.238,175.3H55.927a1.428,1.428,0,0,1-1.428-1.428v-2.311a1.428,1.428,0,0,1,1.428-1.428h3.311Z" transform="translate(-48.542 -165.431)" fill="#ffcebf"/>
          <path id="Trazado_880883" data-name="Trazado 880883" d="M272.388,175.3h3.231a1.428,1.428,0,0,0,1.428-1.428v-2.311a1.428,1.428,0,0,0-1.428-1.428h-3.231Z" transform="translate(-238.812 -165.431)" fill="#ffb09e"/>
          <path id="Trazado_880884" data-name="Trazado 880884" d="M15.285,340.457h28.7a7.785,7.785,0,0,1,7.785,7.785v9.864a2.705,2.705,0,0,1-2.705,2.705H10.205A2.705,2.705,0,0,1,7.5,358.106v-9.864a7.784,7.784,0,0,1,7.785-7.785Z" transform="translate(-7.5 -314.166)" fill="#6c7fd8"/>
          <path id="Trazado_880885" data-name="Trazado 880885" d="M279.532,348.245v9.864a2.7,2.7,0,0,1-2.7,2.7H273.4a2.7,2.7,0,0,0,2.7-2.7v-9.864a7.783,7.783,0,0,0-7.784-7.784h3.428A7.783,7.783,0,0,1,279.532,348.245Z" transform="translate(-235.259 -314.169)" fill="#4f66d0"/>
        </g>
        <path id="Trazado_880886" data-name="Trazado 880886" d="M70.679,393.362H54.5v-13.9a1.726,1.726,0,0,1,1.726-1.726H67.215a3.464,3.464,0,0,1,3.464,3.464v12.165Z" transform="translate(-48.542 -336.326)" fill="#dff6fd"/>
        <path id="Trazado_880887" data-name="Trazado 880887" d="M134.662,381.2V393.36h-3.429V381.2a3.464,3.464,0,0,0-3.463-3.464H131.2A3.465,3.465,0,0,1,134.662,381.2Z" transform="translate(-112.525 -336.324)" fill="#c5eff9"/>
        <path id="Trazado_880888" data-name="Trazado 880888" d="M198.316,393.362H182.137V381.2a3.464,3.464,0,0,1,3.464-3.464H196.59a1.726,1.726,0,0,1,1.726,1.726v13.9Z" transform="translate(-160 -336.326)" fill="#dff6fd"/>
        <path id="Trazado_880889" data-name="Trazado 880889" d="M274.264,379.457v13.9h-3.427v-13.9a1.727,1.727,0,0,0-1.726-1.726h3.429A1.726,1.726,0,0,1,274.264,379.457Z" transform="translate(-235.949 -336.324)" fill="#c5eff9"/>
        <g id="Grupo_1104805" data-name="Grupo 1104805" transform="translate(3.921 48.398)">
          <path id="Trazado_880890" data-name="Trazado 880890" d="M41.68,441.523H39.509a1.077,1.077,0,0,1-1.077-1.077v-6.484a1.077,1.077,0,0,1,1.077-1.077H41.68a3.655,3.655,0,0,1,3.655,3.655v1.329A3.655,3.655,0,0,1,41.68,441.523Z" transform="translate(-38.432 -432.885)" fill="#ffdfcf"/>
          <path id="Trazado_880891" data-name="Trazado 880891" d="M275.04,441.523h2.171a1.077,1.077,0,0,0,1.077-1.077v-6.484a1.077,1.077,0,0,0-1.077-1.077H275.04a3.655,3.655,0,0,0-3.655,3.655v1.329A3.655,3.655,0,0,0,275.04,441.523Z" transform="translate(-241.856 -432.885)" fill="#ffdfcf"/>
        </g>
        <g id="Grupo_1104806" data-name="Grupo 1104806" transform="translate(4.559 48.397)">
          <path id="Trazado_880892" data-name="Trazado 880892" d="M49.734,436.537v1.328a3.655,3.655,0,0,1-3.654,3.654H43.909a1.059,1.059,0,0,1-.439-.094,3.653,3.653,0,0,0,2.837-3.561v-1.328a3.653,3.653,0,0,0-2.837-3.562,1.059,1.059,0,0,1,.439-.094H46.08A3.655,3.655,0,0,1,49.734,436.537Z" transform="translate(-43.47 -432.881)" fill="#ffcebf"/>
          <path id="Trazado_880893" data-name="Trazado 880893" d="M297.826,433.958v6.484a1.077,1.077,0,0,1-1.077,1.077h-2.17a3.564,3.564,0,0,1-.819-.094,1.076,1.076,0,0,0,.639-.984v-6.484a1.077,1.077,0,0,0-.639-.984,3.563,3.563,0,0,1,.819-.094h2.17A1.077,1.077,0,0,1,297.826,433.958Z" transform="translate(-262.034 -432.881)" fill="#ffcebf"/>
        </g>
        <path id="Trazado_880894" data-name="Trazado 880894" d="M147.028,298.932v2.893a1.266,1.266,0,0,1-1.265,1.265h-9.393a1.266,1.266,0,0,1-1.265-1.265v-2.893a1.265,1.265,0,0,1,1.265-1.265h9.393A1.265,1.265,0,0,1,147.028,298.932Z" transform="translate(-118.929 -266.409)" fill="#f9629f"/>
        <path id="Trazado_880895" data-name="Trazado 880895" d="M196.834,298.936v2.893a1.266,1.266,0,0,1-1.265,1.266H192.14a1.266,1.266,0,0,0,1.266-1.266v-2.893a1.265,1.265,0,0,0-1.266-1.265h3.429A1.265,1.265,0,0,1,196.834,298.936Z" transform="translate(-168.736 -266.413)" fill="#f9438e"/>
        <g id="Grupo_1104807" data-name="Grupo 1104807" transform="translate(45.338 0.932)">
          <path id="Trazado_880896" data-name="Trazado 880896" d="M377.389,64.533a6.107,6.107,0,1,0-10.734,3.983,5.24,5.24,0,0,1,1.308,3.415v.021H374.6V71.93a5.236,5.236,0,0,1,1.307-3.413A6.078,6.078,0,0,0,377.389,64.533Z" transform="translate(-365.175 -58.426)" fill="#fceba4"/>
          <path id="Trazado_880897" data-name="Trazado 880897" d="M388.889,169.458h3.2a1.72,1.72,0,0,0,1.72-1.72v-2.606h-6.638v2.606A1.72,1.72,0,0,0,388.889,169.458Z" transform="translate(-384.381 -151.606)" fill="#adbbc4"/>
        </g>
        <g id="Grupo_1104808" data-name="Grupo 1104808" transform="translate(49.731 0.933)">
          <path id="Trazado_880898" data-name="Trazado 880898" d="M407.7,64.535a6.08,6.08,0,0,1-1.48,3.984,5.234,5.234,0,0,0-1.308,3.414v.022h-3.428v-.022a5.24,5.24,0,0,1,1.307-3.414,6.106,6.106,0,0,0-2.9-9.844,6,6,0,0,1,1.766-.246A6.107,6.107,0,0,1,407.7,64.535Z" transform="translate(-399.882 -58.428)" fill="#ffe177"/>
          <path id="Trazado_880899" data-name="Trazado 880899" d="M404.862,165.131v2.606a1.719,1.719,0,0,1-1.72,1.72h-3.2a1.15,1.15,0,0,1-.115-.005,1.718,1.718,0,0,0,1.6-1.715v-2.606Z" transform="translate(-399.83 -151.606)" fill="#8d9ca8"/>
        </g>
      </g>
      <g id="Grupo_1104810" data-name="Grupo 1104810" transform="translate(0 3.469)">
        <path id="Trazado_880900" data-name="Trazado 880900" d="M37.439,80.257H29.975A9.8,9.8,0,0,0,30,79.214a39.984,39.984,0,0,0,8.771-1.965A3.358,3.358,0,0,0,40.736,75.4a3.4,3.4,0,0,0-.044-2.735,21.96,21.96,0,0,1-1.866-7.182,2.379,2.379,0,0,0,1.311-2.123V61.047a2.382,2.382,0,0,0-1.428-2.179V52.522a8.948,8.948,0,0,0-7.86-8.881.951.951,0,0,0-.229,1.888A7.062,7.062,0,0,1,36.807,52.8a7.362,7.362,0,0,0-5.479-2.441H14.766A7.363,7.363,0,0,0,9.287,52.8a7.067,7.067,0,0,1,7.044-7.323h9.947a.951.951,0,0,0,0-1.9H16.332a8.956,8.956,0,0,0-8.946,8.946v6.345a2.381,2.381,0,0,0-1.428,2.179v2.311a2.38,2.38,0,0,0,1.388,2.16,21.98,21.98,0,0,1-1.864,7.145A3.4,3.4,0,0,0,5.438,75.4,3.36,3.36,0,0,0,7.4,77.249a40.019,40.019,0,0,0,8.772,1.965,9.839,9.839,0,0,0,.025,1.043H8.735A8.745,8.745,0,0,0,0,88.992v9.864a3.66,3.66,0,0,0,3.656,3.656H42.518a3.66,3.66,0,0,0,3.656-3.656V88.992a8.745,8.745,0,0,0-8.735-8.735ZM18.831,74.833A7.391,7.391,0,0,1,12.6,67.6V58.869a3.005,3.005,0,0,1,3-3H30.575a3.005,3.005,0,0,1,3,3V67.6a7.391,7.391,0,0,1-6.233,7.23Zm-10.494-11a.478.478,0,0,1-.478-.478V61.046a.478.478,0,0,1,.478-.478H10.7v3.266ZM38.985,74.657a1.434,1.434,0,0,1-.85.8A37.908,37.908,0,0,1,30,77.3a2.451,2.451,0,0,0-.228-1.222A9.14,9.14,0,0,0,35.478,67.6V65.736h1.459a23.693,23.693,0,0,0,2.027,7.718A1.475,1.475,0,0,1,38.985,74.657ZM35.478,60.569h2.28a.478.478,0,0,1,.478.478v2.311a.478.478,0,0,1-.478.478h-2.28ZM14.766,52.26H31.329a5.485,5.485,0,0,1,5.479,5.479v.929H35.473a4.908,4.908,0,0,0-4.9-4.7H15.6a4.908,4.908,0,0,0-4.9,4.7H9.287v-.929a5.485,5.485,0,0,1,5.479-5.479Zm-6.727,23.2a1.434,1.434,0,0,1-.85-.8,1.475,1.475,0,0,1,.02-1.2,23.7,23.7,0,0,0,2.028-7.718H10.7V67.6A9.14,9.14,0,0,0,16.4,76.077a2.451,2.451,0,0,0-.228,1.222,37.935,37.935,0,0,1-8.135-1.842Zm10.037,4.485V77.049a.315.315,0,0,1,.315-.315h9.041c.246-.007.671-.043.666.315,0,0,0,2.883,0,2.893a.315.315,0,0,1-.315.315H18.391a.315.315,0,0,1-.315-.315ZM5.822,100.485V94a.127.127,0,0,1,.127-.127H8.12a2.707,2.707,0,0,1,2.7,2.7v1.329a2.707,2.707,0,0,1-2.7,2.7H5.949a.127.127,0,0,1-.127-.126ZM24.038,89.4a2.516,2.516,0,0,1,2.512-2.514H37.54a.776.776,0,0,1,.774.776v4.314h-.26a4.611,4.611,0,0,0-4.605,4.605v1.329a4.579,4.579,0,0,0,.881,2.7H24.038Zm14.01,11.214a2.707,2.707,0,0,1-2.7-2.7V96.579a2.707,2.707,0,0,1,2.7-2.7h2.171a.127.127,0,0,1,.127.127v6.484a.127.127,0,0,1-.127.127Zm6.224-1.754a1.757,1.757,0,0,1-1.755,1.755h-.271c0-.042.006-.084.006-.126V94a2.03,2.03,0,0,0-2.028-2.028h-.01V87.659a2.679,2.679,0,0,0-2.676-2.677H26.551a4.407,4.407,0,0,0-3.463,1.683,4.408,4.408,0,0,0-3.464-1.683H15.483a.951.951,0,0,0,0,1.9h4.141A2.516,2.516,0,0,1,22.137,89.4v11.214H11.845a4.579,4.579,0,0,0,.881-2.7V96.579A4.611,4.611,0,0,0,8.12,91.973H7.859V87.659a.777.777,0,0,1,.776-.776h2.4a.951.951,0,0,0,0-1.9h-2.4a2.68,2.68,0,0,0-2.677,2.677v4.314H5.949A2.03,2.03,0,0,0,3.921,94v6.484c0,.043,0,.084.006.126H3.656A1.757,1.757,0,0,1,1.9,98.857V88.992a6.842,6.842,0,0,1,6.834-6.834h28.7a6.842,6.842,0,0,1,6.834,6.834v9.864Z" transform="translate(0 -38.492)"/>
        <path id="Trazado_880901" data-name="Trazado 880901" d="M175.588,200.529a.951.951,0,0,0,.951-.951v-1.3a.951.951,0,0,0-1.9,0v1.3A.951.951,0,0,0,175.588,200.529Z" transform="translate(-152.5 -172.755)"/>
        <path id="Trazado_880902" data-name="Trazado 880902" d="M158.767,236.378a4.735,4.735,0,0,1-4.549.047.951.951,0,0,0-1.033,1.6,6.28,6.28,0,0,0,3.222.854,7.05,7.05,0,0,0,3.223-.8.951.951,0,0,0-.862-1.695Z" transform="translate(-133.391 -206.764)"/>
        <path id="Trazado_880903" data-name="Trazado 880903" d="M364.8,50.927h-.066a7.111,7.111,0,0,0-7.053,6.755,7.034,7.034,0,0,0,1.7,4.907,4.3,4.3,0,0,1,1.078,2.794v2.627a2.674,2.674,0,0,0,2.671,2.671h3.2A2.674,2.674,0,0,0,369,68.009V65.382a4.3,4.3,0,0,1,1.077-2.792A7.056,7.056,0,0,0,364.8,50.927Zm2.3,17.082a.771.771,0,0,1-.77.77h-3.2a.771.771,0,0,1-.77-.77V66.354H367.1Zm1.538-6.662a6.3,6.3,0,0,0-1.464,3.105H362.29a6.3,6.3,0,0,0-1.465-3.106,5.139,5.139,0,0,1-1.244-3.585,5.156,5.156,0,1,1,9.058,3.586Z" transform="translate(-312.337 -44.911)"/>
        <path id="Trazado_880904" data-name="Trazado 880904" d="M400.344,91.837,398.379,93.8a.951.951,0,0,0,1.345,1.344l1.965-1.965a.951.951,0,1,0-1.345-1.344Z" transform="translate(-347.638 -80.392)"/>
        <path id="Trazado_880905" data-name="Trazado 880905" d="M315.649,126.894a.949.949,0,0,0,.294-.047l1.756-.571a.951.951,0,0,0-.588-1.808l-1.756.571a.951.951,0,0,0,.294,1.855Z" transform="translate(-274.808 -109.09)"/>
        <path id="Trazado_880906" data-name="Trazado 880906" d="M315.358,71.546l1.756.571a.951.951,0,0,0,.588-1.808l-1.756-.571a.951.951,0,0,0-.588,1.808Z" transform="translate(-274.81 -61.296)"/>
        <path id="Trazado_880907" data-name="Trazado 880907" d="M350.784,24.777a.951.951,0,1,0,1.538-1.118l-1.085-1.494a.951.951,0,0,0-1.538,1.118Z" transform="translate(-305.213 -19.453)"/>
        <path id="Trazado_880908" data-name="Trazado 880908" d="M406.8,7.217a.951.951,0,0,0,.951-.951V4.42a.951.951,0,1,0-1.9,0V6.266A.951.951,0,0,0,406.8,7.217Z" transform="translate(-354.407 -3.469)"/>
        <path id="Trazado_880909" data-name="Trazado 880909" d="M456.216,21.954a.951.951,0,0,0-1.328.21L453.8,23.659a.951.951,0,1,0,1.538,1.118l1.085-1.494A.951.951,0,0,0,456.216,21.954Z" transform="translate(-396.121 -19.453)"/>
        <path id="Trazado_880910" data-name="Trazado 880910" d="M484.093,72.163a.949.949,0,0,0,.294-.047l1.756-.571a.951.951,0,0,0-.588-1.808l-1.756.571a.951.951,0,0,0,.294,1.855Z" transform="translate(-421.901 -61.296)"/>
        <path id="Trazado_880911" data-name="Trazado 880911" d="M486.144,125.038l-1.756-.571a.951.951,0,0,0-.587,1.808l1.756.571a.951.951,0,0,0,.588-1.808Z" transform="translate(-421.901 -109.089)"/>
      </g>
    </g>
  </g>
</svg>
