<svg xmlns="http://www.w3.org/2000/svg" width="80" height="80" viewBox="0 0 80 80">
  <g id="Grupo_1104756" data-name="Grupo 1104756" transform="translate(-505.051 -655)">
    <rect id="Rectángulo_401663" data-name="Rectángulo 401663" width="80" height="80" rx="8" transform="translate(505.051 655)" fill="#efddcf"/>
    <g id="Layer_32" data-name="Layer 32" transform="translate(514.838 664.787)">
      <path id="Trazado_880912" data-name="Trazado 880912" d="M52,6h9.424v5.654L58.6,12.6v2.827H52Z" transform="translate(-2.94 -0.288)" fill="#f19537"/>
      <path id="Trazado_880913" data-name="Trazado 880913" d="M52,20h9.424v5.654L58.6,26.6v2.827H52Z" transform="translate(-2.94 -1.095)" fill="#82d055"/>
      <path id="Trazado_880914" data-name="Trazado 880914" d="M2,4.827A2.827,2.827,0,0,1,4.827,2H51V52.887l-2.827,2.827L51,58.541H4.827A2.827,2.827,0,0,1,2,55.714Z" transform="translate(-0.058 -0.058)" fill="#4da8e2"/>
      <path id="Trazado_880915" data-name="Trazado 880915" d="M2,4.827V55.714a2.8,2.8,0,0,0,.114.754L8.6,52.887V2H4.827A2.827,2.827,0,0,0,2,4.827Z" transform="translate(-0.058 -0.058)" fill="#3a64db"/>
      <path id="Trazado_880916" data-name="Trazado 880916" d="M14,15.685a32.49,32.49,0,0,0,32.49,32.49h5.2V2H14Z" transform="translate(-0.749 -0.058)" fill="#68c1f7"/>
      <path id="Trazado_880917" data-name="Trazado 880917" d="M4.827,61.654H51l-2.827-2.827L51,56H4.827a2.827,2.827,0,0,0,0,5.654Z" transform="translate(-0.058 -3.171)" fill="#abe7ff"/>
      <g id="Grupo_1104812" data-name="Grupo 1104812" transform="translate(13.251 18.905)">
        <path id="Trazado_880918" data-name="Trazado 880918" d="M14,42.616l9.424-8.481,6.125,6.125L43.213,26.6l2.827,2.827L46.982,20l-9.424.942,2.827,2.827L29.549,34.606l-6.125-6.125L14,36.962Z" transform="translate(-14 -20)" fill="#ec525b"/>
        <path id="Trazado_880919" data-name="Trazado 880919" d="M18.712,51.6V45L14,48.769V51.6Z" transform="translate(-14 -21.441)" fill="#ec525b"/>
        <path id="Trazado_880920" data-name="Trazado 880920" d="M23,41V51.366h4.712V45.712Z" transform="translate(-14.519 -21.211)" fill="#ec525b"/>
        <path id="Trazado_880921" data-name="Trazado 880921" d="M36.712,41V51.366H32V45.712Z" transform="translate(-15.038 -21.211)" fill="#ec525b"/>
        <path id="Trazado_880922" data-name="Trazado 880922" d="M41,36.712V50.847h4.712V32Z" transform="translate(-15.557 -20.692)" fill="#ec525b"/>
      </g>
      <path id="Trazado_880923" data-name="Trazado 880923" d="M18.712,5H14.942A.942.942,0,0,0,14,5.942v7.539h1.885V10.654h2.827a2.827,2.827,0,0,0,0-5.654Zm0,3.769H15.885V6.885h2.827a.942.942,0,0,1,0,1.885Z" transform="translate(-0.749 -0.231)" fill="#f2f2f2"/>
      <path id="Trazado_880924" data-name="Trazado 880924" d="M24.885,5H23v7.539a.942.942,0,0,0,.942.942h4.712V11.6H24.885Z" transform="translate(-1.268 -0.231)" fill="#f2f2f2"/>
      <path id="Trazado_880925" data-name="Trazado 880925" d="M33.769,5A3.769,3.769,0,0,0,30,8.769v4.712h1.885V11.6h3.769v1.885h1.885V8.769A3.769,3.769,0,0,0,33.769,5ZM31.885,9.712V8.769a1.885,1.885,0,0,1,3.769,0v.942Z" transform="translate(-1.672 -0.231)" fill="#f2f2f2"/>
      <path id="Trazado_880926" data-name="Trazado 880926" d="M46.6,5v6.408a.2.2,0,0,1-.371.075L43.988,6.26A2.078,2.078,0,0,0,40,7.078v6.4h1.885v-6.4A.2.2,0,0,1,42.256,7l2.237,5.219a2.078,2.078,0,0,0,3.988-.813V5Z" transform="translate(-2.248 -0.231)" fill="#f2f2f2"/>
      <path id="Trazado_880927" data-name="Trazado 880927" d="M13.559,43.42a.942.942,0,0,0,1.014-.161l8.759-7.883,5.493,5.493a.942.942,0,0,0,1.332,0l13-13,2.161,2.161a.942.942,0,0,0,1.609-.572l.942-9.424A.942.942,0,0,0,46.835,19l-9.424.942a.942.942,0,0,0-.572,1.6L39,23.711l-9.5,9.5-5.459-5.459a.942.942,0,0,0-1.3-.034L13.312,36.2a.942.942,0,0,0-.312.7v5.654a.942.942,0,0,0,.559.861Zm1.326-6.1,8.447-7.6,5.493,5.493a.942.942,0,0,0,1.332,0L40.994,24.378a.942.942,0,0,0,0-1.332l-1.42-1.421,6.3-.629-.63,6.3-1.421-1.421a.942.942,0,0,0-1.332,0l-13,13-5.459-5.459a.942.942,0,0,0-1.3-.034l-7.851,7.066Z" transform="translate(-0.692 -1.037)"/>
      <path id="Trazado_880928" data-name="Trazado 880928" d="M13.942,52.481h4.712a.942.942,0,0,0,.942-.942v-6.6a.942.942,0,0,0-1.531-.736l-4.712,3.769a.942.942,0,0,0-.353.736v2.827A.942.942,0,0,0,13.942,52.481Zm.942-3.317L17.712,46.9V50.6H14.885Z" transform="translate(-0.692 -2.479)"/>
      <path id="Trazado_880929" data-name="Trazado 880929" d="M23.609,40.276A.942.942,0,0,0,22,40.942V51.308a.942.942,0,0,0,.942.942h4.712a.942.942,0,0,0,.942-.942V45.654a.942.942,0,0,0-.276-.666Zm3.1,10.09H23.885V43.217l2.827,2.827Z" transform="translate(-1.211 -2.248)"/>
      <path id="Trazado_880930" data-name="Trazado 880930" d="M37.015,40.072a.942.942,0,0,0-1.027.2l-4.712,4.712a.942.942,0,0,0-.276.666v5.654a.942.942,0,0,0,.942.942h4.712a.942.942,0,0,0,.942-.942V40.942a.942.942,0,0,0-.581-.871Zm-1.3,10.294H32.885V46.044l2.827-2.827Z" transform="translate(-1.729 -2.248)"/>
      <path id="Trazado_880931" data-name="Trazado 880931" d="M46.015,31.072a.942.942,0,0,0-1.027.2l-4.712,4.712a.942.942,0,0,0-.276.666V50.789a.942.942,0,0,0,.942.942h4.712a.942.942,0,0,0,.942-.942V31.942A.942.942,0,0,0,46.015,31.072Zm-1.3,18.775H41.885v-12.8l2.827-2.827Z" transform="translate(-2.248 -1.729)"/>
      <path id="Trazado_880932" data-name="Trazado 880932" d="M15.885,10.654h2.827a2.827,2.827,0,0,0,0-5.654H14.942A.942.942,0,0,0,14,5.942v7.539h1.885Zm0-3.769h2.827a.942.942,0,0,1,0,1.885H15.885Z" transform="translate(-0.749 -0.231)"/>
      <path id="Trazado_880933" data-name="Trazado 880933" d="M23.942,13.481h4.712V11.6H24.885V5H23v7.539A.942.942,0,0,0,23.942,13.481Z" transform="translate(-1.268 -0.231)"/>
      <path id="Trazado_880934" data-name="Trazado 880934" d="M31.885,11.6h3.769v1.885h1.885V8.769a3.769,3.769,0,0,0-7.539,0v4.712h1.885Zm1.885-4.712a1.885,1.885,0,0,1,1.885,1.885v.942H31.885V8.769A1.885,1.885,0,0,1,33.769,6.885Z" transform="translate(-1.672 -0.231)"/>
      <path id="Trazado_880935" data-name="Trazado 880935" d="M41.885,7.078A.2.2,0,0,1,42.256,7l2.237,5.219a2.078,2.078,0,0,0,3.988-.813V5H46.6v6.408a.2.2,0,0,1-.371.075L43.988,6.26A2.078,2.078,0,0,0,40,7.078v6.4h1.885Z" transform="translate(-2.248 -0.231)"/>
      <path id="Trazado_880936" data-name="Trazado 880936" d="M58.483,4.769h-6.6V1.942A.942.942,0,0,0,50.945,1H4.769A3.769,3.769,0,0,0,1,4.769V55.656a3.769,3.769,0,0,0,3.769,3.769H50.945a.942.942,0,0,0,.666-1.609L49.45,55.656,51.611,53.5a.942.942,0,0,0,.276-.666V29.271h3.769a.942.942,0,0,0,.942-.942V26.181l2.182-.727a.942.942,0,0,0,.645-.894V18.9a.942.942,0,0,0-.942-.942h-6.6V16.078h3.769a.942.942,0,0,0,.942-.942V12.988l2.182-.727a.942.942,0,0,0,.645-.894V5.712a.942.942,0,0,0-.942-.942ZM50,51.887H9.481v-49H50Zm-45.233-49H7.6v49H4.769a3.731,3.731,0,0,0-1.885.524V4.769A1.885,1.885,0,0,1,4.769,2.885Zm0,54.656a1.885,1.885,0,0,1,0-3.769h43.9L47.451,54.99a.942.942,0,0,0,0,1.332l1.218,1.218ZM57.541,19.847v4.032l-2.182.727a.942.942,0,0,0-.645.894v1.885H51.887V19.847Zm0-9.161-2.182.727a.942.942,0,0,0-.645.894v1.885H51.887V6.654h5.654Z"/>
    </g>
  </g>
</svg>
