<svg xmlns="http://www.w3.org/2000/svg" width="80" height="80" viewBox="0 0 80 80">
  <g id="Grupo_1104762" data-name="Grupo 1104762" transform="translate(-190.051 -655)">
    <rect id="Rectángulo_401662" data-name="Rectángulo 401662" width="80" height="80" rx="8" transform="translate(190.051 655)" fill="#a6eae8"/>
    <g id="Grupo_1104814" data-name="Grupo 1104814" transform="translate(200.452 635.064)">
      <path id="Trazado_880937" data-name="Trazado 880937" d="M33.072,134.159l-25.584,5.1v26.793a3.227,3.227,0,0,0,3.227,3.227H55.43a3.227,3.227,0,0,0,3.227-3.227V139.261Z" transform="translate(-6.622 -88.311)" fill="#ccc"/>
      <path id="Trazado_880938" data-name="Trazado 880938" d="M55.43,90.035H10.715a3.227,3.227,0,0,0-3.227,3.227v6.976H58.657V93.262A3.227,3.227,0,0,0,55.43,90.035Z" transform="translate(-6.622 -49.288)" fill="#ee534f"/>
      <path id="Trazado_880939" data-name="Trazado 880939" d="M254.454,202.972a17.172,17.172,0,0,0-13.973,27.165h18.167a3.227,3.227,0,0,0,3.227-3.227V204.659A17.078,17.078,0,0,0,254.454,202.972Z" transform="translate(-209.84 -149.168)" opacity="0.1"/>
      <circle id="Elipse_11912" data-name="Elipse 11912" cx="13.717" cy="13.717" r="13.717" transform="translate(30.897 57.267)" fill="#4fc2f8"/>
      <circle id="Elipse_11913" data-name="Elipse 11913" cx="9.88" cy="9.88" r="9.88" transform="translate(34.734 61.105)" fill="#fff"/>
      <path id="Trazado_880940" data-name="Trazado 880940" d="M302.724,275.991a9.88,9.88,0,0,1,8.726-9.811,9.99,9.99,0,0,0-1.154-.069,9.88,9.88,0,1,0,1.154,19.691A9.879,9.879,0,0,1,302.724,275.991Z" transform="translate(-265.681 -205.006)" opacity="0.1"/>
      <g id="Grupo_1104813" data-name="Grupo 1104813" transform="translate(6.817 35.169)">
        <path id="Trazado_880941" data-name="Trazado 880941" d="M61.539,41.791a2.581,2.581,0,0,0-2.582,2.582v5.993a2.582,2.582,0,0,0,5.163,0V44.373A2.581,2.581,0,0,0,61.539,41.791Z" transform="translate(-58.957 -41.791)" fill="#666"/>
        <path id="Trazado_880942" data-name="Trazado 880942" d="M159.862,41.791a2.581,2.581,0,0,0-2.582,2.582v5.993a2.582,2.582,0,0,0,5.163,0V44.373A2.582,2.582,0,0,0,159.862,41.791Z" transform="translate(-145.912 -41.791)" fill="#666"/>
        <path id="Trazado_880943" data-name="Trazado 880943" d="M258.184,41.791a2.581,2.581,0,0,0-2.582,2.582v5.993a2.582,2.582,0,1,0,5.163,0V44.373A2.581,2.581,0,0,0,258.184,41.791Z" transform="translate(-232.866 -41.791)" fill="#666"/>
        <path id="Trazado_880944" data-name="Trazado 880944" d="M356.506,41.791a2.581,2.581,0,0,0-2.582,2.582v5.993a2.582,2.582,0,0,0,5.163,0V44.373A2.581,2.581,0,0,0,356.506,41.791Z" transform="translate(-319.82 -41.791)" fill="#666"/>
      </g>
      <path id="Trazado_880945" data-name="Trazado 880945" d="M295.768,263.384a.866.866,0,0,0-1.194.272,10.757,10.757,0,1,0,2.478-2.746.866.866,0,0,0,1.068,1.363,8.922,8.922,0,0,1,5.553-1.917,9.017,9.017,0,1,1-7.633,4.222A.865.865,0,0,0,295.768,263.384Z" transform="translate(-259.059 -198.385)"/>
      <path id="Trazado_880946" data-name="Trazado 880946" d="M379.247,296.52a.866.866,0,0,0-.866.866v6.79a.866.866,0,0,0,.866.866h6.79a.866.866,0,0,0,0-1.732h-5.925v-5.925A.866.866,0,0,0,379.247,296.52Z" transform="translate(-334.633 -231.9)"/>
      <path id="Trazado_880947" data-name="Trazado 880947" d="M52.9,58.992V43.974a4.1,4.1,0,0,0-4.093-4.093H46.95V37.75a3.447,3.447,0,1,0-6.895,0v2.131H35.582V37.75a3.447,3.447,0,1,0-6.895,0v2.131H24.214V37.75a3.447,3.447,0,1,0-6.895,0v2.131H12.846V37.75a3.448,3.448,0,0,0-6.9,0v2.131H4.093A4.1,4.1,0,0,0,0,43.974V44.4a.866.866,0,1,0,1.732,0v-.427a2.364,2.364,0,0,1,2.361-2.361H5.951v2.131a3.447,3.447,0,1,0,6.895,0V41.613h4.473v2.131a3.447,3.447,0,1,0,6.895,0V41.613h4.473v2.131a3.447,3.447,0,1,0,6.895,0V41.613h4.473v2.131a3.447,3.447,0,1,0,6.895,0V41.613h1.858a2.364,2.364,0,0,1,2.361,2.361v6.11H1.732v-2.22a.866.866,0,1,0-1.732,0V77.743a4.1,4.1,0,0,0,4.093,4.093H34.882a14.567,14.567,0,0,0,18.341.921.866.866,0,0,0-1.023-1.4A12.85,12.85,0,1,1,48.4,58.7l.072.023a12.852,12.852,0,0,1,6.086,20.4.866.866,0,1,0,1.339,1.1,14.575,14.575,0,0,0-3-21.233ZM7.682,37.75a1.716,1.716,0,1,1,3.432,0v5.993a1.716,1.716,0,0,1-3.432,0Zm11.368,0a1.716,1.716,0,1,1,3.432,0v5.993a1.716,1.716,0,0,1-3.432,0Zm11.368,0a1.716,1.716,0,1,1,3.432,0v5.993a1.716,1.716,0,0,1-3.432,0Zm11.368,0a1.716,1.716,0,1,1,3.432,0v5.993a1.716,1.716,0,0,1-3.432,0Zm-6.855,22.34h-2.5V51.816h8.5v5.056A14.566,14.566,0,0,0,34.931,60.091ZM30.059,70.1H22.2V61.822h8.5v4.789A14.5,14.5,0,0,0,30.059,70.1Zm-18.093,0V61.822h8.5V70.1Zm8.5,1.732V80.1h-8.5V71.829ZM1.732,61.822h8.5V70.1h-8.5Zm18.736-1.732h-8.5V51.816h8.5ZM22.2,51.816h8.5v8.275H22.2V51.816ZM32.433,61.822h.845q-.45.555-.845,1.154Zm-22.2-10.007v8.275h-8.5V51.816Zm-8.5,25.927V71.829h8.5V80.1H4.093A2.364,2.364,0,0,1,1.732,77.742ZM22.2,80.1V71.829h7.856A14.391,14.391,0,0,0,33.23,80.1ZM42.667,56.532V51.816h8.5v6.139a14.5,14.5,0,0,0-2.54-.991l-.056-.016a14.608,14.608,0,0,0-5.906-.416Z" transform="translate(0)"/>
    </g>
  </g>
</svg>
