<svg xmlns="http://www.w3.org/2000/svg" width="80" height="80" viewBox="0 0 80 80">
  <g id="Grupo_1104763" data-name="Grupo 1104763" transform="translate(-505.051 -655)">
    <rect id="Rectángulo_401663" data-name="Rectángulo 401663" width="80" height="80" rx="8" transform="translate(505.051 655)" fill="#a6eae8"/>
    <g id="Grupo_1104821" data-name="Grupo 1104821" transform="translate(517.051 664.695)">
      <g id="Grupo_1104819" data-name="Grupo 1104819" transform="translate(0.82 3.407)">
        <path id="Trazado_880948" data-name="Trazado 880948" d="M35.844,295.348H9.9a2.4,2.4,0,0,1-2.4-2.4V289.93a2.4,2.4,0,0,1,2.4-2.4H35.844a2.4,2.4,0,0,1,2.4,2.4v3.019A2.4,2.4,0,0,1,35.844,295.348Z" transform="translate(-7.5 -257.185)" fill="#f1e64c"/>
        <path id="Trazado_880949" data-name="Trazado 880949" d="M14.89,295.351H9.9a2.4,2.4,0,0,1-2.4-2.4v-3.019a2.4,2.4,0,0,1,2.4-2.4H14.89a2.4,2.4,0,0,0-2.4,2.4v3.019A2.4,2.4,0,0,0,14.89,295.351Z" transform="translate(-7.5 -257.188)" fill="#ffc250"/>
        <path id="Trazado_880950" data-name="Trazado 880950" d="M38.243,319.63v1.908a2.4,2.4,0,0,1-2.4,2.4H9.9a2.4,2.4,0,0,1-2.4-2.4V319.63a2.4,2.4,0,0,0,2.4,2.4H35.844A2.4,2.4,0,0,0,38.243,319.63Z" transform="translate(-7.501 -285.773)" fill="#ffc250"/>
        <path id="Trazado_880951" data-name="Trazado 880951" d="M76.482,223.892H50.536a2.4,2.4,0,0,1-2.4-2.4v-3.019a2.4,2.4,0,0,1,2.4-2.4H76.482a2.4,2.4,0,0,1,2.4,2.4v3.019a2.4,2.4,0,0,1-2.4,2.4Z" transform="translate(-43.693 -193.545)" fill="#f1e64c"/>
        <path id="Trazado_880952" data-name="Trazado 880952" d="M55.529,223.895H50.538a2.4,2.4,0,0,1-2.4-2.4v-3.019a2.4,2.4,0,0,1,2.4-2.4h4.991a2.4,2.4,0,0,0-2.4,2.4V221.5a2.4,2.4,0,0,0,2.4,2.4Z" transform="translate(-43.694 -193.547)" fill="#ffc250"/>
        <path id="Trazado_880953" data-name="Trazado 880953" d="M78.882,248.174v1.908a2.4,2.4,0,0,1-2.4,2.4H50.539a2.4,2.4,0,0,1-2.4-2.4v-1.908a2.4,2.4,0,0,0,2.4,2.4H76.483A2.4,2.4,0,0,0,78.882,248.174Z" transform="translate(-43.695 -222.132)" fill="#ffc250"/>
        <path id="Trazado_880954" data-name="Trazado 880954" d="M47.906,152.434H21.96a2.4,2.4,0,0,1-2.4-2.4v-3.019a2.4,2.4,0,0,1,2.4-2.4H47.906a2.4,2.4,0,0,1,2.4,2.4v3.019A2.4,2.4,0,0,1,47.906,152.434Z" transform="translate(-18.243 -129.903)" fill="#f1e64c"/>
        <path id="Trazado_880955" data-name="Trazado 880955" d="M26.953,152.438H21.962a2.4,2.4,0,0,1-2.4-2.4V147.02a2.4,2.4,0,0,1,2.4-2.4h4.991a2.4,2.4,0,0,0-2.4,2.4v3.019A2.4,2.4,0,0,0,26.953,152.438Z" transform="translate(-18.244 -129.906)" fill="#ffc250"/>
        <path id="Trazado_880956" data-name="Trazado 880956" d="M50.305,176.716v1.908a2.4,2.4,0,0,1-2.4,2.4H21.962a2.4,2.4,0,0,1-2.4-2.4v-1.908a2.4,2.4,0,0,0,2.4,2.4H47.906A2.4,2.4,0,0,0,50.305,176.716Z" transform="translate(-18.244 -158.49)" fill="#ffc250"/>
        <path id="Trazado_880957" data-name="Trazado 880957" d="M55.844,366.806H29.9a2.4,2.4,0,0,1-2.4-2.4v-3.019a2.4,2.4,0,0,1,2.4-2.4H55.844a2.4,2.4,0,0,1,2.4,2.4v3.019A2.4,2.4,0,0,1,55.844,366.806Z" transform="translate(-25.312 -320.828)" fill="#f1e64c"/>
        <path id="Trazado_880958" data-name="Trazado 880958" d="M58.243,391.088V393a2.4,2.4,0,0,1-2.4,2.4H29.9a2.4,2.4,0,0,1-2.4-2.4v-1.908a2.4,2.4,0,0,0,2.4,2.4H55.844A2.4,2.4,0,0,0,58.243,391.088Z" transform="translate(-25.313 -349.415)" fill="#ffc250"/>
        <path id="Trazado_880959" data-name="Trazado 880959" d="M34.89,366.809H29.9a2.4,2.4,0,0,1-2.4-2.4v-3.019a2.4,2.4,0,0,1,2.4-2.4H34.89a2.4,2.4,0,0,0-2.4,2.4v3.019A2.4,2.4,0,0,0,34.89,366.809Z" transform="translate(-25.312 -320.83)" fill="#ffc250"/>
        <path id="Trazado_880960" data-name="Trazado 880960" d="M40.844,438.264H14.9a2.4,2.4,0,0,1-2.4-2.4v-3.019a2.4,2.4,0,0,1,2.4-2.4H40.844a2.4,2.4,0,0,1,2.4,2.4v3.019A2.4,2.4,0,0,1,40.844,438.264Z" transform="translate(-11.953 -384.47)" fill="#f1e64c"/>
        <path id="Trazado_880961" data-name="Trazado 880961" d="M43.243,462.546v1.908a2.4,2.4,0,0,1-2.4,2.4H14.9a2.4,2.4,0,0,1-2.4-2.4v-1.908a2.4,2.4,0,0,0,2.4,2.4H40.844A2.4,2.4,0,0,0,43.243,462.546Z" transform="translate(-11.954 -413.057)" fill="#ffc250"/>
        <path id="Trazado_880962" data-name="Trazado 880962" d="M19.89,438.267H14.9a2.4,2.4,0,0,1-2.4-2.4v-3.019a2.4,2.4,0,0,1,2.4-2.4H19.89a2.4,2.4,0,0,0-2.4,2.4v3.019A2.4,2.4,0,0,0,19.89,438.267Z" transform="translate(-11.953 -384.473)" fill="#ffc250"/>
        <g id="Grupo_1104816" data-name="Grupo 1104816" transform="translate(23.617 23.052)">
          <circle id="Elipse_11914" data-name="Elipse 11914" cx="15.371" cy="15.371" r="15.371" fill="#f1e64c"/>
          <g id="Grupo_1104815" data-name="Grupo 1104815" transform="translate(0 0)">
            <path id="Trazado_880963" data-name="Trazado 880963" d="M240.1,251.528q-.642.055-1.3.055a15.371,15.371,0,1,1,0-30.742q.658,0,1.3.055a15.371,15.371,0,0,0,0,30.632Z" transform="translate(-223.43 -220.841)" fill="#ffc250"/>
            <circle id="Elipse_11915" data-name="Elipse 11915" cx="10.379" cy="10.379" r="10.379" transform="translate(4.992 4.991)" fill="#ffc250"/>
          </g>
        </g>
        <g id="Grupo_1104817" data-name="Grupo 1104817" transform="translate(5.647 1.322)">
          <path id="Trazado_880964" data-name="Trazado 880964" d="M74.249,53.65V41h2.163a3.411,3.411,0,0,0,2.954-5.117L72.434,23.871a3.411,3.411,0,0,0-5.908,0L59.592,35.878A3.411,3.411,0,0,0,62.546,41H64.71V53.65A2.147,2.147,0,0,0,66.857,55.8H72.1A2.147,2.147,0,0,0,74.249,53.65Z" transform="translate(-59.13 -22.166)" fill="#95d6a4"/>
          <path id="Trazado_880965" data-name="Trazado 880965" d="M68.832,55.8H66.857a2.146,2.146,0,0,1-2.146-2.146V41H62.546a3.41,3.41,0,0,1-2.953-5.117l6.933-12.006a3.379,3.379,0,0,1,2.954-1.7,2.278,2.278,0,0,0-1.978,1.7L62.856,35.885C61.976,38.16,63.076,41,64.835,41h.889a1.669,1.669,0,0,1,1.669,1.669V53.656C67.393,54.842,68.038,55.8,68.832,55.8Z" transform="translate(-59.13 -22.173)" fill="#78c2a4"/>
        </g>
        <g id="Grupo_1104818" data-name="Grupo 1104818" transform="translate(27.653 0)">
          <path id="Trazado_880966" data-name="Trazado 880966" d="M372.359,139.357l-.063-.234a1.626,1.626,0,0,1,1.043-1.959l2.488-.853a1.626,1.626,0,0,1,2.1,1.117l.156.582a1.626,1.626,0,0,1-1.258,2.017l-2.581.505A1.626,1.626,0,0,1,372.359,139.357Z" transform="translate(-360 -122.425)" fill="#f7f493"/>
          <path id="Trazado_880967" data-name="Trazado 880967" d="M331.717,60.663l-.171-.171a1.626,1.626,0,0,1-.076-2.218l1.728-1.982a1.626,1.626,0,0,1,2.376-.081l.426.426a1.626,1.626,0,0,1-.081,2.376l-1.982,1.728a1.626,1.626,0,0,1-2.218-.076Z" transform="translate(-323.331 -50.739)" fill="#f7f493"/>
          <path id="Trazado_880968" data-name="Trazado 880968" d="M261.764,15.918l-.234-.063a1.626,1.626,0,0,1-1.175-1.883l.505-2.581a1.626,1.626,0,0,1,2.017-1.258l.582.156a1.626,1.626,0,0,1,1.117,2.1l-.853,2.488a1.626,1.626,0,0,1-1.959,1.043Z" transform="translate(-260.325 -10.077)" fill="#f7f493"/>
        </g>
      </g>
      <g id="Grupo_1104820" data-name="Grupo 1104820" transform="translate(0 2.587)">
        <path id="Trazado_880969" data-name="Trazado 880969" d="M51.6,41.487A.82.82,0,1,0,50.4,42.612a14.549,14.549,0,1,1-2.353-2.018.82.82,0,0,0,.931-1.351,16.2,16.2,0,0,0-13.047-2.378,3.206,3.206,0,0,0-2.324-.991h-.322A3.2,3.2,0,0,0,33.7,34.3V31.277a3.223,3.223,0,0,0-3.219-3.219h-3.49L20.482,16.781a4.19,4.19,0,0,0-3.666-2.116h0a4.187,4.187,0,0,0-3.663,2.115L6.641,28.058h-2.1a3.223,3.223,0,0,0-3.219,3.219V34.3a3.223,3.223,0,0,0,3.219,3.219H4.86a3.2,3.2,0,0,0-.415,1.578v3.019A3.2,3.2,0,0,0,4.86,43.69H3.219A3.222,3.222,0,0,0,0,46.908v3.019a3.224,3.224,0,0,0,2.634,3.165,3.2,3.2,0,0,0-.446,1.633v3.019A3.2,3.2,0,0,0,2.711,59.5,3.224,3.224,0,0,0,.547,62.54v3.019a3.223,3.223,0,0,0,3.219,3.219H29.711a3.23,3.23,0,0,0,2.846-1.717A16.19,16.19,0,0,0,51.6,41.487ZM3.828,57.743V54.724a1.58,1.58,0,0,1,1.578-1.578H23.628a16.082,16.082,0,0,0,1.458,6.175H5.406a1.58,1.58,0,0,1-1.578-1.578ZM33.846,37.533a16.283,16.283,0,0,0-7.558,6.157h-3.88V37.515h11.2a1.58,1.58,0,0,1,.237.018Zm-1.785-6.256V34.3a1.58,1.58,0,0,1-1.578,1.578H22.408v-.739H23.75A4.234,4.234,0,0,0,27.808,29.7h2.675a1.58,1.58,0,0,1,1.578,1.578ZM2.96,34.3V31.277A1.58,1.58,0,0,1,4.538,29.7H5.826a4.178,4.178,0,0,0-.075,2.123.82.82,0,0,0,1.6-.361,2.534,2.534,0,0,1,.29-1.853L14.574,17.6a2.563,2.563,0,0,1,2.242-1.295h0a2.566,2.566,0,0,1,2.245,1.3l6.932,12.006a2.591,2.591,0,0,1-2.244,3.887H21.587a.82.82,0,0,0-.82.82V46.969A1.328,1.328,0,0,1,19.44,48.3H14.195a1.328,1.328,0,0,1-1.327-1.327V34.315a.82.82,0,0,0-.82-.82H9.884a2.607,2.607,0,0,1-.893-.154.82.82,0,1,0-.561,1.542,4.24,4.24,0,0,0,1.454.253h1.343v.739H4.538A1.58,1.58,0,0,1,2.96,34.3Zm3.126,7.816V39.093a1.58,1.58,0,0,1,1.578-1.578h3.563V43.69H7.664A1.58,1.58,0,0,1,6.086,42.112ZM1.641,49.927V46.908a1.58,1.58,0,0,1,1.578-1.577h8.008v1.638a2.971,2.971,0,0,0,2.967,2.967H19.44a2.971,2.971,0,0,0,2.967-2.967V45.331h2.929A16.072,16.072,0,0,0,23.654,51.5H3.219a1.58,1.58,0,0,1-1.578-1.578Zm28.07,17.21H3.766a1.58,1.58,0,0,1-1.578-1.578V62.54a1.58,1.58,0,0,1,1.578-1.578h22.19a16.319,16.319,0,0,0,5.172,5.288A1.582,1.582,0,0,1,29.711,67.137Z" transform="translate(0 -13.344)"/>
        <path id="Trazado_880970" data-name="Trazado 880970" d="M329.3,295.933c-.29-.085-.588-.173-.884-.266v-3.635a3.467,3.467,0,0,1,1.447.53.82.82,0,0,0,.987-1.31,5.188,5.188,0,0,0-2.434-.87v-.709a.82.82,0,0,0-1.641,0v.761q-.237.04-.485.1a3.429,3.429,0,0,0-2.63,2.688,2.643,2.643,0,0,0,1.158,2.7,9.713,9.713,0,0,0,1.957.92v4.6a4.731,4.731,0,0,1-2.341-.678.82.82,0,0,0-.778,1.444,6.277,6.277,0,0,0,3.119.876v.806a.82.82,0,0,0,1.641,0v-.859a4.178,4.178,0,0,0,3.689-3.37c.238-1.7-.863-3.169-2.806-3.735Zm-3.592-1.386a1.016,1.016,0,0,1-.43-1.054,1.761,1.761,0,0,1,1.407-1.365l.09-.021v2.978A6.868,6.868,0,0,1,325.708,294.547Zm4.772,4.893a2.49,2.49,0,0,1-2.065,1.928v-3.986l.425.126C330.007,297.847,330.6,298.552,330.481,299.44Z" transform="translate(-287.872 -257.542)"/>
        <path id="Trazado_880971" data-name="Trazado 880971" d="M272.769,258.977a11.2,11.2,0,1,0,11.2,11.2A11.212,11.212,0,0,0,272.769,258.977Zm0,20.759a9.559,9.559,0,1,1,9.559-9.559A9.57,9.57,0,0,1,272.769,279.736Z" transform="translate(-232.96 -230.934)"/>
        <path id="Trazado_880972" data-name="Trazado 880972" d="M364.829,132.665l.063.234h0a2.456,2.456,0,0,0,2.366,1.813,2.426,2.426,0,0,0,.467-.046l2.581-.505a2.446,2.446,0,0,0,1.893-3.034l-.156-.582a2.447,2.447,0,0,0-3.157-1.681l-2.488.853A2.454,2.454,0,0,0,364.829,132.665Zm2.1-1.4,2.488-.853a.806.806,0,0,1,1.04.554l.156.582a.806.806,0,0,1-.624,1l-2.581.505a.807.807,0,0,1-.933-.582l-.063-.234A.808.808,0,0,1,366.931,131.27Z" transform="translate(-324.852 -114.936)"/>
        <path id="Trazado_880973" data-name="Trazado 880973" d="M324.478,54.563a2.454,2.454,0,0,0,3.337.114l1.982-1.728a2.446,2.446,0,0,0,.123-3.574l-.426-.426a2.446,2.446,0,0,0-3.574.123l-1.728,1.982a2.454,2.454,0,0,0,.114,3.337Zm.951-2.431,1.728-1.982a.8.8,0,0,1,.58-.276h.029a.8.8,0,0,1,.569.236l.426.426a.806.806,0,0,1-.04,1.177l-1.983,1.728a.808.808,0,0,1-1.1-.038l-.171-.171a.808.808,0,0,1-.038-1.1Z" transform="translate(-288.2 -43.24)"/>
        <path id="Trazado_880974" data-name="Trazado 880974" d="M271.547,70.725h0Z" transform="translate(-241.847 -63.272)"/>
        <path id="Trazado_880975" data-name="Trazado 880975" d="M254.642,9.977l.234.063a2.43,2.43,0,0,0,.629.083,2.456,2.456,0,0,0,2.318-1.653l.853-2.488A2.446,2.446,0,0,0,257,2.826l-.582-.156a2.446,2.446,0,0,0-3.034,1.893l-.505,2.581a2.454,2.454,0,0,0,1.768,2.833Zm-.158-2.518.505-2.581a.807.807,0,0,1,.789-.652.815.815,0,0,1,.211.028l.582.156a.806.806,0,0,1,.554,1.04l-.853,2.488a.809.809,0,0,1-.971.517h0l-.234-.063A.809.809,0,0,1,254.484,7.459Z" transform="translate(-225.176 -2.587)"/>
      </g>
    </g>
  </g>
</svg>
