<svg xmlns="http://www.w3.org/2000/svg" width="80" height="80" viewBox="0 0 80 80">
  <g id="Grupo_1104764" data-name="Grupo 1104764" transform="translate(-820.051 -655)">
    <rect id="Rectángulo_401664" data-name="Rectángulo 401664" width="80" height="80" rx="8" transform="translate(820.051 655)" fill="#a6eae8"/>
    <g id="Grupo_1104828" data-name="Grupo 1104828" transform="translate(820.964 609.085)">
      <g id="Grupo_1104827" data-name="Grupo 1104827" transform="translate(4.085 59.341)">
        <g id="Grupo_1104822" data-name="Grupo 1104822" transform="translate(5.975)">
          <path id="Trazado_880976" data-name="Trazado 880976" d="M75.46,82.078V67.44a1.22,1.22,0,0,1,1.218-1.218h46.651a1.22,1.22,0,0,1,1.218,1.218V88.6a1.22,1.22,0,0,1-1.218,1.218H79.012a1.2,1.2,0,0,1-1.146-.807l-2.334-6.518A1.163,1.163,0,0,1,75.46,82.078Z" transform="translate(-71.44 -66.222)" fill="#abd641" fill-rule="evenodd"/>
          <path id="Trazado_880977" data-name="Trazado 880977" d="M46.754,117.984V96.829a1.22,1.22,0,0,1,1.218-1.218H94.623a1.22,1.22,0,0,1,1.218,1.218v21.156a1.22,1.22,0,0,1-1.218,1.218H47.972a1.22,1.22,0,0,1-1.218-1.218Z" transform="translate(-46.754 -91.496)" fill="#c2ed56" fill-rule="evenodd"/>
          <path id="Trazado_880978" data-name="Trazado 880978" d="M46.754,117.984V96.829a1.22,1.22,0,0,1,1.218-1.218h.3v20.851a1.22,1.22,0,0,0,1.218,1.218H95.84v.3a1.22,1.22,0,0,1-1.218,1.218H47.972a1.22,1.22,0,0,1-1.218-1.218Z" transform="translate(-46.754 -91.496)" fill="#b7e546" fill-rule="evenodd"/>
          <path id="Trazado_880979" data-name="Trazado 880979" d="M115.678,138.1a2.771,2.771,0,0,1,2.738-2.8V124.661a2.771,2.771,0,0,1-2.738-2.8h-35.3a2.771,2.771,0,0,1-2.738,2.8V135.3a2.771,2.771,0,0,1,2.738,2.8Z" transform="translate(-73.318 -114.067)" fill="#eceff1" fill-rule="evenodd"/>
        </g>
        <g id="Grupo_1104823" data-name="Grupo 1104823" transform="translate(1.67 32.537)">
          <path id="Trazado_880980" data-name="Trazado 880980" d="M30.527,314.926H18a2,2,0,0,1-1.993-1.993v-1.463A2,2,0,0,1,18,309.478a2,2,0,0,1-1.993-1.993v-1.463A2,2,0,0,1,18,304.03a2,2,0,0,1-1.993-1.993v-1.463A2,2,0,0,1,18,298.582H30.527a2,2,0,0,1,1.993,1.993v1.463a2,2,0,0,1-1.993,1.993,2,2,0,0,1,1.993,1.993v1.463a2,2,0,0,1-1.993,1.993,2,2,0,0,1,1.993,1.993v1.463A2,2,0,0,1,30.527,314.926Z" transform="translate(-16.01 -298.582)" fill="#ffd064" fill-rule="evenodd"/>
          <path id="Trazado_880981" data-name="Trazado 880981" d="M110.625,314.926H109.15a2,2,0,0,0,1.993-1.993v-1.463a2,2,0,0,0-1.993-1.993,2,2,0,0,0,1.993-1.993v-1.463a2,2,0,0,0-1.993-1.993,2,2,0,0,0,1.993-1.993v-1.463a2,2,0,0,0-1.993-1.993h1.475a2,2,0,0,1,1.993,1.993v1.463a2,2,0,0,1-1.993,1.993,2,2,0,0,1,1.993,1.993v1.463a2,2,0,0,1-1.993,1.993,2,2,0,0,1,1.993,1.993v1.463A2,2,0,0,1,110.625,314.926Z" transform="translate(-96.108 -298.582)" fill="#ffc338" fill-rule="evenodd"/>
          <path id="Trazado_880982" data-name="Trazado 880982" d="M30.527,337.489H18a2,2,0,0,0-1.993,1.993v1.463A2,2,0,0,0,18,342.937H30.527a2,2,0,0,0,1.993-1.993v-1.463A2,2,0,0,0,30.527,337.489Z" transform="translate(-16.01 -332.041)" fill="#ffc338" fill-rule="evenodd"/>
          <path id="Trazado_880983" data-name="Trazado 880983" d="M110.625,337.489H109.15a2,2,0,0,1,1.993,1.993v1.463a2,2,0,0,1-1.993,1.993h1.475a2,2,0,0,0,1.993-1.993v-1.463A2,2,0,0,0,110.625,337.489Z" transform="translate(-96.108 -332.041)" fill="#f5b829" fill-rule="evenodd"/>
        </g>
        <g id="Grupo_1104824" data-name="Grupo 1104824" transform="translate(18.18 37.985)">
          <path id="Trazado_880984" data-name="Trazado 880984" d="M135.906,348.385H148.43a2,2,0,0,0,1.993-1.993V344.93a2,2,0,0,0-1.993-1.993,2,2,0,0,0,1.993-1.993v-1.463a2,2,0,0,0-1.993-1.993H135.906a2,2,0,0,0-1.993,1.993v1.463a2,2,0,0,0,1.993,1.993,2,2,0,0,0-1.993,1.993v1.463A2,2,0,0,0,135.906,348.385Z" transform="translate(-133.913 -337.489)" fill="#ffc338" fill-rule="evenodd"/>
          <path id="Trazado_880985" data-name="Trazado 880985" d="M227.052,348.385h1.475a2,2,0,0,0,1.993-1.993V344.93a2,2,0,0,0-1.993-1.993,2,2,0,0,0,1.993-1.993v-1.463a2,2,0,0,0-1.993-1.993h-1.475a2,2,0,0,1,1.993,1.993v1.463a2,2,0,0,1-1.993,1.993,2,2,0,0,1,1.993,1.993v1.463A2,2,0,0,1,227.052,348.385Z" transform="translate(-214.01 -337.489)" fill="#f5b829" fill-rule="evenodd"/>
          <path id="Trazado_880986" data-name="Trazado 880986" d="M135.906,381.844H148.43a2,2,0,0,0,1.993-1.993v-1.463a2,2,0,0,0-1.993-1.993H135.906a2,2,0,0,0-1.993,1.993v1.463A2,2,0,0,0,135.906,381.844Z" transform="translate(-133.913 -370.948)" fill="#ffd064" fill-rule="evenodd"/>
          <path id="Trazado_880987" data-name="Trazado 880987" d="M227.052,381.844h1.475a2,2,0,0,0,1.993-1.993v-1.463a2,2,0,0,0-1.993-1.993h-1.475a2,2,0,0,1,1.993,1.993v1.463A2,2,0,0,1,227.052,381.844Z" transform="translate(-214.01 -370.948)" fill="#ffc338" fill-rule="evenodd"/>
        </g>
        <g id="Grupo_1104825" data-name="Grupo 1104825" transform="translate(37.238 25.018)">
          <path id="Trazado_880988" data-name="Trazado 880988" d="M288.312,246.317a2.857,2.857,0,0,0-4.949,0l-12.942,22.416a2.857,2.857,0,0,0,2.474,4.286H298.78a2.857,2.857,0,0,0,2.474-4.286Z" transform="translate(-270.017 -244.888)" fill="#ffd064" fill-rule="evenodd"/>
          <path id="Trazado_880989" data-name="Trazado 880989" d="M377.947,246.317a2.722,2.722,0,0,0-2.474-1.429,2.913,2.913,0,0,0-1.226.253,2.78,2.78,0,0,1,1.248,1.175l12.942,22.416a2.857,2.857,0,0,1-2.474,4.286h2.453a2.857,2.857,0,0,0,2.474-4.286Z" transform="translate(-359.651 -244.888)" fill="#ffc338" fill-rule="evenodd"/>
          <path id="Trazado_880990" data-name="Trazado 880990" d="M372.892,302.361a1.646,1.646,0,1,1-1.646,1.646A1.646,1.646,0,0,1,372.892,302.361Zm1.209-3.372a1.214,1.214,0,1,1-2.418,0l-.343-9.97a1.317,1.317,0,0,1,1.25-1.369h.6a1.317,1.317,0,0,1,1.25,1.369Z" transform="translate(-357.071 -281.661)" fill="#fe646f" fill-rule="evenodd"/>
          <path id="Trazado_880991" data-name="Trazado 880991" d="M381.139,302.361a1.646,1.646,0,1,1-.3,3.265,1.647,1.647,0,0,0,0-3.237,1.668,1.668,0,0,1,.3-.028Zm1.209-3.372a1.274,1.274,0,0,1-1.209,1.324,1.1,1.1,0,0,1-.3-.043,1.313,1.313,0,0,0,.905-1.281l.343-9.97a1.318,1.318,0,0,0-1.248-1.369h.6a1.317,1.317,0,0,1,1.25,1.369Z" transform="translate(-365.317 -281.661)" fill="#fd4755" fill-rule="evenodd"/>
        </g>
        <g id="Grupo_1104826" data-name="Grupo 1104826" transform="translate(0 15.638)">
          <circle id="Elipse_11916" data-name="Elipse 11916" cx="8.255" cy="8.255" r="8.255" transform="translate(0 3.797) rotate(-13.3)" fill="#ffc338"/>
          <path id="Trazado_880992" data-name="Trazado 880992" d="M72.187,189.949a8.255,8.255,0,0,1,0,16.51q-.227,0-.452-.012a8.255,8.255,0,0,0,0-16.485c.15-.008.3-.012.452-.012Z" transform="translate(-62.262 -188.262)" fill="#f5b829" fill-rule="evenodd"/>
        </g>
      </g>
      <path id="Trazado_880993" data-name="Trazado 880993" d="M61.039,106.705a.526.526,0,1,0-.526.527A.527.527,0,0,0,61.039,106.705Zm-.958-15,.341,9.945a.26.26,0,0,1,0,.039.231.231,0,0,0,.092.2.259.259,0,0,0,.086-.2v-.039l.343-9.945c-.006-.153-.1-.235-.131-.235h-.6A.242.242,0,0,0,60.081,91.7Zm3.2,15a2.766,2.766,0,1,1-3.442-2.68,2.436,2.436,0,0,1-1.654-2.316l-.343-9.954v-.039a2.433,2.433,0,0,1,2.369-2.488h.6a2.434,2.434,0,0,1,2.371,2.488v.039l-.343,9.954a2.436,2.436,0,0,1-1.656,2.316,2.77,2.77,0,0,1,2.093,2.68Zm11.679,2.058a1.738,1.738,0,0,1-1.5,2.606H47.57a1.738,1.738,0,0,1-1.5-2.606L59.008,86.348a1.738,1.738,0,0,1,3.009,0ZM56.664,85.926l.4-.7a3.84,3.84,0,0,1,3.445-1.988,4.2,4.2,0,0,1,.882.091V64.576H14.548V76a9.341,9.341,0,0,1,2.085-.407V69.935a1.12,1.12,0,0,1,1.121-1.12,1.653,1.653,0,0,0,1.618-1.683,1.12,1.12,0,0,1,1.12-1.12h35.3a1.12,1.12,0,0,1,1.121,1.12,1.654,1.654,0,0,0,1.619,1.683,1.12,1.12,0,0,1,1.12,1.12V80.569a1.12,1.12,0,0,1-1.12,1.12,1.654,1.654,0,0,0-1.619,1.683,1.12,1.12,0,0,1-1.121,1.12H26.767c.007.15.011.3.011.455a9.581,9.581,0,0,1-.051.979ZM26.778,99.369v1.466a.876.876,0,0,0,.876.875H40.2a.876.876,0,0,0,.876-.875V99.369a.876.876,0,0,0-.876-.875H27.654A.876.876,0,0,0,26.778,99.369Zm14.3,5.458a.877.877,0,0,0-.876-.877H27.654a.877.877,0,0,0-.876.877v1.465a.877.877,0,0,0,.876.876H40.2a.877.877,0,0,0,.876-.876v-1.465Zm-16.538,1.465v-1.465a.877.877,0,0,0-.876-.877H11.116a.877.877,0,0,0-.876.877v1.465a.877.877,0,0,0,.876.876H23.662A.877.877,0,0,0,24.538,106.292Zm-.876-4.582a.876.876,0,0,0,.876-.875V99.369a.876.876,0,0,0-.876-.875H11.116a.876.876,0,0,0-.876.875v1.466a.876.876,0,0,0,.876.875Zm-1.513-8.675a9.357,9.357,0,0,1-9.519,0H11.116a.878.878,0,0,0-.876.877v1.465a.878.878,0,0,0,.876.877H23.662a.877.877,0,0,0,.876-.877V93.912a.877.877,0,0,0-.876-.877Zm4.233-10.783a9.415,9.415,0,0,0-7.509-6.576v-4.79a3.908,3.908,0,0,0,2.578-2.634H54.828a3.9,3.9,0,0,0,2.578,2.634v8.731a3.906,3.906,0,0,0-2.578,2.635Zm-16.142,2.7A7.149,7.149,0,1,1,17.39,92.1a7.157,7.157,0,0,1-7.149-7.148Zm8.328-22.612V60.461H65.413v21.35H63.635V63.456a1.12,1.12,0,0,0-1.12-1.12ZM76.9,111.62a3.841,3.841,0,0,1-3.444,1.99H47.57a3.978,3.978,0,0,1-3.444-5.967L55.37,88.167H26.21a9.387,9.387,0,0,1-1.6,2.776,3.123,3.123,0,0,1,2.17,2.97v1.465a3.1,3.1,0,0,1-.187,1.063,3.1,3.1,0,0,1,1.062-.186H40.2a3.119,3.119,0,0,1,3.116,3.116v1.466a3.1,3.1,0,0,1-.725,2,3.107,3.107,0,0,1,.725,2v1.465a3.121,3.121,0,0,1-3.116,3.117H27.654a3.1,3.1,0,0,1-2-.727,3.1,3.1,0,0,1-2,.727H11.116A3.121,3.121,0,0,1,8,106.292v-1.465a3.108,3.108,0,0,1,.725-2,3.1,3.1,0,0,1-.725-2V99.369a3.1,3.1,0,0,1,.725-2,3.108,3.108,0,0,1-.725-2V93.912a3.123,3.123,0,0,1,2.17-2.97,9.373,9.373,0,0,1,2.138-13.884v-13.6a1.12,1.12,0,0,1,1.121-1.12h2.9v-3a1.121,1.121,0,0,1,1.121-1.12H66.533a1.121,1.121,0,0,1,1.121,1.12V82.931a1.12,1.12,0,0,1-1.121,1.12h-2.9v.693a4.625,4.625,0,0,1,.322.483L76.9,107.643a3.842,3.842,0,0,1,0,3.977ZM17.471,87.89a1.973,1.973,0,0,0,1.341-.469.458.458,0,0,0,.1-.4c-.026-.218-.088-.73-1.7-.994-2.787-.458-3.278-2.056-3.322-2.967a3.1,3.1,0,0,1,2.376-3.128v-.213a1.12,1.12,0,1,1,2.24,0v.2A3.529,3.529,0,0,1,20.856,82a1.12,1.12,0,1,1-2.066.867,1.512,1.512,0,0,0-1.781-.821c-.214.049-.91.258-.879.9.007.155.03.632,1.447.864,2.17.356,3.368,1.344,3.562,2.935a2.691,2.691,0,0,1-.633,2.14,3.735,3.735,0,0,1-2,1.121v.172a1.12,1.12,0,1,1-2.24,0v-.192a3.533,3.533,0,0,1-2.619-2.546,1.12,1.12,0,1,1,2.174-.542,1.537,1.537,0,0,0,1.647.989ZM38.16,74.118c2.1.346,3.265,1.307,3.453,2.855a2.621,2.621,0,0,1-.618,2.087,3.617,3.617,0,0,1-1.9,1.082v.127a1.12,1.12,0,1,1-2.24,0v-.147a3.427,3.427,0,0,1-2.511-2.466,1.12,1.12,0,1,1,2.174-.542,1.433,1.433,0,0,0,1.534.914,1.858,1.858,0,0,0,1.252-.434.4.4,0,0,0,.089-.351c-.024-.2-.081-.667-1.592-.915-2.7-.444-3.181-2-3.224-2.887A3.017,3.017,0,0,1,36.851,70.4v-.169a1.12,1.12,0,1,1,2.24,0v.16a3.428,3.428,0,0,1,2.247,2.016,1.12,1.12,0,1,1-2.066.867,1.4,1.4,0,0,0-1.656-.759c-.2.045-.835.235-.807.815.007.14.027.568,1.349.785Zm12.829.014a1.12,1.12,0,1,1,0,2.24H46.77a1.12,1.12,0,1,1,0-2.24Zm-20.7,1.12a1.12,1.12,0,0,1-1.121,1.12H24.953a1.12,1.12,0,1,1,0-2.24h4.218A1.12,1.12,0,0,1,30.292,75.252Z" transform="translate(-3.367)" fill-rule="evenodd"/>
    </g>
  </g>
</svg>
