<svg xmlns="http://www.w3.org/2000/svg" width="96.762" height="96.762" viewBox="0 0 96.762 96.762">
  <g id="Grupo_1101849" data-name="Grupo 1101849" transform="translate(-332.051 -5915.718)">
    <rect id="Rect치ngulo_400907" data-name="Rect치ngulo 400907" width="89" height="89" rx="44.5" transform="translate(336.051 5918.718)" fill="none"/>
    <g id="Grupo_1099176" data-name="Grupo 1099176" transform="translate(5.27 1939.718)">
      <g id="Grupo_1099174" data-name="Grupo 1099174" transform="translate(326.781 3976)">
        <g id="Grupo_1099167" data-name="Grupo 1099167" transform="translate(0 0)">
          <path id="Trazado_873000" data-name="Trazado 873000" d="M48.381,0h0V22.476a25.9,25.9,0,1,0,25.905,25.9H96.762A48.381,48.381,0,1,1,48.381,0" transform="translate(0 96.762) rotate(-90)" fill="#201144"/>
        </g>
        <rect id="Rect치ngulo_401249" data-name="Rect치ngulo 401249" width="66.409" height="66.409" rx="33.204" transform="translate(15.157 15.157)" fill="#e8faf9"/>
      </g>
    </g>
    <g id="Grupo_1101856" data-name="Grupo 1101856" transform="translate(359.998 5943.67)">
      <path id="Trazado_876722" data-name="Trazado 876722" d="M47.225,16.14l.361,6.58a1.358,1.358,0,0,1-1.355,1.437H40.176A1.366,1.366,0,0,1,38.813,22.8V20.071a1.366,1.366,0,0,0-1.362-1.362H34.686a1.3,1.3,0,0,1-1.281-.933,1.265,1.265,0,0,1,.654-1.458l.334-.163a.185.185,0,0,0,.007-.327l-.524-.266a.477.477,0,0,1-.157-.715l.143-.184a.328.328,0,0,0-.191-.518l-.313-.061a.477.477,0,0,1-.334-.661,3.535,3.535,0,0,0,.341-1.526h-.756a.6.6,0,0,1-.463-.988l2.582-3.1L34.413,7.5a1.358,1.358,0,0,1-.279-1.519A8.514,8.514,0,1,1,47.225,16.14Z" transform="translate(-10.205 -0.317)" fill="#eac2aa"/>
      <path id="Trazado_876723" data-name="Trazado 876723" d="M18.782,11.9h-.756a3.2,3.2,0,0,0,.341,1.526.477.477,0,0,1-.334.661l-.313.061a.328.328,0,0,0-.191.518l.143.184a.477.477,0,0,1-.157.715l-.524.266a.184.184,0,0,0,.007.327l.334.163a1.265,1.265,0,0,1,.654,1.458,1.3,1.3,0,0,1-1.281.933H13.939a1.366,1.366,0,0,0-1.362,1.362V22.8a1.366,1.366,0,0,1-1.362,1.362H5.159A1.358,1.358,0,0,1,3.8,22.72l.361-6.58A8.514,8.514,0,1,1,17.256,5.985,1.358,1.358,0,0,1,16.977,7.5l-.313.307,2.582,3.1a.6.6,0,0,1-.463.988Z" transform="translate(-0.316 -0.317)" fill="#eac2aa"/>
      <path id="Trazado_876724" data-name="Trazado 876724" d="M34.348,41.689A4.8,4.8,0,0,1,33.036,45l-6.49,6.811a.545.545,0,0,1-.8,0L19.35,45.1a4.993,4.993,0,0,1-.1-6.72,4.323,4.323,0,0,1,6.322-.005l.572.6.573-.6a4.318,4.318,0,0,1,6.317,0A4.8,4.8,0,0,1,34.348,41.689Z" transform="translate(-5.739 -11.798)" fill="#cd596b"/>
      <circle id="Elipse_11649" data-name="Elipse 11649" cx="3.406" cy="3.406" r="3.406" transform="translate(4.769 5.45)" fill="#cd596b"/>
      <circle id="Elipse_11650" data-name="Elipse 11650" cx="3.406" cy="3.406" r="3.406" transform="translate(29.29 5.45)" fill="#cd596b"/>
      <path id="Trazado_876725" data-name="Trazado 876725" d="M17.564,5.382A9.2,9.2,0,1,0,3.151,16.125L2.81,22.362a2.013,2.013,0,0,0,.549,1.517,2.048,2.048,0,0,0,1.484.643h2.65V29.29a2.725,2.725,0,0,0,2.725,2.725H12a5.465,5.465,0,0,0,1.118,1.758l6.4,6.712a1.267,1.267,0,0,0,1.786,0l6.49-6.811a5.392,5.392,0,0,0,1.077-1.659h1.785a2.725,2.725,0,0,0,2.725-2.725V24.522h2.65a2.048,2.048,0,0,0,1.486-.643,2.009,2.009,0,0,0,.549-1.513l-.22-4.012a.67.67,0,0,0-.719-.644.681.681,0,0,0-.642.717l.22,4.019a.676.676,0,0,1-.674.713h-2.65V12.881a4.087,4.087,0,1,0-1.362,0V23.16H29.971a.681.681,0,0,1-.681-.681V19.754a2.043,2.043,0,0,0-2.043-2.043H24.478a.625.625,0,0,1-.62-.422.584.584,0,0,1,.295-.676l.315-.155A.873.873,0,0,0,24.5,14.9l-.3-.151c.058.029.189-.439.194-.485a1.022,1.022,0,0,0-.8-1.107l-.051-.01a4.087,4.087,0,0,0,.238-.885h.74a.681.681,0,0,0,0-1.362H22.57l2.475-2.97A.681.681,0,0,0,25,7.014l-.309-.309a.681.681,0,0,1-.148-.755A7.835,7.835,0,1,1,36.592,15.3a.681.681,0,1,0,.857,1.059A9.2,9.2,0,1,0,23.306,5.382a2.043,2.043,0,0,0,.3,2.146l-2.188,2.625a1.285,1.285,0,0,0,.984,2.109,2.571,2.571,0,0,1-.2.553,1.139,1.139,0,0,0,.011,1,1.158,1.158,0,0,0,.608.562,1.151,1.151,0,0,0,.3,1.308,1.943,1.943,0,0,0-.576,1.947,1.975,1.975,0,0,0,1.938,1.442h2.768a.681.681,0,0,1,.681.681v2.725a2.043,2.043,0,0,0,2.043,2.043h2.043V29.29a1.362,1.362,0,0,1-1.362,1.362H29.232a5.636,5.636,0,0,0,.057-.761,5.455,5.455,0,0,0-1.5-3.785,5,5,0,0,0-7.305,0l-.078.082-.079-.084a5,5,0,0,0-7.309.007,5.5,5.5,0,0,0-1.372,4.54h-1.43A1.362,1.362,0,0,1,8.855,29.29V24.522H10.9a2.043,2.043,0,0,0,2.043-2.043V19.754a.681.681,0,0,1,.681-.681h2.767a1.965,1.965,0,0,0,1.362-3.388,1.151,1.151,0,0,0,.3-1.312,1.158,1.158,0,0,0,.613-1.574,2.459,2.459,0,0,1-.195-.537,1.285,1.285,0,0,0,.986-2.105l-2.19-2.627a2.043,2.043,0,0,0,.3-2.147ZM29.971,8.856A2.725,2.725,0,1,1,32.7,11.58,2.725,2.725,0,0,1,29.971,8.856Zm-15.964,18.2a3.642,3.642,0,0,1,5.334-.007l.571.606a.681.681,0,0,0,.99,0l.57-.6a3.639,3.639,0,0,1,5.332,0,4.166,4.166,0,0,1,0,5.69l-6.4,6.712-6.3-6.615a4.3,4.3,0,0,1-.1-5.78ZM18.3,10.9H16.348a.681.681,0,1,0,0,1.362h.739a4.071,4.071,0,0,0,.237.885l-.057.011a1,1,0,0,0-.735.629,1.012,1.012,0,0,0,.136.962l-.26.136a.847.847,0,0,0-.509.771.86.86,0,0,0,.484.794l.33.161a.586.586,0,0,1-.321,1.1H13.623a2.043,2.043,0,0,0-2.043,2.043v2.725a.681.681,0,0,1-.681.681H8.855V12.881a4.087,4.087,0,1,0-1.362,0V23.16H4.843a.677.677,0,0,1-.676-.719l.361-6.58a.681.681,0,0,0-.251-.567A7.833,7.833,0,0,1,8.219,1.422a7.953,7.953,0,0,1,.964-.059,7.82,7.82,0,0,1,7.142,4.584.681.681,0,0,1-.148.755l-.309.309a.681.681,0,0,0-.042.917ZM8.174,11.58A2.725,2.725,0,1,1,10.9,8.856,2.725,2.725,0,0,1,8.174,11.58Z" transform="translate(0)" fill="#373737"/>
      <path id="Trazado_876726" data-name="Trazado 876726" d="M28.41,50.728a3.808,3.808,0,0,0,3.316-1.7.681.681,0,0,0-1.178-.683,2.745,2.745,0,0,1-4.274,0,.681.681,0,0,0-1.179.681,3.808,3.808,0,0,0,3.316,1.7Z" transform="translate(-7.975 -15.308)" fill="#373737"/>
      <path id="Trazado_876727" data-name="Trazado 876727" d="M26.681,45.043a.681.681,0,0,0,.681-.681v-.681a.681.681,0,1,0-1.362,0v.681A.681.681,0,0,0,26.681,45.043Z" transform="translate(-8.29 -13.71)" fill="#373737"/>
      <path id="Trazado_876728" data-name="Trazado 876728" d="M32.681,45.043a.681.681,0,0,0,.681-.681v-.681a.681.681,0,1,0-1.362,0v.681A.681.681,0,0,0,32.681,45.043Z" transform="translate(-10.203 -13.71)" fill="#373737"/>
    </g>
  </g>
</svg>
