<svg xmlns="http://www.w3.org/2000/svg" width="90" height="90" viewBox="0 0 90 90">
  <g id="Grupo_1104916" data-name="Grupo 1104916" transform="translate(-190.051 -2611)">
    <rect id="Rectángulo_403003" data-name="Rectángulo 403003" width="90" height="90" rx="10" transform="translate(190.051 2611)" fill="#d2f5f4"/>
    <g id="Grupo_1104917" data-name="Grupo 1104917" transform="translate(189.351 2614.084)">
      <path id="Trazado_881202" data-name="Trazado 881202" d="M75.575,29.861a26.063,26.063,0,0,0-24.081-24,25.8,25.8,0,0,0-19.576,6.924,26.1,26.1,0,0,0-8.267,19.038,8.322,8.322,0,0,1-1.57,4.886l-5.845,8.146a2.587,2.587,0,0,0,1.833,4.081l5.165.539a.466.466,0,0,1,.418.464v6.165a8.685,8.685,0,0,0,8.675,8.675h6.884A1.117,1.117,0,0,1,40.325,65.9v8.471A3.677,3.677,0,0,0,44,78.04H63.9a3.677,3.677,0,0,0,3.673-3.673v-14.2a28.834,28.834,0,0,1,4.314-14.911,25.9,25.9,0,0,0,3.686-15.4ZM70.3,44.29a30.7,30.7,0,0,0-4.587,15.877v14.2A1.814,1.814,0,0,1,63.9,76.178H44a1.813,1.813,0,0,1-1.811-1.811V65.9a2.979,2.979,0,0,0-2.975-2.975H32.327a6.821,6.821,0,0,1-6.813-6.813V49.942a2.323,2.323,0,0,0-2.087-2.316l-5.165-.54a.726.726,0,0,1-.513-1.144L23.595,37.8a10.2,10.2,0,0,0,1.919-6,24.221,24.221,0,0,1,7.673-17.647A23.9,23.9,0,0,1,49.63,7.659q.863,0,1.738.062A24.134,24.134,0,0,1,70.3,44.29Z" transform="translate(0)" fill="#201144"/>
      <path id="Trazado_881203" data-name="Trazado 881203" d="M68.717,19.147c-3.566-.672-7.04.776-9.682,3.991-3.046-3.344-6.855-4.758-10.6-3.891a11.154,11.154,0,0,0-8.084,8.689c-.691,3.175-1.1,11.488,10.059,20.08,4.182,3.221,6.438,4.834,8.684,4.834s4.5-1.626,8.671-4.881C78.718,39.421,78.1,31.1,77.332,27.922a11.386,11.386,0,0,0-8.615-8.774Zm-2.1,27.35c-3.881,3.03-5.822,4.487-7.521,4.49h-.007c-1.7,0-3.542-1.365-7.545-4.45C41.236,38.6,41.556,31.16,42.172,28.33a9.291,9.291,0,0,1,6.684-7.268,7.634,7.634,0,0,1,1.727-.2c2.777,0,5.533,1.519,7.764,4.338a.931.931,0,0,0,1.493-.043c2.308-3.3,5.338-4.783,8.534-4.181a9.52,9.52,0,0,1,7.151,7.386c1.452,5.976-1.792,12.586-8.9,18.135Z" transform="translate(-9.22 -5.005)" fill="#201144"/>
      <path id="Trazado_881204" data-name="Trazado 881204" d="M72.675,39.484H68.43V35.24a.931.931,0,0,0-.931-.931H63.154a.931.931,0,0,0-.931.931v4.244H57.978a.931.931,0,0,0-.931.931V44.76a.931.931,0,0,0,.931.931h4.245v4.245a.931.931,0,0,0,.931.931H67.5a.931.931,0,0,0,.931-.931V45.691h4.245a.931.931,0,0,0,.931-.931V40.415A.931.931,0,0,0,72.675,39.484Zm-.931,4.345H67.5a.931.931,0,0,0-.931.931v4.245H64.085V44.76a.931.931,0,0,0-.931-.931H58.909V41.346h4.245a.931.931,0,0,0,.931-.931V36.171h2.483v4.244a.931.931,0,0,0,.931.931h4.245Z" transform="translate(-15.665 -10.818)" fill="#201144"/>
    </g>
  </g>
</svg>
