<svg xmlns="http://www.w3.org/2000/svg" width="90" height="90" viewBox="0 0 90 90">
  <g id="Grupo_1104918" data-name="Grupo 1104918" transform="translate(-190.051 -2611)">
    <rect id="Rectángulo_403003" data-name="Rectángulo 403003" width="90" height="90" rx="10" transform="translate(190.051 2611)" fill="#d2f5f4"/>
    <g id="Grupo_1104919" data-name="Grupo 1104919" transform="translate(203.051 2624)">
      <path id="Trazado_881205" data-name="Trazado 881205" d="M32,36A18,18,0,1,0,14,18,18,18,0,0,0,32,36ZM45.559,9.547a15.9,15.9,0,0,1-1.317,18.734l-4.055-5.51.7-2.239,2.825-2.825A1,1,0,0,0,44,17V14a1.006,1.006,0,0,0-.168-.555l-1.405-2.108ZM32,2A15.974,15.974,0,0,1,44.4,7.9l-3.9,2.228h0a1,1,0,0,0-.336,1.423h0L42,14.3v2.283L39.293,19.29a1,1,0,0,0-.248.411l-.917,2.958a1,1,0,0,0,.149.889l4.555,6.19a16.024,16.024,0,0,1-4.807,3.072L37,30.764V27a1,1,0,0,0-.1-.447l-2-4a.993.993,0,0,0-1.1-.533l-4.475.894-1.042-1.041,1.545-2.318A1,1,0,0,0,29.8,18.4l-2.493-3.324L30.6,11.6a1,1,0,0,0,.274-.688V8.083a1.008,1.008,0,0,0-.176-.567L27.376,2.687A15.947,15.947,0,0,1,32,2ZM16,18A16.012,16.012,0,0,1,25.45,3.418l3.425,4.976v2.124l-3.6,3.794A1,1,0,0,0,25.2,15.6l2.575,3.434-1.607,2.411a1,1,0,0,0,.125,1.262l2,2a1,1,0,0,0,.9.273l4.251-.85L35,27.236V31a1,1,0,0,0,.1.447l1,2a15.817,15.817,0,0,1-14.4-3.221L23.6,28.8a1,1,0,0,0,.232-1.355l-1.678-2.517L23.9,21.447a1,1,0,0,0-.3-1.247l-4-3a1,1,0,0,0-.971-.129L16.006,18.12C16.006,18.08,16,18.041,16,18Zm2.85,1.137L21.732,21.3,20.1,24.554a1,1,0,0,0,.063,1l1.476,2.213-1.4,1.049a15.927,15.927,0,0,1-4.074-8.608Z" fill="#201144"/>
      <path id="Trazado_881206" data-name="Trazado 881206" d="M62.358,58.427a5,5,0,0,0-3.578-4.1L55,53.245V51.974A4.977,4.977,0,0,0,57,48V44.362l1.926-2.312a2.468,2.468,0,0,0-1.9-4.05H50a6.006,6.006,0,0,0-6,6v1a4.957,4.957,0,0,0,3.313,4.685A5.041,5.041,0,0,0,49,51.975v1.27l-3.782,1.081a4.993,4.993,0,0,0-3.226,2.87,5.031,5.031,0,0,0-1.568-2.036A3.981,3.981,0,0,0,42,52a1,1,0,0,0-.553-.9A2.6,2.6,0,0,1,40,48.764V46a8,8,0,0,0-16,0v2.764A2.6,2.6,0,0,1,22.553,51.1,1,1,0,0,0,22,52a3.982,3.982,0,0,0,1.577,3.161,5.026,5.026,0,0,0-1.57,2.037,4.99,4.99,0,0,0-3.227-2.873L15,53.245V51.974A4.977,4.977,0,0,0,17,48V44.837A3.49,3.49,0,0,0,16,38H10a6.006,6.006,0,0,0-6,6v1a4.956,4.956,0,0,0,3.313,4.684A5.043,5.043,0,0,0,9,51.975v1.27l-3.78,1.08a5,5,0,0,0-3.576,4.1L1.01,62.859A1,1,0,0,0,2,64H62a1,1,0,0,0,.993-1.145ZM15,48a3,3,0,0,1-6,0V46a1,1,0,0,1,1-1h5Zm-2,4.9V54a1,1,0,0,1-2,0V52.886A4.918,4.918,0,0,0,12,53a5,5,0,0,0,1-.1ZM7,46v1.234A2.979,2.979,0,0,1,6,45V44a4,4,0,0,1,4-4h6a1.5,1.5,0,0,1,0,3H10A3,3,0,0,0,7,46ZM3.153,62l.47-3.291a3,3,0,0,1,2.145-2.46l3.511-1a2.988,2.988,0,0,0,5.442,0l3.511,1a3,3,0,0,1,2.145,2.46L20.847,62ZM26,48.764V46a6,6,0,0,1,12,0v2.764a4.585,4.585,0,0,0,1.932,3.757A2,2,0,0,1,38,54h-.358L35,53.245V51.974A4.977,4.977,0,0,0,37,48v-.764a2.985,2.985,0,0,0-1.658-2.683l-2.9-1.448a1,1,0,0,0-.894,0l-2.9,1.448A2.985,2.985,0,0,0,27,47.236V48a4.977,4.977,0,0,0,2,3.974v1.271L26.358,54H26a2.005,2.005,0,0,1-1.932-1.479A4.588,4.588,0,0,0,26,48.764ZM32,51a3,3,0,0,1-3-3v-.764a.993.993,0,0,1,.553-.894L32,45.118l2.447,1.224a.993.993,0,0,1,.553.894V48A3,3,0,0,1,32,51Zm1,1.9V54a1,1,0,0,1-2,0V52.9A5,5,0,0,0,33,52.9ZM23.153,62l.47-3.291a3,3,0,0,1,2.145-2.46l3.511-1a2.988,2.988,0,0,0,5.442,0l3.511,1a3,3,0,0,1,2.145,2.46L40.847,62ZM55,48a3,3,0,0,1-6,0V46a1,1,0,0,1,1-1h5Zm-2,4.9V54a1,1,0,0,1-2,0V52.886A4.918,4.918,0,0,0,52,53a5,5,0,0,0,1-.1ZM47,46v1.234A2.979,2.979,0,0,1,46,45V44a4,4,0,0,1,4-4h7.031a.469.469,0,0,1,.36.769L55.531,43H50a3,3,0,0,0-3,3ZM43.153,62l.47-3.291a3,3,0,0,1,2.145-2.46l3.511-1a2.988,2.988,0,0,0,5.442,0l3.51,1a3,3,0,0,1,2.146,2.46L60.847,62Z" fill="#201144"/>
    </g>
  </g>
</svg>
