<svg xmlns="http://www.w3.org/2000/svg" width="90" height="90" viewBox="0 0 90 90">
  <g id="Grupo_1104912" data-name="Grupo 1104912" transform="translate(-190.051 -2611)">
    <rect id="Rectángulo_403003" data-name="Rectángulo 403003" width="90" height="90" rx="10" transform="translate(190.051 2611)" fill="#d2f5f4"/>
    <g id="Grupo_1104913" data-name="Grupo 1104913" transform="translate(199.563 2620.512)">
      <path id="Trazado_881221" data-name="Trazado 881221" d="M142.921,140.911a14.95,14.95,0,0,0-.119-21.092,15.4,15.4,0,0,0-21.6-.192,15.03,15.03,0,0,0-.194,21.406,15.3,15.3,0,0,0,15.108,3.943,6.615,6.615,0,0,0,4.076,1.358,8.985,8.985,0,0,0,3.869-.948.888.888,0,0,0-.023-1.614c-.391-.174-1.547-.838-1.725-1.589-.026-.112-.1-.448.332-.995q.14-.136.277-.278Zm-2.334,1.686a3.529,3.529,0,0,0,1.132,1.761,4.969,4.969,0,0,1-4.747-.98.886.886,0,0,0-.646-.279.9.9,0,0,0-.269.042,13.547,13.547,0,0,1-13.791-3.357,13.257,13.257,0,0,1,.171-18.885,13.625,13.625,0,0,1,19.1.169,13.19,13.19,0,0,1,.106,18.607c-.09.093-.182.185-.275.275a.854.854,0,0,0-.068.072,2.88,2.88,0,0,0-.718,2.574Zm0,0" transform="translate(-96.417 -95.322)" fill="#201144"/>
      <path id="Trazado_881222" data-name="Trazado 881222" d="M177.792,180.785H165.715a.887.887,0,1,0,0,1.774h12.077a.887.887,0,1,0,0-1.774Zm0,0" transform="translate(-136.267 -149.459)" fill="#201144"/>
      <path id="Trazado_881223" data-name="Trazado 881223" d="M177.792,217.82H165.715a.887.887,0,1,0,0,1.774h12.077a.887.887,0,1,0,0-1.774Zm0,0" transform="translate(-136.267 -180.076)" fill="#201144"/>
      <path id="Trazado_881224" data-name="Trazado 881224" d="M292.339,18.541A11.557,11.557,0,1,0,280.783,30.1,11.57,11.57,0,0,0,292.339,18.541Zm-17.391,7.833a5.808,5.808,0,0,1,4.132-5.345.887.887,0,0,0,.166-1.628,3.5,3.5,0,1,1,3.254.042.887.887,0,0,0,.125,1.633,5.835,5.835,0,0,1,3.994,5.3,9.707,9.707,0,0,1-11.671,0ZM271,18.541A9.782,9.782,0,1,1,288.2,24.9a7.6,7.6,0,0,0-3.555-4.846,5.275,5.275,0,1,0-7.561-.1,7.551,7.551,0,0,0-3.723,4.947A9.733,9.733,0,0,1,271,18.541Zm0,0" transform="translate(-222.575 -5.774)" fill="#201144"/>
      <path id="Trazado_881225" data-name="Trazado 881225" d="M18.541,6.984A11.557,11.557,0,1,0,30.1,18.541,11.571,11.571,0,0,0,18.541,6.984Zm-5.835,19.39a5.81,5.81,0,0,1,4.132-5.345A.887.887,0,0,0,17,19.4a3.505,3.505,0,1,1,3.254.042.887.887,0,0,0,.124,1.633,5.835,5.835,0,0,1,3.995,5.3,9.707,9.707,0,0,1-11.671,0ZM25.96,24.9A7.609,7.609,0,0,0,22.4,20.054a5.275,5.275,0,1,0-7.561-.1A7.554,7.554,0,0,0,11.121,24.9a9.783,9.783,0,1,1,14.839,0Zm0,0" transform="translate(-5.774 -5.774)" fill="#201144"/>
      <path id="Trazado_881226" data-name="Trazado 881226" d="M280.784,269.766a11.557,11.557,0,1,0,11.556,11.557A11.57,11.57,0,0,0,280.784,269.766Zm-5.835,19.39a5.808,5.808,0,0,1,4.132-5.345.887.887,0,0,0,.166-1.628,3.505,3.505,0,1,1,3.254.041.888.888,0,0,0,.125,1.633,5.834,5.834,0,0,1,3.994,5.3,9.708,9.708,0,0,1-11.671,0Zm13.254-1.474a7.6,7.6,0,0,0-3.555-4.846,5.275,5.275,0,1,0-7.561-.1,7.551,7.551,0,0,0-3.723,4.947,9.782,9.782,0,1,1,14.838,0Zm0,0" transform="translate(-222.575 -223.021)" fill="#201144"/>
      <path id="Trazado_881227" data-name="Trazado 881227" d="M18.541,269.766A11.557,11.557,0,1,0,30.1,281.323,11.57,11.57,0,0,0,18.541,269.766Zm-5.835,19.39a5.809,5.809,0,0,1,4.132-5.345A.887.887,0,0,0,17,282.183a3.506,3.506,0,1,1,3.254.041.888.888,0,0,0,.124,1.633,5.835,5.835,0,0,1,3.995,5.3,9.708,9.708,0,0,1-11.671,0Zm13.254-1.474a7.609,7.609,0,0,0-3.556-4.846,5.275,5.275,0,1,0-7.561-.1,7.553,7.553,0,0,0-3.723,4.947,9.783,9.783,0,1,1,14.839,0Zm0,0" transform="translate(-5.774 -223.021)" fill="#201144"/>
      <path id="Trazado_881228" data-name="Trazado 881228" d="M134.158.061a.888.888,0,0,0-1.145.511l-1.139,2.975a.886.886,0,0,0,.511,1.145l2.974,1.14a.887.887,0,0,0,.634-1.657l-.924-.354a22.618,22.618,0,0,1,19.4.282.887.887,0,1,0,.785-1.591,24.385,24.385,0,0,0-20.978-.278l.394-1.028a.886.886,0,0,0-.511-1.145Zm0,0" transform="translate(-108.974)" fill="#201144"/>
      <path id="Trazado_881229" data-name="Trazado 881229" d="M3.9,163.577a.886.886,0,0,0,.828-.57l1.14-2.975a.887.887,0,1,0-1.657-.634l-.374.975A22.616,22.616,0,0,1,4.1,140.945a.887.887,0,1,0-1.591-.785,24.385,24.385,0,0,0-.3,20.936l-.975-.373a.887.887,0,1,0-.634,1.656l2.975,1.139a.887.887,0,0,0,.317.059Zm0,0" transform="translate(0 -115.465)" fill="#201144"/>
      <path id="Trazado_881230" data-name="Trazado 881230" d="M163.04,376.482l-2.976-1.139A.887.887,0,1,0,159.43,377l.983.377a22.622,22.622,0,0,1-19.47-.249.887.887,0,1,0-.785,1.591,24.383,24.383,0,0,0,20.968.282l-.371.969a.887.887,0,1,0,1.656.634l1.139-2.976A.886.886,0,0,0,163.04,376.482Zm0,0" transform="translate(-115.463 -310.255)" fill="#201144"/>
      <path id="Trazado_881231" data-name="Trazado 881231" d="M380.167,134.476a.887.887,0,0,0,.634-1.656l-2.976-1.139a.889.889,0,0,0-1.145.511l-1.138,2.974a.887.887,0,0,0,1.657.634l.356-.931a22.623,22.623,0,0,1-.263,19.44.887.887,0,1,0,1.591.785,24.382,24.382,0,0,0,.263-21.009Zm0,0" transform="translate(-310.42 -108.815)" fill="#201144"/>
    </g>
  </g>
</svg>
