<svg xmlns="http://www.w3.org/2000/svg" width="90" height="90" viewBox="0 0 90 90">
  <g id="Grupo_1104914" data-name="Grupo 1104914" transform="translate(-190.051 -2611)">
    <rect id="Rectángulo_403003" data-name="Rectángulo 403003" width="90" height="90" rx="10" transform="translate(190.051 2611)" fill="#d2f5f4"/>
    <g id="Grupo_1104915" data-name="Grupo 1104915" transform="translate(197.76 2573.241)">
      <path id="Trazado_881209" data-name="Trazado 881209" d="M287.987,180.72a17.057,17.057,0,0,0-11.047,3.8c-3.421,2.891-5.272,7.191-5.359,12.442L269,205.66l4.789,1.353.106,4.875a3.451,3.451,0,0,0,3.405,3.382h3.464l1.735,5.954h4.312v-2.185h-2.673l-1.735-5.954h-5.1a1.239,1.239,0,0,1-1.221-1.244l-.142-6.491-4.213-1.191,2.04-6.868,0-.153c.1-10.506,7.725-14.233,14.222-14.233a14.222,14.222,0,0,1,9.73,24.6c-2.611,2.488-4.814,5.3-3.263,8.959l1.092,2.579h-2.182v2.185h5.48l-2.377-5.616c-.745-1.759-.532-3.39,2.758-6.525a16.407,16.407,0,0,0-11.237-28.363Z" transform="translate(-229.813 -108.927)" fill="#201144"/>
      <path id="Trazado_881210" data-name="Trazado 881210" d="M406.274,443.779h2.185v2.185h-2.185Z" transform="translate(-347.094 -333.667)" fill="#201144"/>
      <path id="Trazado_881211" data-name="Trazado 881211" d="M27.454,184.519a17.057,17.057,0,0,0-11.047-3.8A16.4,16.4,0,0,0,5.7,184.707l1.428,1.654a14.21,14.21,0,0,1,9.284-3.456c6.5,0,14.12,3.728,14.223,14.233v.153l2.04,6.868-4.213,1.191-.142,6.491a1.239,1.239,0,0,1-1.221,1.244h-5.1l-1.735,5.954H8.849l1.092-2.579c1.551-3.663-.652-6.471-3.263-8.959a14.21,14.21,0,0,1-1.036-19.657l-1.654-1.428A16.395,16.395,0,0,0,5.17,209.082c3.29,3.135,3.5,4.767,2.758,6.525l-2.378,5.616H21.9l1.735-5.954H27.1a3.451,3.451,0,0,0,3.405-3.382l.106-4.875,4.789-1.353-2.584-8.7c-.086-5.251-1.937-9.551-5.359-12.442Z" transform="translate(0 -108.927)" fill="#201144"/>
      <path id="Trazado_881212" data-name="Trazado 881212" d="M120.435,55.406a13.045,13.045,0,0,1,4.366.751,15.32,15.32,0,0,0-6.007,9.369l-1.281-1.787-1.776,1.273,3.605,5.028,5.028-3.6L123.1,64.66l-2.215,1.588a13.144,13.144,0,0,1,6.233-9.007,13.144,13.144,0,0,1,6.233,9.007l-2.215-1.588-1.273,1.776,5.028,3.6,3.6-5.028-1.776-1.273-1.281,1.787a15.32,15.32,0,0,0-6.007-9.369,13.1,13.1,0,0,1,17.476,12.359h2.185a15.287,15.287,0,0,0-21.975-13.754A15.287,15.287,0,0,0,105.14,68.516h2.185A13.124,13.124,0,0,1,120.435,55.406Z" transform="translate(-89.825)" fill="#201144"/>
      <path id="Trazado_881213" data-name="Trazado 881213" d="M414.361,218.219h2.185V220.4h-2.185Z" transform="translate(-354.003 -140.964)" fill="#201144"/>
      <path id="Trazado_881214" data-name="Trazado 881214" d="M444.36,233.219h2.185V235.4H444.36Z" transform="translate(-379.632 -153.779)" fill="#201144"/>
    </g>
  </g>
</svg>
