<svg xmlns="http://www.w3.org/2000/svg" width="90" height="90" viewBox="0 0 90 90">
  <g id="Grupo_1104911" data-name="Grupo 1104911" transform="translate(-190.051 -2611)">
    <rect id="Rectángulo_403003" data-name="Rectángulo 403003" width="90" height="90" rx="10" transform="translate(190.051 2611)" fill="#d2f5f4"/>
    <g id="Grupo_1104910" data-name="Grupo 1104910" transform="translate(169.92 2622)">
      <path id="Trazado_881215" data-name="Trazado 881215" d="M104.789,43.63l-7.646-2.1L94.03,38.746a20.25,20.25,0,1,0-16.479,0L74.43,41.536l-7.635,2.1a9.872,9.872,0,0,0-7.241,9.5V67.044A1.336,1.336,0,0,0,60.89,68.38h49.8a1.336,1.336,0,0,0,1.336-1.336V53.125a9.873,9.873,0,0,0-7.238-9.5Zm-10.106-.718-2.4,6.153-4.575-3.379,4.252-5.2ZM68.211,20.25A17.579,17.579,0,1,1,85.79,37.829,17.6,17.6,0,0,1,68.211,20.25ZM79.617,40.483l4.252,5.2-4.575,3.379-2.4-6.153Zm1,25.226H62.225V53.128A7.194,7.194,0,0,1,67.5,46.207l7.059-1.937,2.878,7.391a1.335,1.335,0,0,0,2.038.59l3.7-2.73.782,2.714Zm2.3-25.414a20.262,20.262,0,0,0,5.756,0l-2.878,3.522Zm26.442,25.414H90.964L87.627,52.235h0l.782-2.715,3.7,2.731a1.335,1.335,0,0,0,2.038-.59l2.88-7.4,7.058,1.94a7.2,7.2,0,0,1,5.274,6.92Z" transform="translate(-21.161)" fill="#201144"/>
      <path id="Trazado_881216" data-name="Trazado 881216" d="M179.878,114.024a1.336,1.336,0,0,0,.944-2.28,5.682,5.682,0,0,0-8.026,0,1.336,1.336,0,0,0,1.889,1.889,3.008,3.008,0,0,1,4.249,0A1.332,1.332,0,0,0,179.878,114.024Z" transform="translate(-118.941 -95.382)" fill="#201144"/>
      <path id="Trazado_881217" data-name="Trazado 881217" d="M276.173,113.617a3,3,0,0,1,4.249,0,1.336,1.336,0,1,0,1.889-1.889,5.675,5.675,0,0,0-8.026,0,1.336,1.336,0,1,0,1.889,1.888Z" transform="translate(-206.875 -95.366)" fill="#201144"/>
      <path id="Trazado_881218" data-name="Trazado 881218" d="M219.522,181.854a1.336,1.336,0,0,0-1.889,0,6.078,6.078,0,0,1-8.586,0,1.336,1.336,0,0,0-1.889,1.889,8.752,8.752,0,0,0,12.364,0A1.336,1.336,0,0,0,219.522,181.854Z" transform="translate(-148.713 -157.228)" fill="#201144"/>
      <path id="Trazado_881219" data-name="Trazado 881219" d="M38.992,226.145a1.336,1.336,0,0,0,2.671,0V223.62h2.526a1.336,1.336,0,1,0,0-2.671H41.664v-2.526a1.336,1.336,0,1,0-2.671,0v2.526H36.467a1.336,1.336,0,1,0,0,2.671h2.526Z" transform="translate(0 -188.094)" fill="#201144"/>
      <path id="Trazado_881220" data-name="Trazado 881220" d="M408.1,3.861h-2.526V1.336a1.336,1.336,0,1,0-2.671,0V3.861h-2.526a1.336,1.336,0,0,0,0,2.671H402.9V9.058a1.336,1.336,0,1,0,2.671,0V6.533H408.1a1.336,1.336,0,0,0,0-2.671Z" transform="translate(-315.31)" fill="#201144"/>
    </g>
  </g>
</svg>
