<svg xmlns="http://www.w3.org/2000/svg" width="98.619" height="55.462" viewBox="0 0 98.619 55.462">
  <path id="Trazado_876763" data-name="Trazado 876763" d="M61.943,131.326a7.582,7.582,0,1,0-7.267,0,9.972,9.972,0,0,0-9.183,9.928v8.564a1.4,1.4,0,0,0,1.4,1.4h3.34v19.939a1.4,1.4,0,0,0,1.4,1.4H64.991a1.4,1.4,0,0,0,1.4-1.4V151.215h3.34a1.4,1.4,0,0,0,1.4-1.4v-8.564A9.972,9.972,0,0,0,61.943,131.326Zm-3.633-11.441a4.787,4.787,0,1,1-4.787,4.787A4.793,4.793,0,0,1,58.309,119.885Zm-5.284,31.33h3.887v18.542H53.025Zm10.569,18.542H59.707V151.215h3.887Zm4.737-21.337H66.388v-6.746a1.4,1.4,0,1,0-2.795,0v6.746H53.025v-6.746a1.4,1.4,0,1,0-2.795,0v6.746H48.288v-7.167a7.174,7.174,0,0,1,7.167-7.167h5.71a7.175,7.175,0,0,1,7.167,7.167ZM79.347,170.7a1.4,1.4,0,0,1-.872,1.773,1.427,1.427,0,0,1-.451.076,1.4,1.4,0,0,1-1.322-.946,86.1,86.1,0,0,1-.912-52.479,1.4,1.4,0,1,1,2.675.807,83.309,83.309,0,0,0,.882,50.769ZM40.829,119.126a85.774,85.774,0,0,1,3.653,24.812,85.6,85.6,0,0,1-4.566,27.667,1.4,1.4,0,0,1-1.322.946,1.373,1.373,0,0,1-.451-.076,1.4,1.4,0,0,1-.872-1.773,82.773,82.773,0,0,0,4.416-26.765,82.933,82.933,0,0,0-3.534-24,1.4,1.4,0,0,1,2.675-.807Zm65.392,20.061H92.76v-3.36a1.4,1.4,0,0,0-2.228-1.124L77.644,144.22a1.4,1.4,0,0,0,0,2.248l12.888,9.517a1.4,1.4,0,0,0,2.228-1.124V151.5h13.461a1.4,1.4,0,0,0,1.4-1.4v-9.517a1.4,1.4,0,0,0-1.4-1.4Zm-1.4,9.516H91.363a1.4,1.4,0,0,0-1.4,1.4v1.988l-9.139-6.748,9.139-6.748v1.988a1.4,1.4,0,0,0,1.4,1.4h13.461V148.7Zm-65.282-3.36a1.4,1.4,0,0,0-.567-1.124L26.087,134.7a1.4,1.4,0,0,0-2.228,1.124v3.36H10.4a1.4,1.4,0,0,0-1.4,1.4V150.1a1.4,1.4,0,0,0,1.4,1.4H23.859v3.36a1.4,1.4,0,0,0,2.228,1.124l12.888-9.517a1.4,1.4,0,0,0,.567-1.124Zm-12.888,6.748V150.1a1.4,1.4,0,0,0-1.4-1.4H11.795v-6.722H25.256a1.4,1.4,0,0,0,1.4-1.4V138.6l9.139,6.748-9.139,6.748Z" transform="translate(-9 -117.09)" fill="#22cac5"/>
</svg>
