<svg xmlns="http://www.w3.org/2000/svg" width="49.371" height="44.359" viewBox="0 0 49.371 44.359">
  <g id="Grupo_1101867" data-name="Grupo 1101867" transform="translate(0 -25.984)">
    <g id="Grupo_1101865" data-name="Grupo 1101865" transform="translate(0.962 26.948)">
      <path id="Trazado_876764" data-name="Trazado 876764" d="M201.769,55.27l5.786-7.715h-2.893V35.984h-5.786V47.556h-2.893Z" transform="translate(-178.046 -35.984)" fill="#ff7d97" fill-rule="evenodd"/>
      <path id="Trazado_876765" data-name="Trazado 876765" d="M33.709,191.4a28.818,28.818,0,0,1-20.43-8.462,1.928,1.928,0,0,0-2.727,2.727,32.77,32.77,0,0,0,46.315,0,1.928,1.928,0,1,0-2.727-2.727,28.817,28.817,0,0,1-20.43,8.462Z" transform="translate(-9.986 -168.254)" fill="#eaf5bc" fill-rule="evenodd"/>
      <path id="Trazado_876766" data-name="Trazado 876766" d="M44.485,319.083A61.881,61.881,0,0,1,12.613,316.3a1.923,1.923,0,1,0-1.311,3.616,65.563,65.563,0,0,0,44.9,0A1.923,1.923,0,1,0,54.89,316.3,61.792,61.792,0,0,1,44.485,319.083Z" transform="translate(-10.029 -289.162)" fill="#eaf5bc" fill-rule="evenodd"/>
      <path id="Trazado_876767" data-name="Trazado 876767" d="M55.5,435.983H11.912a1.929,1.929,0,1,0,0,3.857H55.5a1.929,1.929,0,1,0,0-3.857Z" transform="translate(-9.983 -397.41)" fill="#a0e5a5" fill-rule="evenodd"/>
    </g>
    <g id="Grupo_1101866" data-name="Grupo 1101866" transform="translate(0 25.984)">
      <path id="Trazado_876768" data-name="Trazado 876768" d="M.845,177.321c12.863,13.106,34.819,13.1,47.679,0a2.893,2.893,0,1,0-4.091-4.091,27.908,27.908,0,0,1-39.5,0,2.893,2.893,0,1,0-4.091,4.091Zm1.364-2.727a.965.965,0,0,1,1.363,0,29.837,29.837,0,0,0,42.225,0,.964.964,0,0,1,1.363,1.363,31.891,31.891,0,0,1-44.952,0,.965.965,0,0,1,0-1.363Z" transform="translate(0 -158.266)"/>
      <path id="Trazado_876769" data-name="Trazado 876769" d="M46.64,425.983H3.052a2.893,2.893,0,0,0,0,5.786H46.64A2.893,2.893,0,0,0,46.64,425.983Zm0,3.857H3.052a.964.964,0,0,1,0-1.929H46.64A.964.964,0,0,1,46.64,429.84Z" transform="translate(-0.161 -387.41)"/>
      <path id="Trazado_876770" data-name="Trazado 876770" d="M2.485,308.193a.952.952,0,0,1,.732-.033,62.92,62.92,0,0,0,17.061,3.626.964.964,0,0,0,.135-1.924,60.991,60.991,0,0,1-16.538-3.515,2.888,2.888,0,0,0-3.7,1.731,2.9,2.9,0,0,0,1.73,3.7,66.635,66.635,0,0,0,45.557,0,2.888,2.888,0,1,0-1.969-5.429,60.987,60.987,0,0,1-16.537,3.514.964.964,0,0,0,.135,1.924,62.925,62.925,0,0,0,17.061-3.626.959.959,0,1,1,.652,1.8,64.7,64.7,0,0,1-44.24,0,.963.963,0,0,1-.575-1.228.953.953,0,0,1,.5-.542Z" transform="translate(0 -279.153)"/>
      <path id="Trazado_876771" data-name="Trazado 876771" d="M191.961,46.813a.971.971,0,0,0,1.543,0L199.29,39.1a.97.97,0,0,0-.771-1.543H196.59V26.948a.964.964,0,0,0-.964-.964h-5.786a.964.964,0,0,0-.964.964V37.556h-1.929a.97.97,0,0,0-.771,1.543Zm-2.122-7.329a.964.964,0,0,0,.964-.964V27.913h3.857V38.52a.964.964,0,0,0,.964.964h.964l-3.857,5.143-3.857-5.143Z" transform="translate(-168.047 -25.984)"/>
      <path id="Trazado_876772" data-name="Trazado 876772" d="M247.908,346.946a.964.964,0,0,0-.964-.964h0a.965.965,0,1,0,.965.964Z" transform="translate(-222.258 -315.123)"/>
    </g>
  </g>
</svg>
