<svg xmlns="http://www.w3.org/2000/svg" width="50.244" height="48.281" viewBox="0 0 50.244 48.281">
  <g id="Grupo_1101878" data-name="Grupo 1101878" transform="translate(0 -10)">
    <path id="Trazado_876780" data-name="Trazado 876780" d="M458.134,276.788a1.472,1.472,0,0,0-2.081,2.082,7.359,7.359,0,0,1,0,10.408,1.472,1.472,0,1,0,2.081,2.083,10.3,10.3,0,0,0,0-14.573Z" transform="translate(-410.908 -240.219)" fill="#22cac5"/>
    <path id="Trazado_876781" data-name="Trazado 876781" d="M413.644,319.208a1.472,1.472,0,0,0,0,2.082,1.472,1.472,0,0,1,0,2.082,1.472,1.472,0,1,0,2.082,2.082,4.421,4.421,0,0,0,0-6.245A1.472,1.472,0,0,0,413.644,319.208Z" transform="translate(-372.663 -278.476)" fill="#22cac5"/>
    <path id="Trazado_876782" data-name="Trazado 876782" d="M36.309,29.671V28.154A18.154,18.154,0,1,0,0,28.154v2.353A17.913,17.913,0,0,0,6.869,44.593V56.809a1.472,1.472,0,0,0,1.472,1.472H26a1.472,1.472,0,0,0,1.472-1.472V52.2h4.416a4.421,4.421,0,0,0,4.416-4.416V45.818a1.472,1.472,0,0,0-.692-1.248l-1.928-1.205,1.928-1.205a1.472,1.472,0,0,0,.692-1.248V38.136l2.81-.7a1.472,1.472,0,0,0,.868-2.244ZM34.48,35.558a1.472,1.472,0,0,0-1.115,1.428V40.1l-3.233,2.021a1.472,1.472,0,0,0,0,2.5l3.233,2.021v1.147a1.474,1.474,0,0,1-1.472,1.472H26a1.472,1.472,0,0,0-1.472,1.472v4.612H9.813V43.856a1.472,1.472,0,0,0-.616-1.2,14.961,14.961,0,0,1-6.253-12.15V28.154a15.21,15.21,0,1,1,30.421,0v1.963a1.472,1.472,0,0,0,.247.816l2.767,4.15Z" fill="#22cac5"/>
    <path id="Trazado_876783" data-name="Trazado 876783" d="M87.183,183.7a1.472,1.472,0,0,0-2.044.395,1.453,1.453,0,0,1-1.008.7,2.172,2.172,0,0,1-1.62-.662,6.628,6.628,0,0,1-1.733-6.466,2.171,2.171,0,0,1,1.072-1.383,1.453,1.453,0,0,1,1.224.1,1.472,1.472,0,0,0,1.287-2.648,4.383,4.383,0,0,0-3.647-.172,5.028,5.028,0,0,0-2.726,3.156,9.579,9.579,0,0,0,2.578,9.62,5.206,5.206,0,0,0,3.407,1.4,4.156,4.156,0,0,0,.531-.034,4.383,4.383,0,0,0,3.073-1.973A1.472,1.472,0,0,0,87.183,183.7Z" transform="translate(-69.97 -147.235)" fill="#22cac5"/>
  </g>
</svg>
