<svg xmlns="http://www.w3.org/2000/svg" width="80" height="80" viewBox="0 0 80 80">
  <g id="Grupo_1101890" data-name="Grupo 1101890" transform="translate(-764.781 -2279)">
    <rect id="Rectángulo_401243" data-name="Rectángulo 401243" width="80" height="80" transform="translate(764.781 2279)" fill="none"/>
    <g id="Grupo_1101900" data-name="Grupo 1101900" transform="translate(766.718 2281.265)">
      <path id="Trazado_876800" data-name="Trazado 876800" d="M53.525,77.593h32a1.115,1.115,0,0,0,0-2.23h-32a1.115,1.115,0,0,0,0,2.23Z" transform="translate(-44.617 -64.486)" fill="#201144"/>
      <path id="Trazado_876801" data-name="Trazado 876801" d="M53.525,131.392h32a1.115,1.115,0,0,0,0-2.23h-32a1.115,1.115,0,0,0,0,2.23Z" transform="translate(-44.617 -110.286)" fill="#201144"/>
      <path id="Trazado_876802" data-name="Trazado 876802" d="M69.485,25.357H52.377V8.853a6.649,6.649,0,0,0-6.642-6.642H6.642A6.649,6.649,0,0,0,0,8.853v23.8a1.115,1.115,0,0,0,2.23,0V8.853A4.416,4.416,0,0,1,6.642,4.441H45.735a4.417,4.417,0,0,1,4.411,4.411v16.5H30.391a6.649,6.649,0,0,0-5.967,3.729H8.908a1.115,1.115,0,0,0,0,2.23H23.784a6.686,6.686,0,0,0-.035.683V46.63L15.59,52.053a1.5,1.5,0,0,1-2.323-1.244V45.025a1.115,1.115,0,0,0-1.115-1.115H6.642A4.416,4.416,0,0,1,2.23,39.5V37.118a1.115,1.115,0,0,0-2.23,0V39.5a6.649,6.649,0,0,0,6.642,6.64h4.4v4.669a3.725,3.725,0,0,0,5.787,3.1l6.926-4.6V62.646a6.649,6.649,0,0,0,6.642,6.642H47.609l3.866,2.57A1.115,1.115,0,1,0,52.711,70l-4.147-2.757a1.115,1.115,0,0,0-.617-.186H30.391a4.416,4.416,0,0,1-4.411-4.411V32a4.416,4.416,0,0,1,4.411-4.411H69.485A4.416,4.416,0,0,1,73.9,32V62.646a4.416,4.416,0,0,1-4.411,4.411h-5.51a1.115,1.115,0,0,0-1.115,1.115v5.782A1.5,1.5,0,0,1,60.537,75.2l-4.112-2.733a1.115,1.115,0,1,0-1.234,1.858L59.3,77.057a3.726,3.726,0,0,0,5.787-3.1V69.287h4.4a6.649,6.649,0,0,0,6.642-6.642V32A6.65,6.65,0,0,0,69.485,25.357Z" transform="translate(0 -2.211)" fill="#201144"/>
      <path id="Trazado_876803" data-name="Trazado 876803" d="M280.722,294.351a3.295,3.295,0,0,0,0,6.59h10.789a3.295,3.295,0,1,0,0-6.59h-.224v-7.7a3.205,3.205,0,0,0-3.2-3.2h-7.363a3.295,3.295,0,0,0,0,6.59h.771v4.317Zm1.886-6.547h-1.886a1.065,1.065,0,0,1,0-2.129h7.363a.972.972,0,0,1,.971.972v8.82a1.115,1.115,0,0,0,1.115,1.115h1.339a1.065,1.065,0,1,1,0,2.129H280.721a1.065,1.065,0,0,1,0-2.129h1.886a1.115,1.115,0,0,0,1.115-1.115V288.92A1.115,1.115,0,0,0,282.608,287.8Z" transform="translate(-236.178 -241.63)" fill="#201144"/>
      <path id="Trazado_876804" data-name="Trazado 876804" d="M314.565,214.994a4.9,4.9,0,1,0-4.9,4.9A4.9,4.9,0,0,0,314.565,214.994Zm-7.564,0a2.667,2.667,0,1,1,2.667,2.667A2.67,2.67,0,0,1,307,214.994Z" transform="translate(-259.456 -179.188)" fill="#201144"/>
    </g>
  </g>
</svg>
