<svg xmlns="http://www.w3.org/2000/svg" width="63.49" height="63.495" viewBox="0 0 63.49 63.495">
  <path id="Trazado_876816" data-name="Trazado 876816" d="M61.918,54.329,51.206,43.616V0H0V55.3H47.706l6.621,6.621a5.369,5.369,0,0,0,7.592-7.593Zm-3.8,7.117a3.344,3.344,0,0,1-2.347-.972l-7.221-7.221H2.049V2.048H49.158v39.52L48.13,40.54l-1.6,1.6L44,39.6a17.36,17.36,0,0,0-2-22.212l1.753-4.108c.094.009.184.029.281.029a3.083,3.083,0,1,0-2.145-.879L40.38,15.979a17.331,17.331,0,0,0-19.022-1.556l-1-2.832A3.088,3.088,0,1,0,15.5,10.083l-6.6,4.8a3.045,3.045,0,0,0-1.737-.543,3.072,3.072,0,1,0,3.072,3.072,3.031,3.031,0,0,0-.14-.867l6.6-4.8a3.054,3.054,0,0,0,1.736.543l1.153,3.267a17.349,17.349,0,0,0-.335,28.036l-1.589,5.565H16.386V47.109H14.338v2.048H12.29v-4.1H10.241v4.1H8.193V43.012H6.145v6.145H4.1v2.048h15.11l1.835-6.423a17.294,17.294,0,0,0,18.619-.826l2.525,2.526-1.649,1.651,3.786,3.786,1.448-1.448-2.338-2.338,4.7-4.7L60.471,55.778a3.321,3.321,0,0,1-2.349,5.669ZM43.635,45.035l-2.364-2.364a17.525,17.525,0,0,0,1.446-1.451l2.366,2.366ZM14.338,29.7A15.329,15.329,0,0,1,20.3,17.576l.731,2.07A13.27,13.27,0,0,0,28.6,42.958l.167-2.042a11.22,11.22,0,0,1-7-19.169l.884,2.5a3.06,3.06,0,0,0,3.576,4.957l4.662,3.626a3.015,3.015,0,0,0-.169.961A3.072,3.072,0,1,0,35.941,31.6l3.328-7.8a11.147,11.147,0,0,1,1.7,5.9A11.317,11.317,0,0,1,30.63,40.916l.167,2.042A13.378,13.378,0,0,0,43.013,29.7a13.229,13.229,0,0,0-2.8-8.115l.905-2.122A15.352,15.352,0,1,1,14.338,29.7Zm24.357-9.77a13.232,13.232,0,0,0-7.9-3.489l-.167,2.042a11.211,11.211,0,0,1,7.2,3.469l-3.755,8.8c-.094-.009-.184-.029-.281-.029a3.041,3.041,0,0,0-1.652.491l-4.662-3.626a3.015,3.015,0,0,0,.169-.961,3.076,3.076,0,0,0-3.07-3.072l-1.127-3.192a11.117,11.117,0,0,1,5.315-1.88L28.6,16.44a13.148,13.148,0,0,0-5.852,1.93l-.7-1.975a15.278,15.278,0,0,1,17.5,1.53ZM33.8,32.771A1.024,1.024,0,1,1,32.772,33.8,1.025,1.025,0,0,1,33.8,32.771ZM24.579,25.6a1.024,1.024,0,1,1-1.024,1.024A1.025,1.025,0,0,1,24.579,25.6ZM43.013,10.241a1.024,1.024,0,1,1,1.024,1.024A1.025,1.025,0,0,1,43.013,10.241ZM17.41,9.217a1.024,1.024,0,1,1,1.024,1.024A1.025,1.025,0,0,1,17.41,9.217ZM8.193,17.409a1.024,1.024,0,1,1-1.024-1.024A1.025,1.025,0,0,1,8.193,17.409Zm0,0" transform="translate(0 0)" fill="#201144"/>
</svg>
