<svg xmlns="http://www.w3.org/2000/svg" width="59.259" height="56.141" viewBox="0 0 59.259 56.141">
  <g id="Grupo_1101915" data-name="Grupo 1101915" transform="translate(0 -13.47)">
    <path id="Trazado_876822" data-name="Trazado 876822" d="M32.985,112.127A2.985,2.985,0,1,0,30,109.142,2.988,2.988,0,0,0,32.985,112.127Zm0-4.234a1.249,1.249,0,1,1-1.249,1.249A1.25,1.25,0,0,1,32.985,107.893Z" transform="translate(-26.528 -81.959)" fill="#201144"/>
    <path id="Trazado_876823" data-name="Trazado 876823" d="M91.132,112.127a2.985,2.985,0,1,0-2.985-2.985A2.988,2.988,0,0,0,91.132,112.127Zm0-4.234a1.249,1.249,0,1,1-1.249,1.249A1.25,1.25,0,0,1,91.132,107.893Z" transform="translate(-77.945 -81.959)" fill="#201144"/>
    <path id="Trazado_876824" data-name="Trazado 876824" d="M149.279,112.127a2.985,2.985,0,1,0-2.985-2.985A2.988,2.988,0,0,0,149.279,112.127Zm0-4.234a1.249,1.249,0,1,1-1.249,1.249A1.25,1.25,0,0,1,149.279,107.893Z" transform="translate(-129.362 -81.959)" fill="#201144"/>
    <path id="Trazado_876825" data-name="Trazado 876825" d="M58.391,19.864A.868.868,0,0,0,59.259,19V17.854a4.389,4.389,0,0,0-4.384-4.384H30a4.389,4.389,0,0,0-4.384,4.384V21H7.331A7.339,7.339,0,0,0,0,28.335V62.279a7.34,7.34,0,0,0,7.331,7.332H46.358a7.34,7.34,0,0,0,7.331-7.332V41.735h1.186a4.389,4.389,0,0,0,4.384-4.384V22.468a.868.868,0,1,0-1.736,0V37.351A2.651,2.651,0,0,1,54.875,40H43.707a.868.868,0,0,0-.48.145l-7.619,5.062a.792.792,0,0,1-1.23-.66V40.867A.868.868,0,0,0,33.511,40H30a2.651,2.651,0,0,1-2.648-2.648v-19.5A2.651,2.651,0,0,1,30,15.206h24.87a2.651,2.651,0,0,1,2.648,2.648V19a.868.868,0,0,0,.868.868ZM30,41.735h2.638v2.81a2.527,2.527,0,0,0,3.927,2.106l7.4-4.916H48.48V62.28A2.125,2.125,0,0,1,46.358,64.4H14.4a.868.868,0,1,0,0,1.736H46.358a3.863,3.863,0,0,0,3.859-3.859V41.735h1.736V62.279a5.6,5.6,0,0,1-5.595,5.6H7.331a5.6,5.6,0,0,1-5.595-5.6V28.335A5.6,5.6,0,0,1,7.331,22.74H25.62v8.655H8a4.535,4.535,0,0,0-4.53,4.53V62.28a3.863,3.863,0,0,0,3.859,3.859h3.6a.868.868,0,0,0,0-1.736h-3.6A2.125,2.125,0,0,1,5.208,62.28V35.925A2.8,2.8,0,0,1,8,33.131H25.62v4.22A4.389,4.389,0,0,0,30,41.735Z" fill="#201144"/>
    <path id="Trazado_876826" data-name="Trazado 876826" d="M310.06,118.968a2.59,2.59,0,1,0,0,5.181h8.525a2.59,2.59,0,0,0,0-5.181h-.19v-6.1a2.52,2.52,0,0,0-2.517-2.517H310.06a2.59,2.59,0,0,0,0,5.181h.622v3.437Zm1.49-5.173h-1.49a.854.854,0,0,1,0-1.709h5.818a.782.782,0,0,1,.781.781v6.969a.868.868,0,0,0,.868.868h1.058a.854.854,0,0,1,0,1.709h-8.525a.854.854,0,1,1,0-1.709h1.49a.868.868,0,0,0,.868-.868v-5.173A.868.868,0,0,0,311.551,113.795Z" transform="translate(-271.883 -85.667)" fill="#201144"/>
    <path id="Trazado_876827" data-name="Trazado 876827" d="M342.942,39.751a3.856,3.856,0,1,0-3.856,3.856A3.861,3.861,0,0,0,342.942,39.751Zm-5.977,0a2.12,2.12,0,1,1,2.12,2.12A2.123,2.123,0,0,1,336.965,39.751Z" transform="translate(-296.429 -19.83)" fill="#201144"/>
    <path id="Trazado_876828" data-name="Trazado 876828" d="M121.909,290.352a.868.868,0,0,0,.868.868h13.389a.868.868,0,1,0,0-1.736H122.777A.868.868,0,0,0,121.909,290.352Z" transform="translate(-107.799 -244.068)" fill="#201144"/>
    <path id="Trazado_876829" data-name="Trazado 876829" d="M105.217,328.784H87.777a.868.868,0,1,0,0,1.736h17.44a.868.868,0,1,0,0-1.736Z" transform="translate(-76.85 -278.819)" fill="#201144"/>
    <path id="Trazado_876830" data-name="Trazado 876830" d="M105.217,368.084H87.777a.868.868,0,1,0,0,1.736h17.44a.868.868,0,1,0,0-1.736Z" transform="translate(-76.85 -313.571)" fill="#201144"/>
    <path id="Trazado_876831" data-name="Trazado 876831" d="M99.43,407.383H87.777a.868.868,0,0,0,0,1.736H99.43a.868.868,0,0,0,0-1.736Z" transform="translate(-76.85 -348.321)" fill="#201144"/>
  </g>
</svg>
