<svg xmlns="http://www.w3.org/2000/svg" width="74.016" height="74.016" viewBox="0 0 74.016 74.016">
  <g id="Grupo_1101919" data-name="Grupo 1101919" transform="translate(0)">
    <path id="Trazado_876832" data-name="Trazado 876832" d="M412,127.446A1.446,1.446,0,1,0,413.446,126,1.446,1.446,0,0,0,412,127.446Zm0,0" transform="translate(-352.441 -107.785)" fill="#22cac5"/>
    <path id="Trazado_876833" data-name="Trazado 876833" d="M435.464,174.081a27.534,27.534,0,0,1-.552,5.493,1.446,1.446,0,0,0,1.127,1.705,1.424,1.424,0,0,0,.291.03,1.447,1.447,0,0,0,1.415-1.157,30.422,30.422,0,0,0,.61-6.072,30.029,30.029,0,0,0-2.935-13.02,1.446,1.446,0,1,0-2.61,1.244A27.164,27.164,0,0,1,435.464,174.081Zm0,0" transform="translate(-370.123 -137.073)" fill="#22cac5"/>
    <path id="Trazado_876834" data-name="Trazado 876834" d="M211.9,226.239h-1.446V207.446A1.445,1.445,0,0,0,209.011,206H197.446A1.445,1.445,0,0,0,196,207.446v5.782a1.445,1.445,0,0,0,1.446,1.446h1.446v11.565h-1.446A1.445,1.445,0,0,0,196,227.684v5.782a1.445,1.445,0,0,0,1.446,1.446H211.9a1.445,1.445,0,0,0,1.446-1.446v-5.782A1.445,1.445,0,0,0,211.9,226.239Zm-1.446,5.782H198.891V229.13h1.446a1.446,1.446,0,0,0,1.446-1.446V213.228a1.446,1.446,0,0,0-1.446-1.446h-1.446v-2.891h8.674v18.793a1.446,1.446,0,0,0,1.446,1.446h1.446Zm0,0" transform="translate(-167.666 -176.22)" fill="#22cac5"/>
    <path id="Trazado_876835" data-name="Trazado 876835" d="M221.782,117.565A5.782,5.782,0,1,0,216,111.782,5.789,5.789,0,0,0,221.782,117.565Zm0-8.674a2.891,2.891,0,1,1-2.891,2.891A2.895,2.895,0,0,1,221.782,108.891Zm0,0" transform="translate(-184.775 -90.676)" fill="#22cac5"/>
    <path id="Trazado_876836" data-name="Trazado 876836" d="M37.007,0C17.061,0,0,17.029,0,37.008A39.421,39.421,0,0,0,5.252,56.579L.074,72.113A1.446,1.446,0,0,0,1.9,73.941l15.534-5.178a39.411,39.411,0,0,0,19.571,5.253c19.951,0,37.008-17.032,37.008-37.008C74.015,17.057,56.984,0,37.007,0Zm0,71.124a36.158,36.158,0,0,1-18.613-5.168,1.445,1.445,0,0,0-1.231-.15L3.731,70.284,8.209,56.852a1.444,1.444,0,0,0-.15-1.231A36.157,36.157,0,0,1,2.891,37.008c0-18.493,15.623-34.117,34.117-34.117S71.124,18.515,71.124,37.008,55.5,71.124,37.007,71.124Zm0,0" transform="translate(0)" fill="#22cac5"/>
  </g>
</svg>
