<svg xmlns="http://www.w3.org/2000/svg" width="83" height="83" viewBox="0 0 83 83">
  <g id="Grupo_1100635" data-name="Grupo 1100635" transform="translate(-764.781 -2279)">
    <rect id="Rectángulo_401243" data-name="Rectángulo 401243" width="83" height="83" transform="translate(764.781 2279)" fill="none"/>
    <g id="Grupo_1102056" data-name="Grupo 1102056" transform="translate(774.781 2288.996)">
      <path id="Trazado_876916" data-name="Trazado 876916" d="M56.734,1l-14,8H41.14L34.991,7.243a6.249,6.249,0,0,0-1.485-.213L28.982,5.583a12.337,12.337,0,0,0-6.408-.291L15.95,6.765,7.3,1H1V15.7l11.568,4.207,3.442,2.065a3.113,3.113,0,0,0,3,3.017,3.113,3.113,0,0,0,3,3,3.11,3.11,0,0,0,2.253,2.876,17,17,0,1,0,14.378-.509A2.994,2.994,0,0,0,39,29a3.042,3.042,0,0,0,3-3,3.077,3.077,0,0,0,3-3.069,2.94,2.94,0,0,0-.036-.337l4.447-2.668L63,15.739V1ZM3,14.3V3H6.7l8.148,5.432L12.32,17.689Zm15,7.579a1.117,1.117,0,0,1,.328-.793l2.758-2.758a1.121,1.121,0,0,1,1.586,1.586l-2.758,2.758A1.121,1.121,0,0,1,18,21.879Zm3,3a1.117,1.117,0,0,1,.328-.793l2.758-2.758a1.121,1.121,0,0,1,1.586,1.586l-2.758,2.758A1.121,1.121,0,0,1,21,24.879Zm3.328,2.207,2.758-2.758a1.121,1.121,0,0,1,1.586,1.586l-2.758,2.758a1.121,1.121,0,0,1-1.586-1.586ZM30.879,27a1.121,1.121,0,0,1,.793,1.914l-2.758,2.758a1.121,1.121,0,0,1-1.586-1.586l2.758-2.758A1.117,1.117,0,0,1,30.879,27Zm2,3.535.745.621A1.043,1.043,0,0,1,32.957,33h-.185a1.045,1.045,0,0,1-.69-.261l-.748-.66ZM32,35A11,11,0,1,1,21,46,11.013,11.013,0,0,1,32,35ZM47,46A15,15,0,1,1,25.465,32.5a3.117,3.117,0,0,0,1.859,1.388,13,13,0,1,0,8.237-.376A3.009,3.009,0,0,0,36,32a3,3,0,0,0,.911-.163A14.9,14.9,0,0,1,47,46ZM41.924,24h-.173a1.073,1.073,0,0,1-.688-.249l-.158-.132L35.64,19.232l-1.28,1.536,5.265,4.387A1.044,1.044,0,0,1,38.957,27H38.74a1.044,1.044,0,0,1-.668-.242l-.167-.139L32.64,22.232l-1.28,1.536,5.265,4.387A1.044,1.044,0,0,1,35.957,30a1.644,1.644,0,0,1-1.052-.381l-.984-.82A3.182,3.182,0,0,0,34,28.121a3.118,3.118,0,0,0-3.011-3.11,3.113,3.113,0,0,0-3-3,3.113,3.113,0,0,0-3-3,3.115,3.115,0,0,0-5.317-2.1l-2.758,2.758a3.038,3.038,0,0,0-.281.342l-2.469-1.481L16.87,8.609l6.137-1.364a10.339,10.339,0,0,1,5.365.244l1.472.471-4.993,2.5a3.331,3.331,0,0,0-1.851,3v.2a3.349,3.349,0,0,0,5.073,2.871L31.8,14.288a2.067,2.067,0,0,1,2.4.231l8.45,7.6A1.076,1.076,0,0,1,41.924,24Zm2.058-3.361-8.45-7.6a4.108,4.108,0,0,0-4.766-.46l-3.723,2.234A1.349,1.349,0,0,1,25,13.651v-.2a1.342,1.342,0,0,1,.746-1.207l5.579-2.789a4.365,4.365,0,0,1,3.117-.29l6.284,1.8,1.734.029,5.127,7.691L44.1,20.771c-.043-.041-.076-.092-.121-.132ZM61,14.261,49.418,17.825l-4.992-7.488L57.266,3H61Z" fill="#201144"/>
      <path id="Trazado_876917" data-name="Trazado 876917" d="M31,53v2h2V53a4,4,0,0,0,0-8H31a2,2,0,0,1,0-4h2a2,2,0,0,1,2,2h2a4,4,0,0,0-4-4V37H31v2a4,4,0,0,0,0,8h2a2,2,0,0,1,0,4H31a2,2,0,0,1-2-2V48H27v1A4,4,0,0,0,31,53Z" fill="#201144"/>
      <path id="Trazado_876918" data-name="Trazado 876918" d="M48.2,37.4l1.6,1.2L54,33V54h2V33l4.2,5.6,1.6-1.2L55,28.333Z" fill="#201144"/>
      <path id="Trazado_876919" data-name="Trazado 876919" d="M54,56h2v2H54Z" fill="#201144"/>
      <path id="Trazado_876920" data-name="Trazado 876920" d="M15.8,37.4,9,28.333,2.2,37.4l1.6,1.2L8,33V54h2V33l4.2,5.6Z" fill="#201144"/>
      <path id="Trazado_876921" data-name="Trazado 876921" d="M8,56h2v2H8Z" fill="#201144"/>
    </g>
  </g>
</svg>
