<svg xmlns="http://www.w3.org/2000/svg" width="85" height="87.024" viewBox="0 0 85 87.024">
  <g id="Grupo_1102067" data-name="Grupo 1102067" transform="translate(-180 -1153)">
    <rect id="Rectángulo_402011" data-name="Rectángulo 402011" width="85" height="76" transform="translate(180 1153)" fill="#a6eae8"/>
    <g id="Grupo_1102066" data-name="Grupo 1102066" transform="translate(129.583 1162.989)">
      <path id="Trazado_876922" data-name="Trazado 876922" d="M67.122,77.034H78.459a1.129,1.129,0,0,0,0-2.257H75.353V55.239a1.129,1.129,0,1,0-2.257,0V74.777H67.122a.83.83,0,0,1-.829-.829V56.392a8.951,8.951,0,0,1,5.166-8.064l9.424-3.681,5.691,4.719a2.192,2.192,0,0,0,2.338.294l.789,1.233L87.216,74.777h-3.49a1.129,1.129,0,0,0,0,2.257h34.987a3.09,3.09,0,0,0,3.086-3.086V66.877a1.129,1.129,0,0,0-2.257,0v7.071a.83.83,0,0,1-.829.829h-5.974V55.239a1.129,1.129,0,1,0-2.257,0V74.777H98.619L96.133,50.894l.789-1.233a2.191,2.191,0,0,0,2.338-.294l5.666-4.7,9.451,3.66a8.934,8.934,0,0,1,5.165,8.064V61.61a1.129,1.129,0,0,0,2.257,0V56.392a11.125,11.125,0,0,0-6.574-10.155l-.022-.009L100.052,40.36l0-2.979a11.974,11.974,0,0,0,4.722-7.776,5.426,5.426,0,0,0,4.2-9.346l.377-6.681a8.308,8.308,0,0,1,.293-1.764,15.516,15.516,0,0,0-.709-10,1.88,1.88,0,0,0-2.8-.845c-.75.509-2.514,1.227-5.9.315-12.9-3.477-17.685.758-19.424,4.923a1.17,1.17,0,0,1-.787.7,4.281,4.281,0,0,0-3.561,4.36c0,1.855.213,5.8.405,8.994a5.426,5.426,0,0,0,4.184,9.347A11.718,11.718,0,0,0,85.776,37.4v2.914L70.628,46.229l-.019.008a11.124,11.124,0,0,0-6.574,10.155V73.948a3.09,3.09,0,0,0,3.086,3.087Zm22.363-2.257.234-2.245,2.245,2.245Zm6.864,0H95.156L90.02,69.641l.3-2.924,5.789,5.789Zm-1.7-16.332.375,3.6-3.817-3.817.3-2.924Zm-2.837-6.03.07-.669h2.07l.326,3.136Zm3.583,13.2.347,3.332-5.117-5.117.281-2.7ZM94.352,49.49H91.483l-1.012-1.583c1.157-1.714,1.153-1.7,1.24-1.865h2.414c.084.163.062.121,1.24,1.865Zm.324-6.14a2.207,2.207,0,0,0-.4.435H91.559a2.218,2.218,0,0,0-.4-.435L88,40.734a2.349,2.349,0,0,0,.029-.349v-1.7a12.412,12.412,0,0,0,9.76.029V40.4a2.259,2.259,0,0,0,.028.345Zm7.839.385-4.644,3.851L96.16,45.052l3.106-2.576Zm2.4-16.383V21.04a3.172,3.172,0,1,1,0,6.312Zm-23.991,0a3.172,3.172,0,1,1,0-6.312Zm0-9.932v1.355a5.553,5.553,0,0,0-1.87.214c-.219-3.75-.334-6.4-.334-7.722A2.037,2.037,0,0,1,80.552,9.1a3.434,3.434,0,0,0,2.339-2.023C85.445.961,93.283,1.749,99.645,3.464c3.662.987,5.98.4,7.356-.379a13.369,13.369,0,0,1,.463,8.122,10.592,10.592,0,0,0-.372,2.245l-.313,5.536a5.55,5.55,0,0,0-1.866-.213V17.419a3.894,3.894,0,0,0-4.771-3.794,34.29,34.29,0,0,1-14.449,0,3.9,3.9,0,0,0-4.771,3.794Zm2.257,10.435V17.419a1.638,1.638,0,0,1,2.009-1.594,36.548,36.548,0,0,0,15.459,0,1.638,1.638,0,0,1,2.009,1.594V27.774a9.675,9.675,0,0,1-9.582,9.663h-.049a9.657,9.657,0,0,1-9.847-9.582Zm3.349,14.588,3.147,2.609-1.711,2.534-4.676-3.878Z" transform="translate(0 0)" fill="#201144"/>
    </g>
  </g>
</svg>
