<svg xmlns="http://www.w3.org/2000/svg" width="295" height="87" viewBox="0 0 295 87">
  <g id="Grupo_1102078" data-name="Grupo 1102078" transform="translate(-1125 -1152)">
    <rect id="Rectángulo_402011" data-name="Rectángulo 402011" width="295" height="76" transform="translate(1125 1152)" fill="#f6ede6"/>
    <g id="Grupo_1102068" data-name="Grupo 1102068" transform="translate(1139 1179)">
      <path id="Trazado_876923" data-name="Trazado 876923" d="M1.83,60H57a1,1,0,0,0,1-.917l1.911-22.918a2,2,0,0,0-2-2.165H38.92a2.011,2.011,0,0,0-1.992,1.834l-.191,2.291A11.563,11.563,0,0,0,28.83,35h-.279A5.241,5.241,0,0,0,26,33.235V32.162a11.16,11.16,0,0,0,4.909-8.479,3.768,3.768,0,0,0,2.231-1.955A10.31,10.31,0,0,0,34,16.59V14.269A14.152,14.152,0,0,0,20,0,14.152,14.152,0,0,0,6,14.269V16.59a10.3,10.3,0,0,0,.864,5.144,3.749,3.749,0,0,0,2.227,1.949A11.164,11.164,0,0,0,14,32.162v1.073A5.241,5.241,0,0,0,11.449,35H11.17C5.011,35,0,39.76,0,45.61V58.17A1.832,1.832,0,0,0,1.83,60ZM20,38.354a6.472,6.472,0,0,1,2.445.834L21.323,42H18.677l-1.121-2.8A6.578,6.578,0,0,1,20,38.354ZM18.922,44h2.156l1.141,14H17.781Zm4.094-.846.9-2.253a3.243,3.243,0,0,1,.113.341,1,1,0,0,0,1.462.629,7.5,7.5,0,0,0,1.438-1.133c-.242,6.029-1.076,12.976-2.807,16ZM15.4,41.919a1,1,0,0,0,.575-.677,3.243,3.243,0,0,1,.113-.341l.9,2.253L15.859,56.963c-1.672-2.708-2.552-9.761-2.794-16.231a7.468,7.468,0,0,0,1.443,1.139,1,1,0,0,0,.887.048ZM35.08,58H31V55h4.33ZM57.914,36,56.08,58H37.087L38.92,36ZM36.505,40.9,35.5,53H31a2,2,0,0,0-2,2v3H25.663c1.352-2.163,2.29-5.9,2.843-11.328.408-4.008.483-7.88.494-9.662a9.375,9.375,0,0,1,7.505,3.9Zm-9.512-4.653a4.773,4.773,0,0,1-1.562,3.163,5.659,5.659,0,0,0-2.294-2.137,6.791,6.791,0,0,0,2.356-2.1,3.052,3.052,0,0,1,1.5,1.074ZM20,2A12.134,12.134,0,0,1,31.983,13.934a2.457,2.457,0,0,0-1.181-.008c-.852-3.467-4.26-5.243-6.378-5.773a2.535,2.535,0,0,0-2.055.329c-2.824,1.916-8.217,2.82-10.958,2.939A2.55,2.55,0,0,0,9,13.885a2.455,2.455,0,0,0-.985.04A12.134,12.134,0,0,1,20,2ZM11.078,23.432A1.8,1.8,0,0,0,9.79,21.8a1.734,1.734,0,0,1-1.131-.951A8.46,8.46,0,0,1,8,16.59a.779.779,0,0,1,.3-.625.518.518,0,0,1,.309-.112.464.464,0,0,1,.125.017.561.561,0,0,1,.282.289A1,1,0,0,0,11,16V13.99a.555.555,0,0,1,.5-.571c3.073-.134,8.8-1.118,11.981-3.276a.557.557,0,0,1,.443-.053c.21.052,5.076,1.317,5.076,5.51V16a1,1,0,0,0,1.987.159.555.555,0,0,1,.28-.288.487.487,0,0,1,.436.094.779.779,0,0,1,.3.625,8.452,8.452,0,0,1-.656,4.256,1.748,1.748,0,0,1-1.155.964,1.791,1.791,0,0,0-1.267,1.62A9.037,9.037,0,0,1,20,32a9.037,9.037,0,0,1-8.922-8.568ZM20,34a10.7,10.7,0,0,0,4-.776l0,.565c-.227.445-1.175,1.908-4,2.533-2.837-.627-3.782-2.1-4-2.53v-.567A10.7,10.7,0,0,0,20,34Zm-5.493,1.174a6.791,6.791,0,0,0,2.356,2.1,5.669,5.669,0,0,0-2.294,2.136,4.766,4.766,0,0,1-1.562-3.162,3.057,3.057,0,0,1,1.5-1.074ZM2,45.61a8.9,8.9,0,0,1,9-8.6c.01,1.828.083,5.861.494,9.971.53,5.3,1.425,8.939,2.709,11.021H2Z" fill="#201144"/>
      <path id="Trazado_876924" data-name="Trazado 876924" d="M47.471,49a4.713,4.713,0,0,0,4.513-3.826,3.6,3.6,0,0,0-.736-2.954A3.474,3.474,0,0,0,48.529,41a4.713,4.713,0,0,0-4.513,3.826,3.6,3.6,0,0,0,.736,2.954A3.474,3.474,0,0,0,47.471,49Zm-1.487-3.826A2.738,2.738,0,0,1,48.529,43a1.513,1.513,0,0,1,1.187.505,1.6,1.6,0,0,1,.3,1.321A2.738,2.738,0,0,1,47.471,47a1.513,1.513,0,0,1-1.187-.505,1.6,1.6,0,0,1-.3-1.321Z" fill="#201144"/>
      <path id="Trazado_876925" data-name="Trazado 876925" d="M58,0H38a2,2,0,0,0-2,2V20a2,2,0,0,0,2,2h3.757l4.121,4.113a2.973,2.973,0,0,0,4.238,0L54.243,22H58a2,2,0,0,0,2-2V2A2,2,0,0,0,58,0Zm0,20H53.83a1,1,0,0,0-.706.292L48.7,24.707a.993.993,0,0,1-1.4,0L42.88,20.3a1,1,0,0,0-.71-.3H38V2H58Z" fill="#201144"/>
      <path id="Trazado_876926" data-name="Trazado 876926" d="M41,18H55a1,1,0,0,0,0-2H54V10a1,1,0,0,0-2,0v6H50V8a1,1,0,0,0-2,0v8H46V12a1,1,0,0,0-2,0v4H42V5a1,1,0,0,0-2,0V17A1,1,0,0,0,41,18Z" fill="#201144"/>
      <path id="Trazado_876927" data-name="Trazado 876927" d="M49,51H45a1,1,0,0,0,0,2h4a1,1,0,0,0,0-2Z" fill="#201144"/>
    </g>
    <g id="Grupo_1102070" data-name="Grupo 1102070" transform="translate(1242.5 1179)">
      <g id="Grupo_1102069" data-name="Grupo 1102069" transform="translate(0 0)">
        <path id="Trazado_876928" data-name="Trazado 876928" d="M59.121,223.892H55.5V210.18a.879.879,0,1,0-1.758,0v13.712H46.031v-30.2h7.712v12.39a.879.879,0,1,0,1.758,0V192.809a.879.879,0,0,0-.879-.879h-9.47a.879.879,0,0,0-.879.879v31.083h-2.03V197.544a.879.879,0,0,0-.879-.879h-9.47a.879.879,0,0,0-.879.879v26.348h-2.03V204.647a.879.879,0,0,0-.879-.879h-9.47a.879.879,0,0,0-.879.879v19.245h-2.03V210.329a.879.879,0,0,0-.879-.879H5.377a.879.879,0,0,0-.879.879v13.563H.879a.879.879,0,0,0-.879.879v3.789a.879.879,0,0,0,.879.879h9.492a.879.879,0,1,0,0-1.758H1.758V225.65H58.242v2.031H14.473a.879.879,0,1,0,0,1.758H59.121a.879.879,0,0,0,.879-.879v-3.789a.879.879,0,0,0-.879-.879ZM32.773,198.423h7.712v25.469H32.773Zm-13.258,7.1h7.712v18.366H19.514ZM6.256,211.208h7.712v12.684H6.256Z" transform="translate(0 -169.438)" fill="#201144"/>
        <path id="Trazado_876929" data-name="Trazado 876929" d="M38.259,32.063H51.635a2.78,2.78,0,0,0,2.045-.9L64.574,19.277H72a2.755,2.755,0,0,0,1.961-.812l9-9v2.777a.879.879,0,0,0,.879.879h3.788a.879.879,0,0,0,.879-.879V2.773A2.776,2.776,0,0,0,85.728,0h-9.47a.879.879,0,0,0-.879.879V4.668a.879.879,0,0,0,.879.879h2.775l-8.186,8.186H63.355a2.779,2.779,0,0,0-2.044.9l-10.9,11.886H47.991a.879.879,0,0,0,0,1.758H50.8a.879.879,0,0,0,.648-.285L62.607,15.819a1.016,1.016,0,0,1,.748-.329h7.857a.879.879,0,0,0,.621-.257l9.943-9.943a.879.879,0,0,0-.621-1.5H77.137V1.758h8.591a1.016,1.016,0,0,1,1.015,1.015v8.592h-2.03V7.345a.879.879,0,0,0-1.5-.621l-10.5,10.5a1.009,1.009,0,0,1-.718.3H64.188a.879.879,0,0,0-.648.285L52.384,29.976a1.018,1.018,0,0,1-.749.329h-12.5v-2.03H43.89a.879.879,0,1,0,0-1.758H38.259a.879.879,0,0,0-.879.879v3.788a.879.879,0,0,0,.879.879Z" transform="translate(-33 0)" fill="#201144"/>
      </g>
    </g>
    <g id="Grupo_1102077" data-name="Grupo 1102077" transform="translate(1343 1179)">
      <g id="Grupo_1102072" data-name="Grupo 1102072" transform="translate(0)">
        <g id="Grupo_1102071" data-name="Grupo 1102071">
          <path id="Trazado_876930" data-name="Trazado 876930" d="M59.985,24.44l-1.263-7.034c0-.023-.009-.045-.015-.067L58.7,17.3c-.009-.03-.019-.06-.031-.089l-.014-.033a.952.952,0,0,0-.05-.1l-.016-.025a.961.961,0,0,0-.059-.082l-.009-.013L51.446,8.5V.947A.947.947,0,0,0,50.5,0H9.5a.947.947,0,0,0-.947.947V8.5L1.489,16.96l0,0,0,0,0,0a.948.948,0,0,0-.07.1l-.009.014a.93.93,0,0,0-.055.105l-.009.021a.936.936,0,0,0-.039.111v0c-.008.028-.014.055-.019.084L.015,24.44A.939.939,0,0,0,0,24.608a6.463,6.463,0,0,0,4.5,6.15v28.3A.947.947,0,0,0,5.448,60h5.67a.947.947,0,1,0,0-1.895H6.4V31.058h.668a6.454,6.454,0,0,0,5.5-3.09,6.454,6.454,0,0,0,5.5,3.09h.612a6.454,6.454,0,0,0,5.505-3.09,6.454,6.454,0,0,0,5.5,3.09h.612a6.455,6.455,0,0,0,5.5-3.09,6.454,6.454,0,0,0,5.5,3.09h.612a6.454,6.454,0,0,0,5.5-3.09,6.454,6.454,0,0,0,5.5,3.09H53.6V58.105H50.2V36.388a.947.947,0,0,0-.947-.947H35.811a.947.947,0,0,0-.947.947V58.105H14.149a.947.947,0,1,0,0,1.895h40.4a.947.947,0,0,0,.947-.947v-28.3a6.463,6.463,0,0,0,4.5-6.15A.944.944,0,0,0,59.985,24.44ZM48.309,58.105H36.758V42.388H48.309Zm0-17.612H36.758V37.335H48.309Zm-37.86-38.6h39.1V7.708h-39.1Zm23.88,14.731H25.671L26.737,9.6h6.526Zm-22.7,7.863a.924.924,0,0,0-.008.118,4.563,4.563,0,0,1-4.557,4.557H6.452A4.562,4.562,0,0,1,1.9,24.688L3,18.521h9.376ZM4.236,16.626,10.1,9.6h6.217l-3.454,7.023Zm19.008,7.93c0,.017,0,.034,0,.051a4.563,4.563,0,0,1-4.557,4.557h-.612a4.562,4.562,0,0,1-4.557-4.5l.364-2.9.408-3.247h9.28Zm.511-7.93h-8.78L18.428,9.6h6.392Zm6.552,12.539h-.612a4.562,4.562,0,0,1-4.557-4.533l.078-1.45.251-4.661h9.068l.278,5.159.051.952A4.563,4.563,0,0,1,30.306,29.165ZM35.179,9.6h6.392l3.454,7.023h-8.78Zm6.747,19.562h-.612a4.562,4.562,0,0,1-4.557-4.557c0-.017,0-.034,0-.051l-.325-6.036h9.28l.772,6.143A4.563,4.563,0,0,1,41.927,29.165Zm5.211-12.539L43.683,9.6H49.9l5.864,7.023Zm6.411,12.539h-.612a4.562,4.562,0,0,1-4.557-4.557.952.952,0,0,0-.007-.118l-.75-5.969H57L58.1,24.688A4.563,4.563,0,0,1,53.548,29.165Z" transform="translate(0)" fill="#201144"/>
        </g>
      </g>
      <g id="Grupo_1102074" data-name="Grupo 1102074" transform="translate(10.161 35.44)">
        <g id="Grupo_1102073" data-name="Grupo 1102073">
          <path id="Trazado_876931" data-name="Trazado 876931" d="M107.27,302.425H87.656a.947.947,0,0,0-.947.947v11.964a.947.947,0,0,0,.947.947H107.27a.947.947,0,0,0,.947-.947V303.372A.947.947,0,0,0,107.27,302.425ZM88.6,314.389V304.32h17.719v10.069Z" transform="translate(-86.709 -302.425)" fill="#201144"/>
        </g>
      </g>
      <g id="Grupo_1102076" data-name="Grupo 1102076" transform="translate(12.632 3.854)">
        <g id="Grupo_1102075" data-name="Grupo 1102075">
          <path id="Trazado_876932" data-name="Trazado 876932" d="M141.832,32.888H108.737a.947.947,0,0,0,0,1.895h33.095a.947.947,0,0,0,0-1.895Z" transform="translate(-107.79 -32.888)" fill="#201144"/>
        </g>
      </g>
    </g>
    <path id="Trazado_876933" data-name="Trazado 876933" d="M96.685,0A33.754,33.754,0,0,1,62.97,33.715,33.754,33.754,0,0,1,29.253,0H0A63.04,63.04,0,0,0,62.97,62.969,63.04,63.04,0,0,0,125.938,0Z" transform="translate(1210 1152)" fill="#b15815" opacity="0.1"/>
  </g>
</svg>
