<svg id="Grupo_1102080" data-name="Grupo 1102080" xmlns="http://www.w3.org/2000/svg" width="50" height="50" viewBox="0 0 50 50">
  <path id="_x35_" d="M65.008,0H82.954a2.462,2.462,0,0,1,2.358,2.524v11.3a2.462,2.462,0,0,1-2.358,2.524H65.008a2.455,2.455,0,0,1-2.359-2.524V11.78L58.83,9.832a1.681,1.681,0,0,1,0-2.956c1.273-.653,2.546-1.3,3.82-1.949v-2.4A2.454,2.454,0,0,1,65.008,0ZM82.954,1.561H65.008a.9.9,0,0,0-.8.963V5.4a.763.763,0,0,1-.432.686c-1.418.731-2.823,1.462-4.241,2.181a.094.094,0,0,0,0,.166l4.175,2.148a.772.772,0,0,1,.5.72v2.524a.9.9,0,0,0,.8.963H82.955a.9.9,0,0,0,.8-.963V2.524a.9.9,0,0,0-.8-.963Z" transform="translate(-35.313)" fill="#22cac5"/>
  <path id="_x34_" d="M83.232,11.651a.781.781,0,0,1,0-1.561H94.945a.781.781,0,0,1,0,1.561Zm0,6.92a.781.781,0,0,1,0-1.561h6.953a.781.781,0,0,1,0,1.561Zm0-3.465a.781.781,0,0,1,0-1.561H94.945a.781.781,0,0,1,0,1.561Z" transform="translate(-50.249 -6.149)" fill="#22cac5"/>
  <path id="_x33_" d="M10.053,14.78a4.064,4.064,0,0,1-.62-.3l-.122.9,2.569,2.889,2.557-2.889-.122-.9a4.413,4.413,0,0,1-.609.3,5.582,5.582,0,0,1-3.653,0ZM8.016,13.341l-.077-.066A5.375,5.375,0,0,1,6.156,9.156V5.569A5.364,5.364,0,0,1,11.88,0a5.356,5.356,0,0,1,5.713,5.569V9.156a5.376,5.376,0,0,1-1.782,4.119l-.078.066.255,1.882,1.34,1.173,3.8,1.65a4.373,4.373,0,0,1,1.927,1.639,4.576,4.576,0,0,1,.7,2.458V24.3a.78.78,0,0,1-.775.786.789.789,0,0,1-.786-.786V22.143a2.907,2.907,0,0,0-.454-1.616A2.785,2.785,0,0,0,20.5,19.475l-3.111-1.351L16.087,22.21a.78.78,0,0,1-.974.509.864.864,0,0,1-.221-.122L12.655,20.97V24.3a.78.78,0,0,1-.775.786.79.79,0,0,1-.787-.786V20.97L8.868,22.608l-.232.111a.784.784,0,0,1-.974-.509l-1.3-4.086L3.244,19.475a2.789,2.789,0,0,0-1.229,1.052,3,3,0,0,0-.454,1.616v9.8a.78.78,0,0,1-.775.786A.789.789,0,0,1,0,31.942v-9.8a4.491,4.491,0,0,1,.709-2.458,4.283,4.283,0,0,1,1.915-1.639l3.8-1.65,1.34-1.173Zm1.3-.93a.531.531,0,0,1,.111.111,4.133,4.133,0,0,0,1.2.808,4.23,4.23,0,0,0,2.514,0,4.146,4.146,0,0,0,1.2-.808.6.6,0,0,1,.122-.111c.111-.1.221-.2.321-.3a3.832,3.832,0,0,0,1.262-2.956V7.5a5.08,5.08,0,0,1-5.326-1.849,2.978,2.978,0,0,1-2.978.985V9.156A3.822,3.822,0,0,0,8.98,12.112l.332.3Zm-.886,4.307-.687.6L8.813,20.7l1.915-1.395Zm6.9,0-2.292,2.591,1.9,1.395,1.074-3.388Zm-10.74,10a.789.789,0,0,1,.786-.786.78.78,0,0,1,.775.786v5.225a.78.78,0,0,1-.775.786.789.789,0,0,1-.786-.786ZM7.75,5.037A1.771,1.771,0,0,0,10,3.82a.771.771,0,0,1,1.461.055S12.444,6.72,16.032,5.9V5.569A3.806,3.806,0,0,0,11.88,1.561,3.783,3.783,0,0,0,7.75,5.037Z" transform="translate(0 0)" fill="#22cac5"/>
  <path id="_x32_" d="M68.988,63.818a5.931,5.931,0,0,1-2.126-4.695V55.071c0-3.753,2.646-6.178,6.355-6.178s6.344,2.425,6.344,6.178v4.052a5.925,5.925,0,0,1-2.114,4.695l.31,3.221,5.857,2.2a4.865,4.865,0,0,1,2.9,4.528v5.237a.789.789,0,0,1-.786.786.78.78,0,0,1-.775-.786V73.771A3.275,3.275,0,0,0,83,70.682l-6.244-2.358a11.833,11.833,0,0,0-7.064-.2l-6.278,2.557a3.283,3.283,0,0,0-1.937,3.089v5.237a.789.789,0,0,1-.786.786.78.78,0,0,1-.775-.786V73.771a4.864,4.864,0,0,1,2.9-4.528L68.7,66.851Zm6.61.775H70.826a.4.4,0,0,0-.387.354l-.133,1.418a13.474,13.474,0,0,1,5.835.166l-.155-1.584A.379.379,0,0,0,75.6,64.592ZM70.76,63.054h4.9a1.69,1.69,0,0,0,.952-.565A4.477,4.477,0,0,0,78,59.123V55.071c0-2.9-1.937-4.617-4.783-4.617s-4.794,1.716-4.794,4.617v4.052a4.49,4.49,0,0,0,1.584,3.532,1.259,1.259,0,0,0,.752.4Z" transform="translate(-36.515 -29.794)" fill="#22cac5"/>
  <path id="_x31_" d="M12.994,71.873l1.295-7.418a2.572,2.572,0,0,1,2.436-2.071H29.889a1.941,1.941,0,0,1,1.938,2.336l-1.661,9.466a2.739,2.739,0,0,1-2.6,2.214H10.636a1.936,1.936,0,0,1-1.949-1.373l-.531-2.181a.785.785,0,0,1,.753-.974h4.085Zm9.942-3.288a.77.77,0,0,1,.775.775.78.78,0,0,1-.775.786.789.789,0,0,1-.786-.786A.78.78,0,0,1,22.936,68.584Zm-8.769,5.6a.509.509,0,0,0,.52.653H27.564a1.154,1.154,0,0,0,1.063-.919l1.661-9.466a.388.388,0,0,0-.4-.509H16.725a.987.987,0,0,0-.9.775l-1.661,9.466Zm-1.45-.753H9.905l.3,1.218a.391.391,0,0,0,.432.188h2.015a2.57,2.57,0,0,1-.022-.919Z" transform="translate(-4.956 -38.015)" fill="#22cac5"/>
</svg>
