<svg xmlns="http://www.w3.org/2000/svg" width="40.299" height="40.297" viewBox="0 0 40.299 40.297">
  <g id="Grupo_1102128" data-name="Grupo 1102128" transform="translate(0.519 0.518)">
    <path id="Trazado_876961" data-name="Trazado 876961" d="M25.924,39.262a4.435,4.435,0,0,1-1.839-.4l-3.292-1.5a2.81,2.81,0,0,0-2.322,0l-3.292,1.5a4.444,4.444,0,0,1-6-2.483l-1.27-3.387A2.8,2.8,0,0,0,6.27,31.352l-3.387-1.27a4.444,4.444,0,0,1-2.483-6l1.5-3.292a2.817,2.817,0,0,0,0-2.322L.4,15.178a4.444,4.444,0,0,1,2.483-6l3.387-1.27A2.8,2.8,0,0,0,7.909,6.268l1.27-3.387a4.444,4.444,0,0,1,6-2.483L18.47,1.9a2.81,2.81,0,0,0,2.322,0L24.083.4a4.444,4.444,0,0,1,6,2.483l1.27,3.387a2.8,2.8,0,0,0,1.641,1.641l3.387,1.27a4.444,4.444,0,0,1,2.483,6l-1.5,3.292a2.817,2.817,0,0,0,0,2.322l1.5,3.292a4.444,4.444,0,0,1-2.483,6l-3.387,1.27a2.8,2.8,0,0,0-1.641,1.641l-1.27,3.387a4.44,4.44,0,0,1-4.157,2.881Zm-6.292-3.781a4.444,4.444,0,0,1,1.837.4l3.293,1.5a2.808,2.808,0,0,0,3.789-1.569l1.27-3.387a4.436,4.436,0,0,1,2.6-2.6l3.387-1.27a2.808,2.808,0,0,0,1.569-3.789l-1.5-3.292a4.448,4.448,0,0,1,0-3.676l1.5-3.293a2.808,2.808,0,0,0-1.569-3.789l-3.387-1.27a4.436,4.436,0,0,1-2.6-2.6l-1.27-3.387A2.808,2.808,0,0,0,24.762,1.89l-3.292,1.5a4.457,4.457,0,0,1-3.675,0L14.5,1.887a2.808,2.808,0,0,0-3.789,1.569L9.442,6.843a4.443,4.443,0,0,1-2.6,2.6l-3.387,1.27A2.81,2.81,0,0,0,1.887,14.5l1.5,3.292a4.448,4.448,0,0,1,0,3.676l-1.5,3.293a2.808,2.808,0,0,0,1.569,3.789l3.387,1.27a4.436,4.436,0,0,1,2.6,2.6l1.27,3.387A2.808,2.808,0,0,0,14.5,37.374l3.292-1.5a4.5,4.5,0,0,1,1.841-.4Zm1.5-32.842h.016Z" transform="translate(0 0)" fill="#22cac5" stroke="#22cac5" stroke-width="1"/>
    <path id="Trazado_876962" data-name="Trazado 876962" d="M10.09,13.18a4.09,4.09,0,1,1,4.09-4.09A4.1,4.1,0,0,1,10.09,13.18Zm0-6.544A2.454,2.454,0,1,0,12.544,9.09,2.457,2.457,0,0,0,10.09,6.636Z" transform="translate(3.815 3.179)" fill="#22cac5" stroke="#22cac5" stroke-width="1"/>
    <path id="Trazado_876963" data-name="Trazado 876963" d="M17.09,22.18a4.09,4.09,0,1,1,4.09-4.09A4.1,4.1,0,0,1,17.09,22.18Zm0-6.544a2.454,2.454,0,1,0,2.454,2.454A2.457,2.457,0,0,0,17.09,15.636Z" transform="translate(8.268 8.904)" fill="#22cac5" stroke="#22cac5" stroke-width="1"/>
    <path id="Trazado_876964" data-name="Trazado 876964" d="M8.818,25.632a.817.817,0,0,1-.689-1.256l11.452-18a.818.818,0,0,1,1.379.879l-11.452,18a.818.818,0,0,1-.69.378Z" transform="translate(5.088 3.816)" fill="#22cac5" stroke="#22cac5" stroke-width="1"/>
  </g>
</svg>
