<svg xmlns="http://www.w3.org/2000/svg" width="50.898" height="51.215" viewBox="0 0 50.898 51.215">
  <path id="Trazado_878139" data-name="Trazado 878139" d="M8.679,18.49a.692.692,0,0,1,.692-.692H30.1a.692.692,0,1,1,0,1.384H9.371A.692.692,0,0,1,8.679,18.49ZM20,23.634H9.371a.692.692,0,1,0,0,1.384H20a.692.692,0,1,0,0-1.384Zm0,5.836H9.371a.692.692,0,0,0,0,1.384H20a.692.692,0,1,0,0-1.384Zm0,5.836H9.371a.692.692,0,0,0,0,1.384H20a.692.692,0,1,0,0-1.384Zm32.331-.49a1.658,1.658,0,0,1-.935.87l-2.157.8a1.633,1.633,0,0,1-1.695-.332,2.3,2.3,0,0,1-.559,1.309,1.737,1.737,0,0,1-1.671.549,2.232,2.232,0,0,1-2.657,2.078,2.126,2.126,0,0,1-.585,1.363V43.43a4.514,4.514,0,0,1-4.358,4.5,4.516,4.516,0,0,1-4.337,3.281H6.1A4.516,4.516,0,0,1,1.586,46.7V7.785a4.513,4.513,0,0,1,4.359-4.5A4.537,4.537,0,0,1,10.28,0H37.56a4.516,4.516,0,0,1,4.511,4.511V26.049l.271.113a3.912,3.912,0,0,0,1.465.431,1.659,1.659,0,0,1,1.045-1.913l2.158-.8a1.671,1.671,0,0,1,2.145.984l3.224,8.679A1.659,1.659,0,0,1,52.331,34.817ZM41.808,27.439c-1.3-.545-2.651-1.109-4.525.184a8.693,8.693,0,0,0-1.215,1.035c-.246.248-.5.5-.745.739-.5.492-1.1,1.076-1.415,1.474.946.986,1.932.686,3.485.1,1.265-.476,2.7-1.016,3.964-.05.348.2.862.452,1.4.72a21.19,21.19,0,0,1,3.682,2.115l-2.168-5.836a2.264,2.264,0,0,1-.493.06,5.287,5.287,0,0,1-1.975-.541ZM7.411,3.273H33.377a4.516,4.516,0,0,1,4.511,4.511V25.748a4.728,4.728,0,0,1,2.8-.162V4.511A3.131,3.131,0,0,0,37.56,1.384H10.28A3.147,3.147,0,0,0,7.411,3.273Zm16.066,7.962L27.21,8.718a.692.692,0,0,1,.774,0l3.338,2.25V4.658H23.477ZM36.5,46.7V45.011a1.836,1.836,0,0,1-.437.056,2.058,2.058,0,0,1-.967-.25,2.5,2.5,0,0,1-1.108-1.236l-.042.013a2.15,2.15,0,0,1-1.648-.161,2.023,2.023,0,0,1-.89-.89,2.232,2.232,0,0,1-.3.116,2.15,2.15,0,0,1-1.648-.161,2.068,2.068,0,0,1-1.034-1.239,2.233,2.233,0,0,1-.092-.909,2.154,2.154,0,0,1-.929-.254,2.067,2.067,0,0,1-1.034-1.238,2.194,2.194,0,0,1,.146-1.692l.249-.465a1.583,1.583,0,0,1-.951-.016l-2.19-.706a1.671,1.671,0,0,1-1.076-2.1l2.843-8.812a1.672,1.672,0,0,1,2.1-1.076l2.191.707a1.666,1.666,0,0,1,1.1,1.168,6.926,6.926,0,0,0,1.579-.195,5.848,5.848,0,0,1,4.141.315V7.785a3.131,3.131,0,0,0-3.127-3.127h-.671V12.27a.692.692,0,0,1-1.079.574L27.6,10.127l-4.124,2.78a.692.692,0,0,1-.387.118h-.3a.692.692,0,0,1-.692-.692V4.658H6.1A3.131,3.131,0,0,0,2.97,7.785V46.7A3.131,3.131,0,0,0,6.1,49.831h27.28A3.13,3.13,0,0,0,36.5,46.7Zm2.048-5.229a2.157,2.157,0,0,1-.115,1.239l.07.037a.49.49,0,0,0,.707-.22.622.622,0,0,0-.265-.842Zm-.685,2.5-.054-.028-.017.028Zm-2.232-2.187h0l-.357.667a.926.926,0,0,0,.475,1.137c.132.071.534.286.9-.4l.259-.485h0c.491-.918.349-1.05-.174-1.33a.739.739,0,0,0-.588-.021.947.947,0,0,0-.517.432ZM34.5,39.33a.783.783,0,0,0-1.056.321v0l-.8,1.5h0a.8.8,0,0,0-.047.619.716.716,0,0,0,.351.429.788.788,0,0,0,.611.066.776.776,0,0,0,.463-.377l.047-.087v0l.353-.659,0,0h0l.4-.752A.782.782,0,0,0,34.5,39.33Zm-2.021-1.3a.779.779,0,0,0-1.434-.142v0l-.7,1.317-.541,1.011a.8.8,0,0,0-.047.619.715.715,0,0,0,.351.429.787.787,0,0,0,1.074-.311l.242-.453v0l.8-1.5v0l.2-.372a.774.774,0,0,0,.057-.594Zm-2.8-2.263a.786.786,0,0,0-1.023.338l-.3.553h0l-.619,1.158a.8.8,0,0,0-.047.619.717.717,0,0,0,.351.429.785.785,0,0,0,1.072-.31l0,0,.7-1.315h0l.211-.393c.079-.148.318-.594-.354-1.074Zm-.234-9.4a.288.288,0,0,0-.183-.358l-2.191-.707a.272.272,0,0,0-.085-.014.291.291,0,0,0-.132.032.283.283,0,0,0-.141.165L23.868,34.3a.288.288,0,0,0,.183.358l2.191.707a.286.286,0,0,0,.358-.183l.494-1.532c.018-.062.033-.124.053-.185.007-.021.018-.04.026-.06ZM40.687,43.43V42.161l-.015,0a2.026,2.026,0,0,1-.232,1.009,1.869,1.869,0,0,1-1.663,1.032,1.972,1.972,0,0,1-.889-.218V46.54a3.132,3.132,0,0,0,2.8-3.11Zm5.331-8.15c-.474-.721-2.517-1.73-3.87-2.4-.61-.3-1.136-.561-1.524-.786a.736.736,0,0,1-.082-.056c-.633-.5-1.423-.24-2.661.227-1.547.583-3.667,1.379-5.381-.926a.694.694,0,0,1-.085-.676,8.929,8.929,0,0,1,1.939-2.256c.241-.237.489-.481.73-.724q.3-.3.593-.56a4.678,4.678,0,0,0-3.045-.1,7.736,7.736,0,0,1-2.015.212l-2.2,6.809a3.952,3.952,0,0,0-.113.525,2.188,2.188,0,0,1,.409-.17,2.143,2.143,0,0,1,1.649.161.684.684,0,0,1,.09.057,2.384,2.384,0,0,1,1.029,1.485A2.16,2.16,0,0,1,33.8,37.63a2.18,2.18,0,0,1,.059.241,2.152,2.152,0,0,1,2.315,1.451.691.691,0,0,1,.893-.217l2.3,1.233a.684.684,0,0,1,.116.048h0l.573.307a.831.831,0,0,0,.786-1.464h0a.669.669,0,0,1-.065-.044l-2.652-1.418a.692.692,0,0,1,.652-1.22L41.495,38a.683.683,0,0,1,.064.043l1.127.6a.846.846,0,0,0,.838-1.47l-3.737-2.028a.692.692,0,1,1,.661-1.217L44.1,35.919c.011.005.023.008.034.014l1.136.608c.456.243.625.06.689-.01a1.123,1.123,0,0,0,.055-1.251Zm5.064-1.257-3.224-8.68a.283.283,0,0,0-.149-.159.294.294,0,0,0-.12-.027.277.277,0,0,0-.1.017l-2.158.8a.287.287,0,0,0-.168.366l3.224,8.68a.283.283,0,0,0,.149.159.288.288,0,0,0,.217.009l2.157-.8a.287.287,0,0,0,.168-.366Z" transform="translate(-1.586)" fill="#22cac5"/>
</svg>
