<svg id="Grupo_1102340" data-name="Grupo 1102340" xmlns="http://www.w3.org/2000/svg" width="85" height="65.039" viewBox="0 0 85 65.039">
  <path id="Trazado_878140" data-name="Trazado 878140" d="M1.245,118.671a1.245,1.245,0,0,1,1.245,1.245,2.75,2.75,0,0,0,2.747,2.747H66.456a2.75,2.75,0,0,0,2.747-2.747V73.252H2.49V98.623a1.245,1.245,0,0,1-2.49,0V65.353a5.243,5.243,0,0,1,5.238-5.238H66.456a5.243,5.243,0,0,1,5.238,5.238v54.564a5.243,5.243,0,0,1-5.238,5.238H5.238A5.243,5.243,0,0,1,0,119.916a1.245,1.245,0,0,1,1.245-1.245ZM66.456,62.605H5.238A2.75,2.75,0,0,0,2.49,65.353v5.409H69.2V65.353A2.75,2.75,0,0,0,66.456,62.605Z" transform="translate(13.306 -60.115)" fill="#22cac5"/>
  <path id="Trazado_878141" data-name="Trazado 878141" d="M33.35,94.669a1.245,1.245,0,1,1,0-2.49h.013a1.245,1.245,0,0,1-.013,2.49Z" transform="translate(45.068 -86.856)" fill="#22cac5"/>
  <path id="Trazado_878142" data-name="Trazado 878142" d="M97.478,94.669a1.245,1.245,0,1,1,0-2.49h.013a1.245,1.245,0,1,1-.013,2.49Z" transform="translate(-29.707 -86.856)" fill="#22cac5"/>
  <path id="Trazado_878143" data-name="Trazado 878143" d="M65.334,94.669a1.245,1.245,0,1,1,0-2.49h.013a1.245,1.245,0,0,1-.013,2.49Z" transform="translate(7.774 -86.856)" fill="#22cac5"/>
  <path id="Trazado_878144" data-name="Trazado 878144" d="M172.09,94.669H129.5a1.245,1.245,0,1,1,0-2.49H172.09a1.245,1.245,0,1,1,0,2.49Z" transform="translate(-109.628 -86.856)" fill="#22cac5"/>
  <path id="Trazado_878145" data-name="Trazado 878145" d="M233.611,204.063l14.639-14.638a3.909,3.909,0,0,1,4.5-.738l2.716-2.716a13.238,13.238,0,1,1,1.761,1.761l-2.716,2.716a3.908,3.908,0,0,1-.737,4.5l-14.639,14.638a3.906,3.906,0,1,1-5.525-5.524Zm42.773-26.516a10.732,10.732,0,1,0-10.732,10.732A10.744,10.744,0,0,0,276.383,177.547Zm-23.955,14.639a1.416,1.416,0,0,0-2.418-1l-1.781,1.781,2,2,1.781-1.781A1.407,1.407,0,0,0,252.428,192.187Zm-17.057,15.641a1.416,1.416,0,0,0,2,0l11.1-11.1-2-2-11.1,11.1A1.418,1.418,0,0,0,235.372,207.828Z" transform="translate(-232.468 -147.024)" fill="#22cac5"/>
  <path id="Trazado_878146" data-name="Trazado 878146" d="M58.689,197.517a2.579,2.579,0,0,1-2.576-2.576v-3.992a2.579,2.579,0,0,1,2.576-2.576H77.321a2.579,2.579,0,0,1,2.576,2.576v3.992a2.579,2.579,0,0,1-2.576,2.576H69.25v2.833h8.071a2.579,2.579,0,0,1,2.576,2.576v3.992a2.579,2.579,0,0,1-2.576,2.576H69.25v2.833h8.071A2.579,2.579,0,0,1,79.9,214.9V218.9a2.579,2.579,0,0,1-2.576,2.576H58.689a2.579,2.579,0,0,1-2.576-2.576V214.9a2.579,2.579,0,0,1,2.576-2.576H66.76v-2.833H58.689a2.579,2.579,0,0,1-2.576-2.576v-3.992a2.579,2.579,0,0,1,2.576-2.576H66.76v-2.833ZM58.6,214.9V218.9a.086.086,0,0,0,.086.086H77.321a.086.086,0,0,0,.086-.086V214.9a.086.086,0,0,0-.086-.086H58.689A.086.086,0,0,0,58.6,214.9Zm0-11.977v3.992a.086.086,0,0,0,.086.086H77.321a.086.086,0,0,0,.086-.086v-3.992a.086.086,0,0,0-.086-.086H58.689A.086.086,0,0,0,58.6,202.926Zm18.8-7.985v-3.992a.086.086,0,0,0-.086-.086H58.689a.086.086,0,0,0-.086.086v3.992a.086.086,0,0,0,.086.086H77.321A.086.086,0,0,0,77.406,194.941Z" transform="translate(-4.213 -167.08)" fill="#22cac5"/>
  <path id="Trazado_878147" data-name="Trazado 878147" d="M299.049,228.453h-1.331a1.245,1.245,0,0,0-.283,2.458l-1.372,5.119a1.245,1.245,0,0,0,1.2,1.567H298.6a1.245,1.245,0,0,0,.283-2.458l1.372-5.119a1.245,1.245,0,0,0-1.2-1.567Z" transform="translate(-265.516 -200.506)" fill="#22cac5"/>
  <path id="Trazado_878148" data-name="Trazado 878148" d="M314.49,204.4h.013a1.252,1.252,0,1,1-.013,0Z" transform="translate(-281.498 -180.45)" fill="#22cac5"/>
</svg>
