<svg xmlns="http://www.w3.org/2000/svg" width="52.871" height="51.516" viewBox="0 0 52.871 51.516">
  <g id="Grupo_1102345" data-name="Grupo 1102345" transform="translate(0 -6.558)">
    <path id="Trazado_878163" data-name="Trazado 878163" d="M119.024,88.224a2.585,2.585,0,1,0-2.063-1.031L112.72,93.12a2.574,2.574,0,0,0-2.561.564l-2.827-1.6a2.582,2.582,0,1,0-5.047,0l-2.827,1.6a2.578,2.578,0,1,0,.766,1.346l2.827-1.6a2.575,2.575,0,0,0,3.514,0l2.827,1.6a2.582,2.582,0,1,0,4.586-1.008L118.22,88.1A2.574,2.574,0,0,0,119.024,88.224Zm0-3.614a1.033,1.033,0,1,1-1.033,1.033A1.034,1.034,0,0,1,119.024,84.61Zm-21.325,12a1.033,1.033,0,1,1,1.033-1.033A1.034,1.034,0,0,1,97.7,96.606Zm7.108-4.036a1.033,1.033,0,1,1,1.033-1.033A1.034,1.034,0,0,1,104.807,92.57Zm7.108,4.036a1.033,1.033,0,1,1,1.033-1.033A1.034,1.034,0,0,1,111.916,96.606Z" transform="translate(-85.296 -68.603)" fill="#22cac5"/>
    <path id="Trazado_878164" data-name="Trazado 878164" d="M43.246,74.9H2.191a.642.642,0,0,1-.642-.642V42.307a.643.643,0,0,1,.642-.642H5.842a.774.774,0,0,0,0-1.549H2.191A2.193,2.193,0,0,0,0,42.307V74.258a2.193,2.193,0,0,0,2.191,2.191h5.34v1.7a1.763,1.763,0,0,0,1.761,1.761h7.752l-3.649,7.125a.774.774,0,1,0,1.379.706l4.011-7.831h8.563l4.011,7.831a.774.774,0,1,0,1.379-.706l-3.649-7.125H36.84A1.763,1.763,0,0,0,38.6,78.153v-1.7h4.645a.774.774,0,0,0,0-1.549Zm-6.194,3.253a.212.212,0,0,1-.212.212H9.292a.212.212,0,0,1-.212-.212v-1.7H37.052Z" transform="translate(0 -30.093)" fill="#22cac5"/>
    <path id="Trazado_878165" data-name="Trazado 878165" d="M79.845,11.572h35a.643.643,0,0,1,.642.642v7.364a.774.774,0,1,0,1.549,0V12.214a2.193,2.193,0,0,0-2.191-2.191H98.27V8.5a1.945,1.945,0,0,0-1.943-1.943H91.616A1.945,1.945,0,0,0,89.673,8.5v1.522H79.845a.774.774,0,1,0,0,1.549ZM91.222,8.5a.4.4,0,0,1,.394-.394h4.711a.4.4,0,0,1,.394.394v1.522h-5.5V8.5Z" transform="translate(-70.906)" fill="#22cac5"/>
    <path id="Trazado_878166" data-name="Trazado 878166" d="M98.176,267.576a.774.774,0,0,0-.774.774v6.843a.774.774,0,0,0,.774.774h3.142a.774.774,0,0,0,.774-.774V268.35a.774.774,0,0,0-.774-.774Zm2.368,6.844H98.951v-5.294h1.593Z" transform="translate(-87.344 -234.065)" fill="#22cac5"/>
    <path id="Trazado_878167" data-name="Trazado 878167" d="M167.011,229.248a.774.774,0,0,0-.774.774v10.8a.774.774,0,0,0,.774.774h3.142a.774.774,0,0,0,.774-.774v-10.8a.774.774,0,0,0-.774-.774Zm2.368,10.8h-1.593V230.8h1.593Z" transform="translate(-149.071 -199.694)" fill="#22cac5"/>
    <path id="Trazado_878168" data-name="Trazado 878168" d="M235.847,267.576a.774.774,0,0,0-.774.774v6.843a.774.774,0,0,0,.774.774h3.142a.774.774,0,0,0,.774-.774V268.35a.774.774,0,0,0-.774-.774Zm2.367,6.844h-1.593v-5.294h1.593Z" transform="translate(-210.799 -234.065)" fill="#22cac5"/>
    <path id="Trazado_878169" data-name="Trazado 878169" d="M304.683,311.832a.774.774,0,0,0-.774.774v2.274a.774.774,0,0,0,.774.774h3.142a.774.774,0,0,0,0-1.549h-2.367v-1.5A.774.774,0,0,0,304.683,311.832Z" transform="translate(-272.527 -273.751)" fill="#22cac5"/>
    <path id="Trazado_878170" data-name="Trazado 878170" d="M317.491,169.21l-4.443-7.7a10.128,10.128,0,1,0-10.014,2.858,10.178,10.178,0,0,0,2.636.349,10,10,0,0,0,2.28-.263l4.442,7.7a2.944,2.944,0,1,0,5.1-2.944Zm-14.057-6.334a8.574,8.574,0,1,1,6.506-.857A8.518,8.518,0,0,1,303.434,162.876Zm12.2,9.014a1.4,1.4,0,0,1-1.906-.51l-4.274-7.4a10.166,10.166,0,0,0,2.415-1.4l4.275,7.4a1.394,1.394,0,0,1-.51,1.906Z" transform="translate(-265.015 -123.675)" fill="#22cac5"/>
    <path id="Trazado_878171" data-name="Trazado 878171" d="M336.679,180.78a7.329,7.329,0,0,0-.367-5.309.774.774,0,1,0-1.4.66,5.8,5.8,0,1,1-1.749-2.161.774.774,0,1,0,.935-1.235,7.355,7.355,0,1,0,2.582,8.045Z" transform="translate(-289.018 -147.678)" fill="#22cac5"/>
  </g>
</svg>
