<svg xmlns="http://www.w3.org/2000/svg" width="80.153" height="81.948" viewBox="0 0 80.153 81.948">
  <g id="Grupo_1102421" data-name="Grupo 1102421" transform="translate(-10 -5)">
    <path id="Trazado_878523" data-name="Trazado 878523" d="M333.282,253h-25.3a.979.979,0,0,0-.979.979v5.714a.979.979,0,0,0,.979.979h25.3a.979.979,0,0,0,.979-.979v-5.714A.979.979,0,0,0,333.282,253Zm-1.143,5.714H308.959v-3.755h23.181Z" transform="translate(-248.517 -207.516)" fill="#22cac5"/>
    <path id="Trazado_878524" data-name="Trazado 878524" d="M313.476,442.226a3.919,3.919,0,1,0-3.919-3.919A3.919,3.919,0,0,0,313.476,442.226Zm0-5.879a1.96,1.96,0,1,1-1.96,1.96,1.96,1.96,0,0,1,1.96-1.96Z" transform="translate(-250.656 -359.293)" fill="#22cac5"/>
    <path id="Trazado_878525" data-name="Trazado 878525" d="M370.426,442.226a3.919,3.919,0,1,0-3.919-3.919A3.919,3.919,0,0,0,370.426,442.226Zm0-5.879a1.96,1.96,0,1,1-1.96,1.96,1.96,1.96,0,0,1,1.96-1.96Z" transform="translate(-298.31 -359.293)" fill="#22cac5"/>
    <path id="Trazado_878526" data-name="Trazado 878526" d="M427.377,442.226a3.919,3.919,0,1,0-3.919-3.919A3.919,3.919,0,0,0,427.377,442.226Zm0-5.879a1.96,1.96,0,1,1-1.96,1.96,1.96,1.96,0,0,1,1.96-1.96Z" transform="translate(-345.964 -359.293)" fill="#22cac5"/>
    <path id="Trazado_878527" data-name="Trazado 878527" d="M313.476,389.251a3.919,3.919,0,1,0-3.919-3.919A3.919,3.919,0,0,0,313.476,389.251Zm0-5.879a1.96,1.96,0,1,1-1.96,1.959A1.96,1.96,0,0,1,313.476,383.372Z" transform="translate(-250.656 -314.966)" fill="#22cac5"/>
    <path id="Trazado_878528" data-name="Trazado 878528" d="M370.426,389.251a3.919,3.919,0,1,0-3.919-3.919A3.919,3.919,0,0,0,370.426,389.251Zm0-5.879a1.96,1.96,0,1,1-1.96,1.959A1.96,1.96,0,0,1,370.426,383.372Z" transform="translate(-298.31 -314.966)" fill="#22cac5"/>
    <path id="Trazado_878529" data-name="Trazado 878529" d="M427.377,389.251a3.919,3.919,0,1,0-3.919-3.919A3.919,3.919,0,0,0,427.377,389.251Zm0-5.879a1.96,1.96,0,1,1-1.96,1.959A1.96,1.96,0,0,1,427.377,383.372Z" transform="translate(-345.964 -314.966)" fill="#22cac5"/>
    <path id="Trazado_878530" data-name="Trazado 878530" d="M313.476,336.279a3.919,3.919,0,1,0-3.919-3.919,3.919,3.919,0,0,0,3.919,3.919Zm0-5.879a1.96,1.96,0,1,1-1.96,1.96A1.96,1.96,0,0,1,313.476,330.4Z" transform="translate(-250.656 -270.641)" fill="#22cac5"/>
    <path id="Trazado_878531" data-name="Trazado 878531" d="M370.426,336.279a3.919,3.919,0,1,0-3.919-3.919A3.919,3.919,0,0,0,370.426,336.279Zm0-5.879a1.96,1.96,0,1,1-1.96,1.96A1.96,1.96,0,0,1,370.426,330.4Z" transform="translate(-298.31 -270.641)" fill="#22cac5"/>
    <path id="Trazado_878532" data-name="Trazado 878532" d="M427.377,336.279a3.919,3.919,0,1,0-3.919-3.919A3.919,3.919,0,0,0,427.377,336.279Zm0-5.879a1.96,1.96,0,1,1-1.96,1.96A1.96,1.96,0,0,1,427.377,330.4Z" transform="translate(-345.964 -270.641)" fill="#22cac5"/>
    <path id="Trazado_878533" data-name="Trazado 878533" d="M164.733,309h-10.2a.979.979,0,0,0,0,1.959h10.2a.979.979,0,0,0,0-1.959Z" transform="translate(-120.117 -254.374)" fill="#22cac5"/>
    <path id="Trazado_878534" data-name="Trazado 878534" d="M125.964,310.959h1a.979.979,0,0,0,0-1.959h-1a.979.979,0,0,0,0,1.959Z" transform="translate(-96.214 -254.374)" fill="#22cac5"/>
    <path id="Trazado_878535" data-name="Trazado 878535" d="M180.815,360h-5.328a.979.979,0,0,0,0,1.959h5.328a.979.979,0,0,0,0-1.959Z" transform="translate(-137.653 -297.049)" fill="#22cac5"/>
    <path id="Trazado_878536" data-name="Trazado 878536" d="M130.222,360h-4.258a.979.979,0,0,0,0,1.959h4.258a.979.979,0,1,0,0-1.959Z" transform="translate(-96.214 -297.049)" fill="#22cac5"/>
    <path id="Trazado_878537" data-name="Trazado 878537" d="M101.979,46.806a.979.979,0,0,0-.979.979v.394a.979.979,0,0,0,1.959,0v-.394a.979.979,0,0,0-.979-.979Z" transform="translate(-76.145 -34.981)" fill="#22cac5"/>
    <path id="Trazado_878538" data-name="Trazado 878538" d="M101.979,72.649a.979.979,0,0,0-.979.979V86.6a.979.979,0,0,0,1.959,0V73.628A.979.979,0,0,0,101.979,72.649Z" transform="translate(-76.145 -56.606)" fill="#22cac5"/>
    <path id="Trazado_878539" data-name="Trazado 878539" d="M156.517,64.854A14.453,14.453,0,1,0,170.97,79.307,14.453,14.453,0,0,0,156.517,64.854ZM168.989,78.59h-10.37l7.392-7.392A12.435,12.435,0,0,1,168.989,78.59ZM156.517,66.813a12.437,12.437,0,0,1,8.109,3l-8.1,8.1-6.378-9.35A12.416,12.416,0,0,1,156.517,66.813Zm0,24.988a12.488,12.488,0,0,1-7.973-22.1l7.11,10.426a.979.979,0,0,0,.809.428h12.486A12.511,12.511,0,0,1,156.517,91.8Z" transform="translate(-110.505 -50.083)" fill="#22cac5"/>
    <path id="Trazado_878540" data-name="Trazado 878540" d="M85.191,41.4H72.033V20.3a2.723,2.723,0,0,0-.771-1.917L59.015,5.828A2.745,2.745,0,0,0,57.058,5H22.8a2.7,2.7,0,0,0-2.679,2.744v2.643H17.515a2.736,2.736,0,0,0-1.959.769,2.665,2.665,0,0,0-.822,1.9v1.573H12.759a2.713,2.713,0,0,0-1.948.773A2.661,2.661,0,0,0,10,17.31V82.375a2.788,2.788,0,0,0,2.761,2.777H54.89a4.951,4.951,0,0,0,3.82,1.8H85.191a4.961,4.961,0,0,0,4.961-4.961V46.364A4.961,4.961,0,0,0,85.192,41.4ZM58.483,8.087l10.3,10.626H63.442a4.961,4.961,0,0,1-3.507-1.492,5.018,5.018,0,0,1-1.451-3.546Zm-41.79,4.971a.719.719,0,0,1,.25-.518.8.8,0,0,1,.574-.194h2.6v60.64a2.653,2.653,0,0,0,2.681,2.7H53.749v3.1H17.518a.87.87,0,0,1-.825-.84ZM12.761,83.194a.818.818,0,0,1-.564-.246.828.828,0,0,1-.239-.572V17.309a.716.716,0,0,1,.238-.521.772.772,0,0,1,.563-.2h1.973V77.946a2.829,2.829,0,0,0,2.783,2.8H53.749v1.242a4.967,4.967,0,0,0,.149,1.208ZM53.749,46.364v8.711a.978.978,0,0,0-.823-.45H49.261a.979.979,0,1,0,0,1.959h3.665a.978.978,0,0,0,.823-.449v6.816H46.928a.979.979,0,1,0,0,1.959h6.821v8.815H22.8a.69.69,0,0,1-.524-.207.7.7,0,0,1-.2-.533V7.742a.736.736,0,0,1,.722-.784H56.524v6.715a6.983,6.983,0,0,0,6.916,7h6.633V41.4H58.71a4.961,4.961,0,0,0-4.961,4.961ZM88.357,81.987a3.022,3.022,0,0,1-3.022,3H58.789a3.074,3.074,0,0,1-3.081-3v-25.4H88.357Zm0-27.361H55.708V46.368a3.077,3.077,0,0,1,3.081-3.006H85.335a3.025,3.025,0,0,1,3.022,3.006Z" fill="#22cac5"/>
  </g>
</svg>
