<svg xmlns="http://www.w3.org/2000/svg" width="81.847" height="81.847" viewBox="0 0 81.847 81.847">
  <path id="Trazado_878542" data-name="Trazado 878542" d="M89.687,9H39.815a1.16,1.16,0,0,0-.82.34L26.064,22.271a1.16,1.16,0,0,0-.34.82V53.532a11.461,11.461,0,0,0-10.447,11.4,10.21,10.21,0,0,0,2.062,6.382,14.141,14.141,0,0,1,2.552,7.074,2.863,2.863,0,0,0-1.712,2.618v3.671a2.864,2.864,0,0,0,2.86,2.86h.588v.545a2.767,2.767,0,0,0,2.764,2.764H89.687a1.16,1.16,0,0,0,1.16-1.16V10.16A1.16,1.16,0,0,0,89.687,9ZM38.655,12.96v8.971H29.684ZM17.6,64.932a9.127,9.127,0,0,1,18.255,0,7.986,7.986,0,0,1-1.691,5.123,16.527,16.527,0,0,0-2.91,8.09H27.885V67.516L31.716,65.3a1.16,1.16,0,0,0-1.16-2.009l-3.832,2.212L22.893,63.3a1.16,1.16,0,0,0-1.16,2.009l3.831,2.212V78.146H22.2a16.527,16.527,0,0,0-2.91-8.09A7.983,7.983,0,0,1,17.6,64.932ZM29.5,86.377v1.705a.451.451,0,0,1-.442.445H24.393a.451.451,0,0,1-.445-.445V86.377a1.16,1.16,0,0,0-1.16-1.16H21.04a.548.548,0,0,1-.541-.541V81.006a.548.548,0,0,1,.541-.541H32.409a.548.548,0,0,1,.541.541v3.671a.548.548,0,0,1-.541.541H30.661A1.16,1.16,0,0,0,29.5,86.377Zm59.026,2.15H31.785a2.771,2.771,0,0,0,.036-.445v-.545h.589a2.864,2.864,0,0,0,2.86-2.86V81.006a2.863,2.863,0,0,0-1.712-2.618,14.145,14.145,0,0,1,2.552-7.074,10.21,10.21,0,0,0,2.062-6.382A11.462,11.462,0,0,0,28.044,53.564V24.251H39.815a1.16,1.16,0,0,0,1.16-1.16V11.32H88.527ZM14.191,54.039a1.16,1.16,0,0,1,1.64-1.64l1.809,1.809A1.16,1.16,0,0,1,16,55.848Zm-.314,10.893a1.16,1.16,0,0,1-1.16,1.16H10.16a1.16,1.16,0,0,1,0-2.32h2.558A1.16,1.16,0,0,1,13.877,64.932Zm3.763,9.084a1.16,1.16,0,0,1,0,1.64l-1.809,1.809a1.16,1.16,0,0,1-1.64-1.64L16,74.017A1.16,1.16,0,0,1,17.64,74.017ZM58.285,46.091A15.821,15.821,0,1,0,42.464,30.27,15.839,15.839,0,0,0,58.285,46.091Zm0-29.323a13.5,13.5,0,1,1-13.5,13.5A13.517,13.517,0,0,1,58.285,16.768Zm0,25.408A11.907,11.907,0,1,0,46.379,30.27,11.92,11.92,0,0,0,58.285,42.177Zm0-21.494A9.587,9.587,0,1,1,48.7,30.27,9.6,9.6,0,0,1,58.285,20.683Zm-4.049,7.055a3.8,3.8,0,0,1,2.869-3.578l-.013-.565a1.16,1.16,0,0,1,1.132-1.187h.028a1.16,1.16,0,0,1,1.159,1.132l.015.643a4.361,4.361,0,0,1,2.392,1.531,1.16,1.16,0,1,1-1.938,1.274,2.915,2.915,0,0,0-1.594-.67,1.6,1.6,0,0,0-1.729,1.42,1.6,1.6,0,0,0,1.729,1.42,3.908,3.908,0,0,1,4.049,3.74,3.8,3.8,0,0,1-2.867,3.577l.011.471a1.16,1.16,0,0,1-1.131,1.187h-.028A1.16,1.16,0,0,1,57.16,37l-.012-.506a4.769,4.769,0,0,1-2.076-1.283,1.16,1.16,0,0,1,1.592-1.687,2.036,2.036,0,0,0,1.622.793,1.6,1.6,0,0,0,1.73-1.42,1.6,1.6,0,0,0-1.73-1.42A3.908,3.908,0,0,1,54.236,27.737ZM41.773,68.377a1.16,1.16,0,0,1,1.763-1.507l2.758,3.225,5.7-6.088a1.16,1.16,0,1,1,1.693,1.585L47.1,72.626a1.159,1.159,0,0,1-.847.367h-.026a1.16,1.16,0,0,1-.855-.406Zm0-12.4a1.16,1.16,0,0,1,1.763-1.507l2.758,3.225,5.7-6.088a1.16,1.16,0,1,1,1.693,1.585L47.1,60.221a1.159,1.159,0,0,1-.847.367h-.026a1.16,1.16,0,0,1-.855-.406ZM53.631,76.357A1.16,1.16,0,0,1,53.686,78L47.1,85.031a1.159,1.159,0,0,1-.847.367h-.026a1.16,1.16,0,0,1-.855-.406l-3.6-4.21a1.16,1.16,0,0,1,1.763-1.507L46.294,82.5l5.7-6.088a1.16,1.16,0,0,1,1.639-.054Zm5.279-24.294H83.317a1.16,1.16,0,0,1,0,2.32H58.911a1.16,1.16,0,1,1,0-2.32ZM57.751,58.6a1.16,1.16,0,0,1,1.16-1.16h12.2a1.16,1.16,0,1,1,0,2.32h-12.2A1.16,1.16,0,0,1,57.751,58.6Zm0,12.4a1.16,1.16,0,0,1,1.16-1.16h12.2a1.16,1.16,0,1,1,0,2.32h-12.2A1.16,1.16,0,0,1,57.751,71.005Zm26.726-5.377a1.16,1.16,0,0,1-1.16,1.16H58.911a1.16,1.16,0,1,1,0-2.32H83.317A1.16,1.16,0,0,1,84.477,65.628ZM72.274,83.41a1.16,1.16,0,0,1-1.16,1.16h-12.2a1.16,1.16,0,1,1,0-2.32h12.2A1.16,1.16,0,0,1,72.274,83.41Zm12.2-5.377a1.16,1.16,0,0,1-1.16,1.16H58.911a1.16,1.16,0,1,1,0-2.32H83.317A1.16,1.16,0,0,1,84.477,78.032Z" transform="translate(-9 -9)" fill="#201144"/>
</svg>
