<svg xmlns="http://www.w3.org/2000/svg" width="22.5" height="16.35" viewBox="0 0 22.5 16.35">
  <g id="Icon_akar-money" data-name="Icon akar-money" transform="translate(1 1)">
    <path id="Trazado_878543" data-name="Trazado 878543" d="M3,9.55A2.05,2.05,0,0,1,5.05,7.5h16.4A2.05,2.05,0,0,1,23.5,9.55V19.8a2.05,2.05,0,0,1-2.05,2.05H5.05A2.05,2.05,0,0,1,3,19.8Z" transform="translate(-3 -7.5)" fill="none" stroke="#b15815" stroke-linecap="round" stroke-linejoin="round" stroke-width="2"/>
    <path id="Trazado_878544" data-name="Trazado 878544" d="M19.65,16.575A3.075,3.075,0,1,1,16.575,13.5,3.075,3.075,0,0,1,19.65,16.575Z" transform="translate(-6.325 -9.4)" fill="none" stroke="#b15815" stroke-linecap="round" stroke-linejoin="round" stroke-width="2"/>
    <path id="Trazado_878545" data-name="Trazado 878545" d="M3,11.6H3A4.1,4.1,0,0,0,7.1,7.5h0M19.4,21.85h0a4.1,4.1,0,0,1,4.1-4.1h0" transform="translate(-3 -7.5)" fill="none" stroke="#b15815" stroke-linecap="round" stroke-linejoin="round" stroke-width="2"/>
  </g>
</svg>
